<svg xmlns="http://www.w3.org/2000/svg" width="31.001" height="31.001" viewBox="0 0 31.001 31.001">
  <path id="_Color" data-name=" ↳Color" d="M15.5,31A15.5,15.5,0,1,1,31,15.5,15.518,15.518,0,0,1,15.5,31ZM11.381,23.15h0A8.692,8.692,0,1,0,15.506,6.808h-.029a8.679,8.679,0,0,0-7.635,12.8l-1,3.336a.967.967,0,0,0,1.2,1.2l3.336-1Zm4.12-.889h-.008A6.727,6.727,0,0,1,12,21.28a.97.97,0,0,0-.779-.1l-2.015.6.6-2.015a.965.965,0,0,0-.1-.778A6.754,6.754,0,1,1,15.5,22.261Zm-.974-8.691a.966.966,0,0,0,0,1.931v3.863a.965.965,0,0,0,.966.966h.966a.966.966,0,0,0,0-1.931V14.535a.965.965,0,0,0-.966-.966Zm.966-2.9a.966.966,0,1,0,.966.966A.967.967,0,0,0,15.493,10.672Z" fill="#fff"/>
</svg>
