<svg xmlns="http://www.w3.org/2000/svg" width="14.613" height="14.613" viewBox="0 0 14.613 14.613">
  <g id="noun-log-out-2431941" transform="translate(394.815 -272.179)">
    <path id="Trazado_5267" data-name="Trazado 5267" d="M132.3,60.387h10.8a1.913,1.913,0,0,1,1.907,1.907v.784H137.05a2.817,2.817,0,0,0-2.809,2.809V69.5a2.817,2.817,0,0,0,2.809,2.809h7.959v.784A1.913,1.913,0,0,1,143.1,75H132.3a1.913,1.913,0,0,1-1.907-1.907v-10.8a1.913,1.913,0,0,1,1.907-1.907Zm4.137,6.468a.839.839,0,0,0,0,1.678h4.9l-.95.95a.839.839,0,0,0,1.187,1.187l2.378-2.378a.839.839,0,0,0,0-1.2l-2.378-2.378a.839.839,0,0,0-1.187,1.187l.95.951Z" transform="translate(-525.211 211.792)" fill="#eb5d37" fill-rule="evenodd"/>
  </g>
</svg>
