<svg xmlns="http://www.w3.org/2000/svg" width="31.001" height="31" viewBox="0 0 31.001 31">
  <path id="_Color" data-name=" ↳Color" d="M15.5,31A15.5,15.5,0,1,1,31,15.5,15.518,15.518,0,0,1,15.5,31ZM10.021,7.862l-.2.21A8.791,8.791,0,0,0,8.244,21.983c0,.306-.317,2.265-.521,3.428l-.035.2.194-.064c.031-.011.135-.064.856-.443l.092-.048c.8-.418,2.13-1.116,2.371-1.209a7.734,7.734,0,0,0,2.992.571,9.159,9.159,0,0,0,4.817-1.366l-.1-.221a7.813,7.813,0,0,1-1.984.258c-.1,0-.2,0-.293-.005h-.021l-.021.006a7.557,7.557,0,0,1-5.589-.393l-.061-.03-.057.037c-.872.551-1.495.925-1.864,1.141.072-.32.225-1.005.422-2.013l.014-.07-.053-.046A8.19,8.19,0,0,1,6.49,15.925a7.647,7.647,0,0,1,2.128-5.675l.013-.014.008-.017a7.587,7.587,0,0,1,1.33-1.946l.052-.02ZM20.592,22.049h0c.288.1,2.01,1.072,3.028,1.663l.184.106v-.212c0-.031-.023-.2-.109-.837l0-.028c-.112-.826-.344-2.544-.349-2.82a8.4,8.4,0,0,0,1.395-9.174,8.724,8.724,0,0,0-8.056-5.359c-.1,0-.2,0-.281,0a8.331,8.331,0,0,0-6.346,2.894A9.132,9.132,0,0,0,8.02,14.306a9.168,9.168,0,0,0,2.221,5.971,8.3,8.3,0,0,0,6.415,2.709h.005a8.853,8.853,0,0,0,3.93-.938ZM16.662,22a7.4,7.4,0,0,1-5.726-2.41A8.155,8.155,0,0,1,8.969,14.26c-.047-3.719,2.279-7.78,7.5-7.911l.206,0a7.7,7.7,0,0,1,7.214,4.839A7.712,7.712,0,0,1,22.2,19.724l-.013.013-.031.057.011.045c.248,1.068.381,1.783.438,2.113-.281-.183-.879-.567-1.741-1.076l-.06-.035-.061.033A7.966,7.966,0,0,1,16.662,22Zm2.169-8.391a.95.95,0,1,0,.95.95A.951.951,0,0,0,18.831,13.61Zm-2.083,0a.95.95,0,1,0,.95.95A.951.951,0,0,0,16.747,13.61Zm-2.055,0a.95.95,0,1,0,.95.95A.951.951,0,0,0,14.693,13.61Z" fill="#fff"/>
</svg>
