<svg xmlns="http://www.w3.org/2000/svg" width="14.613" height="15.711" viewBox="0 0 14.613 15.711">
  <g id="noun-shipping-1906125" transform="translate(-89.993 -14.001)">
    <path id="Trazado_5245" data-name="Trazado 5245" d="M316.72,159.58a.708.708,0,0,0,.876.463l4.381-1.355a.708.708,0,0,0,.463-.876l-1.356-4.381a.708.708,0,0,0-.876-.463l-4.381,1.356a.708.708,0,0,0-.463.876Z" transform="translate(-219.056 -134.834)" fill="#eb5d37"/>
    <path id="Trazado_5246" data-name="Trazado 5246" d="M117.063,25.143a.708.708,0,0,0-.876-.463l-5.025,1.554a1.568,1.568,0,0,1-1.951-1.025L105.888,14.5a.709.709,0,0,0-.678-.5h-2.017a.706.706,0,0,0-.711.711.692.692,0,0,0,.711.694h1.5l3.174,10.216a2.956,2.956,0,0,0,.562,1.025,1.6,1.6,0,0,0,1.141,2.992,1.583,1.583,0,0,0,1.074-1.918h.05a3.216,3.216,0,0,0,.876-.132l5.025-1.554a.718.718,0,0,0,.463-.893Z" transform="translate(-12.49)" fill="#eb5d37"/>
  </g>
</svg>
