<svg xmlns="http://www.w3.org/2000/svg" width="31.001" height="31" viewBox="0 0 31.001 31">
  <path id="_Color" data-name=" ↳Color" d="M15.5,31A15.5,15.5,0,1,1,31,15.5,15.518,15.518,0,0,1,15.5,31Zm3.805-10a1.9,1.9,0,1,0,1.9,1.9A1.931,1.931,0,0,0,19.305,21Zm-6.3,0a1.9,1.9,0,1,0,1.9,1.9A1.905,1.905,0,0,0,13.009,21ZM6.237,8.449a.567.567,0,0,0,0,1.135H8.1a.6.6,0,0,1,.586.457l2.233,8.895a1.764,1.764,0,0,0,1.7,1.337h7.3a1.754,1.754,0,0,0,1.7-1.337L23,13.3a1.667,1.667,0,0,0-.33-1.482,1.757,1.757,0,0,0-1.373-.678H10.154L9.806,9.785A1.764,1.764,0,0,0,8.1,8.449ZM19.305,23.658a.751.751,0,1,1,.751-.751A.77.77,0,0,1,19.305,23.658Zm-6.3,0a.751.751,0,1,1,.751-.751A.77.77,0,0,1,13.009,23.658Zm6.918-4.521h-7.3a.6.6,0,0,1-.585-.458l-1.593-6.387H21.3a.606.606,0,0,1,.476.238.569.569,0,0,1,.11.512L20.513,18.68A.6.6,0,0,1,19.927,19.138Z" fill="#fff"/>
</svg>
