<?xml version="1.0" standalone="no"?>
<!DOCTYPE svg PUBLIC "-//W3C//DTD SVG 1.1//EN" "http://www.w3.org/Graphics/SVG/1.1/DTD/svg11.dtd" >
<svg xmlns="http://www.w3.org/2000/svg" xmlns:xlink="http://www.w3.org/1999/xlink" version="1.1">
<metadata>
Created by FontForge 20170731 at Wed Dec 29 19:52:40 2021
 By Aleksey,,,
Copyright (c) 2016 by Tomas Brousil, Marek Pistora. All rights reserved.
</metadata>
<defs>
<font id="BCNovaticaCYR-Regular" horiz-adv-x="1228" >
  <font-face 
    font-family="BC Novatica CYR"
    font-weight="400"
    font-stretch="normal"
    units-per-em="2048"
    panose-1="0 0 5 0 0 0 0 0 0 0"
    ascent="1638"
    descent="-410"
    x-height="1057"
    cap-height="1462"
    bbox="-1038 -428 2329 1970"
    underline-thickness="102"
    underline-position="-307"
    unicode-range="U+0020-25CA"
  />
<missing-glyph horiz-adv-x="552" 
 />
    <glyph glyph-name=".notdef" horiz-adv-x="552" 
 />
    <glyph glyph-name=".null" horiz-adv-x="0" 
 />
    <glyph glyph-name="nonmarkingreturn" horiz-adv-x="682" 
 />
    <glyph glyph-name="space" unicode=" " horiz-adv-x="552" 
 />
    <glyph glyph-name="exclam" unicode="!" horiz-adv-x="489" 
d="M319 395h-147l-35 1067h217zM246 -14q-58 0 -95.5 38t-37.5 97q0 56 37.5 93.5t95.5 37.5q57 0 94 -37.5t37 -93.5q0 -59 -37 -97t-94 -38z" />
    <glyph glyph-name="quotedbl" unicode="&#x22;" horiz-adv-x="786" 
d="M289 868h-135l-31 594h196zM633 868h-135l-31 594h197z" />
    <glyph glyph-name="numbersign" unicode="#" horiz-adv-x="1531" 
d="M303 0h-176l102 326h-219v155h269l155 500h-233v156h282l103 325h176l-105 -325h469l105 325h176l-104 -325h217v-156h-265l-157 -500h243v-155h-292l-101 -326h-176l100 326h-466zM610 981l-155 -500h467l155 500h-467z" />
    <glyph glyph-name="dollar" unicode="$" horiz-adv-x="1298" 
d="M1237 389q0 -78 -30 -147.5t-88.5 -126t-154.5 -93.5t-219 -47v-249h-184v249q-127 10 -223.5 48t-155 96.5t-87.5 131t-29 155.5v28h184v-18q0 -128 97.5 -206.5t301.5 -78.5q201 0 300.5 71.5t99.5 188.5q0 62 -32.5 106.5t-87 70t-125 43.5t-148.5 33t-156.5 32.5
t-149 47.5t-125 72.5t-87 113t-32.5 163.5q0 80 28 150t82.5 126t142.5 92t202 46v270h184v-270q118 -11 207 -49.5t141.5 -98t78.5 -132t26 -158.5v-21h-184v16q0 133 -88 210t-277 77q-177 0 -265.5 -71t-88.5 -185q0 -65 32 -112t86.5 -74t125.5 -46.5t149 -35t156 -33
t149 -46.5t125.5 -70.5t86.5 -109.5t32 -159z" />
    <glyph glyph-name="percent" unicode="%" horiz-adv-x="1617" 
d="M393 729q-68 0 -125 19.5t-105 62t-75 119t-27 180.5t27 180.5t75 119t105 62t125 19.5t124.5 -19.5t103.5 -62t73.5 -119t26.5 -180.5t-26.5 -180.5t-73.5 -119t-103.5 -62t-124.5 -19.5zM418 0h-185l969 1462h184zM391 866q75 0 121.5 59.5t46.5 184.5q0 124 -47 185
t-119 61q-74 0 -121 -60.5t-47 -185.5t46.5 -184.5t119.5 -59.5zM1229 -29q-68 0 -125 19.5t-105 62t-75 119t-27 180.5t27 180.5t75 119t105 62t125 19.5t124 -19.5t103 -62t73.5 -119t26.5 -180.5t-26.5 -180.5t-73.5 -119t-103 -62t-124 -19.5zM1227 109q75 0 121.5 59
t46.5 184q0 124 -47 185t-119 61q-74 0 -121 -60.5t-47 -185.5q0 -124 46.5 -183.5t119.5 -59.5z" />
    <glyph glyph-name="ampersand" unicode="&#x26;" horiz-adv-x="1411" 
d="M524 -29q-217 0 -350 104t-133 267q0 141 81 240.5t238 179.5v20q-194 161 -194 348q0 164 111.5 262.5t279.5 98.5q167 0 280 -96t113 -260q0 -239 -299 -371v-21l355 -301q56 143 59 312h178q-3 -243 -98 -428l262 -222l-115 -133l-256 219q-195 -219 -512 -219z
M518 852q117 61 182.5 128.5t65.5 152.5q0 91 -59.5 147.5t-151.5 56.5q-90 0 -148.5 -56t-58.5 -148q0 -68 40 -133.5t130 -147.5zM530 131q112 0 210 43.5t161 126.5l-422 361q-119 -65 -182.5 -137t-63.5 -169q0 -99 83.5 -162t213.5 -63z" />
    <glyph glyph-name="quotesingle" unicode="'" horiz-adv-x="442" 
d="M289 868h-135l-31 594h196z" />
    <glyph glyph-name="parenleft" unicode="(" horiz-adv-x="598" 
d="M625 -180h-197q-326 379 -326 905q0 531 326 917h197q-326 -417 -326 -917q0 -249 86.5 -480.5t239.5 -424.5z" />
    <glyph glyph-name="parenright" unicode=")" horiz-adv-x="598" 
d="M170 -180h-197q328 415 328 917q0 249 -87 481t-241 424h197q326 -379 326 -905q0 -531 -326 -917z" />
    <glyph glyph-name="asterisk" unicode="*" horiz-adv-x="956" 
d="M475 1040l-170 -284l-141 102l215 250l-318 74l54 166l305 -127l-29 329h174l-26 -329l303 127l53 -166l-322 -76l215 -248l-141 -102z" />
    <glyph glyph-name="plus" unicode="+" horiz-adv-x="1048" 
d="M614 260h-180v395h-373v154h373v395h180v-395h373v-154h-373v-395z" />
    <glyph glyph-name="comma" unicode="," horiz-adv-x="372" 
d="M172 -266h-131l55 512h215z" />
    <glyph glyph-name="hyphen" unicode="-" horiz-adv-x="522" 
d="M461 453h-400v153h400v-153z" />
    <glyph glyph-name="period" unicode="." horiz-adv-x="389" 
d="M197 -14q-59 0 -97.5 38.5t-38.5 96.5q0 56 39 93.5t97 37.5q55 0 93 -38t38 -93q0 -58 -37.5 -96.5t-93.5 -38.5z" />
    <glyph glyph-name="slash" unicode="/" horiz-adv-x="745" 
d="M111 -180h-172l696 1822h172z" />
    <glyph glyph-name="zero" unicode="0" horiz-adv-x="1142" 
d="M571 -29q-86 0 -160 23t-142.5 78.5t-116.5 140.5t-76.5 217.5t-28.5 300.5t28.5 300.5t76.5 217.5t116.5 140.5t142.5 78.5t160 23q85 0 159.5 -23t142.5 -78.5t116.5 -140.5t77.5 -217.5t29 -300.5t-29 -300.5t-77.5 -217.5t-116.5 -140.5t-142.5 -78.5t-159.5 -23z
M571 129q55 0 103 18t92 61.5t75 111t49.5 172.5t18.5 239q0 166 -27.5 287.5t-76 188.5t-106.5 97.5t-128 30.5q-55 0 -103 -18t-92.5 -62t-76 -111.5t-50 -173t-18.5 -239.5t18.5 -239t50 -172.5t76 -111t92.5 -61.5t103 -18z" />
    <glyph glyph-name="one" unicode="1" horiz-adv-x="710" 
d="M608 0h-180v1264h-20l-297 -172l-80 143l397 227h180v-1462z" />
    <glyph glyph-name="two" unicode="2" horiz-adv-x="1048" 
d="M999 0h-954v160l592 553q176 170 176 334q0 133 -78.5 210.5t-212.5 77.5q-133 0 -217 -82.5t-84 -248.5q0 -5 1 -18t1 -19h-180q-2 18 -2 59q0 92 27 172.5t82 147.5t150.5 106t221.5 39q217 0 346 -121t129 -323q0 -124 -75 -243.5t-185 -217.5l-442 -406v-20h704v-160
z" />
    <glyph glyph-name="three" unicode="3" horiz-adv-x="1075" 
d="M530 -29q-239 0 -366 123t-127 344q0 6 1 18.5t1 18.5h184q-2 -6 -2 -16q0 -171 85.5 -252.5t236.5 -81.5q137 0 221 80.5t84 208.5q0 124 -85 199t-214 75h-88v150h71q119 0 198 70t79 182q0 117 -79 182t-204 65q-129 0 -212 -75t-83 -224v-28h-184v30q0 148 63 251.5
t168.5 151.5t245.5 48q67 0 130 -11t126.5 -39t110 -71t75.5 -112.5t29 -157.5q0 -112 -62 -194t-167 -120v-20q114 -30 191 -128t77 -220q0 -113 -43 -201t-115.5 -140.5t-160.5 -79t-185 -26.5z" />
    <glyph glyph-name="four" unicode="4" horiz-adv-x="1087" 
d="M913 0h-182v344h-725v158l694 960h213v-960h154v-158h-154v-344zM201 522v-20h530v721h-20z" />
    <glyph glyph-name="five" unicode="5" horiz-adv-x="1083" 
d="M541 -29q-107 0 -192.5 22.5t-141 60.5t-92.5 90.5t-52.5 109.5t-15.5 121q0 6 1 19t1 18h184v-27q0 -116 77 -188t227 -72q146 0 232.5 85t86.5 241q0 137 -77.5 223t-227.5 86q-93 0 -163 -30.5t-126 -104.5l-174 32l45 805h811v-166h-659l-27 -485h18q74 51 143 72.5
t169 21.5q198 0 326 -121t128 -335q0 -150 -68.5 -260t-180.5 -164t-252 -54z" />
    <glyph glyph-name="six" unicode="6" horiz-adv-x="1157" 
d="M602 -29q-129 0 -227.5 40t-160 106t-100 163t-53 199.5t-14.5 225.5q0 379 141.5 582.5t403.5 203.5q116 0 206 -32t146.5 -89.5t87 -131.5t35.5 -163h-184q-14 124 -87 195t-200 71q-365 0 -365 -639h21q132 191 389 191q137 0 242 -49.5t167 -153.5t62 -250
q0 -200 -143.5 -334.5t-366.5 -134.5zM602 121q155 0 240.5 93t85.5 226q0 136 -81 222t-245 86q-154 0 -245 -91.5t-91 -222.5q0 -135 85 -224t251 -89z" />
    <glyph glyph-name="seven" unicode="7" horiz-adv-x="1013" 
d="M420 0h-199l580 1284v21h-785v157h973v-147z" />
    <glyph glyph-name="eight" unicode="8" horiz-adv-x="1157" 
d="M580 -29q-85 0 -161.5 14.5t-146.5 47.5t-120.5 82t-80.5 123t-30 165q0 127 79 225.5t191 129.5v20q-100 39 -165.5 124t-65.5 198q0 88 30.5 157.5t79.5 112.5t115.5 71t134 39t140.5 11t140 -11t134 -39t116.5 -71t80 -112.5t30.5 -157.5q0 -112 -66 -197.5
t-165 -124.5v-20q110 -31 188 -129.5t78 -225.5q0 -91 -29.5 -164.5t-79.5 -123t-119 -82.5t-146 -47.5t-162 -14.5zM580 838q143 0 229 63t86 186t-87 186.5t-228 63.5q-142 0 -228 -63.5t-86 -186.5t86 -186t228 -63zM580 125q160 0 256 72.5t96 210.5q0 136 -96 207
t-256 71q-159 0 -257 -71t-98 -207q0 -138 98 -210.5t257 -72.5z" />
    <glyph glyph-name="nine" unicode="9" horiz-adv-x="1157" 
d="M565 -29q-116 0 -206 32.5t-146 90.5t-86.5 132t-36.5 163h184q12 -123 86 -195.5t201 -72.5q367 0 367 639h-21q-83 -104 -175 -147.5t-216 -43.5q-209 0 -339 117.5t-130 335.5q0 201 143 335t367 134q555 0 555 -733q0 -377 -143 -582t-404 -205zM557 715
q152 0 240 91.5t88 223.5q0 64 -19 119t-57.5 98.5t-103 68.5t-148.5 25q-155 0 -241.5 -93t-86.5 -226q0 -65 19 -119t57.5 -97t102.5 -67t149 -24z" />
    <glyph glyph-name="colon" unicode=":" horiz-adv-x="389" 
d="M197 805q-59 0 -97.5 38.5t-38.5 96.5q0 56 39 93.5t97 37.5q55 0 93 -37.5t38 -93.5q0 -58 -37.5 -96.5t-93.5 -38.5zM197 -14q-59 0 -97.5 38.5t-38.5 96.5q0 56 39 93.5t97 37.5q55 0 93 -38t38 -93q0 -58 -37.5 -96.5t-93.5 -38.5z" />
    <glyph glyph-name="semicolon" unicode=";" horiz-adv-x="389" 
d="M197 805q-59 0 -97.5 38.5t-38.5 96.5q0 56 39 93.5t97 37.5q55 0 93 -37.5t38 -93.5q0 -58 -37.5 -96.5t-93.5 -38.5zM172 -266h-131l55 512h215z" />
    <glyph glyph-name="less" unicode="&#x3c;" horiz-adv-x="1048" 
d="M987 473v-180l-926 338v207l926 336v-170l-737 -256v-21z" />
    <glyph glyph-name="equal" unicode="=" horiz-adv-x="1048" 
d="M987 840h-926v155h926v-155zM987 469h-926v156h926v-156z" />
    <glyph glyph-name="greater" unicode="&#x3e;" horiz-adv-x="1048" 
d="M987 629l-926 -336v168l738 258v20l-738 254v181l926 -340v-205z" />
    <glyph glyph-name="question" unicode="?" horiz-adv-x="1128" 
d="M639 395h-145l-13 346q98 7 173.5 37t119.5 75t66 97.5t22 110.5q0 129 -76 201.5t-221 72.5q-132 0 -216.5 -77.5t-84.5 -227.5q0 -29 2 -43h-180q-2 18 -2 57q0 88 28 166t83.5 142t150 101.5t217.5 37.5q234 0 359 -113t125 -321q0 -165 -105.5 -280t-294.5 -161z
M567 -14q-59 0 -97 38t-38 97q0 56 38.5 93.5t96.5 37.5q55 0 93 -38t38 -93q0 -58 -37.5 -96.5t-93.5 -38.5z" />
    <glyph glyph-name="at" unicode="@" horiz-adv-x="2265" 
d="M1044 -418q-204 0 -376 62.5t-291.5 174t-186.5 271.5t-67 350q0 227 86.5 424t234 334t349 215t426.5 78q274 0 483.5 -106t324.5 -300.5t115 -447.5q0 -126 -29 -230t-76.5 -173.5t-111 -117.5t-130.5 -69.5t-136 -21.5q-99 0 -170 48t-84 134h-16q-134 -180 -375 -180
q-185 0 -292.5 113.5t-107.5 310.5q0 260 146.5 416.5t374.5 156.5q218 0 315 -156h16l33 131h146l-80 -653q-4 -40 -4 -55q0 -67 30 -93t86 -26q55 0 107 29t95 84.5t69 147t26 204.5q0 319 -204.5 511.5t-550.5 192.5q-187 0 -354.5 -64t-294 -178.5t-201 -285.5
t-74.5 -373q0 -209 91.5 -369t262 -248.5t395.5 -88.5q271 0 510 131l74 -135q-268 -148 -584 -148zM1053 176q164 0 267 111t103 301q0 132 -72 209t-206 77q-162 0 -262.5 -114.5t-100.5 -290.5q0 -136 74.5 -214.5t196.5 -78.5z" />
    <glyph glyph-name="A" unicode="A" horiz-adv-x="1329" 
d="M158 0h-199l598 1462h215l598 -1462h-207l-145 367h-715zM651 1243l-286 -713h591l-284 713h-21z" />
    <glyph glyph-name="B" unicode="B" horiz-adv-x="1320" 
d="M809 0h-707v1462h666q119 0 208 -29.5t141 -82t77 -118t25 -145.5q0 -243 -211 -333v-21q128 -42 190 -136.5t62 -221.5q0 -80 -25 -146t-77 -118.5t-141 -81.5t-208 -29zM285 1303v-492h487q137 0 201.5 69.5t64.5 178.5q0 110 -64 177t-202 67h-487zM285 651v-489h522
q138 0 202 68t64 178q0 109 -64.5 176t-203.5 67h-520z" />
    <glyph glyph-name="C" unicode="C" horiz-adv-x="1443" 
d="M756 -29q-150 0 -275.5 47.5t-219.5 140t-147 238.5t-53 332q0 187 52.5 334t147 239.5t220 140.5t275.5 48q161 0 296.5 -59t226.5 -175t110 -270h-189q-29 158 -152.5 249t-291.5 91q-227 0 -365.5 -153t-138.5 -445q0 -289 138.5 -441.5t365.5 -152.5q169 0 292 91.5
t152 250.5h189q-19 -157 -110 -273.5t-226.5 -174.5t-296.5 -58z" />
    <glyph glyph-name="D" unicode="D" horiz-adv-x="1423" 
d="M657 0h-555v1462h555q120 0 223 -24t193 -79.5t153 -138.5t99.5 -207.5t36.5 -281.5q0 -152 -36 -274.5t-100 -207t-153 -141t-193 -82.5t-223 -26zM287 1298v-1134h370q89 0 164.5 18.5t141.5 61.5t112 107.5t72.5 161t26.5 218.5t-26.5 218.5t-72.5 161t-112 107.5
t-141.5 61.5t-164.5 18.5h-370z" />
    <glyph glyph-name="E" unicode="E" horiz-adv-x="1198" 
d="M1137 0h-1035v1462h1024v-164h-839v-485h747v-164h-747v-485h850v-164z" />
    <glyph glyph-name="F" unicode="F" horiz-adv-x="1126" 
d="M287 0h-185v1462h983v-164h-798v-546h706v-164h-706v-588z" />
    <glyph glyph-name="G" unicode="G" horiz-adv-x="1505" 
d="M739 -29q-144 0 -265.5 47.5t-214.5 139t-145.5 238t-52.5 333.5q0 189 53.5 336.5t148.5 239.5t221 139t276 47q160 0 293.5 -59t222 -174.5t110.5 -270.5h-188q-23 155 -147.5 247.5t-290.5 92.5q-231 0 -369.5 -151.5t-138.5 -446.5q0 -292 138 -443t370 -151
q82 0 160.5 25.5t144 74t108 129t46.5 179.5v22h-455v164h639v-729h-164l-20 176h-21q-91 -104 -212 -154.5t-247 -50.5z" />
    <glyph glyph-name="H" unicode="H" horiz-adv-x="1443" 
d="M287 0h-185v1462h185v-649h870v649h184v-1462h-184v649h-870v-649z" />
    <glyph glyph-name="I" unicode="I" horiz-adv-x="389" 
d="M287 0h-185v1462h185v-1462z" />
    <glyph glyph-name="J" unicode="J" horiz-adv-x="1097" 
d="M500 -29q-242 0 -359.5 121.5t-117.5 339.5v23h184q0 -157 69 -238.5t220 -81.5q162 0 238.5 98.5t76.5 311.5v917h184v-921q0 -294 -120.5 -432t-374.5 -138z" />
    <glyph glyph-name="K" unicode="K" horiz-adv-x="1251" 
d="M287 0h-185v1462h185v-661h20l703 661h241l-755 -712l796 -750h-266l-719 674h-20v-674z" />
    <glyph glyph-name="L" unicode="L" horiz-adv-x="1095" 
d="M1075 0h-973v1462h185v-1298h788v-164z" />
    <glyph glyph-name="M" unicode="M" horiz-adv-x="1734" 
d="M283 0h-181v1462h267l489 -1212h21l489 1212h264v-1462h-180v1157h-20l-471 -1157h-187l-471 1157h-20v-1157z" />
    <glyph glyph-name="N" unicode="N" horiz-adv-x="1443" 
d="M287 0h-185v1462h205l830 -1153h20v1153h184v-1462h-204l-830 1153h-20v-1153z" />
    <glyph glyph-name="O" unicode="O" horiz-adv-x="1546" 
d="M774 -29q-335 0 -524 198.5t-189 561.5t189 561.5t524 198.5q334 0 522.5 -198.5t188.5 -561.5t-188.5 -561.5t-522.5 -198.5zM774 135q247 0 384.5 155t137.5 441t-137.5 441t-384.5 155q-249 0 -385.5 -155t-136.5 -441t136.5 -441t385.5 -155z" />
    <glyph glyph-name="P" unicode="P" horiz-adv-x="1265" 
d="M287 0h-185v1462h557q120 0 214.5 -24.5t156 -66t101 -101.5t56.5 -127.5t17 -147.5q0 -79 -17 -146.5t-56.5 -128t-101 -103t-156 -67t-214.5 -24.5h-372v-526zM287 1298v-608h366q99 0 171 24t113 67t60 96t19 118q0 137 -86 220t-277 83h-366z" />
    <glyph glyph-name="Q" unicode="Q" horiz-adv-x="1544" 
d="M1526 -172l-92 -158l-537 310q-59 -9 -123 -9q-335 0 -524 198.5t-189 561.5t189 561.5t524 198.5q334 0 522.5 -198.5t188.5 -561.5q0 -482 -344 -659v-21zM774 135q247 0 384.5 155t137.5 441t-137.5 441t-384.5 155q-249 0 -385.5 -155t-136.5 -441t136.5 -441
t385.5 -155z" />
    <glyph glyph-name="R" unicode="R" horiz-adv-x="1349" 
d="M287 0h-185v1462h564q118 0 211 -22t153 -59t99 -90.5t55 -112.5t16 -129q0 -143 -59 -238.5t-201 -140.5v-21q122 -33 182 -115.5t95 -234.5l71 -299h-188l-68 287q-12 52 -24.5 87.5t-38.5 75t-61.5 63t-94 39t-135.5 15.5h-391v-567zM287 1298v-567h381
q179 0 261.5 80.5t82.5 206.5q0 127 -81.5 203.5t-262.5 76.5h-381z" />
    <glyph glyph-name="S" unicode="S" horiz-adv-x="1298" 
d="M653 -29q-151 0 -266 34.5t-183.5 95t-103 137.5t-34.5 168v28h184v-18q0 -128 97.5 -206.5t301.5 -78.5q201 0 300.5 71.5t99.5 188.5q0 62 -32.5 106.5t-87 70t-125 43.5t-148.5 33t-156.5 32.5t-149 47.5t-125 72.5t-87 113t-32.5 163.5q0 88 33 162.5t98 132
t170.5 90.5t241.5 33q144 0 252 -34.5t171.5 -95.5t94.5 -139.5t31 -172.5v-21h-184v16q0 133 -88 210t-277 77q-177 0 -265.5 -71t-88.5 -185q0 -65 32 -112t86.5 -74t125.5 -46.5t149 -35t156 -33t149 -46.5t125.5 -70.5t86.5 -109.5t32 -159q0 -86 -35.5 -160
t-105 -132.5t-183.5 -92t-260 -33.5z" />
    <glyph glyph-name="T" unicode="T" horiz-adv-x="1189" 
d="M686 0h-184v1298h-492v164h1170v-164h-494v-1298z" />
    <glyph glyph-name="U" unicode="U" horiz-adv-x="1443" 
d="M723 -29q-301 0 -461 142.5t-160 437.5v911h185v-913q0 -209 113 -311.5t323 -102.5q434 0 434 414v913h184v-911q0 -580 -618 -580z" />
    <glyph glyph-name="V" unicode="V" horiz-adv-x="1329" 
d="M772 0h-215l-598 1462h207l493 -1237h21l491 1237h199z" />
    <glyph glyph-name="W" unicode="W" horiz-adv-x="1902" 
d="M637 0h-240l-415 1462h204l324 -1208h20l314 1208h223l315 -1208h21l323 1208h195l-414 -1462h-239l-305 1159h-21z" />
    <glyph glyph-name="X" unicode="X" horiz-adv-x="1359" 
d="M227 0h-227l563 729l-563 733h236l438 -579h18l438 579h228l-563 -729l565 -733h-238l-438 580h-16z" />
    <glyph glyph-name="Y" unicode="Y" horiz-adv-x="1269" 
d="M727 0h-184v543l-584 919h221l449 -721h18l453 721h211l-584 -919v-543z" />
    <glyph glyph-name="Z" unicode="Z" horiz-adv-x="1239" 
d="M1178 0h-1117v164l871 1114v20h-871v164h1117v-164l-869 -1114v-20h869v-164z" />
    <glyph glyph-name="bracketleft" unicode="[" horiz-adv-x="555" 
d="M535 -180h-433v1822h433v-163h-248v-1495h248v-164z" />
    <glyph glyph-name="backslash" unicode="\" horiz-adv-x="745" 
d="M807 -180h-172l-696 1822h172z" />
    <glyph glyph-name="bracketright" unicode="]" horiz-adv-x="555" 
d="M453 -180h-433v164h248v1495h-248v163h433v-1822z" />
    <glyph glyph-name="asciicircum" unicode="^" horiz-adv-x="1001" 
d="M150 406h-191l444 1056h193l446 -1056h-196l-340 831h-21z" />
    <glyph glyph-name="underscore" unicode="_" horiz-adv-x="1064" 
d="M1055 -182h-1045v153h1045v-153z" />
    <glyph glyph-name="grave" unicode="`" horiz-adv-x="608" 
d="M489 1208h-151l-215 324h213z" />
    <glyph glyph-name="a" unicode="a" horiz-adv-x="1249" 
d="M563 -29q-107 0 -198.5 36.5t-159 105.5t-106 175.5t-38.5 239.5q0 262 140.5 409.5t361.5 147.5q254 0 385 -184h21l20 156h158v-1057h-158l-20 162h-21q-129 -191 -385 -191zM606 123q164 0 264.5 105t100.5 300t-100.5 300.5t-264.5 105.5q-162 0 -262 -108t-100 -298
t100 -297.5t262 -107.5z" />
    <glyph glyph-name="b" unicode="b" horiz-adv-x="1249" 
d="M688 -29q-253 0 -385 185h-20l-21 -156h-160v1462h181v-567h20q126 190 385 190q220 0 360 -147t140 -410q0 -132 -38 -238.5t-105.5 -175.5t-158.5 -106t-198 -37zM643 123q163 0 263 107.5t100 297.5t-100 298t-263 108q-164 0 -264 -105.5t-100 -300.5t100 -300
t264 -105z" />
    <glyph glyph-name="c" unicode="c" horiz-adv-x="1116" 
d="M596 -29q-112 0 -207.5 34.5t-169.5 102t-116 175.5t-42 245t42 245t116 175.5t169.5 102t207.5 34.5q119 0 219.5 -42t169.5 -126.5t86 -199.5h-176q-20 98 -105 158.5t-194 60.5q-156 0 -254 -107t-98 -301t98 -300.5t254 -106.5q109 0 194 61t105 158h176
q-26 -170 -159.5 -269.5t-315.5 -99.5z" />
    <glyph glyph-name="d" unicode="d" horiz-adv-x="1249" 
d="M563 -29q-107 0 -198.5 36.5t-159 105.5t-106 175.5t-38.5 239.5q0 262 140.5 409.5t361.5 147.5q254 0 385 -184h21v561h178v-1462h-158l-20 162h-21q-131 -191 -385 -191zM606 123q164 0 264.5 105t100.5 300t-100.5 300.5t-264.5 105.5q-162 0 -262 -108t-100 -298
t100 -297.5t262 -107.5z" />
    <glyph glyph-name="e" unicode="e" horiz-adv-x="1169" 
d="M596 -29q-248 0 -391.5 152t-143.5 405q0 134 41 241t113.5 175.5t169.5 104.5t211 36q230 0 371 -146t141 -396q0 -36 -4 -64h-864q12 -171 110 -267.5t246 -96.5q90 0 167 42.5t116 118.5h178q-45 -145 -170.5 -225t-290.5 -80zM246 616h674q-13 151 -103 238.5
t-225 87.5q-134 0 -231.5 -86.5t-114.5 -239.5z" />
    <glyph glyph-name="f" unicode="f" horiz-adv-x="727" 
d="M412 0h-181v903h-190v154h190v88q0 346 308 346q79 0 188 -16v-146q-88 10 -141 10q-93 0 -133.5 -42t-40.5 -158v-82h315v-154h-315v-903z" />
    <glyph glyph-name="g" unicode="g" horiz-adv-x="1249" 
d="M606 -418q-241 0 -364 88t-123 246v14h178q0 -198 307 -198q159 0 262 92.5t103 275.5v144h-21q-131 -191 -385 -191q-221 0 -361.5 136.5t-140.5 379.5t140.5 379.5t361.5 136.5q254 0 385 -184h21l20 156h158v-944q0 -114 -31.5 -206t-83.5 -152t-123.5 -99.5
t-146.5 -56.5t-156 -17zM606 205q160 0 261.5 99t101.5 265t-102 265.5t-261 99.5q-164 0 -264 -96.5t-100 -268.5q0 -170 100 -267t264 -97z" />
    <glyph glyph-name="h" unicode="h" 
d="M283 0h-181v1462h181v-567h20q126 190 385 190q205 0 321.5 -122.5t116.5 -374.5v-588h-178v594q0 167 -84 252.5t-221 85.5q-164 0 -262 -102.5t-98 -290.5v-539z" />
    <glyph glyph-name="i" unicode="i" horiz-adv-x="385" 
d="M193 1231q-51 0 -84 33t-33 84t33 83.5t84 32.5t83.5 -32.5t32.5 -83.5t-32.5 -84t-83.5 -33zM283 0h-181v1057h181v-1057z" />
    <glyph glyph-name="j" unicode="j" horiz-adv-x="385" 
d="M193 1231q-51 0 -84 33t-33 84t33 83.5t84 32.5t83.5 -32.5t32.5 -83.5t-32.5 -84t-83.5 -33zM283 -389h-181v1446h181v-1446z" />
    <glyph glyph-name="k" unicode="k" horiz-adv-x="1021" 
d="M283 0h-181v1462h181v-846h20l508 441h242l-572 -492l578 -565h-250l-506 496h-20v-496z" />
    <glyph glyph-name="l" unicode="l" horiz-adv-x="385" 
d="M283 0h-181v1462h181v-1462z" />
    <glyph glyph-name="m" unicode="m" horiz-adv-x="1828" 
d="M283 0h-181v578q0 254 115.5 380.5t323.5 126.5q269 0 366 -202h21q97 202 360 202q438 0 438 -493v-592h-180v592q0 340 -270 340q-130 0 -201 -87t-71 -267v-578h-179v592q0 340 -272 340q-129 0 -199.5 -87.5t-70.5 -266.5v-578z" />
    <glyph glyph-name="n" unicode="n" 
d="M283 0h-181v578q0 255 134 381t378 126q512 0 512 -493v-592h-178v592q0 175 -87.5 257.5t-246.5 82.5q-157 0 -244 -87.5t-87 -266.5v-578z" />
    <glyph glyph-name="o" unicode="o" 
d="M614 -29q-121 0 -221 34.5t-174.5 102t-116 175t-41.5 245.5t41.5 245.5t116 175t174.5 102t221 34.5q165 0 287.5 -59.5t194 -186.5t71.5 -311t-71.5 -311t-194 -186.5t-287.5 -59.5zM614 121q170 0 270.5 103.5t100.5 303.5t-101 304t-270 104t-269.5 -103.5
t-100.5 -304.5q0 -199 100.5 -303t269.5 -104z" />
    <glyph glyph-name="p" unicode="p" horiz-adv-x="1249" 
d="M283 -389h-181v1446h160l21 -162h20q126 190 385 190q220 0 360 -147t140 -410q0 -132 -38 -238.5t-105.5 -175.5t-158.5 -106t-198 -37q-253 0 -385 185h-20v-545zM643 123q163 0 263 107.5t100 297.5t-100 298t-263 108q-164 0 -264 -105.5t-100 -300.5t100 -300
t264 -105z" />
    <glyph glyph-name="q" unicode="q" horiz-adv-x="1249" 
d="M1147 -389h-178v551h-21q-129 -191 -385 -191q-107 0 -198.5 36.5t-159 105.5t-106 175.5t-38.5 239.5q0 262 140.5 409.5t361.5 147.5q254 0 385 -184h21l20 156h158v-1446zM606 123q164 0 264.5 105t100.5 300t-100.5 300.5t-264.5 105.5q-162 0 -262 -108t-100 -298
t100 -297.5t262 -107.5z" />
    <glyph glyph-name="r" unicode="r" horiz-adv-x="716" 
d="M283 0h-181v1057h160l21 -168h20q59 87 158 127.5t256 40.5v-168q-54 4 -80 4q-182 0 -268 -97.5t-86 -287.5v-508z" />
    <glyph glyph-name="s" unicode="s" horiz-adv-x="1054" 
d="M528 -29q-232 0 -348.5 90t-116.5 234v18h179v-8q0 -84 71.5 -137t214.5 -53t215 47.5t72 136.5q0 50 -40.5 80.5t-105 44.5t-142 24.5t-155.5 28t-142.5 47t-105 89.5t-40.5 147q0 144 114.5 234.5t329.5 90.5q221 0 333 -91.5t112 -235.5v-15h-178v13q0 81 -69 133.5
t-198 52.5q-130 0 -198 -47t-68 -135q0 -52 40.5 -84t105 -46t142.5 -23.5t155.5 -26t142 -45t105 -88.5t40.5 -148q0 -146 -118 -237t-347 -91z" />
    <glyph glyph-name="t" unicode="t" horiz-adv-x="808" 
d="M481 0h-180v903h-260v154h260v282h180v-282h287v-154h-287v-903z" />
    <glyph glyph-name="u" unicode="u" 
d="M614 -29q-246 0 -379 120.5t-133 373.5v592h181v-592q0 -340 331 -340q158 0 246 88.5t88 267.5v576h178v-576q0 -255 -134 -382.5t-378 -127.5z" />
    <glyph glyph-name="v" unicode="v" horiz-adv-x="1001" 
d="M596 0h-193l-444 1057h197l338 -832h20l338 832h190z" />
    <glyph glyph-name="w" unicode="w" horiz-adv-x="1607" 
d="M526 0h-207l-360 1057h193l264 -824h18l266 824h213l267 -824h18l264 824h187l-361 -1057h-207l-268 823h-18z" />
    <glyph glyph-name="x" unicode="x" horiz-adv-x="1050" 
d="M213 0h-213l418 526l-418 531h221l297 -389h21l299 389h213l-418 -527l418 -530h-220l-299 391h-20z" />
    <glyph glyph-name="y" unicode="y" horiz-adv-x="1001" 
d="M432 -389h-194l165 389l-444 1057h197l338 -832h20l338 832h190z" />
    <glyph glyph-name="z" unicode="z" horiz-adv-x="1003" 
d="M942 0h-881v154l644 729v20h-644v154h881v-154l-641 -729v-20h641v-154z" />
    <glyph glyph-name="braceleft" unicode="{" horiz-adv-x="614" 
d="M594 -180h-33q-208 0 -293.5 95t-85.5 300v221q0 122 -25 167.5t-104 45.5h-33v164h33q79 0 104 45.5t25 167.5v223q0 203 85.5 298t293.5 95h33v-163h-31q-113 0 -154.5 -49t-41.5 -170v-234q0 -118 -31.5 -183.5t-102.5 -101.5v-20q71 -36 102.5 -101.5t31.5 -183.5
v-237q0 -119 41 -167t149 -48h37v-164z" />
    <glyph glyph-name="bar" unicode="|" horiz-adv-x="481" 
d="M330 -180h-178v1822h178v-1822z" />
    <glyph glyph-name="braceright" unicode="}" horiz-adv-x="614" 
d="M53 -180h-33v164h33q112 0 153.5 49t41.5 172v231q0 117 31.5 183t101.5 102v20q-70 36 -101.5 102t-31.5 183v238q0 120 -40.5 167.5t-150.5 47.5h-37v163h33q208 0 293.5 -95t85.5 -298v-223q0 -122 25 -167.5t104 -45.5h33v-164h-33q-79 0 -104 -45.5t-25 -167.5v-221
q0 -205 -85.5 -300t-293.5 -95z" />
    <glyph glyph-name="asciitilde" unicode="~" horiz-adv-x="1116" 
d="M778 551q-56 0 -109.5 20.5t-95 50.5t-81 59.5t-82 50t-82.5 20.5q-47 0 -85 -43.5t-44 -124.5h-158q9 167 91.5 249t205.5 82q56 0 109 -21t94 -50.5t80 -59t81 -50.5t82 -21q49 0 87 43.5t44 124.5h160q-10 -167 -92 -248.5t-205 -81.5z" />
    <glyph glyph-name="uni00A0" unicode="&#xa0;" horiz-adv-x="552" 
 />
    <glyph glyph-name="exclamdown" unicode="&#xa1;" horiz-adv-x="489" 
d="M244 821q-56 0 -93.5 38t-37.5 95q0 58 37.5 95.5t93.5 37.5q59 0 97 -37.5t38 -95.5q0 -57 -38.5 -95t-96.5 -38zM352 -389h-217l37 1067h145z" />
    <glyph glyph-name="cent" unicode="&#xa2;" horiz-adv-x="1116" 
d="M596 121q109 0 194 61t105 158h176q-23 -151 -131 -246.5t-264 -116.5v-272h-184v275q-193 31 -312 170.5t-119 377.5q0 239 119 378.5t312 170.5v275h184v-273q156 -21 264 -115.5t131 -246.5h-176q-20 98 -105 158.5t-194 60.5q-156 0 -254 -107t-98 -301t98 -300.5
t254 -106.5z" />
    <glyph glyph-name="sterling" unicode="&#xa3;" horiz-adv-x="1214" 
d="M946 526h-510v-362h715v-164h-1079v164h180v362h-170v158h170v350q0 207 122.5 332t327.5 125q117 0 206 -38.5t140.5 -105t77 -147t25.5 -172.5q0 -41 -2 -61h-180v34q0 154 -69 242t-200 88q-119 0 -191.5 -83.5t-72.5 -217.5v-346h510v-158z" />
    <glyph glyph-name="currency" unicode="&#xa4;" horiz-adv-x="1372" 
d="M1079 467l221 -219l-124 -123l-215 217q-119 -80 -277 -80q-157 0 -276 80l-209 -207l-117 117l211 209q-78 118 -78 270q0 158 80 277l-223 221l123 123l223 -226q117 74 266 74q152 0 270 -78l217 219l117 -116l-217 -217q82 -118 82 -277q0 -147 -74 -264zM684 422
q131 0 213 88t82 221q0 135 -82 222t-213 87q-132 0 -213.5 -87t-81.5 -222q0 -134 81.5 -221.5t213.5 -87.5z" />
    <glyph glyph-name="yen" unicode="&#xa5;" horiz-adv-x="1269" 
d="M1100 1462h211l-494 -778h313v-158h-403v-526h-184v526h-400v158h310l-494 778h221l449 -721h18z" />
    <glyph glyph-name="brokenbar" unicode="&#xa6;" horiz-adv-x="481" 
d="M330 928h-178v717h178v-717zM330 -178h-178v713h178v-713z" />
    <glyph glyph-name="section" unicode="&#xa7;" horiz-adv-x="1171" 
d="M586 -412q-244 0 -376 104.5t-132 305.5h190q0 -250 322 -250q162 0 239.5 58t77.5 163q0 60 -28 102t-75.5 65t-109 37.5t-130 25t-136.5 23.5t-129.5 37t-109 60t-75.5 98.5t-28 147.5q0 60 24 131.5t80 134.5q-48 39 -80 110.5t-32 166.5q0 171 134 277t374 106
q242 0 376 -105t134 -305h-193q0 250 -319 250q-161 0 -239.5 -57t-78.5 -162q0 -61 28 -104t75.5 -65.5t109 -37.5t129.5 -25t135.5 -22.5t129 -36.5t109 -60t75.5 -98.5t28 -148.5q0 -70 -27.5 -141.5t-76.5 -124.5q115 -91 115 -277q0 -170 -135 -276.5t-375 -106.5z
M836 309q20 27 40.5 81.5t20.5 105.5q0 61 -26 102.5t-66.5 62t-100.5 35.5t-117 21.5t-127.5 20t-121.5 32.5q-21 -25 -42.5 -80t-21.5 -106q0 -71 35 -115.5t98.5 -65.5t130 -31.5t153.5 -25.5t145 -37z" />
    <glyph glyph-name="dieresis" unicode="&#xa8;" horiz-adv-x="837" 
d="M219 1227q-52 0 -85.5 34t-33.5 87q0 51 33.5 84.5t85.5 33.5t86.5 -33.5t34.5 -84.5q0 -52 -34 -86.5t-87 -34.5zM664 1227q-52 0 -85.5 34t-33.5 87q0 51 33.5 84.5t85.5 33.5t86 -33.5t34 -84.5q0 -53 -34 -87t-86 -34z" />
    <glyph glyph-name="copyright" unicode="&#xa9;" horiz-adv-x="1585" 
d="M793 -14q-214 0 -380.5 92t-259 259t-92.5 380t92.5 380t259 259t380.5 92q160 0 296 -54t231.5 -149.5t149.5 -231.5t54 -296t-54 -296t-149.5 -231.5t-231.5 -149.5t-296 -54zM793 125q255 0 415 164.5t160 427.5t-160 427.5t-415 164.5q-254 0 -414 -165t-160 -427
t160 -427t414 -165zM805 270q-200 0 -321.5 115t-121.5 332q0 219 121 332.5t322 113.5q155 0 265.5 -83.5t119.5 -229.5h-160q-7 84 -70 131t-161 47q-124 0 -201.5 -79.5t-77.5 -231.5q0 -153 78.5 -232t200.5 -79q96 0 159 45.5t72 136.5h160q-9 -149 -119.5 -233.5
t-265.5 -84.5z" />
    <glyph glyph-name="ordfeminine" unicode="&#xaa;" horiz-adv-x="770" 
d="M313 795q-105 0 -172 51t-67 153q0 211 313 211q73 0 162 -12v41q0 66 -44 100.5t-118 34.5q-141 0 -141 -106h-154q0 99 77.5 161t217.5 62q144 0 225.5 -67t81.5 -199v-416h-112l-25 88h-16q-86 -102 -228 -102zM348 909q85 0 143 42.5t58 101.5v47q-71 12 -146 12
q-180 0 -180 -106q0 -46 34 -71.5t91 -25.5z" />
    <glyph glyph-name="guillemotleft" unicode="&#xab;" horiz-adv-x="1056" 
d="M526 260v-197l-506 392v141l506 389v-190l-336 -258v-21zM1016 260v-197l-506 392v141l506 389v-190l-336 -258v-21z" />
    <glyph glyph-name="logicalnot" unicode="&#xac;" horiz-adv-x="1048" 
d="M987 260h-178v395h-748v154h926v-549z" />
    <glyph glyph-name="uni00AD" unicode="&#xad;" horiz-adv-x="522" 
d="M461 453h-400v153h400v-153z" />
    <glyph glyph-name="registered" unicode="&#xae;" horiz-adv-x="878" 
d="M440 731q-166 0 -272.5 106.5t-106.5 272.5q0 167 106.5 274t272.5 107q167 0 274 -107t107 -274q0 -166 -107 -272.5t-274 -106.5zM440 827q121 0 198 80t77 203q0 125 -77 206t-198 81q-120 0 -196 -81t-76 -206q0 -123 76 -203t196 -80zM379 918h-96v401h176
q143 0 143 -117q0 -78 -67 -104v-6q55 -15 71 -99l17 -75h-103l-14 71q-6 35 -22 49.5t-50 14.5h-55v-135zM379 1233v-96h55q70 0 70 49q0 26 -16 36.5t-52 10.5h-57z" />
    <glyph glyph-name="macron" unicode="&#xaf;" horiz-adv-x="813" 
d="M741 1272h-669v143h669v-143z" />
    <glyph glyph-name="degree" unicode="&#xb0;" horiz-adv-x="768" 
d="M383 854q-141 0 -231.5 89.5t-90.5 230.5q0 139 90.5 228t231.5 89q143 0 233.5 -89t90.5 -228q0 -141 -90.5 -230.5t-233.5 -89.5zM383 987q76 0 123 52t47 135q0 80 -47 132t-123 52t-122 -51.5t-46 -132.5q0 -84 46 -135.5t122 -51.5z" />
    <glyph glyph-name="plusminus" unicode="&#xb1;" horiz-adv-x="1048" 
d="M614 287h-180v395h-373v154h373v395h180v-395h373v-154h-373v-395zM987 0h-926v154h926v-154z" />
    <glyph glyph-name="uni00B2" unicode="&#xb2;" horiz-adv-x="663" 
d="M623 692h-576v121l320 246q52 40 74 73.5t22 73.5q0 51 -32.5 81t-96.5 30q-65 0 -101 -34t-36 -95v-19h-154l-1 5q0 6 -0.5 14.5t-0.5 15.5q0 46 15.5 86t48 74.5t91 54t136.5 19.5q135 0 212 -61t77 -165q0 -43 -14.5 -79t-46 -67.5t-58.5 -52.5t-74 -52l-182 -144h377
v-125z" />
    <glyph glyph-name="uni00B3" unicode="&#xb3;" horiz-adv-x="690" 
d="M342 678q-147 0 -224 62t-77 171v23h145v-8q0 -58 43 -92.5t117 -34.5q68 0 110 31.5t42 82.5q0 52 -44 79.5t-112 27.5h-47v100h41q61 0 101 28t40 71q0 48 -38.5 74t-100.5 26q-63 0 -103 -29t-40 -84v-12h-150v16q0 113 80.5 170.5t212.5 57.5q53 0 101 -10t92 -31
t70 -60.5t26 -93.5q0 -59 -37.5 -100.5t-95.5 -57.5v-10q68 -12 112.5 -60t44.5 -114q0 -108 -91 -165.5t-218 -57.5z" />
    <glyph glyph-name="acute" unicode="&#xb4;" horiz-adv-x="602" 
d="M256 1204h-154l170 328h222z" />
    <glyph glyph-name="uni00B5" unicode="&#xb5;" 
d="M283 -389h-181v1446h181v-545q0 -185 94.5 -286t259.5 -101q139 0 225 86.5t86 251.5v594h178v-570q0 -261 -119 -388.5t-343 -127.5q-120 0 -214.5 45t-146.5 123h-20v-528z" />
    <glyph glyph-name="paragraph" unicode="&#xb6;" horiz-adv-x="1159" 
d="M645 0h-153v741q-219 0 -325 90t-106 271q0 179 115 269.5t336 90.5h586v-139h-154v-1323h-153v1323h-146v-1323z" />
    <glyph glyph-name="periodcentered" unicode="&#xb7;" horiz-adv-x="389" 
d="M197 598q-59 0 -97.5 37.5t-38.5 95.5q0 57 39 95t97 38q56 0 93.5 -38t37.5 -95q0 -58 -37.5 -95.5t-93.5 -37.5z" />
    <glyph glyph-name="cedilla" unicode="&#xb8;" horiz-adv-x="614" 
d="M289 -418q-106 0 -195 25v119q84 -17 158 -17q67 0 107 13.5t40 35.5q0 28 -51 44t-112 16h-72l39 188l139 -6l-18 -78q39 -2 77.5 -13t74.5 -29.5t58.5 -51t22.5 -72.5q0 -78 -75.5 -126t-192.5 -48z" />
    <glyph glyph-name="uni00B9" unicode="&#xb9;" horiz-adv-x="468" 
d="M408 692h-154v578l-12 -2l-166 -84l-66 114l244 125h154v-731z" />
    <glyph glyph-name="ordmasculine" unicode="&#xba;" horiz-adv-x="874" 
d="M440 793q-158 0 -258 94t-100 256t100 255t258 93t255.5 -92t97.5 -256t-98 -257t-255 -93zM440 922q90 0 146.5 57.5t56.5 163.5q0 105 -56.5 163t-146.5 58q-93 0 -151 -58t-58 -163q0 -107 57.5 -164t151.5 -57z" />
    <glyph glyph-name="guillemotright" unicode="&#xbb;" horiz-adv-x="1056" 
d="M547 455l-506 -392v187l336 256v20l-336 258v201l506 -389v-141zM1036 455l-506 -392v187l336 256v20l-336 258v201l506 -389v-141z" />
    <glyph glyph-name="onequarter" unicode="&#xbc;" horiz-adv-x="1433" 
d="M334 0h-184l968 1462h185zM459 692h-154v578l-14 -2l-164 -84l-66 114l244 125h154v-731zM1266 0h-148v147h-407v121l393 463h162v-457h106v-127h-106v-147zM1114 555l-248 -287h252v267z" />
    <glyph glyph-name="onehalf" unicode="&#xbd;" horiz-adv-x="1521" 
d="M334 0h-184l968 1462h185zM459 692h-154v578l-14 -2l-164 -84l-66 114l244 125h154v-731zM1460 0h-577v121l319 246q53 40 75.5 73.5t22.5 73.5q0 51 -33.5 81t-97.5 30q-65 0 -101 -34t-36 -95v-19h-151q-2 2 -2 35q0 46 15 86t47 74t90 53.5t136 19.5q136 0 213.5 -61
t77.5 -164q0 -43 -14.5 -79t-46 -68t-58.5 -53t-73 -52l-183 -143h377v-125z" />
    <glyph glyph-name="threequarters" unicode="&#xbe;" horiz-adv-x="1525" 
d="M426 0h-184l968 1462h185zM365 678q-147 0 -224.5 62t-77.5 171v23h146v-8q0 -58 43 -92.5t117 -34.5q68 0 109.5 31.5t41.5 82.5q0 52 -43 79.5t-110 27.5h-48v100h39q61 0 101.5 28t40.5 71q0 48 -38.5 74t-99.5 26q-63 0 -104 -29t-41 -84v-12h-149v16q0 113 81 170.5
t213 57.5q53 0 101 -10t92 -31t70 -60.5t26 -93.5q0 -59 -38 -100.5t-95 -57.5v-10q66 -12 111 -60t45 -114q0 -108 -91 -165.5t-218 -57.5zM1358 0h-148v147h-405v121l391 463h162v-457h106v-127h-106v-147zM1208 555l-250 -287h252v267z" />
    <glyph glyph-name="questiondown" unicode="&#xbf;" horiz-adv-x="1128" 
d="M561 821q-56 0 -93.5 38t-37.5 95q0 58 37.5 95.5t93.5 37.5q59 0 97 -37.5t38 -95.5q0 -57 -38.5 -95t-96.5 -38zM565 -418q-234 0 -358.5 113t-124.5 321q0 165 104.5 280t294.5 161l8 221h146l12 -346q-98 -7 -173.5 -37t-119.5 -75t-66 -97.5t-22 -110.5
q0 -129 76 -201.5t221 -72.5q132 0 216.5 77.5t84.5 227.5q0 31 -2 43h180q2 -18 2 -55q0 -89 -28 -167.5t-84 -142.5t-150.5 -101.5t-216.5 -37.5z" />
    <glyph glyph-name="Agrave" unicode="&#xc0;" horiz-adv-x="1329" 
d="M756 1583h-172l-297 330h260zM158 0h-199l598 1462h215l598 -1462h-207l-145 367h-715zM651 1243l-286 -713h591l-284 713h-21z" />
    <glyph glyph-name="Aacute" unicode="&#xc1;" horiz-adv-x="1329" 
d="M741 1583h-174l215 330h260zM158 0h-199l598 1462h215l598 -1462h-207l-145 367h-715zM651 1243l-286 -713h591l-284 713h-21z" />
    <glyph glyph-name="Acircumflex" unicode="&#xc2;" horiz-adv-x="1329" 
d="M481 1583h-174l240 330h229l242 -330h-180l-179 207zM158 0h-199l598 1462h215l598 -1462h-207l-145 367h-715zM651 1243l-286 -713h591l-284 713h-21z" />
    <glyph glyph-name="Atilde" unicode="&#xc3;" horiz-adv-x="1329" 
d="M827 1577q-52 0 -102.5 22.5t-83.5 49t-71 49t-68 22.5q-33 0 -62.5 -30t-36.5 -84h-149q8 125 81.5 192.5t166.5 67.5q51 0 101.5 -23t84 -50t73 -50t70.5 -23q35 0 62.5 26t32.5 89h147q-8 -125 -80.5 -191.5t-165.5 -66.5zM158 0h-199l598 1462h215l598 -1462h-207
l-145 367h-715zM651 1243l-286 -713h591l-284 713h-21z" />
    <glyph glyph-name="Adieresis" unicode="&#xc4;" horiz-adv-x="1329" 
d="M414 1602q-57 0 -95 37.5t-38 95.5q0 57 38 95t95 38q58 0 95.5 -38t37.5 -95q0 -59 -37.5 -96t-95.5 -37zM915 1602q-57 0 -95 37.5t-38 95.5q0 57 38 95t95 38q58 0 96 -38t38 -95q0 -58 -37.5 -95.5t-96.5 -37.5zM158 0h-199l598 1462h215l598 -1462h-207l-145 367
h-715zM651 1243l-286 -713h591l-284 713h-21z" />
    <glyph glyph-name="Aring" unicode="&#xc5;" horiz-adv-x="1329" 
d="M662 1524q-105 0 -175.5 62t-70.5 161q0 98 71 160.5t175 62.5t174.5 -62.5t70.5 -160.5q0 -99 -70 -161t-175 -62zM662 1630q47 0 76.5 33.5t29.5 83.5t-29.5 83.5t-76.5 33.5q-45 0 -75 -33.5t-30 -83.5t30 -83.5t75 -33.5zM158 0h-199l598 1462h215l598 -1462h-207
l-145 367h-715zM651 1243l-286 -713h591l-284 713h-21z" />
    <glyph glyph-name="AE" unicode="&#xc6;" horiz-adv-x="2066" 
d="M154 0h-215l921 1462h1135v-164h-840v-485h748v-164h-748v-485h850v-164h-1034v367h-592zM950 1296l-473 -766h494v766h-21z" />
    <glyph glyph-name="Ccedilla" unicode="&#xc7;" horiz-adv-x="1443" 
d="M756 135q169 0 292 91.5t152 250.5h189q-17 -145 -96 -255.5t-196.5 -171.5t-262.5 -75l-13 -53q54 -3 104 -19.5t90 -55t40 -91.5q0 -78 -76 -126t-193 -48q-105 0 -194 25v119q84 -17 158 -17q67 0 107 13.5t40 35.5q0 28 -51 44t-113 16h-71l32 155
q-139 9 -253.5 61.5t-199.5 145t-132.5 233t-47.5 316.5q0 187 52.5 334t147 239.5t220 140.5t275.5 48q161 0 296.5 -59t226.5 -175t110 -270h-189q-29 158 -152.5 249t-291.5 91q-227 0 -365.5 -153t-138.5 -445q0 -289 138.5 -441.5t365.5 -152.5z" />
    <glyph glyph-name="Egrave" unicode="&#xc8;" horiz-adv-x="1198" 
d="M778 1583h-170l-299 330h260zM1137 0h-1035v1462h1024v-164h-839v-485h747v-164h-747v-485h850v-164z" />
    <glyph glyph-name="Eacute" unicode="&#xc9;" horiz-adv-x="1198" 
d="M637 1583h-174l215 330h260zM1137 0h-1035v1462h1024v-164h-839v-485h747v-164h-747v-485h850v-164z" />
    <glyph glyph-name="Ecircumflex" unicode="&#xca;" horiz-adv-x="1198" 
d="M432 1583h-174l242 330h229l240 -330h-178l-181 207zM1137 0h-1035v1462h1024v-164h-839v-485h747v-164h-747v-485h850v-164z" />
    <glyph glyph-name="Edieresis" unicode="&#xcb;" horiz-adv-x="1198" 
d="M369 1602q-59 0 -96 37t-37 96q0 57 37.5 95t95.5 38q57 0 95 -38t38 -95q0 -58 -38 -95.5t-95 -37.5zM870 1602q-58 0 -95.5 37t-37.5 96q0 57 37.5 95t95.5 38q57 0 95.5 -38t38.5 -95q0 -58 -38.5 -95.5t-95.5 -37.5zM1137 0h-1035v1462h1024v-164h-839v-485h747v-164
h-747v-485h850v-164z" />
    <glyph glyph-name="Igrave" unicode="&#xcc;" horiz-adv-x="389" 
d="M279 1583h-170l-299 330h260zM287 0h-185v1462h185v-1462z" />
    <glyph glyph-name="Iacute" unicode="&#xcd;" horiz-adv-x="389" 
d="M276 1583h-174l215 330h261zM287 0h-185v1462h185v-1462z" />
    <glyph glyph-name="Icircumflex" unicode="&#xce;" horiz-adv-x="389" 
d="M14 1583h-176l242 330h229l242 -330h-180l-178 207zM287 0h-185v1462h185v-1462z" />
    <glyph glyph-name="Idieresis" unicode="&#xcf;" horiz-adv-x="389" 
d="M-6 1602q-57 0 -95 37.5t-38 95.5q0 57 38 95t95 38q58 0 96.5 -38t38.5 -95q0 -58 -38 -95.5t-97 -37.5zM395 1602q-59 0 -96 37t-37 96q0 57 37.5 95t95.5 38q57 0 95 -38t38 -95q0 -58 -38 -95.5t-95 -37.5zM287 0h-185v1462h185v-1462z" />
    <glyph glyph-name="Eth" unicode="&#xd0;" horiz-adv-x="1423" 
d="M102 1462h555q120 0 223 -24t193 -79.5t153 -138.5t99.5 -207.5t36.5 -281.5q0 -152 -36 -274.5t-100 -207t-153 -141t-193 -82.5t-223 -26h-555v655h-151v158h151v649zM287 164h370q89 0 164.5 18.5t141.5 61.5t112 107.5t72.5 161t26.5 218.5t-26.5 218.5t-72.5 161
t-112 107.5t-141.5 61.5t-164.5 18.5h-370v-485h317v-158h-317v-491z" />
    <glyph glyph-name="Ntilde" unicode="&#xd1;" horiz-adv-x="1443" 
d="M889 1577q-52 0 -103 22.5t-84 49t-71.5 49t-67.5 22.5q-33 0 -62.5 -30t-35.5 -84h-152q10 125 82.5 192.5t165.5 67.5q52 0 103 -23t84.5 -50t72.5 -50t70 -23q83 0 96 115h148q-8 -125 -80.5 -191.5t-165.5 -66.5zM287 0h-185v1462h205l830 -1153h20v1153h184v-1462
h-204l-830 1153h-20v-1153z" />
    <glyph glyph-name="Ograve" unicode="&#xd2;" horiz-adv-x="1546" 
d="M918 1583h-173l-296 330h260zM774 -29q-335 0 -524 198.5t-189 561.5t189 561.5t524 198.5q334 0 522.5 -198.5t188.5 -561.5t-188.5 -561.5t-522.5 -198.5zM774 135q247 0 384.5 155t137.5 441t-137.5 441t-384.5 155q-249 0 -385.5 -155t-136.5 -441t136.5 -441
t385.5 -155z" />
    <glyph glyph-name="Oacute" unicode="&#xd3;" horiz-adv-x="1546" 
d="M801 1583h-174l215 330h260zM774 -29q-335 0 -524 198.5t-189 561.5t189 561.5t524 198.5q334 0 522.5 -198.5t188.5 -561.5t-188.5 -561.5t-522.5 -198.5zM774 135q247 0 384.5 155t137.5 441t-137.5 441t-384.5 155q-249 0 -385.5 -155t-136.5 -441t136.5 -441
t385.5 -155z" />
    <glyph glyph-name="Ocircumflex" unicode="&#xd4;" horiz-adv-x="1546" 
d="M592 1583h-174l239 330h230l241 -330h-180l-178 207zM774 -29q-335 0 -524 198.5t-189 561.5t189 561.5t524 198.5q334 0 522.5 -198.5t188.5 -561.5t-188.5 -561.5t-522.5 -198.5zM774 135q247 0 384.5 155t137.5 441t-137.5 441t-384.5 155q-249 0 -385.5 -155
t-136.5 -441t136.5 -441t385.5 -155z" />
    <glyph glyph-name="Otilde" unicode="&#xd5;" horiz-adv-x="1546" 
d="M938 1577q-52 0 -103 22.5t-83.5 49t-71 49t-68.5 22.5q-33 0 -62 -30t-36 -84h-149q8 125 81 192.5t166 67.5q51 0 102 -23t84.5 -50t73 -50t70.5 -23q35 0 62 26t32 89h148q-8 -125 -80.5 -191.5t-165.5 -66.5zM774 -29q-335 0 -524 198.5t-189 561.5t189 561.5
t524 198.5q334 0 522.5 -198.5t188.5 -561.5t-188.5 -561.5t-522.5 -198.5zM774 135q247 0 384.5 155t137.5 441t-137.5 441t-384.5 155q-249 0 -385.5 -155t-136.5 -441t136.5 -441t385.5 -155z" />
    <glyph glyph-name="Odieresis" unicode="&#xd6;" horiz-adv-x="1546" 
d="M522 1602q-58 0 -95.5 37t-37.5 96q0 57 37.5 95t95.5 38q57 0 95 -38t38 -95q0 -58 -38 -95.5t-95 -37.5zM1024 1602q-58 0 -95.5 37t-37.5 96q0 57 37.5 95t95.5 38q57 0 95 -38t38 -95q0 -58 -38 -95.5t-95 -37.5zM774 -29q-335 0 -524 198.5t-189 561.5t189 561.5
t524 198.5q334 0 522.5 -198.5t188.5 -561.5t-188.5 -561.5t-522.5 -198.5zM774 135q247 0 384.5 155t137.5 441t-137.5 441t-384.5 155q-249 0 -385.5 -155t-136.5 -441t136.5 -441t385.5 -155z" />
    <glyph glyph-name="multiply" unicode="&#xd7;" horiz-adv-x="1048" 
d="M942 438l-123 -125l-301 301l-289 -288l-110 112l289 289l-302 299l123 125l301 -301l289 289l111 -113l-287 -291z" />
    <glyph glyph-name="Oslash" unicode="&#xd8;" horiz-adv-x="1546" 
d="M1313 1552h203l-213 -266q182 -201 182 -555q0 -363 -188.5 -561.5t-522.5 -198.5q-257 0 -432 119l-111 -137h-202l196 246q-164 196 -164 532q0 363 189 561.5t524 198.5q243 0 406 -105zM252 731q0 -235 94 -383l723 901q-122 78 -295 78q-249 0 -385.5 -155
t-136.5 -441zM1296 731q0 259 -112 410l-729 -912q126 -94 319 -94q247 0 384.5 155t137.5 441z" />
    <glyph glyph-name="Ugrave" unicode="&#xd9;" horiz-adv-x="1443" 
d="M891 1583h-170l-299 330h260zM723 -29q-301 0 -461 142.5t-160 437.5v911h185v-913q0 -209 113 -311.5t323 -102.5q434 0 434 414v913h184v-911q0 -580 -618 -580z" />
    <glyph glyph-name="Uacute" unicode="&#xda;" horiz-adv-x="1443" 
d="M760 1583h-172l213 330h260zM723 -29q-301 0 -461 142.5t-160 437.5v911h185v-913q0 -209 113 -311.5t323 -102.5q434 0 434 414v913h184v-911q0 -580 -618 -580z" />
    <glyph glyph-name="Ucircumflex" unicode="&#xdb;" horiz-adv-x="1443" 
d="M541 1583h-174l239 330h230l241 -330h-180l-178 207zM723 -29q-301 0 -461 142.5t-160 437.5v911h185v-913q0 -209 113 -311.5t323 -102.5q434 0 434 414v913h184v-911q0 -580 -618 -580z" />
    <glyph glyph-name="Udieresis" unicode="&#xdc;" horiz-adv-x="1443" 
d="M471 1602q-59 0 -96 37t-37 96q0 57 37.5 95t95.5 38q57 0 95 -38t38 -95q0 -58 -38 -95.5t-95 -37.5zM973 1602q-59 0 -96 37t-37 96q0 57 37.5 95t95.5 38q57 0 95 -38t38 -95q0 -58 -38 -95.5t-95 -37.5zM723 -29q-301 0 -461 142.5t-160 437.5v911h185v-913
q0 -209 113 -311.5t323 -102.5q434 0 434 414v913h184v-911q0 -580 -618 -580z" />
    <glyph glyph-name="Yacute" unicode="&#xdd;" horiz-adv-x="1269" 
d="M668 1583h-172l213 330h260zM727 0h-184v543l-584 919h221l449 -721h18l453 721h211l-584 -919v-543z" />
    <glyph glyph-name="Thorn" unicode="&#xde;" horiz-adv-x="1265" 
d="M287 0h-185v1462h185v-260h372q150 0 258.5 -36.5t169.5 -102.5t89 -148t28 -184q0 -79 -17 -146t-56.5 -127t-101 -101.5t-156 -66t-214.5 -24.5h-372v-266zM287 1038v-608h366q99 0 171 24t113 66.5t60 94.5t19 116q0 67 -19 120.5t-60 96.5t-113 66.5t-171 23.5h-366z
" />
    <glyph glyph-name="germandbls" unicode="&#xdf;" horiz-adv-x="1253" 
d="M717 -29q-145 0 -250 43v158q110 -47 225 -47q141 0 226.5 74.5t85.5 206.5q0 125 -96 201.5t-251 76.5h-108v152h94q134 0 217.5 64.5t83.5 180.5q0 124 -87 190t-236 66q-160 0 -249 -79t-89 -236v-1022h-181v1028q0 211 135 337t390 126q224 0 362.5 -108.5
t138.5 -290.5q0 -107 -54.5 -187.5t-158.5 -126.5v-18q127 -40 200 -136.5t73 -226.5q0 -197 -130.5 -311.5t-340.5 -114.5z" />
    <glyph glyph-name="agrave" unicode="&#xe0;" horiz-adv-x="1249" 
d="M739 1208h-151l-215 324h213zM563 -29q-107 0 -198.5 36.5t-159 105.5t-106 175.5t-38.5 239.5q0 262 140.5 409.5t361.5 147.5q254 0 385 -184h21l20 156h158v-1057h-158l-20 162h-21q-129 -191 -385 -191zM606 123q164 0 264.5 105t100.5 300t-100.5 300.5
t-264.5 105.5q-162 0 -262 -108t-100 -298t100 -297.5t262 -107.5z" />
    <glyph glyph-name="aacute" unicode="&#xe1;" horiz-adv-x="1249" 
d="M653 1204h-151l168 328h221zM563 -29q-107 0 -198.5 36.5t-159 105.5t-106 175.5t-38.5 239.5q0 262 140.5 409.5t361.5 147.5q254 0 385 -184h21l20 156h158v-1057h-158l-20 162h-21q-129 -191 -385 -191zM606 123q164 0 264.5 105t100.5 300t-100.5 300.5t-264.5 105.5
q-162 0 -262 -108t-100 -298t100 -297.5t262 -107.5z" />
    <glyph glyph-name="acircumflex" unicode="&#xe2;" horiz-adv-x="1249" 
d="M455 1206h-164l221 324h225l224 -324h-170l-168 209zM563 -29q-107 0 -198.5 36.5t-159 105.5t-106 175.5t-38.5 239.5q0 262 140.5 409.5t361.5 147.5q254 0 385 -184h21l20 156h158v-1057h-158l-20 162h-21q-129 -191 -385 -191zM606 123q164 0 264.5 105t100.5 300
t-100.5 300.5t-264.5 105.5q-162 0 -262 -108t-100 -298t100 -297.5t262 -107.5z" />
    <glyph glyph-name="atilde" unicode="&#xe3;" horiz-adv-x="1249" 
d="M795 1196q-45 0 -84 15t-66.5 36t-52.5 42.5t-53 36.5t-56 15q-43 0 -71 -28.5t-35 -85.5h-127q8 126 79 193t163 67q55 0 102.5 -23t74.5 -50t62 -50t68 -23q43 0 71 29t35 86h127q-8 -126 -76.5 -193t-160.5 -67zM563 -29q-107 0 -198.5 36.5t-159 105.5t-106 175.5
t-38.5 239.5q0 262 140.5 409.5t361.5 147.5q254 0 385 -184h21l20 156h158v-1057h-158l-20 162h-21q-129 -191 -385 -191zM606 123q164 0 264.5 105t100.5 300t-100.5 300.5t-264.5 105.5q-162 0 -262 -108t-100 -298t100 -297.5t262 -107.5z" />
    <glyph glyph-name="adieresis" unicode="&#xe4;" horiz-adv-x="1249" 
d="M418 1227q-52 0 -86.5 34.5t-34.5 86.5q0 51 34.5 84.5t86.5 33.5q51 0 85 -33.5t34 -84.5q0 -52 -34 -86.5t-85 -34.5zM862 1227q-52 0 -86.5 34.5t-34.5 86.5q0 51 34.5 84.5t86.5 33.5q51 0 85 -33.5t34 -84.5q0 -52 -34 -86.5t-85 -34.5zM563 -29q-107 0 -198.5 36.5
t-159 105.5t-106 175.5t-38.5 239.5q0 262 140.5 409.5t361.5 147.5q254 0 385 -184h21l20 156h158v-1057h-158l-20 162h-21q-129 -191 -385 -191zM606 123q164 0 264.5 105t100.5 300t-100.5 300.5t-264.5 105.5q-162 0 -262 -108t-100 -298t100 -297.5t262 -107.5z" />
    <glyph glyph-name="aring" unicode="&#xe5;" horiz-adv-x="1249" 
d="M625 1147q-98 0 -165 63.5t-67 159.5q0 95 67.5 159t164.5 64q98 0 164.5 -64t66.5 -159q0 -96 -66 -159.5t-165 -63.5zM625 1257q45 0 71.5 32t26.5 81q0 50 -26.5 81.5t-71.5 31.5q-44 0 -71.5 -31.5t-27.5 -81.5q0 -48 27.5 -80.5t71.5 -32.5zM563 -29
q-107 0 -198.5 36.5t-159 105.5t-106 175.5t-38.5 239.5q0 262 140.5 409.5t361.5 147.5q254 0 385 -184h21l20 156h158v-1057h-158l-20 162h-21q-129 -191 -385 -191zM606 123q164 0 264.5 105t100.5 300t-100.5 300.5t-264.5 105.5q-162 0 -262 -108t-100 -298t100 -297.5
t262 -107.5z" />
    <glyph glyph-name="ae" unicode="&#xe6;" horiz-adv-x="2078" 
d="M563 -29q-107 0 -198.5 36.5t-159 105.5t-106 175.5t-38.5 239.5q0 262 140.5 409.5t361.5 147.5q254 0 385 -184h21l20 156h144v-135h20q123 163 358 163q226 0 366 -146t140 -396q0 -24 -4 -64h-864q12 -172 110.5 -268t243.5 -96q94 0 170.5 43t112.5 118h180
q-45 -144 -170.5 -224.5t-286.5 -80.5q-233 0 -356 164h-20v-135h-144l-20 162h-21q-131 -191 -385 -191zM1155 616h672q-12 150 -102.5 238t-225.5 88q-133 0 -230 -86.5t-114 -239.5zM606 123q164 0 264.5 105t100.5 300t-100.5 300.5t-264.5 105.5q-163 0 -262.5 -108
t-99.5 -298t99.5 -297.5t262.5 -107.5z" />
    <glyph glyph-name="ccedilla" unicode="&#xe7;" horiz-adv-x="1116" 
d="M596 121q109 0 194 61t105 158h176q-23 -155 -137.5 -252.5t-276.5 -112.5l-12 -53q53 -3 103 -19.5t90.5 -55t40.5 -91.5q0 -78 -76 -126t-193 -48q-108 0 -194 25v119q84 -17 157 -17q67 0 107.5 13.5t40.5 35.5q0 28 -51.5 44t-114.5 16h-70l33 157q-98 12 -180 52
t-144.5 107t-97.5 168t-35 226q0 137 42 245t116 175.5t169.5 102t207.5 34.5q119 0 219.5 -42t169.5 -126.5t86 -199.5h-176q-20 98 -105 158.5t-194 60.5q-156 0 -254 -107t-98 -301t98 -300.5t254 -106.5z" />
    <glyph glyph-name="egrave" unicode="&#xe8;" horiz-adv-x="1169" 
d="M700 1208h-153l-213 324h213zM596 -29q-248 0 -391.5 152t-143.5 405q0 134 41 241t113.5 175.5t169.5 104.5t211 36q230 0 371 -146t141 -396q0 -36 -4 -64h-864q12 -171 110 -267.5t246 -96.5q90 0 167 42.5t116 118.5h178q-45 -145 -170.5 -225t-290.5 -80zM246 616
h674q-13 151 -103 238.5t-225 87.5q-134 0 -231.5 -86.5t-114.5 -239.5z" />
    <glyph glyph-name="eacute" unicode="&#xe9;" horiz-adv-x="1169" 
d="M614 1204h-153l170 328h221zM596 -29q-248 0 -391.5 152t-143.5 405q0 134 41 241t113.5 175.5t169.5 104.5t211 36q230 0 371 -146t141 -396q0 -36 -4 -64h-864q12 -171 110 -267.5t246 -96.5q90 0 167 42.5t116 118.5h178q-45 -145 -170.5 -225t-290.5 -80zM246 616
h674q-13 151 -103 238.5t-225 87.5q-134 0 -231.5 -86.5t-114.5 -239.5z" />
    <glyph glyph-name="ecircumflex" unicode="&#xea;" horiz-adv-x="1169" 
d="M416 1206h-166l223 324h225l222 -324h-168l-170 209zM596 -29q-248 0 -391.5 152t-143.5 405q0 134 41 241t113.5 175.5t169.5 104.5t211 36q230 0 371 -146t141 -396q0 -36 -4 -64h-864q12 -171 110 -267.5t246 -96.5q90 0 167 42.5t116 118.5h178q-45 -145 -170.5 -225
t-290.5 -80zM246 616h674q-13 151 -103 238.5t-225 87.5q-134 0 -231.5 -86.5t-114.5 -239.5z" />
    <glyph glyph-name="edieresis" unicode="&#xeb;" horiz-adv-x="1169" 
d="M362 1227q-51 0 -84.5 34.5t-33.5 86.5q0 51 33.5 84.5t84.5 33.5q52 0 86.5 -33.5t34.5 -84.5q0 -52 -34.5 -86.5t-86.5 -34.5zM807 1227q-51 0 -85 34.5t-34 86.5q0 51 34 84.5t85 33.5q52 0 86.5 -33.5t34.5 -84.5q0 -52 -34 -86.5t-87 -34.5zM596 -29
q-248 0 -391.5 152t-143.5 405q0 134 41 241t113.5 175.5t169.5 104.5t211 36q230 0 371 -146t141 -396q0 -36 -4 -64h-864q12 -171 110 -267.5t246 -96.5q90 0 167 42.5t116 118.5h178q-45 -145 -170.5 -225t-290.5 -80zM246 616h674q-13 151 -103 238.5t-225 87.5
q-134 0 -231.5 -86.5t-114.5 -239.5z" />
    <glyph glyph-name="igrave" unicode="&#xec;" horiz-adv-x="385" 
d="M268 1208h-151l-215 324h213zM283 0h-181v1057h181v-1057z" />
    <glyph glyph-name="iacute" unicode="&#xed;" horiz-adv-x="385" 
d="M264 1204h-151l168 328h221zM283 0h-181v1057h181v-1057z" />
    <glyph glyph-name="icircumflex" unicode="&#xee;" horiz-adv-x="385" 
d="M25 1206h-166l223 324h225l223 -324h-170l-167 209zM283 0h-181v1057h181v-1057z" />
    <glyph glyph-name="idieresis" unicode="&#xef;" horiz-adv-x="385" 
d="M6 1231q-51 0 -84 33t-33 84t33 83.5t84 32.5t84 -32.5t33 -83.5t-33 -84t-84 -33zM379 1231q-51 0 -84 33t-33 84t33 83.5t84 32.5t84 -32.5t33 -83.5t-33 -84t-84 -33zM283 0h-181v1057h181v-1057z" />
    <glyph glyph-name="eth" unicode="&#xf0;" horiz-adv-x="1157" 
d="M897 1352l-176 -103q379 -329 379 -692q0 -43 -5 -88t-20 -104t-39 -112t-66 -106t-97 -91t-136.5 -61.5t-179.5 -23.5q-224 0 -367 134t-143 335q0 218 130 335.5t339 117.5q122 0 215.5 -48t169.5 -151h19q-9 80 -92.5 207t-245.5 268l-320 -184v178l193 109
q-133 99 -295 190h266q106 -67 166 -110l305 172v-172zM557 121q164 0 246 88.5t82 224.5q0 131 -88 222.5t-240 91.5q-165 0 -246.5 -86t-81.5 -222q0 -133 86.5 -226t241.5 -93z" />
    <glyph glyph-name="ntilde" unicode="&#xf1;" 
d="M770 1196q-45 0 -84.5 15t-67 36t-52.5 42.5t-52 36.5t-55 15q-43 0 -72 -29t-35 -85h-127q8 126 79 193t163 67q55 0 102 -23t74 -50t62 -50t69 -23q42 0 70.5 29.5t34.5 85.5h129q-10 -126 -78 -193t-160 -67zM283 0h-181v578q0 255 134 381t378 126q512 0 512 -493
v-592h-178v592q0 175 -87.5 257.5t-246.5 82.5q-157 0 -244 -87.5t-87 -266.5v-578z" />
    <glyph glyph-name="ograve" unicode="&#xf2;" 
d="M729 1208h-151l-216 324h213zM614 -29q-121 0 -221 34.5t-174.5 102t-116 175t-41.5 245.5t41.5 245.5t116 175t174.5 102t221 34.5q165 0 287.5 -59.5t194 -186.5t71.5 -311t-71.5 -311t-194 -186.5t-287.5 -59.5zM614 121q170 0 270.5 103.5t100.5 303.5t-101 304
t-270 104t-269.5 -103.5t-100.5 -304.5q0 -199 100.5 -303t269.5 -104z" />
    <glyph glyph-name="oacute" unicode="&#xf3;" 
d="M643 1204h-151l167 328h222zM614 -29q-121 0 -221 34.5t-174.5 102t-116 175t-41.5 245.5t41.5 245.5t116 175t174.5 102t221 34.5q165 0 287.5 -59.5t194 -186.5t71.5 -311t-71.5 -311t-194 -186.5t-287.5 -59.5zM614 121q170 0 270.5 103.5t100.5 303.5t-101 304
t-270 104t-269.5 -103.5t-100.5 -304.5q0 -199 100.5 -303t269.5 -104z" />
    <glyph glyph-name="ocircumflex" unicode="&#xf4;" 
d="M444 1206h-163l221 324h225l223 -324h-170l-168 209zM614 -29q-121 0 -221 34.5t-174.5 102t-116 175t-41.5 245.5t41.5 245.5t116 175t174.5 102t221 34.5q165 0 287.5 -59.5t194 -186.5t71.5 -311t-71.5 -311t-194 -186.5t-287.5 -59.5zM614 121q170 0 270.5 103.5
t100.5 303.5t-101 304t-270 104t-269.5 -103.5t-100.5 -304.5q0 -199 100.5 -303t269.5 -104z" />
    <glyph glyph-name="otilde" unicode="&#xf5;" 
d="M784 1196q-45 0 -84 15t-66.5 36t-52 42.5t-52.5 36.5t-56 15q-43 0 -71 -28.5t-35 -85.5h-127q8 126 78.5 193t162.5 67q55 0 102.5 -23t74.5 -50t62 -50t68 -23q43 0 71.5 29t35.5 86h127q-8 -126 -77 -193t-161 -67zM614 -29q-121 0 -221 34.5t-174.5 102t-116 175
t-41.5 245.5t41.5 245.5t116 175t174.5 102t221 34.5q165 0 287.5 -59.5t194 -186.5t71.5 -311t-71.5 -311t-194 -186.5t-287.5 -59.5zM614 121q170 0 270.5 103.5t100.5 303.5t-101 304t-270 104t-269.5 -103.5t-100.5 -304.5q0 -199 100.5 -303t269.5 -104z" />
    <glyph glyph-name="odieresis" unicode="&#xf6;" 
d="M393 1227q-53 0 -87 34.5t-34 86.5q0 51 34.5 84.5t86.5 33.5q51 0 85 -33.5t34 -84.5q0 -52 -34 -86.5t-85 -34.5zM838 1227q-52 0 -86.5 34.5t-34.5 86.5q0 51 34.5 84.5t86.5 33.5q51 0 84.5 -33.5t33.5 -84.5q0 -52 -33.5 -86.5t-84.5 -34.5zM614 -29
q-121 0 -221 34.5t-174.5 102t-116 175t-41.5 245.5t41.5 245.5t116 175t174.5 102t221 34.5q165 0 287.5 -59.5t194 -186.5t71.5 -311t-71.5 -311t-194 -186.5t-287.5 -59.5zM614 121q170 0 270.5 103.5t100.5 303.5t-101 304t-270 104t-269.5 -103.5t-100.5 -304.5
q0 -199 100.5 -303t269.5 -104z" />
    <glyph glyph-name="divide" unicode="&#xf7;" horiz-adv-x="1048" 
d="M526 1006q-58 0 -95.5 37t-37.5 96q0 57 37.5 95t95.5 38q57 0 94 -38t37 -95q0 -58 -37 -95.5t-94 -37.5zM987 655h-926v154h926v-154zM526 201q-58 0 -95.5 38t-37.5 97q0 56 37.5 93.5t95.5 37.5q57 0 94 -37.5t37 -93.5q0 -59 -37 -97t-94 -38z" />
    <glyph glyph-name="oslash" unicode="&#xf8;" 
d="M989 1159h195l-160 -221q143 -146 143 -410q0 -184 -71.5 -311t-194 -186.5t-287.5 -59.5q-146 0 -254 47l-90 -127h-194l151 209q-166 147 -166 428q0 138 41.5 245.5t116 175t174.5 102t221 34.5q164 0 281 -57zM244 528q0 -181 86 -284l469 651q-75 41 -185 41
q-169 0 -269.5 -103.5t-100.5 -304.5zM985 528q0 160 -67 263l-461 -641q76 -29 157 -29q170 0 270.5 103.5t100.5 303.5z" />
    <glyph glyph-name="ugrave" unicode="&#xf9;" 
d="M725 1208h-154l-213 324h213zM614 -29q-246 0 -379 120.5t-133 373.5v592h181v-592q0 -340 331 -340q158 0 246 88.5t88 267.5v576h178v-576q0 -255 -134 -382.5t-378 -127.5z" />
    <glyph glyph-name="uacute" unicode="&#xfa;" 
d="M643 1204h-151l167 328h222zM614 -29q-246 0 -379 120.5t-133 373.5v592h181v-592q0 -340 331 -340q158 0 246 88.5t88 267.5v576h178v-576q0 -255 -134 -382.5t-378 -127.5z" />
    <glyph glyph-name="ucircumflex" unicode="&#xfb;" 
d="M444 1206h-163l221 324h225l223 -324h-170l-168 209zM614 -29q-246 0 -379 120.5t-133 373.5v592h181v-592q0 -340 331 -340q158 0 246 88.5t88 267.5v576h178v-576q0 -255 -134 -382.5t-378 -127.5z" />
    <glyph glyph-name="udieresis" unicode="&#xfc;" 
d="M416 1227q-52 0 -86.5 34.5t-34.5 86.5q0 51 34.5 84.5t86.5 33.5t85.5 -33.5t33.5 -84.5q0 -53 -33.5 -87t-85.5 -34zM860 1227q-52 0 -86.5 34.5t-34.5 86.5q0 51 34.5 84.5t86.5 33.5t85.5 -33.5t33.5 -84.5q0 -53 -33.5 -87t-85.5 -34zM614 -29q-246 0 -379 120.5
t-133 373.5v592h181v-592q0 -340 331 -340q158 0 246 88.5t88 267.5v576h178v-576q0 -255 -134 -382.5t-378 -127.5z" />
    <glyph glyph-name="yacute" unicode="&#xfd;" horiz-adv-x="1001" 
d="M557 1204h-154l170 328h222zM432 -389h-194l165 389l-444 1057h197l338 -832h20l338 832h190z" />
    <glyph glyph-name="thorn" unicode="&#xfe;" horiz-adv-x="1249" 
d="M283 -389h-181v1851h181v-567h20q126 190 385 190q220 0 360 -147t140 -410q0 -132 -38 -238.5t-105.5 -175.5t-158.5 -106t-198 -37q-253 0 -385 185h-20v-545zM643 123q163 0 263 107.5t100 297.5t-100 298t-263 108q-164 0 -264 -105.5t-100 -300.5t100 -300t264 -105
z" />
    <glyph glyph-name="ydieresis" unicode="&#xff;" horiz-adv-x="1001" 
d="M279 1227q-53 0 -87 34.5t-34 86.5q0 51 34.5 84.5t86.5 33.5t85 -33.5t33 -84.5q0 -53 -33 -87t-85 -34zM723 1227q-53 0 -87 34.5t-34 86.5q0 51 34.5 84.5t86.5 33.5t85.5 -33.5t33.5 -84.5q0 -53 -33.5 -87t-85.5 -34zM432 -389h-194l165 389l-444 1057h197l338 -832
h20l338 832h190z" />
    <glyph glyph-name="Amacron" unicode="&#x100;" horiz-adv-x="1329" 
d="M1008 1642h-686v154h686v-154zM158 0h-199l598 1462h215l598 -1462h-207l-145 367h-715zM651 1243l-286 -713h591l-284 713h-21z" />
    <glyph glyph-name="amacron" unicode="&#x101;" horiz-adv-x="1249" 
d="M965 1272h-670v143h670v-143zM563 -29q-107 0 -198.5 36.5t-159 105.5t-106 175.5t-38.5 239.5q0 262 140.5 409.5t361.5 147.5q254 0 385 -184h21l20 156h158v-1057h-158l-20 162h-21q-129 -191 -385 -191zM606 123q164 0 264.5 105t100.5 300t-100.5 300.5
t-264.5 105.5q-162 0 -262 -108t-100 -298t100 -297.5t262 -107.5z" />
    <glyph glyph-name="Abreve" unicode="&#x102;" horiz-adv-x="1329" 
d="M664 1563q-140 0 -231.5 92t-106.5 241h151q39 -188 187 -188q147 0 186 188h151q-15 -149 -106 -241t-231 -92zM158 0h-199l598 1462h215l598 -1462h-207l-145 367h-715zM651 1243l-286 -713h591l-284 713h-21z" />
    <glyph glyph-name="abreve" unicode="&#x103;" horiz-adv-x="1249" 
d="M627 1196q-128 0 -211.5 83.5t-98.5 238.5h146q12 -85 55.5 -133t108.5 -48t108.5 48t55.5 133h143q-15 -155 -98 -238.5t-209 -83.5zM563 -29q-107 0 -198.5 36.5t-159 105.5t-106 175.5t-38.5 239.5q0 262 140.5 409.5t361.5 147.5q254 0 385 -184h21l20 156h158v-1057
h-158l-20 162h-21q-129 -191 -385 -191zM606 123q164 0 264.5 105t100.5 300t-100.5 300.5t-264.5 105.5q-162 0 -262 -108t-100 -298t100 -297.5t262 -107.5z" />
    <glyph glyph-name="Aogonek" unicode="&#x104;" horiz-adv-x="1329" 
d="M1163 -199q0 -40 22 -62t62 -22q48 0 121 23v-133q-83 -25 -154 -25q-107 0 -164 47.5t-57 134.5q0 66 46 135t120 113l-141 355h-715l-145 -367h-199l598 1462h215l598 -1462h-27q-78 -38 -129 -93t-51 -106zM651 1243l-286 -713h591l-284 713h-21z" />
    <glyph glyph-name="aogonek" unicode="&#x105;" horiz-adv-x="1249" 
d="M1147 0h-25q-78 -38 -129 -93t-51 -106q0 -40 22 -62t62 -22q48 0 121 23v-133q-83 -25 -156 -25q-106 0 -163.5 48t-57.5 134q0 77 62 156t153 117l-16 125h-21q-129 -191 -385 -191q-107 0 -198.5 36.5t-159 105.5t-106 175.5t-38.5 239.5q0 262 140.5 409.5
t361.5 147.5q254 0 385 -184h21l20 156h158v-1057zM606 123q164 0 264.5 105t100.5 300t-100.5 300.5t-264.5 105.5q-162 0 -262 -108t-100 -298t100 -297.5t262 -107.5z" />
    <glyph glyph-name="Cacute" unicode="&#x106;" horiz-adv-x="1443" 
d="M784 1583h-172l213 330h260zM756 -29q-150 0 -275.5 47.5t-219.5 140t-147 238.5t-53 332q0 187 52.5 334t147 239.5t220 140.5t275.5 48q161 0 296.5 -59t226.5 -175t110 -270h-189q-29 158 -152.5 249t-291.5 91q-227 0 -365.5 -153t-138.5 -445q0 -289 138.5 -441.5
t365.5 -152.5q169 0 292 91.5t152 250.5h189q-19 -157 -110 -273.5t-226.5 -174.5t-296.5 -58z" />
    <glyph glyph-name="cacute" unicode="&#x107;" horiz-adv-x="1116" 
d="M604 1204h-153l170 328h221zM596 -29q-112 0 -207.5 34.5t-169.5 102t-116 175.5t-42 245t42 245t116 175.5t169.5 102t207.5 34.5q119 0 219.5 -42t169.5 -126.5t86 -199.5h-176q-20 98 -105 158.5t-194 60.5q-156 0 -254 -107t-98 -301t98 -300.5t254 -106.5
q109 0 194 61t105 158h176q-26 -170 -159.5 -269.5t-315.5 -99.5z" />
    <glyph glyph-name="Ccircumflex" unicode="&#x108;" horiz-adv-x="1443" 
d="M573 1612h-165l223 323h223l223 -323h-168l-170 209zM756 -29q-150 0 -275.5 47.5t-219.5 140t-147 238.5t-53 332q0 187 52.5 334t147 239.5t220 140.5t275.5 48q161 0 296.5 -59t226.5 -175t110 -270h-189q-29 158 -152.5 249t-291.5 91q-227 0 -365.5 -153
t-138.5 -445q0 -289 138.5 -441.5t365.5 -152.5q169 0 292 91.5t152 250.5h189q-19 -157 -110 -273.5t-226.5 -174.5t-296.5 -58z" />
    <glyph glyph-name="ccircumflex" unicode="&#x109;" horiz-adv-x="1116" 
d="M412 1206h-166l223 324h223l223 -324h-167l-170 209zM596 -29q-112 0 -207.5 34.5t-169.5 102t-116 175.5t-42 245t42 245t116 175.5t169.5 102t207.5 34.5q119 0 219.5 -42t169.5 -126.5t86 -199.5h-176q-20 98 -105 158.5t-194 60.5q-156 0 -254 -107t-98 -301
t98 -300.5t254 -106.5q109 0 194 61t105 158h176q-26 -170 -159.5 -269.5t-315.5 -99.5z" />
    <glyph glyph-name="Cdotaccent" unicode="&#x10a;" horiz-adv-x="1443" 
d="M743 1632q-51 0 -84.5 34.5t-33.5 86.5q0 51 33.5 85t84.5 34q52 0 86.5 -34t34.5 -85q0 -53 -34 -87t-87 -34zM756 -29q-150 0 -275.5 47.5t-219.5 140t-147 238.5t-53 332q0 187 52.5 334t147 239.5t220 140.5t275.5 48q161 0 296.5 -59t226.5 -175t110 -270h-189
q-29 158 -152.5 249t-291.5 91q-227 0 -365.5 -153t-138.5 -445q0 -289 138.5 -441.5t365.5 -152.5q169 0 292 91.5t152 250.5h189q-19 -157 -110 -273.5t-226.5 -174.5t-296.5 -58z" />
    <glyph glyph-name="cdotaccent" unicode="&#x10b;" horiz-adv-x="1116" 
d="M580 1227q-52 0 -86.5 34.5t-34.5 86.5q0 51 34.5 84.5t86.5 33.5q51 0 84.5 -33.5t33.5 -84.5q0 -52 -33.5 -86.5t-84.5 -34.5zM596 -29q-112 0 -207.5 34.5t-169.5 102t-116 175.5t-42 245t42 245t116 175.5t169.5 102t207.5 34.5q119 0 219.5 -42t169.5 -126.5
t86 -199.5h-176q-20 98 -105 158.5t-194 60.5q-156 0 -254 -107t-98 -301t98 -300.5t254 -106.5q109 0 194 61t105 158h176q-26 -170 -159.5 -269.5t-315.5 -99.5z" />
    <glyph glyph-name="Ccaron" unicode="&#x10c;" horiz-adv-x="1443" 
d="M852 1583h-229l-242 330h178l180 -207l179 207h174zM756 -29q-150 0 -275.5 47.5t-219.5 140t-147 238.5t-53 332q0 187 52.5 334t147 239.5t220 140.5t275.5 48q161 0 296.5 -59t226.5 -175t110 -270h-189q-29 158 -152.5 249t-291.5 91q-227 0 -365.5 -153t-138.5 -445
q0 -289 138.5 -441.5t365.5 -152.5q169 0 292 91.5t152 250.5h189q-19 -157 -110 -273.5t-226.5 -174.5t-296.5 -58z" />
    <glyph glyph-name="ccaron" unicode="&#x10d;" horiz-adv-x="1116" 
d="M688 1208h-223l-223 324h168l170 -209l165 209h166zM596 -29q-112 0 -207.5 34.5t-169.5 102t-116 175.5t-42 245t42 245t116 175.5t169.5 102t207.5 34.5q119 0 219.5 -42t169.5 -126.5t86 -199.5h-176q-20 98 -105 158.5t-194 60.5q-156 0 -254 -107t-98 -301
t98 -300.5t254 -106.5q109 0 194 61t105 158h176q-26 -170 -159.5 -269.5t-315.5 -99.5z" />
    <glyph glyph-name="Dcaron" unicode="&#x10e;" horiz-adv-x="1423" 
d="M702 1583h-229l-240 330h179l180 -207l176 207h176zM657 0h-555v1462h555q120 0 223 -24t193 -79.5t153 -138.5t99.5 -207.5t36.5 -281.5q0 -152 -36 -274.5t-100 -207t-153 -141t-193 -82.5t-223 -26zM287 1298v-1134h370q89 0 164.5 18.5t141.5 61.5t112 107.5
t72.5 161t26.5 218.5t-26.5 218.5t-72.5 161t-112 107.5t-141.5 61.5t-164.5 18.5h-370z" />
    <glyph glyph-name="dcaron" unicode="&#x10f;" horiz-adv-x="1402" 
d="M1335 1147h-110l39 385h182zM563 -29q-107 0 -198.5 36.5t-159 105.5t-106 175.5t-38.5 239.5q0 262 140.5 409.5t361.5 147.5q254 0 385 -184h21v561h178v-1462h-158l-20 162h-21q-131 -191 -385 -191zM606 123q164 0 264.5 105t100.5 300t-100.5 300.5t-264.5 105.5
q-162 0 -262 -108t-100 -298t100 -297.5t262 -107.5z" />
    <glyph glyph-name="Dcroat" unicode="&#x110;" horiz-adv-x="1423" 
d="M102 1462h555q120 0 223 -24t193 -79.5t153 -138.5t99.5 -207.5t36.5 -281.5q0 -152 -36 -274.5t-100 -207t-153 -141t-193 -82.5t-223 -26h-555v655h-147v158h147v649zM287 164h370q89 0 164.5 18.5t141.5 61.5t112 107.5t72.5 161t26.5 218.5t-26.5 218.5t-72.5 161
t-112 107.5t-141.5 61.5t-164.5 18.5h-370v-485h317v-158h-317v-491z" />
    <glyph glyph-name="dcroat" unicode="&#x111;" horiz-adv-x="1249" 
d="M1147 1286h119v-143h-119v-1143h-158l-20 162h-21q-131 -191 -385 -191q-108 0 -199 34t-159 99t-106 168t-38 234q0 130 38 232.5t106 168t159 99.5t199 34q248 0 385 -184h21v287h-402v143h402v176h178v-176zM606 123q163 0 264 101t101 282t-101 282t-264 101
t-262.5 -100.5t-99.5 -282.5t99.5 -282.5t262.5 -100.5z" />
    <glyph glyph-name="Emacron" unicode="&#x112;" horiz-adv-x="1198" 
d="M958 1642h-684v154h684v-154zM1137 0h-1035v1462h1024v-164h-839v-485h747v-164h-747v-485h850v-164z" />
    <glyph glyph-name="emacron" unicode="&#x113;" horiz-adv-x="1169" 
d="M920 1272h-670v143h670v-143zM596 -29q-248 0 -391.5 152t-143.5 405q0 134 41 241t113.5 175.5t169.5 104.5t211 36q230 0 371 -146t141 -396q0 -36 -4 -64h-864q12 -171 110 -267.5t246 -96.5q90 0 167 42.5t116 118.5h178q-45 -145 -170.5 -225t-290.5 -80zM246 616
h674q-13 151 -103 238.5t-225 87.5q-134 0 -231.5 -86.5t-114.5 -239.5z" />
    <glyph glyph-name="Ebreve" unicode="&#x114;" horiz-adv-x="1198" 
d="M637 1602q-128 0 -211 83t-98 238h143q12 -84 56.5 -132t109.5 -48t108.5 47.5t55.5 132.5h141q-15 -155 -97 -238t-208 -83zM1137 0h-1035v1462h1024v-164h-839v-485h747v-164h-747v-485h850v-164z" />
    <glyph glyph-name="ebreve" unicode="&#x115;" horiz-adv-x="1169" 
d="M586 1196q-128 0 -211.5 83.5t-98.5 238.5h146q12 -85 55.5 -133t108.5 -48t108.5 48t55.5 133h143q-15 -155 -98 -238.5t-209 -83.5zM596 -29q-248 0 -391.5 152t-143.5 405q0 134 41 241t113.5 175.5t169.5 104.5t211 36q230 0 371 -146t141 -396q0 -36 -4 -64h-864
q12 -171 110 -267.5t246 -96.5q90 0 167 42.5t116 118.5h178q-45 -145 -170.5 -225t-290.5 -80zM246 616h674q-13 151 -103 238.5t-225 87.5q-134 0 -231.5 -86.5t-114.5 -239.5z" />
    <glyph glyph-name="Edotaccent" unicode="&#x116;" horiz-adv-x="1198" 
d="M614 1602q-58 0 -95.5 37t-37.5 96q0 57 37.5 95t95.5 38q57 0 95.5 -38t38.5 -95q0 -58 -38.5 -95.5t-95.5 -37.5zM1137 0h-1035v1462h1024v-164h-839v-485h747v-164h-747v-485h850v-164z" />
    <glyph glyph-name="edotaccent" unicode="&#x117;" horiz-adv-x="1169" 
d="M586 1227q-52 0 -86.5 34.5t-34.5 86.5q0 51 34.5 84.5t86.5 33.5t85.5 -33.5t33.5 -84.5q0 -53 -33.5 -87t-85.5 -34zM596 -29q-248 0 -391.5 152t-143.5 405q0 134 41 241t113.5 175.5t169.5 104.5t211 36q230 0 371 -146t141 -396q0 -36 -4 -64h-864
q12 -171 110 -267.5t246 -96.5q90 0 167 42.5t116 118.5h178q-45 -145 -170.5 -225t-290.5 -80zM246 616h674q-13 151 -103 238.5t-225 87.5q-134 0 -231.5 -86.5t-114.5 -239.5z" />
    <glyph glyph-name="Eogonek" unicode="&#x118;" horiz-adv-x="1198" 
d="M1137 0h-27q-78 -38 -129 -93t-51 -106q0 -40 22 -62t62 -22q48 0 121 23v-133q-83 -25 -154 -25q-107 0 -164 47.5t-57 134.5q0 62 40.5 127t106.5 109h-805v1462h1024v-164h-839v-485h747v-164h-747v-485h850v-164z" />
    <glyph glyph-name="eogonek" unicode="&#x119;" horiz-adv-x="1169" 
d="M1108 543q0 -36 -4 -64h-864q12 -171 110 -267.5t246 -96.5q90 0 167 42.5t116 118.5h178q-36 -118 -133 -196q-86 -81 -134.5 -148.5t-48.5 -126.5q0 -41 26.5 -65.5t66.5 -24.5q44 0 127 25v-133q-83 -25 -156 -25q-110 0 -172 47t-62 135q0 117 107 213q-40 -6 -82 -6
q-248 0 -391.5 152t-143.5 405q0 134 41 241t113.5 175.5t169.5 104.5t211 36q230 0 371 -146t141 -396zM246 616h674q-13 151 -103 238.5t-225 87.5q-134 0 -231.5 -86.5t-114.5 -239.5z" />
    <glyph glyph-name="Ecaron" unicode="&#x11a;" horiz-adv-x="1198" 
d="M729 1583h-229l-242 330h178l180 -207l179 207h174zM1137 0h-1035v1462h1024v-164h-839v-485h747v-164h-747v-485h850v-164z" />
    <glyph glyph-name="ecaron" unicode="&#x11b;" horiz-adv-x="1169" 
d="M698 1208h-225l-223 324h170l168 -209l168 209h164zM596 -29q-248 0 -391.5 152t-143.5 405q0 134 41 241t113.5 175.5t169.5 104.5t211 36q230 0 371 -146t141 -396q0 -36 -4 -64h-864q12 -171 110 -267.5t246 -96.5q90 0 167 42.5t116 118.5h178q-45 -145 -170.5 -225
t-290.5 -80zM246 616h674q-13 151 -103 238.5t-225 87.5q-134 0 -231.5 -86.5t-114.5 -239.5z" />
    <glyph glyph-name="Gcircumflex" unicode="&#x11c;" horiz-adv-x="1505" 
d="M571 1583h-174l240 330h229l242 -330h-180l-178 207zM739 -29q-144 0 -265.5 47.5t-214.5 139t-145.5 238t-52.5 333.5q0 189 53.5 336.5t148.5 239.5t221 139t276 47q160 0 293.5 -59t222 -174.5t110.5 -270.5h-188q-23 155 -147.5 247.5t-290.5 92.5
q-231 0 -369.5 -151.5t-138.5 -446.5q0 -292 138 -443t370 -151q82 0 160.5 25.5t144 74t108 129t46.5 179.5v22h-455v164h639v-729h-164l-20 176h-21q-91 -104 -212 -154.5t-247 -50.5z" />
    <glyph glyph-name="gcircumflex" unicode="&#x11d;" horiz-adv-x="1249" 
d="M455 1206h-164l221 324h225l224 -324h-170l-168 209zM606 -418q-241 0 -364 88t-123 246v14h178q0 -198 307 -198q159 0 262 92.5t103 275.5v144h-21q-131 -191 -385 -191q-221 0 -361.5 136.5t-140.5 379.5t140.5 379.5t361.5 136.5q254 0 385 -184h21l20 156h158v-944
q0 -114 -31.5 -206t-83.5 -152t-123.5 -99.5t-146.5 -56.5t-156 -17zM606 205q160 0 261.5 99t101.5 265t-102 265.5t-261 99.5q-164 0 -264 -96.5t-100 -268.5q0 -170 100 -267t264 -97z" />
    <glyph glyph-name="Gbreve" unicode="&#x11e;" horiz-adv-x="1505" 
d="M754 1563q-140 0 -231.5 92t-106.5 241h151q39 -188 187 -188q147 0 186 188h152q-15 -149 -106.5 -241t-231.5 -92zM739 -29q-144 0 -265.5 47.5t-214.5 139t-145.5 238t-52.5 333.5q0 189 53.5 336.5t148.5 239.5t221 139t276 47q160 0 293.5 -59t222 -174.5
t110.5 -270.5h-188q-23 155 -147.5 247.5t-290.5 92.5q-231 0 -369.5 -151.5t-138.5 -446.5q0 -292 138 -443t370 -151q82 0 160.5 25.5t144 74t108 129t46.5 179.5v22h-455v164h639v-729h-164l-20 176h-21q-91 -104 -212 -154.5t-247 -50.5z" />
    <glyph glyph-name="gbreve" unicode="&#x11f;" horiz-adv-x="1249" 
d="M625 1196q-128 0 -211.5 83.5t-98.5 238.5h146q12 -85 55.5 -133t108.5 -48q64 0 107.5 48t55.5 133h144q-15 -155 -98 -238.5t-209 -83.5zM606 -418q-241 0 -364 88t-123 246v14h178q0 -198 307 -198q159 0 262 92.5t103 275.5v144h-21q-131 -191 -385 -191
q-221 0 -361.5 136.5t-140.5 379.5t140.5 379.5t361.5 136.5q254 0 385 -184h21l20 156h158v-944q0 -114 -31.5 -206t-83.5 -152t-123.5 -99.5t-146.5 -56.5t-156 -17zM606 205q160 0 261.5 99t101.5 265t-102 265.5t-261 99.5q-164 0 -264 -96.5t-100 -268.5
q0 -170 100 -267t264 -97z" />
    <glyph glyph-name="Gdotaccent" unicode="&#x120;" horiz-adv-x="1505" 
d="M752 1602q-57 0 -95.5 37.5t-38.5 95.5q0 57 38.5 95t95.5 38q58 0 95.5 -38t37.5 -95q0 -59 -37.5 -96t-95.5 -37zM739 -29q-144 0 -265.5 47.5t-214.5 139t-145.5 238t-52.5 333.5q0 189 53.5 336.5t148.5 239.5t221 139t276 47q160 0 293.5 -59t222 -174.5
t110.5 -270.5h-188q-23 155 -147.5 247.5t-290.5 92.5q-231 0 -369.5 -151.5t-138.5 -446.5q0 -292 138 -443t370 -151q82 0 160.5 25.5t144 74t108 129t46.5 179.5v22h-455v164h639v-729h-164l-20 176h-21q-91 -104 -212 -154.5t-247 -50.5z" />
    <glyph glyph-name="gdotaccent" unicode="&#x121;" horiz-adv-x="1249" 
d="M625 1227q-52 0 -85.5 34t-33.5 87q0 51 33.5 84.5t85.5 33.5t86 -33.5t34 -84.5q0 -53 -34 -87t-86 -34zM606 -418q-241 0 -364 88t-123 246v14h178q0 -198 307 -198q159 0 262 92.5t103 275.5v144h-21q-131 -191 -385 -191q-221 0 -361.5 136.5t-140.5 379.5
t140.5 379.5t361.5 136.5q254 0 385 -184h21l20 156h158v-944q0 -114 -31.5 -206t-83.5 -152t-123.5 -99.5t-146.5 -56.5t-156 -17zM606 205q160 0 261.5 99t101.5 265t-102 265.5t-261 99.5q-164 0 -264 -96.5t-100 -268.5q0 -170 100 -267t264 -97z" />
    <glyph glyph-name="uni0122" unicode="&#x122;" horiz-adv-x="1505" 
d="M739 -29q-144 0 -265.5 47.5t-214.5 139t-145.5 238t-52.5 333.5q0 189 53.5 336.5t148.5 239.5t221 139t276 47q160 0 293.5 -59t222 -174.5t110.5 -270.5h-188q-23 155 -147.5 247.5t-290.5 92.5q-231 0 -369.5 -151.5t-138.5 -446.5q0 -292 138 -443t370 -151
q82 0 160.5 25.5t144 74t108 129t46.5 179.5v22h-455v164h639v-729h-164l-20 176h-21q-91 -104 -212 -154.5t-247 -50.5zM772 -428h-127l43 346h189z" />
    <glyph glyph-name="uni0123" unicode="&#x123;" horiz-adv-x="1249" 
d="M625 1548h127l-45 -346h-187zM606 -418q-241 0 -364 88t-123 246v14h178q0 -198 307 -198q159 0 262 92.5t103 275.5v144h-21q-131 -191 -385 -191q-221 0 -361.5 136.5t-140.5 379.5t140.5 379.5t361.5 136.5q254 0 385 -184h21l20 156h158v-944q0 -114 -31.5 -206
t-83.5 -152t-123.5 -99.5t-146.5 -56.5t-156 -17zM606 205q160 0 261.5 99t101.5 265t-102 265.5t-261 99.5q-164 0 -264 -96.5t-100 -268.5q0 -170 100 -267t264 -97z" />
    <glyph glyph-name="Hcircumflex" unicode="&#x124;" horiz-adv-x="1443" 
d="M541 1583h-174l239 330h230l241 -330h-180l-178 207zM287 0h-185v1462h185v-649h870v649h184v-1462h-184v649h-870v-649z" />
    <glyph glyph-name="hcircumflex" unicode="&#x125;" 
d="M25 1497h-166l223 324h225l223 -324h-170l-167 209zM283 0h-181v1462h181v-567h20q126 190 385 190q205 0 321.5 -122.5t116.5 -374.5v-588h-178v594q0 167 -84 252.5t-221 85.5q-164 0 -262 -102.5t-98 -290.5v-539z" />
    <glyph glyph-name="Hbar" unicode="&#x126;" horiz-adv-x="1597" 
d="M1419 1167h103v-149h-103v-1018h-184v588h-870v-588h-185v1018h-102v149h102v295h185v-295h870v295h184v-295zM365 752h870v266h-870v-266z" />
    <glyph glyph-name="hbar" unicode="&#x127;" 
d="M688 1040q205 0 321.5 -122.5t116.5 -374.5v-543h-178v547q0 168 -84 253t-221 85q-164 0 -262 -101.5t-98 -289.5v-494h-181v1143h-133v143h133v176h181v-176h385v-143h-385v-293h20q128 190 385 190z" />
    <glyph glyph-name="Itilde" unicode="&#x128;" horiz-adv-x="389" 
d="M362 1577q-52 0 -103 22.5t-84 49t-71 49t-67 22.5q-33 0 -62.5 -30t-35.5 -84h-152q10 125 82.5 192.5t165.5 67.5q52 0 103 -23t85 -50t73.5 -50t70.5 -23q35 0 62 26t32 89h147q-8 -125 -80.5 -191.5t-165.5 -66.5zM287 0h-185v1462h185v-1462z" />
    <glyph glyph-name="itilde" unicode="&#x129;" horiz-adv-x="385" 
d="M362 1196q-45 0 -84.5 15t-67 36t-52.5 42.5t-52 36.5t-55 15q-43 0 -71.5 -29t-34.5 -85h-127q8 126 78.5 193t162.5 67q45 0 84 -15t66 -36.5t51 -43t51.5 -36.5t55.5 -15q43 0 71 29t35 86h127q-8 -126 -77 -193t-161 -67zM283 0h-181v1057h181v-1057z" />
    <glyph glyph-name="Imacron" unicode="&#x12a;" horiz-adv-x="389" 
d="M541 1642h-686v154h686v-154zM287 0h-185v1462h185v-1462z" />
    <glyph glyph-name="imacron" unicode="&#x12b;" horiz-adv-x="385" 
d="M483 1272h-577v143h577v-143zM283 0h-181v1057h181v-1057z" />
    <glyph glyph-name="Ibreve" unicode="&#x12c;" horiz-adv-x="389" 
d="M197 1563q-141 0 -233 92.5t-107 240.5h153q39 -188 187 -188q147 0 186 188h152q-15 -149 -106.5 -241t-231.5 -92zM287 0h-185v1462h185v-1462z" />
    <glyph glyph-name="ibreve" unicode="&#x12d;" horiz-adv-x="385" 
d="M195 1196q-128 0 -211.5 83.5t-98.5 238.5h146q12 -85 55.5 -133t108.5 -48q64 0 107.5 48t55.5 133h144q-15 -155 -98 -238.5t-209 -83.5zM283 0h-181v1057h181v-1057z" />
    <glyph glyph-name="Iogonek" unicode="&#x12e;" horiz-adv-x="389" 
d="M287 0h-37q-78 -38 -129 -93t-51 -106q0 -40 22 -62t62 -22q47 0 120 23v-133q-83 -25 -155 -25q-106 0 -163.5 48t-57.5 134q0 74 58.5 152t145.5 117v1429h185v-1462z" />
    <glyph glyph-name="iogonek" unicode="&#x12f;" horiz-adv-x="385" 
d="M193 1231q-51 0 -84 33t-33 84t33 83.5t84 32.5t83.5 -32.5t32.5 -83.5t-32.5 -84t-83.5 -33zM102 33v1024h181v-1057h-33q-78 -38 -129 -93t-51 -106q0 -40 22 -62t62 -22q47 0 120 23v-133q-83 -25 -153 -25q-107 0 -165 47.5t-58 134.5q0 74 58.5 151t145.5 118z" />
    <glyph glyph-name="Idotaccent" unicode="&#x130;" horiz-adv-x="389" 
d="M193 1602q-57 0 -95.5 37.5t-38.5 95.5q0 57 38.5 95t95.5 38q58 0 95.5 -38t37.5 -95q0 -59 -37 -96t-96 -37zM287 0h-185v1462h185v-1462z" />
    <glyph glyph-name="dotlessi" unicode="&#x131;" horiz-adv-x="385" 
d="M283 0h-181v1057h181v-1057z" />
    <glyph glyph-name="IJ" unicode="&#x132;" horiz-adv-x="1486" 
d="M287 0h-185v1462h185v-1462zM889 -29q-242 0 -359.5 121.5t-117.5 339.5v23h184q0 -157 69 -238.5t220 -81.5q162 0 238.5 98.5t76.5 311.5v917h184v-921q0 -294 -120.5 -432t-374.5 -138z" />
    <glyph glyph-name="ij" unicode="&#x133;" horiz-adv-x="768" 
d="M193 1231q-51 0 -84 33t-33 84t33 83.5t84 32.5t83.5 -32.5t32.5 -83.5t-32.5 -84t-83.5 -33zM578 1231q-51 0 -84 33t-33 84t33 83.5t84 32.5t83.5 -32.5t32.5 -83.5t-32.5 -84t-83.5 -33zM283 0h-181v1057h181v-1057zM668 -389h-181v1446h181v-1446z" />
    <glyph glyph-name="Jcircumflex" unicode="&#x134;" horiz-adv-x="1097" 
d="M369 1583h-176l241 330h230l239 -330h-178l-180 207zM500 -29q-242 0 -359.5 121.5t-117.5 339.5v23h184q0 -157 69 -238.5t220 -81.5q162 0 238.5 98.5t76.5 311.5v917h184v-921q0 -294 -120.5 -432t-374.5 -138z" />
    <glyph glyph-name="jcircumflex" unicode="&#x135;" horiz-adv-x="385" 
d="M23 1206h-166l223 324h225l221 -324h-168l-170 209zM283 -389h-181v1446h181v-1446z" />
    <glyph glyph-name="uni0136" unicode="&#x136;" horiz-adv-x="1251" 
d="M287 0h-185v1462h185v-661h20l703 661h241l-755 -712l796 -750h-266l-719 674h-20v-674zM625 -428h-125l43 346h186z" />
    <glyph glyph-name="uni0137" unicode="&#x137;" horiz-adv-x="1021" 
d="M283 0h-181v1462h181v-846h20l508 441h242l-572 -492l578 -565h-250l-506 496h-20v-496zM516 -428h-127l45 346h187z" />
    <glyph glyph-name="Lacute" unicode="&#x139;" horiz-adv-x="1095" 
d="M276 1579h-174l215 328h261zM1075 0h-973v1462h185v-1298h788v-164z" />
    <glyph glyph-name="lacute" unicode="&#x13a;" horiz-adv-x="385" 
d="M258 1575h-152l168 330h222zM283 0h-181v1462h181v-1462z" />
    <glyph glyph-name="uni013B" unicode="&#x13b;" horiz-adv-x="1095" 
d="M1075 0h-973v1462h185v-1298h788v-164zM553 -428h-127l43 346h188z" />
    <glyph glyph-name="uni013C" unicode="&#x13c;" horiz-adv-x="385" 
d="M283 0h-181v1462h181v-1462zM180 -428h-125l43 346h187z" />
    <glyph glyph-name="Lcaron" unicode="&#x13d;" horiz-adv-x="1095" 
d="M522 1147h-110l39 385h182zM1075 0h-973v1462h185v-1298h788v-164z" />
    <glyph glyph-name="lcaron" unicode="&#x13e;" horiz-adv-x="536" 
d="M471 1147h-113l41 385h181zM283 0h-181v1462h181v-1462z" />
    <glyph glyph-name="Ldot" unicode="&#x13f;" horiz-adv-x="1095" 
d="M1075 0h-973v1462h185v-1298h788v-164zM750 598q-59 0 -97.5 37.5t-38.5 95.5q0 57 39 95t97 38q56 0 93.5 -38t37.5 -95q0 -58 -37.5 -95.5t-93.5 -37.5z" />
    <glyph glyph-name="ldot" unicode="&#x140;" horiz-adv-x="747" 
d="M283 0h-181v1462h181v-1462zM565 598q-59 0 -97 37.5t-38 95.5q0 57 38.5 95t96.5 38q56 0 93.5 -38t37.5 -95q0 -58 -37.5 -95.5t-93.5 -37.5z" />
    <glyph glyph-name="Lslash" unicode="&#x141;" horiz-adv-x="1208" 
d="M399 602v-438h789v-164h-973v514l-137 -65v165l137 66v782h184v-694l459 217v-166z" />
    <glyph glyph-name="lslash" unicode="&#x142;" horiz-adv-x="425" 
d="M303 831l127 84v-178l-127 -84v-653h-180v535l-129 -84v178l129 84v749h180v-631z" />
    <glyph glyph-name="Nacute" unicode="&#x143;" horiz-adv-x="1443" 
d="M750 1583h-172l213 330h260zM287 0h-185v1462h205l830 -1153h20v1153h184v-1462h-204l-830 1153h-20v-1153z" />
    <glyph glyph-name="nacute" unicode="&#x144;" 
d="M643 1204h-151l167 328h222zM283 0h-181v578q0 255 134 381t378 126q512 0 512 -493v-592h-178v592q0 175 -87.5 257.5t-246.5 82.5q-157 0 -244 -87.5t-87 -266.5v-578z" />
    <glyph glyph-name="uni0145" unicode="&#x145;" horiz-adv-x="1443" 
d="M287 0h-185v1462h205l830 -1153h20v1153h184v-1462h-204l-830 1153h-20v-1153zM717 -428h-125l43 346h186z" />
    <glyph glyph-name="uni0146" unicode="&#x146;" 
d="M283 0h-181v578q0 255 134 381t378 126q512 0 512 -493v-592h-178v592q0 175 -87.5 257.5t-246.5 82.5q-157 0 -244 -87.5t-87 -266.5v-578zM621 -428h-127l43 346h188z" />
    <glyph glyph-name="Ncaron" unicode="&#x147;" horiz-adv-x="1443" 
d="M838 1583h-230l-241 330h178l180 -207l178 207h174zM287 0h-185v1462h205l830 -1153h20v1153h184v-1462h-204l-830 1153h-20v-1153z" />
    <glyph glyph-name="ncaron" unicode="&#x148;" 
d="M727 1208h-225l-221 324h168l169 -209l166 209h166zM283 0h-181v578q0 255 134 381t378 126q512 0 512 -493v-592h-178v592q0 175 -87.5 257.5t-246.5 82.5q-157 0 -244 -87.5t-87 -266.5v-578z" />
    <glyph glyph-name="Eng" unicode="&#x14a;" horiz-adv-x="1443" 
d="M1157 309v1153h184v-1534q0 -184 -79.5 -265t-227.5 -81q-72 0 -188 17v145q88 -10 141 -10q93 0 134.5 42t41.5 158v66h-26l-830 1153h-20v-1153h-185v1462h205l830 -1153h20z" />
    <glyph glyph-name="eng" unicode="&#x14b;" 
d="M819 -418q-76 0 -188 17v145q88 -10 141 -10q92 0 134 42t42 158v658q0 175 -87.5 257.5t-246.5 82.5q-157 0 -244 -87.5t-87 -266.5v-578h-181v578q0 255 134 381t378 126q512 0 512 -493v-664q0 -184 -79.5 -265t-227.5 -81z" />
    <glyph glyph-name="Omacron" unicode="&#x14c;" horiz-adv-x="1546" 
d="M1118 1642h-686v154h686v-154zM774 -29q-335 0 -524 198.5t-189 561.5t189 561.5t524 198.5q334 0 522.5 -198.5t188.5 -561.5t-188.5 -561.5t-522.5 -198.5zM774 135q247 0 384.5 155t137.5 441t-137.5 441t-384.5 155q-249 0 -385.5 -155t-136.5 -441t136.5 -441
t385.5 -155z" />
    <glyph glyph-name="omacron" unicode="&#x14d;" 
d="M950 1272h-669v143h669v-143zM614 -29q-121 0 -221 34.5t-174.5 102t-116 175t-41.5 245.5t41.5 245.5t116 175t174.5 102t221 34.5q165 0 287.5 -59.5t194 -186.5t71.5 -311t-71.5 -311t-194 -186.5t-287.5 -59.5zM614 121q170 0 270.5 103.5t100.5 303.5t-101 304
t-270 104t-269.5 -103.5t-100.5 -304.5q0 -199 100.5 -303t269.5 -104z" />
    <glyph glyph-name="Obreve" unicode="&#x14e;" horiz-adv-x="1546" 
d="M774 1602q-128 0 -211 83t-98 238h145q12 -85 55.5 -132.5t108.5 -47.5t108.5 47.5t55.5 132.5h143q-15 -155 -98 -238t-209 -83zM774 -29q-335 0 -524 198.5t-189 561.5t189 561.5t524 198.5q334 0 522.5 -198.5t188.5 -561.5t-188.5 -561.5t-522.5 -198.5zM774 135
q247 0 384.5 155t137.5 441t-137.5 441t-384.5 155q-249 0 -385.5 -155t-136.5 -441t136.5 -441t385.5 -155z" />
    <glyph glyph-name="obreve" unicode="&#x14f;" 
d="M614 1196q-128 0 -211 83.5t-98 238.5h146q12 -85 55.5 -133t107.5 -48q65 0 108.5 48t55.5 133h144q-15 -155 -98.5 -238.5t-209.5 -83.5zM614 -29q-121 0 -221 34.5t-174.5 102t-116 175t-41.5 245.5t41.5 245.5t116 175t174.5 102t221 34.5q165 0 287.5 -59.5
t194 -186.5t71.5 -311t-71.5 -311t-194 -186.5t-287.5 -59.5zM614 121q170 0 270.5 103.5t100.5 303.5t-101 304t-270 104t-269.5 -103.5t-100.5 -304.5q0 -199 100.5 -303t269.5 -104z" />
    <glyph glyph-name="Ohungarumlaut" unicode="&#x150;" horiz-adv-x="1546" 
d="M637 1583h-160l187 330h231zM1024 1583h-156l199 330h242zM774 -29q-335 0 -524 198.5t-189 561.5t189 561.5t524 198.5q334 0 522.5 -198.5t188.5 -561.5t-188.5 -561.5t-522.5 -198.5zM774 135q247 0 384.5 155t137.5 441t-137.5 441t-384.5 155q-249 0 -385.5 -155
t-136.5 -441t136.5 -441t385.5 -155z" />
    <glyph glyph-name="ohungarumlaut" unicode="&#x151;" 
d="M516 1204h-154l191 328h211zM885 1204h-152l191 328h209zM614 -29q-121 0 -221 34.5t-174.5 102t-116 175t-41.5 245.5t41.5 245.5t116 175t174.5 102t221 34.5q165 0 287.5 -59.5t194 -186.5t71.5 -311t-71.5 -311t-194 -186.5t-287.5 -59.5zM614 121q170 0 270.5 103.5
t100.5 303.5t-101 304t-270 104t-269.5 -103.5t-100.5 -304.5q0 -199 100.5 -303t269.5 -104z" />
    <glyph glyph-name="OE" unicode="&#x152;" horiz-adv-x="2390" 
d="M760 -29q-328 0 -513.5 198.5t-185.5 561.5t185.5 561.5t513.5 198.5q356 0 534 -246v217h1024v-164h-839v-485h747v-164h-747v-485h850v-164h-1035v219q-172 -248 -534 -248zM774 135q247 0 384.5 155t137.5 441t-137.5 441t-384.5 155q-249 0 -385.5 -155t-136.5 -441
t136.5 -441t385.5 -155z" />
    <glyph glyph-name="oe" unicode="&#x153;" horiz-adv-x="2093" 
d="M606 -29q-246 0 -395.5 142t-149.5 415t149.5 415t395.5 142q161 0 280 -65t183 -191h21q61 124 173.5 190t258.5 66q236 0 373 -152.5t137 -393.5q0 -40 -4 -60h-863q12 -172 110.5 -268t244.5 -96q91 0 167.5 43t114.5 118h178q-43 -143 -168 -224t-286 -81
q-159 0 -269 68t-170 188h-20q-61 -124 -178 -190t-283 -66zM1171 616h672q-13 151 -102.5 238.5t-224.5 87.5q-134 0 -231 -86.5t-114 -239.5zM614 121q170 0 270.5 103.5t100.5 303.5t-101 304t-270 104t-269.5 -103.5t-100.5 -304.5q0 -199 100.5 -303t269.5 -104z" />
    <glyph glyph-name="Racute" unicode="&#x154;" horiz-adv-x="1349" 
d="M590 1583h-172l213 330h260zM287 0h-185v1462h564q118 0 211 -22t153 -59t99 -90.5t55 -112.5t16 -129q0 -143 -59 -238.5t-201 -140.5v-21q122 -33 182 -115.5t95 -234.5l71 -299h-188l-68 287q-12 52 -24.5 87.5t-38.5 75t-61.5 63t-94 39t-135.5 15.5h-391v-567z
M287 1298v-567h381q179 0 261.5 80.5t82.5 206.5q0 127 -81.5 203.5t-262.5 76.5h-381z" />
    <glyph glyph-name="racute" unicode="&#x155;" horiz-adv-x="716" 
d="M403 1204h-151l168 328h221zM283 0h-181v1057h160l21 -168h20q59 87 158 127.5t256 40.5v-168q-54 4 -80 4q-182 0 -268 -97.5t-86 -287.5v-508z" />
    <glyph glyph-name="uni0156" unicode="&#x156;" horiz-adv-x="1349" 
d="M287 0h-185v1462h564q118 0 211 -22t153 -59t99 -90.5t55 -112.5t16 -129q0 -143 -59 -238.5t-201 -140.5v-21q122 -33 182 -115.5t95 -234.5l71 -299h-188l-68 287q-12 52 -24.5 87.5t-38.5 75t-61.5 63t-94 39t-135.5 15.5h-391v-567zM287 1298v-567h381
q179 0 261.5 80.5t82.5 206.5q0 127 -81.5 203.5t-262.5 76.5h-381zM676 -428h-127l43 346h188z" />
    <glyph glyph-name="uni0157" unicode="&#x157;" horiz-adv-x="716" 
d="M283 0h-181v1057h160l21 -168h20q59 87 158 127.5t256 40.5v-168q-54 4 -80 4q-182 0 -268 -97.5t-86 -287.5v-508zM184 -428h-127l43 346h187z" />
    <glyph glyph-name="Rcaron" unicode="&#x158;" horiz-adv-x="1349" 
d="M713 1583h-230l-239 330h178l180 -207l176 207h176zM287 0h-185v1462h564q118 0 211 -22t153 -59t99 -90.5t55 -112.5t16 -129q0 -143 -59 -238.5t-201 -140.5v-21q122 -33 182 -115.5t95 -234.5l71 -299h-188l-68 287q-12 52 -24.5 87.5t-38.5 75t-61.5 63t-94 39
t-135.5 15.5h-391v-567zM287 1298v-567h381q179 0 261.5 80.5t82.5 206.5q0 127 -81.5 203.5t-262.5 76.5h-381z" />
    <glyph glyph-name="rcaron" unicode="&#x159;" horiz-adv-x="716" 
d="M485 1208h-225l-221 324h168l170 -209l166 209h166zM283 0h-181v1057h160l21 -168h20q59 87 158 127.5t256 40.5v-168q-54 4 -80 4q-182 0 -268 -97.5t-86 -287.5v-508z" />
    <glyph glyph-name="Sacute" unicode="&#x15a;" horiz-adv-x="1298" 
d="M686 1583h-172l215 330h260zM653 -29q-151 0 -266 34.5t-183.5 95t-103 137.5t-34.5 168v28h184v-18q0 -128 97.5 -206.5t301.5 -78.5q201 0 300.5 71.5t99.5 188.5q0 62 -32.5 106.5t-87 70t-125 43.5t-148.5 33t-156.5 32.5t-149 47.5t-125 72.5t-87 113t-32.5 163.5
q0 88 33 162.5t98 132t170.5 90.5t241.5 33q144 0 252 -34.5t171.5 -95.5t94.5 -139.5t31 -172.5v-21h-184v16q0 133 -88 210t-277 77q-177 0 -265.5 -71t-88.5 -185q0 -65 32 -112t86.5 -74t125.5 -46.5t149 -35t156 -33t149 -46.5t125.5 -70.5t86.5 -109.5t32 -159
q0 -86 -35.5 -160t-105 -132.5t-183.5 -92t-260 -33.5z" />
    <glyph glyph-name="sacute" unicode="&#x15b;" horiz-adv-x="1054" 
d="M551 1204h-154l170 328h221zM528 -29q-232 0 -348.5 90t-116.5 234v18h179v-8q0 -84 71.5 -137t214.5 -53t215 47.5t72 136.5q0 50 -40.5 80.5t-105 44.5t-142 24.5t-155.5 28t-142.5 47t-105 89.5t-40.5 147q0 144 114.5 234.5t329.5 90.5q221 0 333 -91.5t112 -235.5
v-15h-178v13q0 81 -69 133.5t-198 52.5q-130 0 -198 -47t-68 -135q0 -52 40.5 -84t105 -46t142.5 -23.5t155.5 -26t142 -45t105 -88.5t40.5 -148q0 -146 -118 -237t-347 -91z" />
    <glyph glyph-name="Scircumflex" unicode="&#x15c;" horiz-adv-x="1298" 
d="M469 1583h-176l242 330h229l240 -330h-179l-180 207zM653 -29q-151 0 -266 34.5t-183.5 95t-103 137.5t-34.5 168v28h184v-18q0 -128 97.5 -206.5t301.5 -78.5q201 0 300.5 71.5t99.5 188.5q0 62 -32.5 106.5t-87 70t-125 43.5t-148.5 33t-156.5 32.5t-149 47.5
t-125 72.5t-87 113t-32.5 163.5q0 88 33 162.5t98 132t170.5 90.5t241.5 33q144 0 252 -34.5t171.5 -95.5t94.5 -139.5t31 -172.5v-21h-184v16q0 133 -88 210t-277 77q-177 0 -265.5 -71t-88.5 -185q0 -65 32 -112t86.5 -74t125.5 -46.5t149 -35t156 -33t149 -46.5
t125.5 -70.5t86.5 -109.5t32 -159q0 -86 -35.5 -160t-105 -132.5t-183.5 -92t-260 -33.5z" />
    <glyph glyph-name="scircumflex" unicode="&#x15d;" horiz-adv-x="1054" 
d="M356 1206h-163l223 324h223l223 -324h-170l-168 209zM528 -29q-232 0 -348.5 90t-116.5 234v18h179v-8q0 -84 71.5 -137t214.5 -53t215 47.5t72 136.5q0 50 -40.5 80.5t-105 44.5t-142 24.5t-155.5 28t-142.5 47t-105 89.5t-40.5 147q0 144 114.5 234.5t329.5 90.5
q221 0 333 -91.5t112 -235.5v-15h-178v13q0 81 -69 133.5t-198 52.5q-130 0 -198 -47t-68 -135q0 -52 40.5 -84t105 -46t142.5 -23.5t155.5 -26t142 -45t105 -88.5t40.5 -148q0 -146 -118 -237t-347 -91z" />
    <glyph glyph-name="Scedilla" unicode="&#x15e;" horiz-adv-x="1298" 
d="M1237 389q0 -79 -30.5 -148.5t-89.5 -125.5t-155.5 -93t-220.5 -47l-12 -53q53 -3 103 -19.5t90.5 -55t40.5 -91.5q0 -78 -76 -126t-193 -48q-108 0 -194 25v119q84 -17 157 -17q67 0 107.5 13.5t40.5 35.5q0 28 -51.5 44t-114.5 16h-70l33 155q-137 5 -242 41.5
t-168 96.5t-94.5 134t-31.5 161v28h184v-18q0 -128 97.5 -206.5t301.5 -78.5q201 0 300.5 71.5t99.5 188.5q0 62 -32.5 106.5t-87 70t-125 43.5t-148.5 33t-156.5 32.5t-149 47.5t-125 72.5t-87 113t-32.5 163.5q0 88 33 162.5t98 132t170.5 90.5t241.5 33q144 0 252 -34.5
t171.5 -95.5t94.5 -139.5t31 -172.5v-21h-184v16q0 133 -88 210t-277 77q-177 0 -265.5 -71t-88.5 -185q0 -65 32 -112t86.5 -74t125.5 -46.5t149 -35t156 -33t149 -46.5t125.5 -70.5t86.5 -109.5t32 -159z" />
    <glyph glyph-name="scedilla" unicode="&#x15f;" horiz-adv-x="1054" 
d="M993 299q0 -134 -99 -223t-292 -103l-12 -51q38 -2 76.5 -13t75 -29.5t59 -51t22.5 -72.5q0 -78 -76.5 -126t-193.5 -48q-107 0 -193 25v119q84 -17 158 -17q66 0 107 13.5t41 35.5q0 28 -52 44t-114 16h-70l31 155q-198 13 -298 101t-100 221v18h179v-8q0 -84 71.5 -137
t214.5 -53t215 47.5t72 136.5q0 50 -40.5 80.5t-105 44.5t-142 24.5t-155.5 28t-142.5 47t-105 89.5t-40.5 147q0 144 114.5 234.5t329.5 90.5q221 0 333 -91.5t112 -235.5v-15h-178v13q0 81 -69 133.5t-198 52.5q-130 0 -198 -47t-68 -135q0 -52 40.5 -84t105 -46
t142.5 -23.5t155.5 -26t142 -45t105 -88.5t40.5 -148z" />
    <glyph glyph-name="Scaron" unicode="&#x160;" horiz-adv-x="1298" 
d="M764 1583h-229l-242 330h180l178 -207l178 207h175zM653 -29q-151 0 -266 34.5t-183.5 95t-103 137.5t-34.5 168v28h184v-18q0 -128 97.5 -206.5t301.5 -78.5q201 0 300.5 71.5t99.5 188.5q0 62 -32.5 106.5t-87 70t-125 43.5t-148.5 33t-156.5 32.5t-149 47.5t-125 72.5
t-87 113t-32.5 163.5q0 88 33 162.5t98 132t170.5 90.5t241.5 33q144 0 252 -34.5t171.5 -95.5t94.5 -139.5t31 -172.5v-21h-184v16q0 133 -88 210t-277 77q-177 0 -265.5 -71t-88.5 -185q0 -65 32 -112t86.5 -74t125.5 -46.5t149 -35t156 -33t149 -46.5t125.5 -70.5
t86.5 -109.5t32 -159q0 -86 -35.5 -160t-105 -132.5t-183.5 -92t-260 -33.5z" />
    <glyph glyph-name="scaron" unicode="&#x161;" horiz-adv-x="1054" 
d="M639 1208h-223l-223 324h167l170 -209l166 209h166zM528 -29q-232 0 -348.5 90t-116.5 234v18h179v-8q0 -84 71.5 -137t214.5 -53t215 47.5t72 136.5q0 50 -40.5 80.5t-105 44.5t-142 24.5t-155.5 28t-142.5 47t-105 89.5t-40.5 147q0 144 114.5 234.5t329.5 90.5
q221 0 333 -91.5t112 -235.5v-15h-178v13q0 81 -69 133.5t-198 52.5q-130 0 -198 -47t-68 -135q0 -52 40.5 -84t105 -46t142.5 -23.5t155.5 -26t142 -45t105 -88.5t40.5 -148q0 -146 -118 -237t-347 -91z" />
    <glyph glyph-name="uni0162" unicode="&#x162;" horiz-adv-x="1189" 
d="M686 1298v-1298h-22l-19 -78q53 -3 101 -19.5t85 -55t37 -91.5q0 -78 -75.5 -126t-192.5 -48q-108 0 -194 25v121q97 -19 163 -19q64 0 103 13.5t39 35.5q0 28 -51.5 44t-114.5 16h-70l37 182h-10v1298h-492v164h1170v-164h-494z" />
    <glyph glyph-name="uni0163" unicode="&#x163;" horiz-adv-x="808" 
d="M481 903v-903h-26l-21 -78q53 -3 101 -19.5t85 -55t37 -91.5q0 -78 -75.5 -126t-192.5 -48q-105 0 -194 25v119q84 -17 157 -17q67 0 107.5 13.5t40.5 35.5q0 28 -51 44t-113 16h-72l37 182v903h-260v154h260v282h180v-282h287v-154h-287z" />
    <glyph glyph-name="Tcaron" unicode="&#x164;" horiz-adv-x="1189" 
d="M709 1583h-230l-239 330h178l180 -207l178 207h174zM686 0h-184v1298h-492v164h1170v-164h-494v-1298z" />
    <glyph glyph-name="tcaron" unicode="&#x165;" horiz-adv-x="817" 
d="M670 1147h-113l41 385h182zM481 0h-180v903h-260v154h260v282h180v-282h287v-154h-287v-903z" />
    <glyph glyph-name="Tbar" unicode="&#x166;" horiz-adv-x="1189" 
d="M1180 1462v-164h-494v-489h301v-158h-301v-651h-184v651h-316v158h316v489h-492v164h1170z" />
    <glyph glyph-name="tbar" unicode="&#x167;" horiz-adv-x="808" 
d="M768 1057v-154h-287v-272h250v-144h-250v-487h-180v487h-238v144h238v272h-260v154h260v282h180v-282h287z" />
    <glyph glyph-name="Utilde" unicode="&#x168;" horiz-adv-x="1443" 
d="M887 1577q-52 0 -103 22.5t-83.5 49t-71 49t-68.5 22.5q-33 0 -62 -30t-36 -84h-150q8 125 81.5 192.5t166.5 67.5q51 0 102 -23t84.5 -50t73 -50t70.5 -23q35 0 62 26t32 89h148q-8 -125 -80.5 -191.5t-165.5 -66.5zM723 -29q-301 0 -461 142.5t-160 437.5v911h185v-913
q0 -209 113 -311.5t323 -102.5q434 0 434 414v913h184v-911q0 -580 -618 -580z" />
    <glyph glyph-name="utilde" unicode="&#x169;" 
d="M782 1196q-45 0 -84 15t-66.5 36t-52 42.5t-52.5 36.5t-56 15q-43 0 -71 -28.5t-35 -85.5h-127q8 126 78.5 193t162.5 67q55 0 102.5 -23t74.5 -50t62 -50t68 -23q43 0 71.5 29t35.5 86h127q-8 -126 -77 -193t-161 -67zM614 -29q-246 0 -379 120.5t-133 373.5v592h181
v-592q0 -340 331 -340q158 0 246 88.5t88 267.5v576h178v-576q0 -255 -134 -382.5t-378 -127.5z" />
    <glyph glyph-name="Umacron" unicode="&#x16a;" horiz-adv-x="1443" 
d="M1067 1642h-686v154h686v-154zM723 -29q-301 0 -461 142.5t-160 437.5v911h185v-913q0 -209 113 -311.5t323 -102.5q434 0 434 414v913h184v-911q0 -580 -618 -580z" />
    <glyph glyph-name="umacron" unicode="&#x16b;" 
d="M950 1272h-669v143h669v-143zM614 -29q-246 0 -379 120.5t-133 373.5v592h181v-592q0 -340 331 -340q158 0 246 88.5t88 267.5v576h178v-576q0 -255 -134 -382.5t-378 -127.5z" />
    <glyph glyph-name="Ubreve" unicode="&#x16c;" horiz-adv-x="1443" 
d="M723 1563q-140 0 -231.5 92t-106.5 241h152q39 -188 186 -188t186 188h152q-15 -149 -106.5 -241t-231.5 -92zM723 -29q-301 0 -461 142.5t-160 437.5v911h185v-913q0 -209 113 -311.5t323 -102.5q434 0 434 414v913h184v-911q0 -580 -618 -580z" />
    <glyph glyph-name="ubreve" unicode="&#x16d;" 
d="M614 1196q-128 0 -211 83.5t-98 238.5h146q12 -85 55.5 -133t107.5 -48q65 0 108.5 48t55.5 133h144q-15 -155 -98.5 -238.5t-209.5 -83.5zM614 -29q-246 0 -379 120.5t-133 373.5v592h181v-592q0 -340 331 -340q158 0 246 88.5t88 267.5v576h178v-576
q0 -255 -134 -382.5t-378 -127.5z" />
    <glyph glyph-name="Uring" unicode="&#x16e;" horiz-adv-x="1443" 
d="M721 1524q-105 0 -175.5 62t-70.5 161q0 98 71 160.5t175 62.5t175 -62.5t71 -160.5q0 -99 -70.5 -161t-175.5 -62zM721 1630q47 0 76.5 33.5t29.5 83.5t-29.5 83.5t-76.5 33.5q-45 0 -75 -33.5t-30 -83.5t30 -83.5t75 -33.5zM723 -29q-301 0 -461 142.5t-160 437.5v911
h185v-913q0 -209 113 -311.5t323 -102.5q434 0 434 414v913h184v-911q0 -580 -618 -580z" />
    <glyph glyph-name="uring" unicode="&#x16f;" 
d="M614 1147q-98 0 -164.5 63.5t-66.5 159.5q0 95 67 159t164 64q98 0 165 -64t67 -159q0 -96 -66.5 -159.5t-165.5 -63.5zM614 1257q45 0 72 32.5t27 80.5q0 50 -27 81.5t-72 31.5q-44 0 -71 -31.5t-27 -81.5q0 -48 27.5 -80.5t70.5 -32.5zM614 -29q-246 0 -379 120.5
t-133 373.5v592h181v-592q0 -340 331 -340q158 0 246 88.5t88 267.5v576h178v-576q0 -255 -134 -382.5t-378 -127.5z" />
    <glyph glyph-name="Uhungarumlaut" unicode="&#x170;" horiz-adv-x="1443" 
d="M545 1583h-160l186 330h232zM932 1583h-156l199 330h242zM723 -29q-301 0 -461 142.5t-160 437.5v911h185v-913q0 -209 113 -311.5t323 -102.5q434 0 434 414v913h184v-911q0 -580 -618 -580z" />
    <glyph glyph-name="uhungarumlaut" unicode="&#x171;" 
d="M485 1204h-153l190 328h211zM854 1204h-152l191 328h209zM614 -29q-246 0 -379 120.5t-133 373.5v592h181v-592q0 -340 331 -340q158 0 246 88.5t88 267.5v576h178v-576q0 -255 -134 -382.5t-378 -127.5z" />
    <glyph glyph-name="Uogonek" unicode="&#x172;" horiz-adv-x="1443" 
d="M1157 549v913h184v-911q0 -426 -329 -539q-87 -39 -142 -99t-55 -112q0 -39 25.5 -61.5t64.5 -22.5q47 0 123 23v-133q-83 -25 -156 -25q-108 0 -168.5 48t-60.5 134q0 52 30.5 106.5t86.5 100.5h-37q-301 0 -461 142.5t-160 437.5v911h185v-913q0 -209 113 -311.5
t323 -102.5q434 0 434 414z" />
    <glyph glyph-name="uogonek" unicode="&#x173;" 
d="M948 481v576h178v-576q0 -341 -239 -456q-71 -41 -118.5 -108t-47.5 -116q0 -39 25.5 -61.5t66.5 -22.5q48 0 121 23v-133q-83 -25 -156 -25q-106 0 -166.5 48t-60.5 134q0 104 98 207h-35q-246 0 -379 120.5t-133 373.5v592h181v-592q0 -340 331 -340q158 0 246 88.5
t88 267.5z" />
    <glyph glyph-name="Wcircumflex" unicode="&#x174;" horiz-adv-x="1902" 
d="M770 1583h-174l242 330h229l240 -330h-179l-180 207zM637 0h-240l-415 1462h204l324 -1208h20l314 1208h223l315 -1208h21l323 1208h195l-414 -1462h-239l-305 1159h-21z" />
    <glyph glyph-name="wcircumflex" unicode="&#x175;" horiz-adv-x="1607" 
d="M633 1206h-164l221 324h225l224 -324h-170l-168 209zM526 0h-207l-360 1057h193l264 -824h18l266 824h213l267 -824h18l264 824h187l-361 -1057h-207l-268 823h-18z" />
    <glyph glyph-name="Ycircumflex" unicode="&#x176;" horiz-adv-x="1269" 
d="M455 1583h-176l241 330h230l239 -330h-178l-180 207zM727 0h-184v543l-584 919h221l449 -721h18l453 721h211l-584 -919v-543z" />
    <glyph glyph-name="ycircumflex" unicode="&#x177;" horiz-adv-x="1001" 
d="M330 1206h-164l223 324h223l224 -324h-170l-168 209zM432 -389h-194l165 389l-444 1057h197l338 -832h20l338 832h190z" />
    <glyph glyph-name="Ydieresis" unicode="&#x178;" horiz-adv-x="1269" 
d="M383 1602q-57 0 -95 37.5t-38 95.5q0 57 38 95t95 38q58 0 95.5 -38t37.5 -95q0 -59 -37 -96t-96 -37zM885 1602q-57 0 -95 37.5t-38 95.5q0 57 38 95t95 38q58 0 95.5 -38t37.5 -95q0 -59 -37 -96t-96 -37zM727 0h-184v543l-584 919h221l449 -721h18l453 721h211
l-584 -919v-543z" />
    <glyph glyph-name="Zacute" unicode="&#x179;" horiz-adv-x="1239" 
d="M647 1583h-174l215 330h260zM1178 0h-1117v164l871 1114v20h-871v164h1117v-164l-869 -1114v-20h869v-164z" />
    <glyph glyph-name="zacute" unicode="&#x17a;" horiz-adv-x="1003" 
d="M526 1204h-153l170 328h221zM942 0h-881v154l644 729v20h-644v154h881v-154l-641 -729v-20h641v-154z" />
    <glyph glyph-name="Zdotaccent" unicode="&#x17b;" horiz-adv-x="1239" 
d="M618 1602q-57 0 -95 37.5t-38 95.5q0 57 38 95t95 38q58 0 96 -38t38 -95q0 -58 -37.5 -95.5t-96.5 -37.5zM1178 0h-1117v164l871 1114v20h-871v164h1117v-164l-869 -1114v-20h869v-164z" />
    <glyph glyph-name="zdotaccent" unicode="&#x17c;" horiz-adv-x="1003" 
d="M502 1227q-52 0 -85.5 34t-33.5 87q0 51 33.5 84.5t85.5 33.5t86.5 -33.5t34.5 -84.5q0 -52 -34.5 -86.5t-86.5 -34.5zM942 0h-881v154l644 729v20h-644v154h881v-154l-641 -729v-20h641v-154z" />
    <glyph glyph-name="Zcaron" unicode="&#x17d;" horiz-adv-x="1239" 
d="M733 1583h-229l-240 330h178l181 -207l176 207h176zM1178 0h-1117v164l871 1114v20h-871v164h1117v-164l-869 -1114v-20h869v-164z" />
    <glyph glyph-name="zcaron" unicode="&#x17e;" horiz-adv-x="1003" 
d="M614 1208h-225l-221 324h168l170 -209l166 209h166zM942 0h-881v154l644 729v20h-644v154h881v-154l-641 -729v-20h641v-154z" />
    <glyph glyph-name="florin" unicode="&#x192;" horiz-adv-x="874" 
d="M219 -418q-72 0 -188 17v145q88 -10 141 -10q93 0 134.5 42t41.5 158v592h-317v158h317v393q0 226 72 320t235 94q53 0 189 -16v-146q-88 10 -142 10q-92 0 -133 -42t-41 -158v-455h316v-158h-316v-598q0 -183 -80.5 -264.5t-228.5 -81.5z" />
    <glyph glyph-name="uni0218" unicode="&#x218;" horiz-adv-x="1298" 
d="M653 -29q-151 0 -266 34.5t-183.5 95t-103 137.5t-34.5 168v28h184v-18q0 -128 97.5 -206.5t301.5 -78.5q201 0 300.5 71.5t99.5 188.5q0 62 -32.5 106.5t-87 70t-125 43.5t-148.5 33t-156.5 32.5t-149 47.5t-125 72.5t-87 113t-32.5 163.5q0 88 33 162.5t98 132
t170.5 90.5t241.5 33q144 0 252 -34.5t171.5 -95.5t94.5 -139.5t31 -172.5v-21h-184v16q0 133 -88 210t-277 77q-177 0 -265.5 -71t-88.5 -185q0 -65 32 -112t86.5 -74t125.5 -46.5t149 -35t156 -33t149 -46.5t125.5 -70.5t86.5 -109.5t32 -159q0 -86 -35.5 -160
t-105 -132.5t-183.5 -92t-260 -33.5zM655 -428h-127l43 346h187z" />
    <glyph glyph-name="uni0219" unicode="&#x219;" horiz-adv-x="1054" 
d="M528 -29q-232 0 -348.5 90t-116.5 234v18h179v-8q0 -84 71.5 -137t214.5 -53t215 47.5t72 136.5q0 50 -40.5 80.5t-105 44.5t-142 24.5t-155.5 28t-142.5 47t-105 89.5t-40.5 147q0 144 114.5 234.5t329.5 90.5q221 0 333 -91.5t112 -235.5v-15h-178v13q0 81 -69 133.5
t-198 52.5q-130 0 -198 -47t-68 -135q0 -52 40.5 -84t105 -46t142.5 -23.5t155.5 -26t142 -45t105 -88.5t40.5 -148q0 -146 -118 -237t-347 -91zM532 -428h-126l45 346h186z" />
    <glyph glyph-name="uni021A" unicode="&#x21a;" horiz-adv-x="1189" 
d="M686 0h-184v1298h-492v164h1170v-164h-494v-1298zM580 -428h-127l43 346h186z" />
    <glyph glyph-name="uni021B" unicode="&#x21b;" horiz-adv-x="808" 
d="M481 0h-180v903h-260v154h260v282h180v-282h287v-154h-287v-903zM383 -428h-127l43 346h186z" />
    <glyph glyph-name="circumflex" unicode="&#x2c6;" horiz-adv-x="874" 
d="M268 1206h-166l224 324h223l223 -324h-168l-170 209z" />
    <glyph glyph-name="caron" unicode="&#x2c7;" horiz-adv-x="874" 
d="M549 1208h-223l-224 324h170l168 -209l168 209h164z" />
    <glyph glyph-name="breve" unicode="&#x2d8;" horiz-adv-x="821" 
d="M412 1196q-128 0 -211.5 83.5t-98.5 238.5h146q12 -85 55.5 -133t108.5 -48q64 0 107.5 48t55.5 133h144q-15 -155 -98 -238.5t-209 -83.5z" />
    <glyph glyph-name="dotaccent" unicode="&#x2d9;" horiz-adv-x="438" 
d="M219 1227q-52 0 -85.5 34t-33.5 87q0 51 33.5 84.5t85.5 33.5t86.5 -33.5t34.5 -84.5q0 -52 -34 -86.5t-87 -34.5z" />
    <glyph glyph-name="ring" unicode="&#x2da;" horiz-adv-x="657" 
d="M330 1147q-99 0 -165.5 63.5t-66.5 159.5q0 95 67 159t165 64q97 0 163 -64t66 -159q0 -96 -66 -159.5t-163 -63.5zM330 1257q45 0 71.5 32t26.5 81q0 50 -26.5 81.5t-71.5 31.5q-44 0 -71.5 -31.5t-27.5 -81.5q0 -48 27.5 -80.5t71.5 -32.5z" />
    <glyph glyph-name="ogonek" unicode="&#x2db;" horiz-adv-x="616" 
d="M360 -418q-107 0 -164 47.5t-57 134.5q0 88 77.5 175t184.5 114l101 -47q-83 -37 -138 -94.5t-55 -110.5q0 -40 22 -62t62 -22q48 0 121 23v-133q-83 -25 -154 -25z" />
    <glyph glyph-name="tilde" unicode="&#x2dc;" horiz-adv-x="972" 
d="M647 1196q-45 0 -84 15t-66.5 36t-52 42.5t-52.5 36.5t-56 15q-43 0 -71.5 -28.5t-35.5 -85.5h-127q8 126 79 193t163 67q55 0 102.5 -23t74.5 -50t62 -50t68 -23q43 0 71.5 29t35.5 86h127q-8 -126 -77 -193t-161 -67z" />
    <glyph glyph-name="hungarumlaut" unicode="&#x2dd;" horiz-adv-x="915" 
d="M287 1204h-154l193 328h211zM655 1204h-151l190 328h211z" />
    <glyph glyph-name="uni0326" unicode="&#x326;" horiz-adv-x="0" 
d="M-223 -428h-127l43 346h188z" />
    <glyph glyph-name="pi" unicode="&#x3c0;" 
d="M283 0h-181v1057h1024v-1057h-178v903h-665v-903z" />
    <glyph glyph-name="uni0401" unicode="&#x401;" horiz-adv-x="1198" 
d="M369 1602q-59 0 -96 37t-37 96q0 57 37.5 95t95.5 38q57 0 95 -38t38 -95q0 -58 -38 -95.5t-95 -37.5zM870 1602q-58 0 -95.5 37t-37.5 96q0 57 37.5 95t95.5 38q57 0 95.5 -38t38.5 -95q0 -58 -38.5 -95.5t-95.5 -37.5zM1137 0h-1035v1462h1024v-164h-839v-485h747v-164
h-747v-485h850v-164z" />
    <glyph glyph-name="uni0410" unicode="&#x410;" horiz-adv-x="1329" 
d="M158 0h-199l598 1462h215l598 -1462h-207l-145 367h-715zM651 1243l-286 -713h591l-284 713h-21z" />
    <glyph glyph-name="uni0411" unicode="&#x411;" horiz-adv-x="1255" 
d="M287 872h391q144 0 249 -34t164 -95.5t86 -137t27 -169.5q0 -75 -16.5 -138t-55 -119t-97.5 -95t-150 -61.5t-207 -22.5h-576v1462h973v-164h-788v-426zM287 164h385q181 0 262.5 75t81.5 197t-81.5 197.5t-262.5 75.5h-385v-545z" />
    <glyph glyph-name="uni0412" unicode="&#x412;" horiz-adv-x="1320" 
d="M809 0h-707v1462h666q119 0 208 -29.5t141 -82t77 -118t25 -145.5q0 -243 -211 -333v-21q128 -42 190 -136.5t62 -221.5q0 -80 -25 -146t-77 -118.5t-141 -81.5t-208 -29zM285 1303v-492h487q137 0 201.5 69.5t64.5 178.5q0 110 -64 177t-202 67h-487zM285 651v-489h522
q138 0 202 68t64 178q0 109 -64.5 176t-203.5 67h-520z" />
    <glyph glyph-name="uni0413" unicode="&#x413;" horiz-adv-x="1095" 
d="M102 0v1462h973v-164h-788v-1298h-185z" />
    <glyph glyph-name="uni0414" unicode="&#x414;" horiz-adv-x="1601" 
d="M1407 1462v-1298h164v-492h-160l-20 328h-1182l-19 -328h-159v492h141q107 108 165.5 284t65.5 463l15 551h989zM381 164h842v1134h-625l-10 -387q-7 -282 -61.5 -458t-145.5 -289z" />
    <glyph glyph-name="uni0415" unicode="&#x415;" horiz-adv-x="1198" 
d="M1137 0h-1035v1462h1024v-164h-839v-485h747v-164h-747v-485h850v-164z" />
    <glyph glyph-name="uni0416" unicode="&#x416;" horiz-adv-x="1949" 
d="M205 0h-246l719 737l-678 725h240l622 -661h21v661h184v-661h20l635 661h228l-678 -712l719 -750h-254l-650 674h-20v-674h-184v674h-21z" />
    <glyph glyph-name="uni0417" unicode="&#x417;" horiz-adv-x="1224" 
d="M598 -29q-269 0 -412 118t-143 331q0 25 2 37h184q-2 -4 -2 -17q0 -161 101 -238t282 -77q167 0 267 77t100 201q0 119 -99.5 191t-261.5 72h-170v149h162q146 0 238 72.5t92 191.5q0 122 -93.5 190t-250.5 68q-74 0 -137 -18.5t-113 -55.5t-78 -99t-28 -142v-31h-185v31
q0 116 40 206.5t113 147.5t170.5 86t215.5 29q66 0 126.5 -8t122 -26t111.5 -49.5t89.5 -74.5t61 -105t21.5 -138q0 -115 -70.5 -201t-187.5 -125v-21q131 -28 214 -120.5t83 -214.5q0 -89 -32 -162.5t-86 -123.5t-127 -84.5t-153.5 -50.5t-166.5 -16z" />
    <glyph glyph-name="uni0418" unicode="&#x418;" horiz-adv-x="1423" 
d="M1321 1462v-1462h-184v1171h-21l-809 -1171h-205v1462h185v-1171h20l809 1171h205z" />
    <glyph glyph-name="uni0419" unicode="&#x419;" horiz-adv-x="1423" 
d="M713 1563q-140 0 -231.5 92t-106.5 241h157q28 -204 181 -204q84 0 125.5 53.5t56.5 150.5h156q-15 -149 -106.5 -241t-231.5 -92zM1321 1462v-1462h-184v1171h-21l-809 -1171h-205v1462h185v-1171h20l809 1171h205z" />
    <glyph glyph-name="uni041A" unicode="&#x41a;" horiz-adv-x="1251" 
d="M287 0h-185v1462h185v-661h20l703 661h241l-755 -712l796 -750h-266l-719 674h-20v-674z" />
    <glyph glyph-name="uni041B" unicode="&#x41b;" horiz-adv-x="1509" 
d="M418 1462h989v-1462h-184v1298h-625l-16 -561q-4 -174 -26 -304.5t-59.5 -218.5t-93 -142t-122 -77.5t-152.5 -23.5q-51 0 -98 13v163q35 -12 69 -12q70 0 120.5 27t90.5 93t61 185.5t25 296.5z" />
    <glyph glyph-name="uni041C" unicode="&#x41c;" horiz-adv-x="1734" 
d="M283 0h-181v1462h267l489 -1212h21l489 1212h264v-1462h-180v1157h-20l-471 -1157h-187l-471 1157h-20v-1157z" />
    <glyph glyph-name="uni041D" unicode="&#x41d;" horiz-adv-x="1443" 
d="M287 0h-185v1462h185v-649h870v649h184v-1462h-184v649h-870v-649z" />
    <glyph glyph-name="uni041E" unicode="&#x41e;" horiz-adv-x="1546" 
d="M774 -29q-335 0 -524 198.5t-189 561.5t189 561.5t524 198.5q334 0 522.5 -198.5t188.5 -561.5t-188.5 -561.5t-522.5 -198.5zM774 135q247 0 384.5 155t137.5 441t-137.5 441t-384.5 155q-249 0 -385.5 -155t-136.5 -441t136.5 -441t385.5 -155z" />
    <glyph glyph-name="uni041F" unicode="&#x41f;" horiz-adv-x="1423" 
d="M287 0h-185v1462h1219v-1462h-184v1298h-850v-1298z" />
    <glyph glyph-name="uni0420" unicode="&#x420;" horiz-adv-x="1265" 
d="M287 0h-185v1462h557q120 0 214.5 -24.5t156 -66t101 -101.5t56.5 -127.5t17 -147.5q0 -79 -17 -146.5t-56.5 -128t-101 -103t-156 -67t-214.5 -24.5h-372v-526zM287 1298v-608h366q99 0 171 24t113 67t60 96t19 118q0 137 -86 220t-277 83h-366z" />
    <glyph glyph-name="uni0421" unicode="&#x421;" horiz-adv-x="1443" 
d="M756 -29q-150 0 -275.5 47.5t-219.5 140t-147 238.5t-53 332q0 187 52.5 334t147 239.5t220 140.5t275.5 48q161 0 296.5 -59t226.5 -175t110 -270h-189q-29 158 -152.5 249t-291.5 91q-227 0 -365.5 -153t-138.5 -445q0 -289 138.5 -441.5t365.5 -152.5q169 0 292 91.5
t152 250.5h189q-19 -157 -110 -273.5t-226.5 -174.5t-296.5 -58z" />
    <glyph glyph-name="uni0422" unicode="&#x422;" horiz-adv-x="1189" 
d="M686 0h-184v1298h-492v164h1170v-164h-494v-1298z" />
    <glyph glyph-name="uni0423" unicode="&#x423;" horiz-adv-x="1259" 
d="M532 0h-202l217 412l-588 1050h221l465 -862h19l444 862h203z" />
    <glyph glyph-name="uni0424" unicode="&#x424;" horiz-adv-x="1634" 
d="M51 731q0 287 178.5 442.5t497.5 155.5v195h180v-195q318 0 497 -156t179 -442t-179 -442t-497 -156v-194h-180v194q-319 0 -497.5 155.5t-178.5 442.5zM238 731q0 -211 128 -324.5t361 -113.5v878q-233 0 -361 -114.5t-128 -325.5zM907 1171v-878q232 0 361 113.5
t129 324.5t-129 325.5t-361 114.5z" />
    <glyph glyph-name="uni0425" unicode="&#x425;" horiz-adv-x="1359" 
d="M227 0h-227l563 729l-563 733h236l438 -579h18l438 579h228l-563 -729l565 -733h-238l-438 580h-16z" />
    <glyph glyph-name="uni0426" unicode="&#x426;" horiz-adv-x="1515" 
d="M1321 1462v-1298h164v-492h-158l-20 328h-1205v1462h185v-1298h850v1298h184z" />
    <glyph glyph-name="uni0427" unicode="&#x427;" horiz-adv-x="1300" 
d="M1014 756v706h184v-1462h-184v592h-17q-46 -3 -145 -10.5t-185 -12t-161 -4.5q-90 1 -166 23.5t-134.5 67.5t-91 117.5t-32.5 166.5v522h184v-491q0 -126 80.5 -184t206.5 -58q50 0 111.5 3t105.5 6t123.5 9t120.5 9z" />
    <glyph glyph-name="uni0428" unicode="&#x428;" horiz-adv-x="2068" 
d="M1966 0h-1864v1462h185v-1298h655v1298h184v-1298h656v1298h184v-1462z" />
    <glyph glyph-name="uni0429" unicode="&#x429;" horiz-adv-x="2160" 
d="M1966 1462v-1298h164v-492h-158l-20 328h-1850v1462h185v-1298h655v1298h184v-1298h656v1298h184z" />
    <glyph glyph-name="uni042A" unicode="&#x42a;" horiz-adv-x="1560" 
d="M582 823h370q290 0 418.5 -106.5t128.5 -304.5q0 -97 -29.5 -171t-92.5 -129t-170 -83.5t-255 -28.5h-555v1298h-366v164h551v-639zM582 164h364q195 0 279 61t84 187q0 124 -84 185.5t-279 61.5h-364v-495z" />
    <glyph glyph-name="uni042B" unicode="&#x42b;" horiz-adv-x="1654" 
d="M102 0v1462h185v-639h372q288 0 416.5 -106.5t128.5 -304.5q0 -199 -128 -305.5t-417 -106.5h-557zM1552 0h-184v1462h184v-1462zM653 659h-366v-495h366q194 0 278.5 61.5t84.5 186.5q0 124 -84.5 185.5t-278.5 61.5z" />
    <glyph glyph-name="uni042C" unicode="&#x42c;" horiz-adv-x="1265" 
d="M102 0v1462h185v-639h372q288 0 416.5 -106.5t128.5 -304.5q0 -199 -128 -305.5t-417 -106.5h-557zM653 659h-366v-495h366q194 0 278.5 61.5t84.5 186.5q0 124 -84.5 185.5t-278.5 61.5z" />
    <glyph glyph-name="uni042D" unicode="&#x42d;" horiz-adv-x="1443" 
d="M688 1491q150 0 275.5 -47.5t219.5 -140t146.5 -238.5t52.5 -332q0 -187 -52.5 -334t-146.5 -239.5t-219.5 -140.5t-275.5 -48q-161 0 -296 59t-225.5 175.5t-109.5 271.5h189q27 -159 150 -250.5t292 -91.5q210 0 346 131.5t156 382.5h-713v164h715q-21 252 -157.5 383
t-346.5 131q-169 0 -292 -90.5t-150 -249.5h-189q19 157 109.5 272.5t225.5 173.5t296 58z" />
    <glyph glyph-name="uni042E" unicode="&#x42e;" horiz-adv-x="2035" 
d="M1264 1491q334 0 522 -198.5t188 -561.5t-188 -561.5t-522 -198.5q-317 0 -503 176.5t-208 501.5h-266v-649h-185v1462h185v-649h266q22 325 208 501.5t503 176.5zM1264 135q247 0 383.5 155t136.5 441t-136.5 441t-383.5 155q-249 0 -387 -155t-138 -441t138 -441
t387 -155z" />
    <glyph glyph-name="uni042F" unicode="&#x42f;" horiz-adv-x="1349" 
d="M1247 1462v-1462h-184v567h-391q-77 0 -135.5 -15.5t-94.5 -39t-62 -63t-38.5 -75t-24.5 -87.5l-67 -287h-189l72 299q33 146 93.5 225.5t185.5 114.5v20q-143 47 -202.5 145t-59.5 245q0 70 16 129t55 112.5t99 90.5t153 59t211 22h563zM682 731h381v567h-381
q-93 0 -161 -21.5t-106.5 -60.5t-56.5 -88t-18 -110q0 -60 18 -109.5t56.5 -90.5t106.5 -64t161 -23z" />
    <glyph glyph-name="uni0430" unicode="&#x430;" horiz-adv-x="1249" 
d="M563 -29q-107 0 -198.5 36.5t-159 105.5t-106 175.5t-38.5 239.5q0 262 140.5 409.5t361.5 147.5q254 0 385 -184h21l20 156h158v-1057h-158l-20 162h-21q-129 -191 -385 -191zM606 123q164 0 264.5 105t100.5 300t-100.5 300.5t-264.5 105.5q-162 0 -262 -108t-100 -298
t100 -297.5t262 -107.5z" />
    <glyph glyph-name="uni0431" unicode="&#x431;" horiz-adv-x="1243" 
d="M629 -29q-125 0 -227.5 39t-179 115t-119 197t-42.5 276q0 223 45.5 385t135 264t213.5 153.5t290 61.5q228 13 324 51v-157q-116 -58 -352 -70q-224 -13 -338 -126t-143 -324h20q138 196 414 196q113 0 206 -33t162 -97t106.5 -165.5t37.5 -232.5q0 -261 -151 -397
t-402 -136zM629 121q170 0 270 97.5t100 285.5q0 186 -100.5 283.5t-269.5 97.5q-170 0 -270.5 -97.5t-100.5 -283.5q0 -187 101 -285t270 -98z" />
    <glyph glyph-name="uni0432" unicode="&#x432;" horiz-adv-x="1134" 
d="M715 0h-613v1057h572q185 0 271.5 -75.5t86.5 -195.5q0 -171 -160 -235v-21q102 -31 151.5 -98.5t49.5 -157.5q0 -124 -86 -199t-272 -75zM279 911v-309h399q91 0 134.5 43t43.5 113q0 68 -43.5 110.5t-134.5 42.5h-399zM279 457v-312h432q94 0 138 42.5t44 113.5
q0 69 -44 112.5t-138 43.5h-432z" />
    <glyph glyph-name="uni0433" unicode="&#x433;" horiz-adv-x="899" 
d="M283 0h-181v1057h787v-154h-606v-903z" />
    <glyph glyph-name="uni0434" unicode="&#x434;" horiz-adv-x="1351" 
d="M1159 1057v-903h162v-482h-154l-20 328h-942l-21 -328h-153v482h129q31 21 54 49t48 83t41.5 152.5t22.5 233.5l20 385h813zM371 154h610v749h-465l-10 -231q-6 -124 -20 -217.5t-35.5 -151.5t-38.5 -88.5t-41 -60.5z" />
    <glyph glyph-name="uni0435" unicode="&#x435;" horiz-adv-x="1169" 
d="M596 -29q-248 0 -391.5 152t-143.5 405q0 134 41 241t113.5 175.5t169.5 104.5t211 36q230 0 371 -146t141 -396q0 -36 -4 -64h-864q12 -171 110 -267.5t246 -96.5q90 0 167 42.5t116 118.5h178q-45 -145 -170.5 -225t-290.5 -80zM246 616h674q-13 151 -103 238.5
t-225 87.5q-134 0 -231.5 -86.5t-114.5 -239.5z" />
    <glyph glyph-name="uni0436" unicode="&#x436;" horiz-adv-x="1579" 
d="M209 0h-227l528 551l-522 506h235l457 -447h20v447h179v-447h20l465 447h225l-520 -496l526 -561h-235l-461 492h-20v-492h-179v492h-20z" />
    <glyph glyph-name="uni0437" unicode="&#x437;" horiz-adv-x="1120" 
d="M553 -29q-244 0 -368 85t-124 241v29h181v-29q0 -182 325 -182q154 0 233 46.5t79 137.5q0 83 -78.5 126.5t-229.5 43.5h-127v139h113q138 0 209.5 41t71.5 119q0 170 -289 170q-132 0 -215.5 -50t-83.5 -147v-20h-180v20q0 164 130 252t349 88q231 0 350 -74t119 -219
q0 -172 -193 -225v-20q115 -23 174.5 -87t59.5 -163q0 -158 -129 -240t-377 -82z" />
    <glyph glyph-name="uni0438" unicode="&#x438;" horiz-adv-x="1230" 
d="M283 0h-181v1057h181v-787h20l647 787h178v-1057h-178v788h-20z" />
    <glyph glyph-name="uni0439" unicode="&#x439;" horiz-adv-x="1230" 
d="M616 1196q-128 0 -211 83.5t-98 238.5h152q9 -100 50 -149.5t107 -49.5q65 0 107 49.5t51 149.5h150q-15 -155 -98 -238.5t-210 -83.5zM283 0h-181v1057h181v-787h20l647 787h178v-1057h-178v788h-20z" />
    <glyph glyph-name="uni043A" unicode="&#x43a;" horiz-adv-x="1028" 
d="M477 561l576 -561h-246l-504 492h-20v-492h-181v1057h181v-447h20l508 447h236z" />
    <glyph glyph-name="uni043B" unicode="&#x43b;" horiz-adv-x="1271" 
d="M1169 1057v-1057h-178v903h-475l-18 -379q-7 -154 -35.5 -262t-78.5 -171.5t-114 -91.5t-151 -28q-44 0 -88 13v153q35 -12 71 -12q37 0 66 10.5t56 38t45.5 72t31.5 114.5t18 164l27 533h823z" />
    <glyph glyph-name="uni043C" unicode="&#x43c;" horiz-adv-x="1454" 
d="M276 0h-174v1057h236l379 -832h20l379 832h236v-1057h-174v768h-21l-350 -768h-160l-350 768h-21v-768z" />
    <glyph glyph-name="uni043D" unicode="&#x43d;" 
d="M283 0h-181v1057h181v-451h665v451h178v-1057h-178v453h-665v-453z" />
    <glyph glyph-name="uni043E" unicode="&#x43e;" 
d="M614 -29q-121 0 -221 34.5t-174.5 102t-116 175t-41.5 245.5t41.5 245.5t116 175t174.5 102t221 34.5q165 0 287.5 -59.5t194 -186.5t71.5 -311t-71.5 -311t-194 -186.5t-287.5 -59.5zM614 121q170 0 270.5 103.5t100.5 303.5t-101 304t-270 104t-269.5 -103.5
t-100.5 -304.5q0 -199 100.5 -303t269.5 -104z" />
    <glyph glyph-name="uni043F" unicode="&#x43f;" horiz-adv-x="1218" 
d="M283 0h-181v1057h1014v-1057h-178v903h-655v-903z" />
    <glyph glyph-name="uni0440" unicode="&#x440;" horiz-adv-x="1249" 
d="M283 -389h-181v1446h160l21 -162h20q126 190 385 190q220 0 360 -147t140 -410q0 -132 -38 -238.5t-105.5 -175.5t-158.5 -106t-198 -37q-253 0 -385 185h-20v-545zM643 123q163 0 263 107.5t100 297.5t-100 298t-263 108q-164 0 -264 -105.5t-100 -300.5t100 -300
t264 -105z" />
    <glyph glyph-name="uni0441" unicode="&#x441;" horiz-adv-x="1116" 
d="M596 -29q-112 0 -207.5 34.5t-169.5 102t-116 175.5t-42 245t42 245t116 175.5t169.5 102t207.5 34.5q119 0 219.5 -42t169.5 -126.5t86 -199.5h-176q-20 98 -105 158.5t-194 60.5q-156 0 -254 -107t-98 -301t98 -300.5t254 -106.5q109 0 194 61t105 158h176
q-26 -170 -159.5 -269.5t-315.5 -99.5z" />
    <glyph glyph-name="uni0442" unicode="&#x442;" horiz-adv-x="1009" 
d="M416 903h-406v154h989v-154h-403v-903h-180v903z" />
    <glyph glyph-name="uni0443" unicode="&#x443;" horiz-adv-x="1001" 
d="M432 -389h-194l165 389l-444 1057h197l338 -832h20l338 832h190z" />
    <glyph glyph-name="uni0444" unicode="&#x444;" horiz-adv-x="1480" 
d="M61 528q0 136 44 242t123 173.5t186 103.5t237 38v377h176v-377q131 -2 238 -38t186.5 -103.5t123.5 -173.5t44 -242t-44 -242t-123.5 -173.5t-186.5 -103.5t-238 -38v-360h-176v360q-130 2 -237 38t-186 103.5t-123 173.5t-44 242zM240 528q0 -198 111.5 -302
t299.5 -109v823q-188 -5 -299.5 -109.5t-111.5 -302.5zM827 940v-823q190 5 301 109t111 302t-112 302.5t-300 109.5z" />
    <glyph glyph-name="uni0445" unicode="&#x445;" horiz-adv-x="1050" 
d="M213 0h-213l418 526l-418 531h221l297 -389h21l299 389h213l-418 -527l418 -530h-220l-299 391h-20z" />
    <glyph glyph-name="uni0446" unicode="&#x446;" horiz-adv-x="1292" 
d="M1102 1057v-903h160v-482h-154l-18 328h-988v1057h181v-903h639v903h180z" />
    <glyph glyph-name="uni0447" unicode="&#x447;" horiz-adv-x="1157" 
d="M877 571v486h178v-1057h-178v418h-19q-268 -27 -397 -27q-78 0 -145 19.5t-120 57.5t-83.5 101t-30.5 144v342h180v-316q0 -97 66 -146.5t164 -49.5q115 0 385 28z" />
    <glyph glyph-name="uni0448" unicode="&#x448;" horiz-adv-x="1726" 
d="M1624 0h-1522v1057h181v-903h491v903h178v-903h492v903h180v-1057z" />
    <glyph glyph-name="uni0449" unicode="&#x449;" horiz-adv-x="1814" 
d="M1624 1057v-903h160v-482h-154l-18 328h-1510v1057h181v-903h491v903h178v-903h492v903h180z" />
    <glyph glyph-name="uni044A" unicode="&#x44a;" horiz-adv-x="1343" 
d="M535 614h303q454 0 454 -305q0 -149 -108 -229t-346 -80h-482v903h-325v154h504v-443zM535 154h296q147 0 212 37t65 118q0 78 -65.5 116t-211.5 38h-296v-309z" />
    <glyph glyph-name="uni044B" unicode="&#x44b;" horiz-adv-x="1474" 
d="M102 0v1057h181v-443h301q456 0 456 -305q0 -309 -456 -309h-482zM1374 0h-180v1057h180v-1057zM578 463h-295v-309h295q149 0 213.5 37t64.5 118q0 78 -65 116t-213 38z" />
    <glyph glyph-name="uni044C" unicode="&#x44c;" horiz-adv-x="1091" 
d="M102 0v1057h181v-443h301q456 0 456 -305q0 -309 -456 -309h-482zM578 463h-295v-309h295q149 0 213.5 37t64.5 118q0 78 -65 116t-213 38z" />
    <glyph glyph-name="uni044D" unicode="&#x44d;" horiz-adv-x="1116" 
d="M520 1085q112 0 207.5 -34.5t169.5 -102t116 -175.5t42 -245t-42 -245t-116 -175.5t-169.5 -102t-207.5 -34.5q-182 0 -315.5 99.5t-157.5 269.5h172q20 -100 107 -162.5t198 -62.5q141 0 236.5 88.5t113.5 251.5h-532v149h532q-20 162 -115.5 250t-234.5 88
q-111 0 -198 -62t-107 -163h-172q24 172 157 270t316 98z" />
    <glyph glyph-name="uni044E" unicode="&#x44e;" horiz-adv-x="1634" 
d="M1020 1085q251 0 402 -142t151 -415t-151 -415t-402 -142q-232 0 -380 122.5t-169 359.5h-188v-453h-181v1057h181v-451h188q21 236 169 357.5t380 121.5zM1020 121q169 0 270 104t101 303q0 201 -101 304.5t-272 103.5q-169 0 -270 -104t-101 -304q0 -199 102 -303
t271 -104z" />
    <glyph glyph-name="uni044F" unicode="&#x44f;" horiz-adv-x="1167" 
d="M1065 1057v-1057h-180v369h-334q-50 0 -90 -11t-65.5 -27t-46 -43.5t-32 -51.5t-24.5 -60l-66 -176h-186l70 188q38 108 90 166t141 82v21q-116 34 -164.5 105t-48.5 179q0 67 22 121.5t70 99.5t134.5 70t205.5 25h504zM559 522h326v381h-326q-130 0 -188 -51.5
t-58 -136.5q0 -84 59 -138.5t187 -54.5z" />
    <glyph glyph-name="uni0451" unicode="&#x451;" horiz-adv-x="1169" 
d="M362 1227q-51 0 -84.5 34.5t-33.5 86.5q0 51 33.5 84.5t84.5 33.5q52 0 86.5 -33.5t34.5 -84.5q0 -52 -34.5 -86.5t-86.5 -34.5zM807 1227q-51 0 -85 34.5t-34 86.5q0 51 34 84.5t85 33.5q52 0 86.5 -33.5t34.5 -84.5q0 -52 -34 -86.5t-87 -34.5zM596 -29
q-248 0 -391.5 152t-143.5 405q0 134 41 241t113.5 175.5t169.5 104.5t211 36q230 0 371 -146t141 -396q0 -36 -4 -64h-864q12 -171 110 -267.5t246 -96.5q90 0 167 42.5t116 118.5h178q-45 -145 -170.5 -225t-290.5 -80zM246 616h674q-13 151 -103 238.5t-225 87.5
q-134 0 -231.5 -86.5t-114.5 -239.5z" />
    <glyph glyph-name="Wgrave" unicode="&#x1e80;" horiz-adv-x="1902" 
d="M1055 1583h-170l-299 330h260zM637 0h-240l-415 1462h204l324 -1208h20l314 1208h223l315 -1208h21l323 1208h195l-414 -1462h-239l-305 1159h-21z" />
    <glyph glyph-name="wgrave" unicode="&#x1e81;" horiz-adv-x="1607" 
d="M883 1208h-154l-213 324h213zM526 0h-207l-360 1057h193l264 -824h18l266 824h213l267 -824h18l264 824h187l-361 -1057h-207l-268 823h-18z" />
    <glyph glyph-name="Wacute" unicode="&#x1e82;" horiz-adv-x="1902" 
d="M1040 1583h-172l213 330h260zM637 0h-240l-415 1462h204l324 -1208h20l314 1208h223l315 -1208h21l323 1208h195l-414 -1462h-239l-305 1159h-21z" />
    <glyph glyph-name="wacute" unicode="&#x1e83;" horiz-adv-x="1607" 
d="M879 1204h-152l168 328h221zM526 0h-207l-360 1057h193l264 -824h18l266 824h213l267 -824h18l264 824h187l-361 -1057h-207l-268 823h-18z" />
    <glyph glyph-name="Wdieresis" unicode="&#x1e84;" horiz-adv-x="1902" 
d="M700 1602q-57 0 -95 37.5t-38 95.5q0 57 38 95t95 38q58 0 96 -38t38 -95q0 -58 -37.5 -95.5t-96.5 -37.5zM1202 1602q-57 0 -95 37.5t-38 95.5q0 57 38 95t95 38q58 0 95.5 -38t37.5 -95q0 -59 -37.5 -96t-95.5 -37zM637 0h-240l-415 1462h204l324 -1208h20l314 1208
h223l315 -1208h21l323 1208h195l-414 -1462h-239l-305 1159h-21z" />
    <glyph glyph-name="wdieresis" unicode="&#x1e85;" horiz-adv-x="1607" 
d="M606 1227q-52 0 -85.5 34t-33.5 87q0 51 33.5 84.5t85.5 33.5t86.5 -33.5t34.5 -84.5q0 -52 -34.5 -86.5t-86.5 -34.5zM1051 1227q-52 0 -85.5 34t-33.5 87q0 51 33.5 84.5t85.5 33.5t86 -33.5t34 -84.5q0 -53 -34 -87t-86 -34zM526 0h-207l-360 1057h193l264 -824h18
l266 824h213l267 -824h18l264 824h187l-361 -1057h-207l-268 823h-18z" />
    <glyph glyph-name="Ygrave" unicode="&#x1ef2;" horiz-adv-x="1269" 
d="M795 1583h-170l-299 330h260zM727 0h-184v543l-584 919h221l449 -721h18l453 721h211l-584 -919v-543z" />
    <glyph glyph-name="ygrave" unicode="&#x1ef3;" horiz-adv-x="1001" 
d="M608 1208h-151l-215 324h213zM432 -389h-194l165 389l-444 1057h197l338 -832h20l338 832h190z" />
    <glyph glyph-name="endash" unicode="&#x2013;" horiz-adv-x="1064" 
d="M1004 453h-943v153h943v-153z" />
    <glyph glyph-name="emdash" unicode="&#x2014;" horiz-adv-x="2068" 
d="M2007 453h-1946v153h1946v-153z" />
    <glyph glyph-name="quoteleft" unicode="&#x2018;" horiz-adv-x="368" 
d="M256 1135h-215l141 512h129z" />
    <glyph glyph-name="quoteright" unicode="&#x2019;" horiz-adv-x="358" 
d="M186 1135h-129l56 512h215z" />
    <glyph glyph-name="quotesinglbase" unicode="&#x201a;" horiz-adv-x="372" 
d="M172 -266h-131l55 512h215z" />
    <glyph glyph-name="quotedblleft" unicode="&#x201c;" horiz-adv-x="679" 
d="M256 1135h-215l141 512h129zM567 1135h-215l142 512h129z" />
    <glyph glyph-name="quotedblright" unicode="&#x201d;" horiz-adv-x="669" 
d="M186 1135h-129l56 512h215zM498 1135h-129l55 512h215z" />
    <glyph glyph-name="quotedblbase" unicode="&#x201e;" horiz-adv-x="700" 
d="M172 -266h-131l55 512h215zM483 -266h-131l56 512h215z" />
    <glyph glyph-name="dagger" unicode="&#x2020;" horiz-adv-x="1118" 
d="M662 -389h-205l28 1218l-444 -32v194l444 -33l-28 504h205l-29 -504l444 33v-194l-444 32z" />
    <glyph glyph-name="daggerdbl" unicode="&#x2021;" horiz-adv-x="1118" 
d="M662 -389h-205l28 661l-444 -32v194l436 -33v428l-436 -32v194l444 -33l-28 504h205l-29 -504l444 33v-194l-436 32v-428l436 33v-194l-444 32z" />
    <glyph glyph-name="bullet" unicode="&#x2022;" horiz-adv-x="737" 
d="M369 444q-127 0 -207 80t-80 207t80 207t207 80t206.5 -79.5t79.5 -207.5t-79.5 -207.5t-206.5 -79.5z" />
    <glyph glyph-name="ellipsis" unicode="&#x2026;" horiz-adv-x="1495" 
d="M197 -14q-59 0 -97.5 38.5t-38.5 96.5q0 56 39 93.5t97 37.5q55 0 93 -38t38 -93q0 -58 -37.5 -96.5t-93.5 -38.5zM750 -14q-59 0 -97.5 38.5t-38.5 96.5q0 56 39 93.5t97 37.5q56 0 93.5 -38t37.5 -93q0 -58 -37.5 -96.5t-93.5 -38.5zM1303 -14q-59 0 -97.5 38.5
t-38.5 96.5q0 56 39 93.5t97 37.5q55 0 93 -38t38 -93q0 -58 -37.5 -96.5t-93.5 -38.5z" />
    <glyph glyph-name="perthousand" unicode="&#x2030;" horiz-adv-x="2338" 
d="M393 729q-68 0 -125 19.5t-105 62t-75 119t-27 180.5t27 180.5t75 119t105 62t125 19.5t124.5 -19.5t103.5 -62t73.5 -119t26.5 -180.5t-26.5 -180.5t-73.5 -119t-103.5 -62t-124.5 -19.5zM418 0h-185l969 1462h184zM391 866q75 0 121.5 59.5t46.5 184.5q0 124 -47 185
t-119 61q-74 0 -121 -60.5t-47 -185.5t46.5 -184.5t119.5 -59.5zM1229 -29q-68 0 -125 19.5t-105 62t-75 119t-27 180.5t27 180.5t75 119t105 62t125 19.5t124 -19.5t103 -62t73.5 -119t26.5 -180.5t-26.5 -180.5t-73.5 -119t-103 -62t-124 -19.5zM1950 -29q-68 0 -125 19.5
t-105 62t-75 119t-27 180.5t27 180.5t75 119t105 62t125 19.5t124 -19.5t103 -62t73.5 -119t26.5 -180.5t-26.5 -180.5t-73.5 -119t-103 -62t-124 -19.5zM1227 109q75 0 121.5 59t46.5 184q0 124 -47 185t-119 61q-74 0 -121 -60.5t-47 -185.5q0 -124 46.5 -183.5
t119.5 -59.5zM1948 109q75 0 121.5 59t46.5 184q0 124 -47 185t-119 61q-74 0 -121 -60.5t-47 -185.5q0 -124 46.5 -183.5t119.5 -59.5z" />
    <glyph glyph-name="guilsinglleft" unicode="&#x2039;" horiz-adv-x="577" 
d="M537 260v-197l-517 392v141l517 389v-190l-347 -258v-21z" />
    <glyph glyph-name="guilsinglright" unicode="&#x203a;" horiz-adv-x="577" 
d="M557 455l-516 -392v187l346 256v20l-346 258v201l516 -389v-141z" />
    <glyph glyph-name="fraction" unicode="&#x2044;" horiz-adv-x="825" 
d="M20 0h-184l969 1462h184z" />
    <glyph glyph-name="Euro" unicode="&#x20ac;" horiz-adv-x="1472" 
d="M846 135q143 0 247.5 86t133.5 236h190q-33 -226 -192 -356t-379 -130q-265 0 -437 175t-192 505h-145v160h145q11 168 63 298.5t136 213.5t193 125.5t237 42.5q219 0 378.5 -130.5t192.5 -352.5h-190q-27 148 -132 233.5t-249 85.5q-185 0 -302.5 -131t-135.5 -385h528
v-160h-528q17 -253 134.5 -384.5t303.5 -131.5z" />
    <glyph glyph-name="uni2117" unicode="&#x2117;" horiz-adv-x="1615" 
d="M793 -14q-214 0 -380.5 92t-259 259t-92.5 380t92.5 380t259 259t380.5 92q160 0 296 -54t231.5 -149.5t149.5 -231.5t54 -296t-54 -296t-149.5 -231.5t-231.5 -149.5t-296 -54zM793 125q255 0 415 164.5t160 427.5t-160 427.5t-415 164.5q-254 0 -414 -165t-160 -427
t160 -427t414 -165zM664 293h-154v850h303q180 0 273.5 -84.5t93.5 -212.5q0 -126 -93.5 -210.5t-273.5 -84.5h-149v-258zM664 1012v-330h143q121 0 169 42.5t48 121.5q0 80 -48 123t-169 43h-143z" />
    <glyph glyph-name="trademark" unicode="&#x2122;" horiz-adv-x="1189" 
d="M299 926h-127v422h-152v114h431v-114h-152v-422zM643 926h-125v536h197l110 -336h15l116 336h189v-536h-127v366h-14l-111 -366h-123l-113 366h-14v-366z" />
    <glyph glyph-name="uni2126" unicode="&#x2126;" horiz-adv-x="1546" 
d="M610 0h-594v164h392v20q-157 131 -234.5 298.5t-77.5 332.5q0 109 27.5 208.5t83.5 185t135.5 148.5t190.5 98.5t241 35.5q158 0 288 -55t214.5 -148.5t130 -215t45.5 -257.5q0 -166 -75.5 -333t-231.5 -298v-20h387v-164h-594v195q168 129 249 290t81 318q0 132 -42 235
t-112.5 164.5t-157 93t-182.5 31.5q-94 0 -179.5 -31.5t-155 -93t-111 -164.5t-41.5 -235q0 -103 30.5 -204t105 -209t187.5 -195v-195z" />
    <glyph glyph-name="partialdiff" unicode="&#x2202;" horiz-adv-x="1163" 
d="M557 -29q-224 0 -367 134t-143 335q0 218 130 335.5t339 117.5q122 0 215.5 -48t169.5 -151h19q-5 45 -28 101.5t-77 137t-132 162.5t-206 180t-287 187h252q344 -211 503 -441.5t159 -463.5q0 -42 -5 -87.5t-20.5 -104.5t-40 -112t-67 -106t-98 -91t-137 -61.5
t-179.5 -23.5zM557 121q164 0 246 88.5t82 224.5q0 131 -88 222.5t-240 91.5q-165 0 -246.5 -86t-81.5 -222q0 -133 86.5 -226t241.5 -93z" />
    <glyph glyph-name="uni2206" unicode="&#x2206;" horiz-adv-x="1329" 
d="M1370 0h-1411l598 1462h215zM651 1249l-438 -1093h897l-438 1093h-21z" />
    <glyph glyph-name="product" unicode="&#x220f;" horiz-adv-x="1443" 
d="M287 0h-185v1462h1239v-1462h-184v1298h-870v-1298z" />
    <glyph glyph-name="summation" unicode="&#x2211;" horiz-adv-x="1177" 
d="M1137 0h-1035v164l449 567l-449 567v164h1035v-164h-789v-20l387 -492v-90l-403 -512v-20h805v-164z" />
    <glyph glyph-name="minus" unicode="&#x2212;" horiz-adv-x="1048" 
d="M987 655h-926v154h926v-154z" />
    <glyph glyph-name="radical" unicode="&#x221a;" horiz-adv-x="1296" 
d="M750 0h-193l-369 903h-270v154h406l323 -832h21l479 1237h190z" />
    <glyph glyph-name="infinity" unicode="&#x221e;" horiz-adv-x="1400" 
d="M362 371q-144 0 -237.5 96t-93.5 266q0 171 93 267t238 96q59 0 110 -18t91.5 -52t71 -71.5t61.5 -88.5q32 51 62.5 88t72 71.5t95 52.5t116.5 18q148 0 239 -97t91 -266t-91 -265.5t-239 -96.5q-63 0 -116.5 17.5t-95 51.5t-72 71.5t-62.5 88.5q-64 -107 -142.5 -168
t-191.5 -61zM371 539q76 0 131 52t104 142q-49 92 -104 144.5t-131 52.5q-79 0 -128.5 -51.5t-49.5 -145.5t49 -144t129 -50zM1032 537q81 0 129.5 52t48.5 144q0 94 -48.5 145.5t-129.5 51.5q-83 0 -141 -53t-107 -144q32 -58 62.5 -97t79.5 -69t106 -30z" />
    <glyph glyph-name="integral" unicode="&#x222b;" horiz-adv-x="917" 
d="M123 -418q-72 0 -184 17l18 145q85 -10 139 -10q93 0 139 42t60 158l147 1211q24 184 114.5 265t238.5 81q78 0 184 -16l-18 -146q-88 10 -140 10q-93 0 -139.5 -42t-60.5 -158l-148 -1211q-42 -346 -350 -346z" />
    <glyph glyph-name="approxequal" unicode="&#x2248;" horiz-adv-x="1130" 
d="M778 776q-56 0 -109.5 21t-95 51t-81 59.5t-82 50.5t-82.5 21q-47 0 -85 -44t-44 -124h-158q9 167 91.5 248.5t205.5 81.5q56 0 109 -20.5t94 -50.5t80 -59.5t81 -50t82 -20.5q49 0 87 43t44 125h160q-10 -169 -92 -250.5t-205 -81.5zM778 322q-56 0 -109.5 21t-95 50.5
t-81 59t-82 50.5t-82.5 21q-47 0 -85 -44t-44 -124h-158q9 166 91.5 248t205.5 82q56 0 109 -20.5t94 -50t80 -59.5t81 -50.5t82 -20.5q49 0 87 43t44 125h160q-10 -169 -92 -250t-205 -81z" />
    <glyph glyph-name="notequal" unicode="&#x2260;" horiz-adv-x="1048" 
d="M987 995v-155h-342l-94 -215h436v-156h-504l-129 -295h-166l129 295h-256v156h324l94 215h-418v155h488l133 305h166l-133 -305h272z" />
    <glyph glyph-name="lessequal" unicode="&#x2264;" horiz-adv-x="1048" 
d="M987 498v-181l-926 338v207l926 336v-170l-737 -256v-20zM987 0h-926v154h926v-154z" />
    <glyph glyph-name="greaterequal" unicode="&#x2265;" horiz-adv-x="1048" 
d="M987 655l-926 -338v170l738 258v21l-738 254v180l926 -340v-205zM987 0h-926v154h926v-154z" />
    <glyph glyph-name="lozenge" unicode="&#x25ca;" horiz-adv-x="1101" 
d="M647 0h-192l-465 731l465 731h192l465 -731zM207 731l338 -543h18l342 543l-342 543h-18z" />
    <glyph glyph-name="a.ss01" horiz-adv-x="1114" 
d="M424 -29q-173 0 -268 84t-95 230q0 114 63.5 194.5t172 119t252.5 38.5q153 0 285 -31v53q0 126 -73.5 204.5t-207.5 78.5q-116 0 -189.5 -51.5t-74.5 -145.5v-6h-178v11q1 109 58 185.5t155 113t229 36.5q71 0 133.5 -12t124 -43.5t105 -80t70 -127.5t26.5 -181v-641
h-158l-20 162h-21q-58 -91 -160.5 -141t-228.5 -50zM453 121q105 0 185.5 36.5t133 116.5t62.5 197q-152 31 -265 31q-162 0 -246.5 -56.5t-84.5 -152.5q0 -83 56.5 -127.5t158.5 -44.5z" />
    <glyph glyph-name="aacute.ss01" horiz-adv-x="1114" 
d="M586 1204h-152l168 328h221zM424 -29q-173 0 -268 84t-95 230q0 114 63.5 194.5t172 119t252.5 38.5q153 0 285 -31v53q0 126 -73.5 204.5t-207.5 78.5q-116 0 -189.5 -51.5t-74.5 -145.5v-6h-178v11q1 109 58 185.5t155 113t229 36.5q71 0 133.5 -12t124 -43.5t105 -80
t70 -127.5t26.5 -181v-641h-158l-20 162h-21q-58 -91 -160.5 -141t-228.5 -50zM453 121q105 0 185.5 36.5t133 116.5t62.5 197q-152 31 -265 31q-162 0 -246.5 -56.5t-84.5 -152.5q0 -83 56.5 -127.5t158.5 -44.5z" />
    <glyph glyph-name="abreve.ss01" horiz-adv-x="1114" 
d="M559 1196q-128 0 -211 83.5t-98 238.5h145q12 -85 55.5 -133t108.5 -48t108.5 48t55.5 133h143q-15 -155 -98 -238.5t-209 -83.5zM424 -29q-173 0 -268 84t-95 230q0 114 63.5 194.5t172 119t252.5 38.5q153 0 285 -31v53q0 126 -73.5 204.5t-207.5 78.5
q-116 0 -189.5 -51.5t-74.5 -145.5v-6h-178v11q1 109 58 185.5t155 113t229 36.5q71 0 133.5 -12t124 -43.5t105 -80t70 -127.5t26.5 -181v-641h-158l-20 162h-21q-58 -91 -160.5 -141t-228.5 -50zM453 121q105 0 185.5 36.5t133 116.5t62.5 197q-152 31 -265 31
q-162 0 -246.5 -56.5t-84.5 -152.5q0 -83 56.5 -127.5t158.5 -44.5z" />
    <glyph glyph-name="acircumflex.ss01" horiz-adv-x="1114" 
d="M387 1206h-164l221 324h226l223 -324h-170l-168 209zM424 -29q-173 0 -268 84t-95 230q0 114 63.5 194.5t172 119t252.5 38.5q153 0 285 -31v53q0 126 -73.5 204.5t-207.5 78.5q-116 0 -189.5 -51.5t-74.5 -145.5v-6h-178v11q1 109 58 185.5t155 113t229 36.5
q71 0 133.5 -12t124 -43.5t105 -80t70 -127.5t26.5 -181v-641h-158l-20 162h-21q-58 -91 -160.5 -141t-228.5 -50zM453 121q105 0 185.5 36.5t133 116.5t62.5 197q-152 31 -265 31q-162 0 -246.5 -56.5t-84.5 -152.5q0 -83 56.5 -127.5t158.5 -44.5z" />
    <glyph glyph-name="adieresis.ss01" horiz-adv-x="1114" 
d="M342 1227q-51 0 -85 34.5t-34 86.5q0 51 34 84.5t85 33.5q52 0 86.5 -33.5t34.5 -84.5q0 -52 -34.5 -86.5t-86.5 -34.5zM786 1227q-51 0 -84.5 34.5t-33.5 86.5q0 51 33.5 84.5t84.5 33.5q52 0 86.5 -33.5t34.5 -84.5q0 -52 -34.5 -86.5t-86.5 -34.5zM424 -29
q-173 0 -268 84t-95 230q0 114 63.5 194.5t172 119t252.5 38.5q153 0 285 -31v53q0 126 -73.5 204.5t-207.5 78.5q-116 0 -189.5 -51.5t-74.5 -145.5v-6h-178v11q1 109 58 185.5t155 113t229 36.5q71 0 133.5 -12t124 -43.5t105 -80t70 -127.5t26.5 -181v-641h-158l-20 162
h-21q-58 -91 -160.5 -141t-228.5 -50zM453 121q105 0 185.5 36.5t133 116.5t62.5 197q-152 31 -265 31q-162 0 -246.5 -56.5t-84.5 -152.5q0 -83 56.5 -127.5t158.5 -44.5z" />
    <glyph glyph-name="agrave.ss01" horiz-adv-x="1114" 
d="M672 1208h-152l-215 324h213zM424 -29q-173 0 -268 84t-95 230q0 114 63.5 194.5t172 119t252.5 38.5q153 0 285 -31v53q0 126 -73.5 204.5t-207.5 78.5q-116 0 -189.5 -51.5t-74.5 -145.5v-6h-178v11q1 109 58 185.5t155 113t229 36.5q71 0 133.5 -12t124 -43.5t105 -80
t70 -127.5t26.5 -181v-641h-158l-20 162h-21q-58 -91 -160.5 -141t-228.5 -50zM453 121q105 0 185.5 36.5t133 116.5t62.5 197q-152 31 -265 31q-162 0 -246.5 -56.5t-84.5 -152.5q0 -83 56.5 -127.5t158.5 -44.5z" />
    <glyph glyph-name="amacron.ss01" horiz-adv-x="1114" 
d="M893 1272h-670v143h670v-143zM424 -29q-173 0 -268 84t-95 230q0 114 63.5 194.5t172 119t252.5 38.5q153 0 285 -31v53q0 126 -73.5 204.5t-207.5 78.5q-116 0 -189.5 -51.5t-74.5 -145.5v-6h-178v11q1 109 58 185.5t155 113t229 36.5q71 0 133.5 -12t124 -43.5t105 -80
t70 -127.5t26.5 -181v-641h-158l-20 162h-21q-58 -91 -160.5 -141t-228.5 -50zM453 121q105 0 185.5 36.5t133 116.5t62.5 197q-152 31 -265 31q-162 0 -246.5 -56.5t-84.5 -152.5q0 -83 56.5 -127.5t158.5 -44.5z" />
    <glyph glyph-name="aogonek.ss01" horiz-adv-x="1114" 
d="M1012 0h-27q-78 -38 -129 -93t-51 -106q0 -40 22 -62t62 -22q48 0 121 23v-133q-83 -25 -154 -25q-107 0 -164 47.5t-57 134.5q0 77 61.5 156t153.5 117l-16 125h-21q-58 -91 -160.5 -141t-228.5 -50q-173 0 -268 84t-95 230q0 114 63.5 194.5t172 119t252.5 38.5
q153 0 285 -31v53q0 126 -73.5 204.5t-207.5 78.5q-116 0 -189.5 -51.5t-74.5 -145.5v-6h-178v11q1 109 58 185.5t155 113t229 36.5q71 0 133.5 -12t124 -43.5t105 -80t70 -127.5t26.5 -181v-641zM453 121q105 0 185.5 36.5t133 116.5t62.5 197q-152 31 -265 31
q-162 0 -246.5 -56.5t-84.5 -152.5q0 -83 56.5 -127.5t158.5 -44.5z" />
    <glyph glyph-name="aring.ss01" horiz-adv-x="1114" 
d="M559 1167q-99 0 -165 64t-66 160q0 95 66.5 159t164.5 64q97 0 164.5 -64t67.5 -159q0 -96 -67 -160t-165 -64zM559 1278q45 0 71.5 32t26.5 81q0 50 -26.5 81t-71.5 31q-44 0 -71 -31t-27 -81q0 -48 27.5 -80.5t70.5 -32.5zM424 -29q-173 0 -268 84t-95 230
q0 114 63.5 194.5t172 119t252.5 38.5q153 0 285 -31v53q0 126 -73.5 204.5t-207.5 78.5q-116 0 -189.5 -51.5t-74.5 -145.5v-6h-178v11q1 109 58 185.5t155 113t229 36.5q71 0 133.5 -12t124 -43.5t105 -80t70 -127.5t26.5 -181v-641h-158l-20 162h-21q-58 -91 -160.5 -141
t-228.5 -50zM453 121q105 0 185.5 36.5t133 116.5t62.5 197q-152 31 -265 31q-162 0 -246.5 -56.5t-84.5 -152.5q0 -83 56.5 -127.5t158.5 -44.5z" />
    <glyph glyph-name="atilde.ss01" horiz-adv-x="1114" 
d="M727 1196q-45 0 -84 15t-66.5 36t-52 42.5t-52.5 36.5t-56 15q-43 0 -71.5 -28.5t-35.5 -85.5h-127q8 126 79 193t163 67q55 0 102.5 -23t74.5 -50t62 -50t68 -23q43 0 71.5 29t35.5 86h127q-8 -126 -77 -193t-161 -67zM424 -29q-173 0 -268 84t-95 230q0 114 63.5 194.5
t172 119t252.5 38.5q153 0 285 -31v53q0 126 -73.5 204.5t-207.5 78.5q-116 0 -189.5 -51.5t-74.5 -145.5v-6h-178v11q1 109 58 185.5t155 113t229 36.5q71 0 133.5 -12t124 -43.5t105 -80t70 -127.5t26.5 -181v-641h-158l-20 162h-21q-58 -91 -160.5 -141t-228.5 -50z
M453 121q105 0 185.5 36.5t133 116.5t62.5 197q-152 31 -265 31q-162 0 -246.5 -56.5t-84.5 -152.5q0 -83 56.5 -127.5t158.5 -44.5z" />
    <glyph glyph-name="ae.ss01" horiz-adv-x="1941" 
d="M440 -29q-186 0 -282.5 83t-96.5 231q0 170 134.5 261t359.5 91q147 0 279 -31v53q0 127 -74 205t-207 78q-111 0 -184.5 -49t-79.5 -141v-13h-178v17q3 159 124 244t318 85q273 0 387 -206h21q139 206 407 206q230 0 371 -146.5t141 -395.5q0 -10 -2 -32t-2 -32h-864
q12 -172 110.5 -268t243.5 -96q90 0 168 42.5t115 118.5h178q-43 -144 -168.5 -224.5t-290.5 -80.5q-154 0 -268 63.5t-178 180.5h-21q-35 -50 -73.5 -88.5t-93.5 -76.5t-130 -58.5t-164 -20.5zM1018 616h672q-13 151 -103 238.5t-225 87.5q-133 0 -230 -86.5t-114 -239.5z
M453 121q105 0 185.5 36.5t133 116.5t62.5 197q-152 31 -259 31q-166 0 -251.5 -56t-85.5 -153q0 -83 56.5 -127.5t158.5 -44.5z" />
    <glyph glyph-name="ij.ss01" horiz-adv-x="817" 
d="M193 1231q-51 0 -84 33t-33 84t33 83.5t84 32.5t83.5 -32.5t32.5 -83.5t-32.5 -84t-83.5 -33zM627 1231q-51 0 -84 33t-33 84t33 83.5t84 32.5t83.5 -32.5t32.5 -83.5t-32.5 -84t-83.5 -33zM283 0h-181v1057h181v-1057zM408 -418q-73 0 -189 17v145q88 -10 141 -10
q93 0 135 42t42 158v1123h178v-1129q0 -184 -79.5 -265t-227.5 -81z" />
    <glyph glyph-name="j.ss01" horiz-adv-x="432" 
d="M242 1231q-51 0 -84 33t-33 84t33 83.5t84 32.5t83.5 -32.5t32.5 -83.5t-32.5 -84t-83.5 -33zM23 -418q-73 0 -189 17v145q88 -10 141 -10q93 0 135 42t42 158v1123h178v-1129q0 -184 -79.5 -265t-227.5 -81z" />
    <glyph glyph-name="jcircumflex.ss01" horiz-adv-x="432" 
d="M66 1206h-166l223 324h225l221 -324h-168l-170 209zM18 -418q-76 0 -188 17v145q88 -10 141 -10q93 0 134.5 42t41.5 158v1123h179v-1129q0 -184 -80 -265t-228 -81z" />
    <glyph glyph-name="m.ss01" horiz-adv-x="1828" 
d="M283 0h-181v1057h160l21 -162h20q106 190 328 190q239 0 327 -217h19q134 217 375 217q178 0 276 -123.5t98 -373.5v-588h-180v594q0 166 -68 252t-180 86q-96 0 -164.5 -54.5t-99 -138t-30.5 -184.5v-555h-179v594q0 169 -69 253.5t-181 84.5q-131 0 -211.5 -102
t-80.5 -291v-539z" />
    <glyph glyph-name="n.ss01" 
d="M283 0h-181v1057h160l21 -162h20q126 190 385 190q205 0 321.5 -122.5t116.5 -374.5v-588h-178v594q0 167 -84 252.5t-221 85.5q-164 0 -262 -102.5t-98 -290.5v-539z" />
    <glyph glyph-name="nacute.ss01" 
d="M643 1204h-151l167 328h222zM283 0h-181v1057h160l21 -162h20q126 190 385 190q205 0 321.5 -122.5t116.5 -374.5v-588h-178v594q0 167 -84 252.5t-221 85.5q-164 0 -262 -102.5t-98 -290.5v-539z" />
    <glyph glyph-name="ncaron.ss01" 
d="M727 1208h-225l-221 324h168l169 -209l166 209h166zM283 0h-181v1057h160l21 -162h20q126 190 385 190q205 0 321.5 -122.5t116.5 -374.5v-588h-178v594q0 167 -84 252.5t-221 85.5q-164 0 -262 -102.5t-98 -290.5v-539z" />
    <glyph glyph-name="uni0146.ss01" 
d="M283 0h-181v1057h160l21 -162h20q126 190 385 190q205 0 321.5 -122.5t116.5 -374.5v-588h-178v594q0 167 -84 252.5t-221 85.5q-164 0 -262 -102.5t-98 -290.5v-539zM604 -428h-125l43 346h187z" />
    <glyph glyph-name="ntilde.ss01" 
d="M770 1196q-45 0 -84.5 15t-67 36t-52.5 42.5t-52 36.5t-55 15q-43 0 -72 -29t-35 -85h-127q8 126 79 193t163 67q55 0 102 -23t74 -50t62 -50t69 -23q42 0 70.5 29.5t34.5 85.5h129q-10 -126 -78 -193t-160 -67zM283 0h-181v1057h160l21 -162h20q126 190 385 190
q205 0 321.5 -122.5t116.5 -374.5v-588h-178v594q0 167 -84 252.5t-221 85.5q-164 0 -262 -102.5t-98 -290.5v-539z" />
    <glyph glyph-name="t.ss01" horiz-adv-x="811" 
d="M555 -12q-146 0 -226.5 81.5t-80.5 268.5v565h-217v154h217v282h180v-282h328v-154h-328v-561q0 -112 41 -156.5t143 -44.5q41 0 138 11v-148q-112 -16 -195 -16z" />
    <glyph glyph-name="tbar.ss01" horiz-adv-x="811" 
d="M756 1057v-154h-328v-272h274v-144h-274v-145q0 -112 41 -156.5t143 -44.5q41 0 138 11v-148q-112 -16 -195 -16q-146 0 -226.5 81.5t-80.5 268.5v149h-189v144h189v272h-217v154h217v282h180v-282h328z" />
    <glyph glyph-name="tcaron.ss01" horiz-adv-x="811" 
d="M639 1147h-111l39 385h183zM555 -12q-146 0 -226.5 81.5t-80.5 268.5v565h-217v154h217v282h180v-282h328v-154h-328v-561q0 -112 41 -156.5t143 -44.5q41 0 138 11v-148q-112 -16 -195 -16z" />
    <glyph glyph-name="uni0163.ss01" horiz-adv-x="811" 
d="M588 -12l-17 -66q53 -3 103 -19.5t90.5 -55t40.5 -91.5q0 -78 -76.5 -126t-193.5 -48q-107 0 -193 25v119q84 -17 158 -17q66 0 106.5 13.5t40.5 35.5q0 28 -52 44t-114 16h-69l34 182q-198 54 -198 338v565h-217v154h217v282h180v-282h328v-154h-328v-561
q0 -112 41 -156.5t143 -44.5q41 0 138 11v-148q-95 -13 -162 -16z" />
    <glyph glyph-name="uni021B.ss01" horiz-adv-x="811" 
d="M555 -12q-146 0 -226.5 81.5t-80.5 268.5v565h-217v154h217v282h180v-282h328v-154h-328v-561q0 -112 41 -156.5t143 -44.5q41 0 138 11v-148q-112 -16 -195 -16zM475 -428h-127l43 346h187z" />
    <glyph glyph-name="u.ss01" 
d="M541 -29q-205 0 -322 123t-117 375v588h181v-594q0 -167 83 -252.5t220 -85.5q165 0 263.5 102.5t98.5 290.5v539h178v-1057h-157l-21 162h-20q-126 -191 -387 -191z" />
    <glyph glyph-name="uacute.ss01" 
d="M643 1204h-151l167 328h222zM541 -29q-205 0 -322 123t-117 375v588h181v-594q0 -167 83 -252.5t220 -85.5q165 0 263.5 102.5t98.5 290.5v539h178v-1057h-157l-21 162h-20q-126 -191 -387 -191z" />
    <glyph glyph-name="ubreve.ss01" 
d="M616 1196q-128 0 -211 83.5t-98 238.5h146q12 -85 55.5 -133t107.5 -48q65 0 108.5 48t55.5 133h144q-15 -155 -98.5 -238.5t-209.5 -83.5zM541 -29q-205 0 -322 123t-117 375v588h181v-594q0 -167 83 -252.5t220 -85.5q165 0 263.5 102.5t98.5 290.5v539h178v-1057h-157
l-21 162h-20q-126 -191 -387 -191z" />
    <glyph glyph-name="ucircumflex.ss01" 
d="M442 1206h-163l221 324h225l223 -324h-170l-168 209zM541 -29q-205 0 -322 123t-117 375v588h181v-594q0 -167 83 -252.5t220 -85.5q165 0 263.5 102.5t98.5 290.5v539h178v-1057h-157l-21 162h-20q-126 -191 -387 -191z" />
    <glyph glyph-name="udieresis.ss01" 
d="M401 1227q-51 0 -84.5 34.5t-33.5 86.5q0 51 33.5 84.5t84.5 33.5q52 0 86.5 -33.5t34.5 -84.5q0 -52 -34 -86.5t-87 -34.5zM846 1227q-51 0 -85 34.5t-34 86.5q0 51 34 84.5t85 33.5q52 0 86.5 -33.5t34.5 -84.5q0 -52 -34.5 -86.5t-86.5 -34.5zM541 -29
q-205 0 -322 123t-117 375v588h181v-594q0 -167 83 -252.5t220 -85.5q165 0 263.5 102.5t98.5 290.5v539h178v-1057h-157l-21 162h-20q-126 -191 -387 -191z" />
    <glyph glyph-name="ugrave.ss01" 
d="M745 1208h-153l-213 324h213zM541 -29q-205 0 -322 123t-117 375v588h181v-594q0 -167 83 -252.5t220 -85.5q165 0 263.5 102.5t98.5 290.5v539h178v-1057h-157l-21 162h-20q-126 -191 -387 -191z" />
    <glyph glyph-name="uhungarumlaut.ss01" 
d="M485 1204h-153l190 328h211zM854 1204h-152l191 328h209zM541 -29q-205 0 -322 123t-117 375v588h181v-594q0 -167 83 -252.5t220 -85.5q165 0 263.5 102.5t98.5 290.5v539h178v-1057h-157l-21 162h-20q-126 -191 -387 -191z" />
    <glyph glyph-name="umacron.ss01" 
d="M950 1272h-669v143h669v-143zM541 -29q-205 0 -322 123t-117 375v588h181v-594q0 -167 83 -252.5t220 -85.5q165 0 263.5 102.5t98.5 290.5v539h178v-1057h-157l-21 162h-20q-126 -191 -387 -191z" />
    <glyph glyph-name="uogonek.ss01" 
d="M1126 0h-26q-78 -38 -129 -93t-51 -106q0 -40 22 -62t62 -22q47 0 120 23v-133q-83 -25 -153 -25q-107 0 -164 47.5t-57 134.5q0 77 61.5 156t153.5 117l-17 125h-20q-126 -191 -387 -191q-205 0 -322 123t-117 375v588h181v-594q0 -167 83 -252.5t220 -85.5
q165 0 263.5 102.5t98.5 290.5v539h178v-1057z" />
    <glyph glyph-name="uring.ss01" 
d="M614 1147q-98 0 -164.5 63.5t-66.5 159.5q0 95 67 159t164 64q98 0 165 -64t67 -159q0 -96 -66.5 -159.5t-165.5 -63.5zM614 1257q45 0 72 32.5t27 80.5q0 50 -27 81.5t-72 31.5q-44 0 -71 -31.5t-27 -81.5q0 -48 27.5 -80.5t70.5 -32.5zM541 -29q-205 0 -322 123
t-117 375v588h181v-594q0 -167 83 -252.5t220 -85.5q165 0 263.5 102.5t98.5 290.5v539h178v-1057h-157l-21 162h-20q-126 -191 -387 -191z" />
    <glyph glyph-name="utilde.ss01" 
d="M784 1196q-45 0 -84 15t-66.5 36t-52 42.5t-52.5 36.5t-56 15q-43 0 -71 -28.5t-35 -85.5h-127q8 126 78.5 193t162.5 67q55 0 102.5 -23t74.5 -50t62 -50t68 -23q43 0 71.5 29t35.5 86h127q-8 -126 -77 -193t-161 -67zM541 -29q-205 0 -322 123t-117 375v588h181v-594
q0 -167 83 -252.5t220 -85.5q165 0 263.5 102.5t98.5 290.5v539h178v-1057h-157l-21 162h-20q-126 -191 -387 -191z" />
    <glyph glyph-name="uni00CD_uni004A0301" horiz-adv-x="1490" 
d="M274 1583h-172l215 330h261zM1370 1583h-172l215 330h260zM287 0h-185v1462h185v-1462zM889 -29q-242 0 -359.5 121.5t-117.5 339.5v23h184q0 -157 69 -238.5t220 -81.5q162 0 238.5 98.5t76.5 311.5v917h184v-921q0 -294 -120.5 -432t-374.5 -138z" />
    <glyph glyph-name="uni00ED_uni006A0301" horiz-adv-x="768" 
d="M260 1204h-154l170 328h222zM645 1204h-153l170 328h221zM283 0h-181v1057h181v-1057zM666 -389h-179v1446h179v-1446z" />
    <glyph glyph-name="uni00ED_uni006A0301.ss01" horiz-adv-x="768" 
d="M264 1204h-151l168 328h221zM649 1204h-153l168 328h221zM283 0h-181v1057h181v-1057zM358 -418q-76 0 -188 17v145q88 -10 141 -10q93 0 134.5 42t41.5 158v1123h179v-1129q0 -184 -80 -265t-228 -81z" />
    <glyph glyph-name="uni0414.loclBGR" horiz-adv-x="1601" 
d="M907 1462l531 -1298h133v-492h-160l-20 328h-1182l-19 -328h-159v492h131l530 1298h215zM1237 164l-430 1075h-21l-430 -1075h881z" />
    <glyph glyph-name="uni0416.loclBGR" horiz-adv-x="1949" 
d="M1284 786l707 -786h-254l-586 651l-84 -84v-567h-184v559l-84 86l-596 -645h-244l711 778l-670 684h244l618 -641h21v641h184v-641h20l633 641h230z" />
    <glyph glyph-name="uni0416.ss01" horiz-adv-x="2131" 
d="M223 0h-192l133 381q23 67 36.5 102t37.5 81.5t49 72.5t64.5 50t90.5 38v20q-51 14 -90.5 37.5t-64.5 49t-49 70.5t-38 79.5t-36 99.5l-133 381h188l127 -368q39 -112 66 -155q69 -107 224 -123q31 -3 66 -3h265v649h184v-649h279q75 0 131 16t90 38.5t60 62t39.5 72
t30.5 82.5q2 7 3 10l127 368h190l-133 -381q-22 -64 -36 -99.5t-38 -80t-49.5 -70t-65 -49t-89.5 -37.5v-20q42 -12 75.5 -28.5t60 -42.5t45 -50.5t37 -65t30.5 -72t30 -85.5l133 -381h-192l-127 371l-3 9q-39 111 -72 157q-79 107 -261 112h-19h-276v-649h-184v649h-262
q-63 0 -112 -9.5t-84 -30.5t-58.5 -42t-43 -57t-29.5 -61.5t-25 -68.5q-1 -3 -1.5 -5t-1.5 -4z" />
    <glyph glyph-name="uni0418.ss01" horiz-adv-x="1423" 
d="M287 0h-185v1462h185v-1065h20l830 938v127h184v-1462h-184v1065h-21l-829 -936v-129z" />
    <glyph glyph-name="uni041A.ss01" horiz-adv-x="1294" 
d="M287 813h305q75 0 131 16t90 38.5t60 62t39.5 72t30.5 82.5q2 7 3 10l127 368h191l-134 -381q-22 -65 -36 -99.5t-38 -79.5t-49 -70.5t-64.5 -49t-90.5 -37.5v-20q51 -14 90.5 -38t64.5 -50t49 -72.5t37.5 -81.5t36.5 -102l134 -381h-193l-127 371q-39 111 -66 153
q-69 106 -224 122q-30 3 -64 3h-303v-649h-185v1462h185v-649z" />
    <glyph glyph-name="uni041B.loclBGR" horiz-adv-x="1329" 
d="M557 1462h215l598 -1462h-207l-491 1239h-21l-493 -1239h-199z" />
    <glyph glyph-name="uni0423.ss01" horiz-adv-x="1259" 
d="M293 -29q-144 0 -236 86l95 142q61 -64 141 -64q63 0 110 44.5t103 150.5l41 82l-588 1050h221l465 -862h19l444 862h203l-639 -1196q-82 -156 -171 -225.5t-208 -69.5z" />
    <glyph glyph-name="uni0430.ss01" horiz-adv-x="1114" 
d="M424 -29q-173 0 -268 84t-95 230q0 114 63.5 194.5t172 119t252.5 38.5q153 0 285 -31v53q0 126 -73.5 204.5t-207.5 78.5q-116 0 -189.5 -51.5t-74.5 -145.5v-6h-178v11q1 109 58 185.5t155 113t229 36.5q71 0 133.5 -12t124 -43.5t105 -80t70 -127.5t26.5 -181v-641
h-158l-20 162h-21q-58 -91 -160.5 -141t-228.5 -50zM453 121q105 0 185.5 36.5t133 116.5t62.5 197q-152 31 -265 31q-162 0 -246.5 -56.5t-84.5 -152.5q0 -83 56.5 -127.5t158.5 -44.5z" />
    <glyph glyph-name="uni0431.loclSRB" 
d="M614 -29q-121 0 -221 32.5t-174.5 96.5t-116 165t-41.5 231q0 166 79.5 281t221.5 169v21q-239 55 -239 241q0 116 92 185t260 69h158q314 6 436 51v-157q-145 -66 -426 -66h-164q-174 0 -174 -104q0 -70 80.5 -104t255.5 -46q247 -16 386.5 -147t139.5 -389
q0 -174 -71.5 -294.5t-194 -177.5t-287.5 -57zM244 500q0 -186 100.5 -282.5t269.5 -96.5q170 0 270.5 96.5t100.5 282.5t-101 283.5t-270 97.5t-269.5 -97.5t-100.5 -283.5z" />
    <glyph glyph-name="uni0432.loclBGR" horiz-adv-x="1157" 
d="M598 -29q-238 0 -367 120t-129 341v598q0 218 130.5 339.5t365.5 121.5q229 0 343 -104.5t114 -276.5q0 -236 -211 -326v-20q128 -45 190 -146t62 -235q0 -193 -132.5 -302.5t-365.5 -109.5zM283 1030v-229q108 0 196 8.5t164 29.5t127 54.5t80 84t29 116.5
q0 113 -68.5 180t-212.5 67q-151 0 -233 -81t-82 -230zM598 121q151 0 233 71t82 201q0 253 -247 285q-215 -37 -383 -37v-209q0 -148 82.5 -229.5t232.5 -81.5z" />
    <glyph glyph-name="uni0433.loclBGR" horiz-adv-x="1038" 
d="M508 -29q-233 0 -347 85t-114 223q0 92 40 154.5t104.5 92.5t142.5 48t155.5 29.5t142 28t104.5 52t40 92.5q0 80 -67 123t-197 43t-199 -53t-69 -135v-11h-178v15q0 143 114.5 235t331.5 92q218 0 330 -85t112 -222q0 -72 -25 -126.5t-67 -87t-97 -54.5t-115 -34
t-120.5 -22t-115.5 -21t-97 -28t-67 -47.5t-25 -74.5q0 -81 70.5 -124.5t212.5 -43.5q143 0 216 53t73 135v10h180v-14q0 -144 -120.5 -236t-348.5 -92z" />
    <glyph glyph-name="uni0434.loclBGR" horiz-adv-x="1249" 
d="M606 -418q-241 0 -364 88t-123 246v14h178q0 -198 307 -198q159 0 262 92.5t103 275.5v144h-21q-131 -191 -385 -191q-221 0 -361.5 136.5t-140.5 379.5t140.5 379.5t361.5 136.5q254 0 385 -184h21l20 156h158v-944q0 -114 -31.5 -206t-83.5 -152t-123.5 -99.5
t-146.5 -56.5t-156 -17zM606 205q160 0 261.5 99t101.5 265t-102 265.5t-261 99.5q-164 0 -264 -96.5t-100 -268.5q0 -170 100 -267t264 -97z" />
    <glyph glyph-name="uni0436.loclBGR" horiz-adv-x="1548" 
d="M1069 582l512 -582h-231l-410 459l-76 -70v-389h-180v385l-78 74l-416 -459h-223l518 573l-512 484h238l453 -441h20v846h180v-846h21l461 441h229z" />
    <glyph glyph-name="uni0436.loclBGR.ss01" horiz-adv-x="1755" 
d="M217 0h-186l102 270q40 109 91.5 168t140.5 84v21q-89 24 -140.5 80.5t-91.5 162.5l-102 271h186l96 -260q14 -36 25.5 -59t32.5 -50.5t46.5 -43.5t65.5 -27t90 -11h215v856h179v-856h217q62 0 106.5 14.5t73.5 45t44.5 58.5t33.5 73l98 260h184l-102 -271
q-40 -106 -91 -162.5t-140 -80.5v-21q89 -25 140 -83.5t91 -168.5l102 -270h-184l-98 260q-14 36 -25.5 60t-32.5 51.5t-46 43.5t-64.5 27t-89.5 11h-217v-453h-179v453h-215q-50 0 -90 -11t-65.5 -27t-46.5 -43.5t-32.5 -51.5t-25.5 -60z" />
    <glyph glyph-name="uni0436.ss01" horiz-adv-x="1755" 
d="M217 0h-186l102 270q40 109 91.5 168t140.5 84v21q-89 24 -140.5 80.5t-91.5 162.5l-102 271h186l96 -260q14 -36 25.5 -59t32.5 -50.5t46.5 -43.5t65.5 -27t90 -11h215v451h179v-451h217q62 0 106.5 14.5t73.5 45t44.5 58.5t33.5 73l98 260h184l-102 -271
q-40 -106 -91 -162.5t-140 -80.5v-21q89 -25 140 -83.5t91 -168.5l102 -270h-184l-98 260q-14 36 -25.5 60t-32.5 51.5t-46 43.5t-64.5 27t-89.5 11h-217v-453h-179v453h-215q-50 0 -90 -11t-65.5 -27t-46.5 -43.5t-32.5 -51.5t-25.5 -60z" />
    <glyph glyph-name="uni0437.loclBGR" horiz-adv-x="1099" 
d="M551 -418q-241 0 -370.5 120.5t-129.5 330.5v37h185v-17q0 -317 313 -317q140 0 226.5 75.5t86.5 196.5q0 125 -87.5 200t-227.5 75h-113v149h98q128 0 209.5 69.5t81.5 182.5q0 118 -75.5 183t-202.5 65q-132 0 -215.5 -75t-83.5 -224v-29h-187v31q0 148 64 251
t171.5 151t250.5 48q68 0 130.5 -11t124.5 -39t107 -71t73 -112.5t28 -157.5q0 -113 -61 -194t-167 -119v-21q117 -29 193 -127t76 -221q0 -109 -42.5 -193.5t-114 -135t-158.5 -76t-183 -25.5z" />
    <glyph glyph-name="uni0438.loclBGR" 
d="M541 -29q-205 0 -322 123t-117 375v588h181v-594q0 -167 83 -252.5t220 -85.5q165 0 263.5 102.5t98.5 290.5v539h178v-1057h-157l-21 162h-20q-126 -191 -387 -191z" />
    <glyph glyph-name="uni0438.ss01" horiz-adv-x="1230" 
d="M283 0h-181v1057h181v-729h20l647 643v86h178v-1057h-178v729h-20l-647 -641v-88z" />
    <glyph glyph-name="uni0439.loclBGR" 
d="M614 1196q-128 0 -211 83.5t-98 238.5h152q9 -100 50 -149.5t107 -49.5q65 0 107 49.5t51 149.5h150q-15 -155 -98 -238.5t-210 -83.5zM541 -29q-205 0 -322 123t-117 375v588h181v-594q0 -167 83 -252.5t220 -85.5q165 0 263.5 102.5t98.5 290.5v539h178v-1057h-157
l-21 162h-20q-126 -191 -387 -191z" />
    <glyph glyph-name="uni043A.loclBGR" horiz-adv-x="1021" 
d="M494 573l565 -573h-244l-455 459l-77 -68v-391h-181v1462h181v-846h20l512 441h238z" />
    <glyph glyph-name="uni043A.loclBGR.ss01" horiz-adv-x="1120" 
d="M987 270l103 -270h-185l-98 260q-13 35 -24.5 59.5t-32.5 52t-46.5 43.5t-65 27t-89.5 11h-266v-453h-181v1462h181v-856h266q62 0 107 14.5t73.5 44.5t45 59t32.5 73l98 260h185l-103 -271q-40 -106 -91 -162.5t-140 -80.5v-21q89 -25 140 -83.5t91 -168.5z" />
    <glyph glyph-name="uni043A.ss01" horiz-adv-x="1120" 
d="M987 270l103 -270h-185l-98 260q-13 35 -24.5 59.5t-32.5 52t-46.5 43.5t-65 27t-89.5 11h-266v-453h-181v1057h181v-451h266q62 0 107 14.5t73.5 44.5t45 59t32.5 73l98 260h185l-103 -271q-40 -106 -91 -162.5t-140 -80.5v-21q89 -25 140 -83.5t91 -168.5z" />
    <glyph glyph-name="uni043B.loclBGR" horiz-adv-x="1001" 
d="M406 1057h192l444 -1057h-194l-340 831h-21l-335 -831h-193z" />
    <glyph glyph-name="uni043D.loclBGR" 
d="M283 0h-181v1057h181v-451h665v451h178v-1057h-178v453h-665v-453z" />
    <glyph glyph-name="uni043F.loclBGR" 
d="M283 0h-181v1057h160l21 -162h20q126 190 385 190q205 0 321.5 -122.5t116.5 -374.5v-588h-178v594q0 167 -84 252.5t-221 85.5q-164 0 -262 -102.5t-98 -290.5v-539z" />
    <glyph glyph-name="uni043F.loclBGR.ss01" 
d="M283 0h-181v578q0 255 134 381t378 126q512 0 512 -493v-592h-178v592q0 175 -87.5 257.5t-246.5 82.5q-157 0 -244 -87.5t-87 -266.5v-578z" />
    <glyph glyph-name="uni0442.loclBGR" horiz-adv-x="1828" 
d="M283 0h-181v1057h160l21 -162h20q106 190 328 190q239 0 327 -217h19q134 217 375 217q178 0 276 -123.5t98 -373.5v-588h-180v594q0 166 -68 252t-180 86q-96 0 -164.5 -54.5t-99 -138t-30.5 -184.5v-555h-179v594q0 169 -69 253.5t-181 84.5q-131 0 -211.5 -102
t-80.5 -291v-539z" />
    <glyph glyph-name="uni0442.loclBGR.ss01" horiz-adv-x="1828" 
d="M283 0h-181v578q0 254 115.5 380.5t323.5 126.5q269 0 366 -202h21q97 202 360 202q438 0 438 -493v-592h-180v592q0 340 -270 340q-130 0 -201 -87t-71 -267v-578h-179v592q0 340 -272 340q-129 0 -199.5 -87.5t-70.5 -266.5v-578z" />
    <glyph glyph-name="uni0444.loclBGR" horiz-adv-x="1480" 
d="M61 528q0 136 44 242t123 173.5t186 103.5t237 38v377h176v-377q131 -2 238 -38t186.5 -103.5t123.5 -173.5t44 -242t-44 -242t-123.5 -173.5t-186.5 -103.5t-238 -38v-360h-176v360q-130 2 -237 38t-186 103.5t-123 173.5t-44 242zM240 528q0 -198 111.5 -302
t299.5 -109v823q-188 -5 -299.5 -109.5t-111.5 -302.5zM827 940v-823q190 5 301 109t111 302t-112 302.5t-300 109.5z" />
    <glyph glyph-name="uni0447.loclBGR" horiz-adv-x="1157" 
d="M877 571v486h178v-1057h-178v418h-19q-268 -27 -397 -27q-78 0 -145 19.5t-120 57.5t-83.5 101t-30.5 144v342h180v-316q0 -97 66 -146.5t164 -49.5q115 0 385 28z" />
    <glyph glyph-name="uni0446.loclBGR" horiz-adv-x="1318" 
d="M1126 1057v-903h162v-482h-153l-21 328h-145l-21 162h-20q-126 -191 -387 -191q-205 0 -322 123t-117 375v588h181v-594q0 -167 83 -252.5t220 -85.5q165 0 263.5 102.5t98.5 290.5v539h178z" />
    <glyph glyph-name="uni0448.loclBGR" horiz-adv-x="1828" 
d="M1548 1057h178v-1057h-157l-21 162h-20q-112 -191 -330 -191q-237 0 -328 217h-18q-134 -217 -375 -217q-177 0 -275 124t-98 374v588h179v-594q0 -166 67.5 -252t179.5 -86q97 0 165.5 54.5t99 138t30.5 186.5v553h181v-594q0 -169 68 -253.5t179 -84.5q132 0 213.5 102
t81.5 291v539z" />
    <glyph glyph-name="uni0449.loclBGR" horiz-adv-x="1916" 
d="M1726 1057v-903h160v-482h-153l-19 328h-147l-21 162h-20q-109 -191 -328 -191q-240 0 -328 217h-18q-67 -106 -157.5 -161.5t-219.5 -55.5q-177 0 -275 124t-98 374v588h181v-594q0 -166 67 -252t180 -86q96 0 164.5 54.5t99.5 138.5t31 186v553h179v-594
q0 -169 68 -253.5t179 -84.5q132 0 213.5 102t81.5 291v539h180z" />
    <glyph glyph-name="uni044C.loclBGR" horiz-adv-x="1146" 
d="M102 412v645h181v-355h16q146 111 350 111q210 0 328.5 -111.5t118.5 -308.5q0 -198 -132.5 -310t-365.5 -112q-238 0 -367 114.5t-129 326.5zM283 526v-114q0 -138 82.5 -214.5t232.5 -76.5q151 0 233 71t82 201q0 126 -79 198.5t-218 72.5q-98 0 -189.5 -38.5
t-143.5 -99.5z" />
    <glyph glyph-name="uni044A.loclBGR" horiz-adv-x="1390" 
d="M893 813q209 0 327.5 -111.5t118.5 -308.5q0 -198 -132.5 -310t-364.5 -112q-239 0 -367.5 114.5t-128.5 326.5v491h-315v154h493v-355h19q146 111 350 111zM842 121q151 0 233 71t82 201q0 126 -79 198.5t-218 72.5q-98 0 -190.5 -38.5t-145.5 -99.5v-114
q0 -138 83 -214.5t235 -76.5z" />
    <glyph glyph-name="uni044E.loclBGR" horiz-adv-x="1634" 
d="M1020 1085q251 0 402 -142t151 -415t-151 -415t-402 -142q-232 0 -380 122.5t-169 359.5h-188v-453h-181v1462h181v-856h188q21 236 169 357.5t380 121.5zM1020 121q169 0 270 104t101 303q0 201 -101 304.5t-272 103.5q-169 0 -270 -104t-101 -304q0 -199 102 -303
t271 -104z" />
    <glyph glyph-name="zero.zero" horiz-adv-x="1142" 
d="M569 1491q85 0 159.5 -23t142.5 -78.5t116.5 -140.5t77.5 -217.5t29 -300.5t-29 -300.5t-77.5 -217.5t-116.5 -140.5t-142.5 -78.5t-159.5 -23q-86 0 -160 23t-142.5 78.5t-116.5 140.5t-76.5 217.5t-28.5 300.5t28.5 300.5t76.5 217.5t116.5 140.5t142.5 78.5t160 23z
M569 1335q-55 0 -103 -18t-92.5 -62t-76 -111.5t-50 -173t-18.5 -239.5q0 -188 37 -323l529 813q-85 114 -226 114zM569 129q55 0 103 18t92 61.5t75 111t49.5 172.5t18.5 239q0 198 -37 322l-526 -811q84 -113 225 -113z" />
    <glyph glyph-name="zero.tf" horiz-adv-x="1177" 
d="M590 -29q-86 0 -160.5 23t-143 78.5t-117 140.5t-77.5 217.5t-29 300.5t29 300.5t77.5 217.5t117 140.5t143 78.5t160.5 23q85 0 159 -23t142 -78.5t116 -140.5t76.5 -217.5t28.5 -300.5t-28.5 -300.5t-76.5 -217.5t-116 -140.5t-142 -78.5t-159 -23zM590 129
q55 0 103 18t92 61.5t75 111t49.5 172.5t18.5 239q0 166 -27.5 287.5t-76 188.5t-106.5 97.5t-128 30.5q-55 0 -103 -18t-92.5 -62t-76 -111.5t-50 -173t-18.5 -239.5t18.5 -239t50 -172.5t76 -111t92.5 -61.5t103 -18z" />
    <glyph glyph-name="zero.zero.tf" horiz-adv-x="1177" 
d="M590 1491q85 0 159 -23t142 -78.5t116 -140.5t76.5 -217.5t28.5 -300.5t-28.5 -300.5t-76.5 -217.5t-116 -140.5t-142 -78.5t-159 -23q-86 0 -160.5 23t-143 78.5t-117 140.5t-77.5 217.5t-29 300.5t29 300.5t77.5 217.5t117 140.5t143 78.5t160.5 23zM590 1335
q-55 0 -103 -18t-92.5 -62t-76 -111.5t-50 -173t-18.5 -239.5q0 -188 37 -323l526 813q-82 114 -223 114zM590 129q55 0 103 18t92 61.5t75 111t49.5 172.5t18.5 239q0 189 -37 324l-529 -811q88 -115 228 -115z" />
    <glyph glyph-name="one.tf" horiz-adv-x="1177" 
d="M758 1462v-1302h344v-160h-957v160h430v1104h-20l-401 -236l-78 143l499 291h183z" />
    <glyph glyph-name="two.tf" horiz-adv-x="1177" 
d="M1069 0h-954v160l592 553q176 170 176 334q0 133 -78.5 210.5t-212.5 77.5q-133 0 -217 -82.5t-84 -248.5q0 -5 1 -18t1 -19h-180q-2 18 -2 59q0 92 27 172.5t82 147.5t150.5 106t221.5 39q217 0 346 -121t129 -323q0 -124 -75 -243.5t-185 -217.5l-442 -406v-20h704
v-160z" />
    <glyph glyph-name="three.tf" horiz-adv-x="1177" 
d="M584 -29q-239 0 -365.5 123t-126.5 344v37h184v-16q0 -171 84.5 -252.5t235.5 -81.5q137 0 222 80.5t85 208.5q0 123 -86 198.5t-215 75.5h-88v150h72q119 0 197.5 70t78.5 182q0 117 -78.5 182t-203.5 65q-129 0 -212 -75t-83 -224v-28h-185v30q0 112 36 199
t100.5 141.5t151 82.5t190.5 28q67 0 130 -11t126.5 -39t110 -71t75.5 -112.5t29 -157.5q0 -112 -62.5 -194t-167.5 -120v-20q115 -29 191.5 -127.5t76.5 -220.5q0 -113 -43 -201t-115.5 -140.5t-160 -79t-184.5 -26.5z" />
    <glyph glyph-name="four.tf" horiz-adv-x="1177" 
d="M967 0h-183v344h-727v158l695 960h215v-960h153v-158h-153v-344zM254 522v-20h530v721h-20z" />
    <glyph glyph-name="five.tf" horiz-adv-x="1177" 
d="M586 -29q-107 0 -193 22.5t-141.5 60.5t-92.5 90.5t-53 109.5t-16 121q0 6 1 19t1 18h187v-27q0 -116 76.5 -188t226.5 -72q146 0 232.5 85t86.5 241q0 137 -78 223t-229 86q-93 0 -162.5 -30t-126.5 -105l-172 32l45 805h811v-166h-659l-27 -485h16q76 51 144.5 72.5
t167.5 21.5q198 0 327 -121t129 -335q0 -150 -68.5 -260t-180.5 -164t-252 -54z" />
    <glyph glyph-name="six.tf" horiz-adv-x="1177" 
d="M612 -29q-129 0 -227.5 40t-160 106t-100 163t-53 199.5t-14.5 225.5q0 379 141.5 582.5t403.5 203.5q116 0 206 -32t146.5 -89.5t87 -131.5t35.5 -163h-184q-14 124 -87 195t-200 71q-364 0 -364 -639h20q81 104 173 147.5t216 43.5q137 0 242 -49.5t167 -153.5t62 -250
q0 -200 -143.5 -334.5t-366.5 -134.5zM612 121q155 0 240.5 93t85.5 226q0 136 -81 222t-245 86q-153 0 -241 -91.5t-88 -222.5q0 -136 82 -224.5t247 -88.5z" />
    <glyph glyph-name="seven.tf" horiz-adv-x="1177" 
d="M506 0h-199l580 1284v21h-785v157h973v-147z" />
    <glyph glyph-name="eight.tf" horiz-adv-x="1177" 
d="M590 -29q-85 0 -162 14.5t-146.5 47.5t-120 82t-80.5 123t-30 165q0 126 79.5 225t188.5 130v20q-97 40 -164 125t-67 197q0 74 21 134.5t58.5 102.5t85.5 72.5t105.5 48t114.5 25.5t117 8q72 0 139.5 -11t134.5 -39t116 -71t79.5 -112.5t30.5 -157.5
q0 -111 -67.5 -196.5t-164.5 -125.5v-20q109 -31 188.5 -130t79.5 -225q0 -91 -29.5 -165t-80 -123t-119.5 -82t-145.5 -47.5t-161.5 -14.5zM590 838q141 0 227 63t86 186t-86 186.5t-227 63.5q-143 0 -229.5 -63.5t-86.5 -186.5t86.5 -186t229.5 -63zM590 125
q159 0 255.5 72.5t96.5 210.5q0 136 -96.5 207t-255.5 71q-160 0 -257 -71t-97 -207q0 -138 97 -210.5t257 -72.5z" />
    <glyph glyph-name="nine.tf" horiz-adv-x="1177" 
d="M575 -29q-116 0 -206 32.5t-146 90.5t-86.5 132t-36.5 163h185q12 -123 85.5 -195.5t200.5 -72.5q367 0 367 639h-20q-83 -104 -175.5 -147.5t-216.5 -43.5q-209 0 -339 117.5t-130 335.5q0 201 143 335t367 134q555 0 555 -733q0 -377 -143 -582t-404 -205zM567 715
q152 0 240 91.5t88 223.5q0 64 -19 119t-57.5 98.5t-103 68.5t-148.5 25q-155 0 -241 -93t-86 -226q0 -136 81 -221.5t246 -85.5z" />
    <glyph glyph-name="zero.sinf" horiz-adv-x="741" 
d="M371 -379q-67 0 -123.5 19.5t-104.5 62t-75 119t-27 180.5q0 84 18 150t49 108.5t74 70t89.5 39t99.5 11.5q67 0 123.5 -19.5t104 -61t74.5 -118t27 -180.5t-27 -180.5t-74.5 -119t-104 -62t-123.5 -19.5zM371 -256q76 0 125 70t49 188q0 117 -49 186.5t-125 69.5
t-124 -69.5t-48 -186.5q0 -118 48 -188t124 -70z" />
    <glyph glyph-name="one.sinf" horiz-adv-x="468" 
d="M412 -365h-154v578l-12 -2l-170 -86l-66 113l248 129h154v-732z" />
    <glyph glyph-name="two.sinf" horiz-adv-x="663" 
d="M623 -365h-576v121l320 246q52 39 74 73.5t22 74.5q0 51 -32.5 80.5t-96.5 29.5q-65 0 -101 -34t-36 -95v-18h-154l-1 5q0 6 -0.5 14t-0.5 15q0 46 15.5 86t48 74.5t91 54t136.5 19.5q135 0 212 -60.5t77 -164.5q0 -43 -14.5 -79t-46 -68.5t-58.5 -53.5t-74 -53
l-182 -144h377v-123z" />
    <glyph glyph-name="three.sinf" horiz-adv-x="690" 
d="M342 -379q-147 0 -224 62.5t-77 171.5v20h145v-6q0 -59 43.5 -94t116.5 -35q67 0 109.5 32t42.5 83q0 53 -44 80.5t-112 27.5h-47v100h41q61 0 101 28t40 71q0 48 -38.5 74t-100.5 26q-63 0 -103 -28.5t-40 -83.5v-13h-150v17q0 113 80.5 170t212.5 57q53 0 101 -10
t92 -31t70 -60.5t26 -93.5q0 -59 -37 -100t-96 -57v-11q68 -12 112.5 -60t44.5 -114q0 -108 -91 -165.5t-218 -57.5z" />
    <glyph glyph-name="four.sinf" horiz-adv-x="700" 
d="M575 -365h-147v148h-408v121l394 463h161v-457h105v-127h-105v-148zM424 190l-248 -286h252v266z" />
    <glyph glyph-name="five.sinf" horiz-adv-x="677" 
d="M348 -379q-162 0 -233.5 60t-71.5 157v21h160v-13q0 -49 35 -76.5t104 -27.5q65 0 106 33t41 94q0 59 -38 93t-105 34q-83 0 -141 -55l-137 26l26 400h486v-123h-363l-16 -193q48 29 89.5 38t94.5 9q113 0 185.5 -62t72.5 -171q0 -114 -86.5 -179t-208.5 -65z" />
    <glyph glyph-name="six.sinf" horiz-adv-x="720" 
d="M375 -379q-79 0 -139 19.5t-96.5 52t-59 80.5t-31 98t-8.5 111q0 184 89 291.5t237 107.5q142 0 212.5 -59t75.5 -162h-153q-5 59 -28 83.5t-83 24.5q-103 0 -150.5 -67.5t-47.5 -182.5v-16q75 92 219 92q123 0 197.5 -58.5t74.5 -170.5q0 -105 -85.5 -174.5
t-223.5 -69.5zM375 -266q75 0 115 37t40 92q0 57 -37.5 92t-117.5 35q-76 0 -117 -36.5t-41 -92.5q0 -57 38.5 -92t119.5 -35z" />
    <glyph glyph-name="seven.sinf" horiz-adv-x="610" 
d="M260 -365h-166l336 605h-422v127h582v-119z" />
    <glyph glyph-name="eight.sinf" horiz-adv-x="722" 
d="M362 -379q-139 0 -230 54.5t-91 164.5q0 64 48 115.5t112 67.5q-55 13 -95 58t-40 103q0 55 25.5 94.5t69.5 61t94 31.5t107 10t106.5 -10t94 -31.5t70.5 -61.5t26 -94q0 -58 -41 -103t-96 -58q64 -16 112 -67.5t48 -115.5q0 -75 -46 -125.5t-116 -72t-158 -21.5zM362 72
q69 0 107.5 25t38.5 71q0 47 -38.5 72.5t-107.5 25.5q-71 0 -109 -25.5t-38 -72.5q0 -46 38.5 -71t108.5 -25zM362 -264q77 0 121.5 29t44.5 83q0 56 -44.5 84.5t-121.5 28.5t-122 -28.5t-45 -84.5q0 -54 44.5 -83t122.5 -29z" />
    <glyph glyph-name="nine.sinf" horiz-adv-x="720" 
d="M352 -379q-141 0 -211 58t-75 161h153l2 -14q13 -96 129 -96q178 0 178 268q-77 -88 -219 -88q-123 0 -196.5 58t-73.5 169q0 105 84.5 174.5t222.5 69.5q334 0 334 -361q0 -190 -82 -294.5t-246 -104.5zM346 12q75 0 115.5 36.5t40.5 92.5t-38.5 91.5t-117.5 35.5
q-77 0 -115 -36.5t-38 -92.5q0 -127 153 -127z" />
    <glyph glyph-name="zero.dnom" horiz-adv-x="741" 
d="M371 -14q-67 0 -123.5 19.5t-104.5 62t-75 119t-27 180.5t27 180t75 118t104 61t124 19t124 -19t103.5 -61t74.5 -118t27 -180t-27 -180.5t-74.5 -119t-104 -62t-123.5 -19.5zM371 111q77 0 125.5 69t48.5 187q0 117 -49 186.5t-125 69.5t-124 -69.5t-48 -186.5
q0 -118 48 -187t124 -69z" />
    <glyph glyph-name="one.dnom" horiz-adv-x="468" 
d="M412 0h-154v578l-12 -3l-170 -86l-66 113l248 129h154v-731z" />
    <glyph glyph-name="two.dnom" horiz-adv-x="663" 
d="M623 0h-576v121l320 246q52 40 74 73.5t22 73.5q0 51 -32.5 81t-96.5 30q-65 0 -101 -34t-36 -95v-19h-154l-1 5q0 6 -0.5 14.5t-0.5 15.5q0 99 70 166t221 67q135 0 212 -60.5t77 -164.5q0 -43 -14.5 -79t-46 -68t-59 -53.5t-73.5 -51.5l-182 -143h377v-125z" />
    <glyph glyph-name="three.dnom" horiz-adv-x="690" 
d="M342 -14q-147 0 -224 62t-77 171v23h145v-9q0 -58 43 -92.5t117 -34.5q67 0 109.5 32t42.5 83q0 52 -44 79.5t-112 27.5h-47v100h41q62 0 101.5 27.5t39.5 70.5q0 48 -38.5 74.5t-100.5 26.5q-63 0 -103 -29t-40 -84v-12h-150v16q0 113 80.5 170t212.5 57q53 0 101 -9.5
t92 -30.5t70 -60.5t26 -93.5q0 -59 -37.5 -100.5t-95.5 -57.5v-10q68 -12 112.5 -60t44.5 -114q0 -108 -91 -165.5t-218 -57.5z" />
    <glyph glyph-name="four.dnom" horiz-adv-x="700" 
d="M575 0h-147v147h-408v121l394 463h161v-457h105v-127h-105v-147zM424 555l-248 -287h252v267z" />
    <glyph glyph-name="five.dnom" horiz-adv-x="677" 
d="M348 -14q-162 0 -233.5 60t-71.5 157v20h160v-12q0 -49 35 -77t104 -28q65 0 106 33t41 94q0 59 -38 93t-105 34q-83 0 -141 -55l-137 27l26 399h486v-123h-363l-16 -192q48 29 89.5 38t94.5 9q112 0 185 -62.5t73 -169.5q0 -115 -86.5 -180t-208.5 -65z" />
    <glyph glyph-name="six.dnom" horiz-adv-x="720" 
d="M375 -14q-98 0 -166 28.5t-103.5 81t-50 113t-14.5 137.5q0 184 89 291.5t237 107.5q142 0 212.5 -59t75.5 -162h-153q-5 59 -28 84t-83 25q-103 0 -150.5 -67.5t-47.5 -182.5v-16q75 92 219 92q123 0 197.5 -59t74.5 -171q0 -105 -85 -174t-224 -69zM375 98
q76 0 115.5 37.5t39.5 93.5t-37.5 90.5t-117.5 34.5q-76 0 -117 -36.5t-41 -92.5q0 -57 38.5 -92t119.5 -35z" />
    <glyph glyph-name="seven.dnom" horiz-adv-x="610" 
d="M260 0h-166l336 604h-422v127h582v-119z" />
    <glyph glyph-name="eight.dnom" horiz-adv-x="722" 
d="M362 -14q-138 0 -229.5 55.5t-91.5 165.5q0 63 48 113.5t112 66.5q-55 13 -95 58.5t-40 103.5q0 55 25.5 94.5t69.5 61t93.5 31t107.5 9.5q57 0 106.5 -9.5t94 -31t70.5 -61.5t26 -94q0 -58 -41 -103.5t-96 -58.5q64 -16 112 -66.5t48 -113.5q0 -110 -91.5 -165.5
t-228.5 -55.5zM362 436q69 0 107.5 25t38.5 71q0 47 -38.5 73t-107.5 26q-70 0 -108.5 -26t-38.5 -73q0 -46 38.5 -71t108.5 -25zM362 100q77 0 121.5 29.5t44.5 83.5q0 56 -44.5 85.5t-121.5 29.5t-122 -29.5t-45 -85.5q0 -55 44.5 -84t122.5 -29z" />
    <glyph glyph-name="nine.dnom" horiz-adv-x="720" 
d="M352 -14q-140 0 -210.5 58.5t-75.5 160.5h153l2 -15q6 -44 38 -70t91 -26q178 0 178 268q-77 -88 -219 -88q-123 0 -196.5 58.5t-73.5 169.5q0 105 84.5 174t222.5 69q334 0 334 -360q0 -190 -82 -294.5t-246 -104.5zM346 377q75 0 115.5 36.5t40.5 92.5t-38.5 91.5
t-117.5 35.5q-77 0 -115 -36.5t-38 -92.5q0 -127 153 -127z" />
    <glyph glyph-name="zero.numr" horiz-adv-x="741" 
d="M371 311q-67 0 -123.5 19.5t-104.5 62t-75 119t-27 180.5q0 84 18 150t49 108.5t74 70t89.5 39t99.5 11.5q67 0 123.5 -19.5t104 -61t74.5 -118t27 -180.5t-27 -180.5t-74.5 -119t-104 -62t-123.5 -19.5zM371 436q77 0 125.5 69t48.5 187q0 117 -49 186.5t-125 69.5
t-124 -69.5t-48 -186.5q0 -118 48 -187t124 -69z" />
    <glyph glyph-name="one.numr" horiz-adv-x="468" 
d="M412 326h-154v577l-12 -2l-170 -86l-66 113l248 129h154v-731z" />
    <glyph glyph-name="two.numr" horiz-adv-x="663" 
d="M623 326h-576v120l320 246q52 39 74 73.5t22 74.5q0 51 -32.5 80.5t-96.5 29.5q-65 0 -101 -34t-36 -95v-18h-154l-1 5q0 6 -0.5 14.5t-0.5 15.5q0 99 70 166t221 67q135 0 212 -60.5t77 -164.5q0 -43 -14.5 -79t-46 -68t-59 -53.5t-73.5 -51.5l-182 -143h377v-125z" />
    <glyph glyph-name="three.numr" horiz-adv-x="690" 
d="M342 311q-147 0 -224 62.5t-77 171.5v22h145v-8q0 -58 43 -92.5t117 -34.5q67 0 109.5 32t42.5 83q0 52 -44 79t-112 27h-47v101h41q62 0 101.5 27.5t39.5 70.5q0 48 -38.5 74t-100.5 26q-63 0 -103 -28.5t-40 -83.5v-13h-150v17q0 113 80.5 170t212.5 57q53 0 101 -9.5
t92 -30.5t70 -60.5t26 -93.5q0 -59 -37.5 -100.5t-95.5 -57.5v-10q68 -12 112.5 -60t44.5 -114q0 -108 -91 -166t-218 -58z" />
    <glyph glyph-name="four.numr" horiz-adv-x="700" 
d="M575 326h-147v147h-408v121l394 463h161v-457h105v-127h-105v-147zM424 881l-248 -287h252v266z" />
    <glyph glyph-name="five.numr" horiz-adv-x="677" 
d="M348 311q-162 0 -233.5 60t-71.5 157v21h160v-12q0 -49 35 -77t104 -28q65 0 106 33t41 94q0 59 -38 93t-105 34q-83 0 -141 -55l-137 26l26 400h486v-123h-363l-16 -193q48 29 89.5 38t94.5 9q112 0 185 -62t73 -169q0 -78 -42.5 -135t-108.5 -84t-144 -27z" />
    <glyph glyph-name="six.numr" horiz-adv-x="720" 
d="M375 311q-79 0 -139 19.5t-96.5 52t-59 80.5t-31 98t-8.5 111q0 184 89 291.5t237 107.5q142 0 212.5 -59t75.5 -162h-153q-5 59 -28 83.5t-83 24.5q-103 0 -150.5 -67t-47.5 -182v-17q75 92 219 92q123 0 197.5 -58.5t74.5 -170.5q0 -105 -85.5 -174.5t-223.5 -69.5z
M375 424q76 0 115.5 37.5t39.5 93.5t-37.5 90.5t-117.5 34.5q-76 0 -117 -36.5t-41 -92.5q0 -57 38.5 -92t119.5 -35z" />
    <glyph glyph-name="seven.numr" horiz-adv-x="610" 
d="M260 326h-166l336 604h-422v127h582v-119z" />
    <glyph glyph-name="eight.numr" horiz-adv-x="722" 
d="M362 311q-138 0 -229.5 55.5t-91.5 165.5q0 63 48 114t112 67q-55 13 -95 58t-40 103q0 55 25.5 94.5t69.5 61t94 31.5t107 10t106.5 -10t94 -31.5t70.5 -61.5t26 -94q0 -58 -41 -103t-96 -58q64 -16 112 -67t48 -114q0 -110 -91.5 -165.5t-228.5 -55.5zM362 762
q69 0 107.5 25t38.5 71q0 47 -38.5 72.5t-107.5 25.5q-71 0 -109 -25.5t-38 -72.5q0 -46 38.5 -71t108.5 -25zM362 426q77 0 121.5 29.5t44.5 83.5q0 56 -44.5 85t-121.5 29t-122 -29t-45 -85q0 -55 44.5 -84t122.5 -29z" />
    <glyph glyph-name="nine.numr" horiz-adv-x="720" 
d="M352 311q-140 0 -210.5 58.5t-75.5 160.5h153l2 -14q6 -44 38 -70t91 -26q178 0 178 268q-77 -88 -219 -88q-123 0 -196.5 58t-73.5 169q0 105 84.5 174.5t222.5 69.5q334 0 334 -360q0 -191 -82 -295.5t-246 -104.5zM346 702q75 0 115.5 37t40.5 92q0 56 -38.5 91.5
t-117.5 35.5q-77 0 -115 -36.5t-38 -92.5q0 -127 153 -127z" />
    <glyph glyph-name="zero.sups" horiz-adv-x="741" 
d="M371 678q-67 0 -123.5 19.5t-104.5 62t-75 119t-27 180.5q0 84 18 150t49 108.5t74 70t89.5 39t99.5 11.5q67 0 123.5 -19.5t104 -61t74.5 -118t27 -180.5t-27 -180.5t-74.5 -119t-104 -62t-123.5 -19.5zM371 803q77 0 125.5 69t48.5 187q0 117 -49 186.5t-125 69.5
t-124 -69.5t-48 -186.5q0 -118 48 -187t124 -69z" />
    <glyph glyph-name="one.sups" horiz-adv-x="468" 
d="M412 692h-154v578l-12 -2l-170 -86l-66 112l248 129h154v-731z" />
    <glyph glyph-name="two.sups" horiz-adv-x="663" 
d="M623 692h-576v121l320 246q52 40 74 73.5t22 73.5q0 51 -32.5 81t-96.5 30q-65 0 -101 -34t-36 -95v-19h-154l-1 5q0 6 -0.5 14.5t-0.5 15.5q0 46 15.5 86t48 74.5t91 54t136.5 19.5q135 0 212 -61t77 -165q0 -43 -14.5 -79t-46 -67.5t-58.5 -52.5t-74 -52l-182 -144h377
v-125z" />
    <glyph glyph-name="three.sups" horiz-adv-x="690" 
d="M342 678q-147 0 -224 62t-77 171v23h145v-8q0 -58 43 -92.5t117 -34.5q68 0 110 31.5t42 82.5q0 52 -44 79.5t-112 27.5h-47v100h41q61 0 101 28t40 71q0 48 -38.5 74t-100.5 26q-63 0 -103 -29t-40 -84v-12h-150v16q0 113 80.5 170.5t212.5 57.5q53 0 101 -10t92 -31
t70 -60.5t26 -93.5q0 -59 -37.5 -100.5t-95.5 -57.5v-10q68 -12 112.5 -60t44.5 -114q0 -108 -91 -165.5t-218 -57.5z" />
    <glyph glyph-name="four.sups" horiz-adv-x="700" 
d="M575 692h-147v148h-408v121l394 462h161v-456h105v-127h-105v-148zM424 1247l-248 -286h252v266z" />
    <glyph glyph-name="five.sups" horiz-adv-x="677" 
d="M348 678q-162 0 -233.5 60t-71.5 157v20h160v-12q0 -49 35 -76.5t104 -27.5q65 0 106 33t41 94q0 59 -38 93t-105 34q-82 0 -141 -56l-137 27l26 399h486v-123h-363l-16 -192q48 29 89.5 38t94.5 9q112 0 185 -62t73 -169q0 -78 -42.5 -135t-108.5 -84t-144 -27z" />
    <glyph glyph-name="six.sups" horiz-adv-x="720" 
d="M375 678q-98 0 -166 28.5t-103.5 81t-50 113t-14.5 137.5q0 184 89 292t237 108q142 0 212.5 -59t75.5 -162h-153q-5 59 -28 83.5t-83 24.5q-103 0 -150.5 -67.5t-47.5 -182.5v-16q75 92 219 92q123 0 197.5 -58.5t74.5 -170.5q0 -105 -85.5 -174.5t-223.5 -69.5z
M375 791q76 0 115.5 37.5t39.5 93.5t-37.5 90.5t-117.5 34.5q-76 0 -117 -36.5t-41 -92.5q0 -57 38.5 -92t119.5 -35z" />
    <glyph glyph-name="seven.sups" horiz-adv-x="610" 
d="M260 692h-166l336 604h-422v127h582v-118z" />
    <glyph glyph-name="eight.sups" horiz-adv-x="722" 
d="M362 678q-138 0 -229.5 55.5t-91.5 165.5q0 63 48 113.5t112 66.5q-55 13 -95 58.5t-40 103.5q0 55 25.5 94.5t69.5 61t94 31.5t107 10t106.5 -10t94 -31.5t70.5 -61.5t26 -94q0 -58 -41 -103.5t-96 -58.5q64 -16 112 -66.5t48 -113.5q0 -110 -91.5 -165.5t-228.5 -55.5z
M362 1128q69 0 107.5 25.5t38.5 71.5q0 47 -38.5 72.5t-107.5 25.5q-71 0 -109 -25.5t-38 -72.5q0 -46 38.5 -71.5t108.5 -25.5zM362 793q77 0 121.5 29t44.5 83q0 56 -44.5 85.5t-121.5 29.5t-122 -29.5t-45 -85.5q0 -54 44.5 -83t122.5 -29z" />
    <glyph glyph-name="nine.sups" horiz-adv-x="720" 
d="M352 678q-140 0 -210.5 58.5t-75.5 160.5h153l2 -14q6 -44 38 -70.5t91 -26.5q178 0 178 269q-77 -88 -219 -88q-123 0 -196.5 58t-73.5 169q0 105 84.5 174.5t222.5 69.5q334 0 334 -361q0 -190 -82 -294.5t-246 -104.5zM346 1069q75 0 115.5 36.5t40.5 92.5t-38.5 91.5
t-117.5 35.5q-77 0 -115 -36.5t-38 -92.5q0 -127 153 -127z" />
    <glyph glyph-name="exclamdown.case" horiz-adv-x="489" 
d="M244 1210q-56 0 -93.5 38t-37.5 95q0 58 37.5 96t93.5 38q59 0 97 -38t38 -96q0 -57 -38.5 -95t-96.5 -38zM352 0h-217l37 1067h145z" />
    <glyph glyph-name="questiondown.case" horiz-adv-x="1128" 
d="M561 1210q-56 0 -93.5 38t-37.5 95q0 58 37.5 96t93.5 38q59 0 97 -38t38 -96q0 -57 -38.5 -95t-96.5 -38zM565 -29q-234 0 -358.5 113.5t-124.5 321.5q0 165 104.5 279.5t294.5 160.5l8 221h146l12 -346q-98 -7 -173.5 -37t-119.5 -75t-66 -97.5t-22 -110.5
q0 -129 76 -201.5t221 -72.5q132 0 216.5 78t84.5 227q0 31 -2 43h180q2 -16 2 -55q0 -70 -17 -134t-54.5 -122t-92.5 -100.5t-136 -67.5t-179 -25z" />
    <glyph glyph-name="parenleft.case" horiz-adv-x="598" 
d="M625 -180h-197q-326 379 -326 905q0 531 326 917h197q-326 -417 -326 -917q0 -249 86.5 -480.5t239.5 -424.5z" />
    <glyph glyph-name="parenright.case" horiz-adv-x="598" 
d="M170 -180h-197q328 415 328 917q0 249 -87 481t-241 424h197q326 -379 326 -905q0 -531 -326 -917z" />
    <glyph glyph-name="braceleft.case" horiz-adv-x="614" 
d="M594 -180h-33q-208 0 -293.5 95t-85.5 300v221q0 122 -25 167.5t-104 45.5h-33v164h33q79 0 104 45.5t25 167.5v223q0 203 85.5 298t293.5 95h33v-163h-31q-113 0 -154.5 -49t-41.5 -170v-234q0 -118 -31.5 -183.5t-102.5 -101.5v-20q71 -36 102.5 -101.5t31.5 -183.5
v-237q0 -119 41 -167t149 -48h37v-164z" />
    <glyph glyph-name="braceright.case" horiz-adv-x="614" 
d="M53 -180h-33v164h33q112 0 153.5 49t41.5 172v231q0 117 31.5 183t101.5 102v20q-70 36 -101.5 102t-31.5 183v238q0 120 -40.5 167.5t-150.5 47.5h-37v163h33q208 0 293.5 -95t85.5 -298v-223q0 -122 25 -167.5t104 -45.5h33v-164h-33q-79 0 -104 -45.5t-25 -167.5v-221
q0 -205 -85.5 -300t-293.5 -95z" />
    <glyph glyph-name="bracketleft.case" horiz-adv-x="555" 
d="M535 -180h-433v1822h433v-163h-248v-1495h248v-164z" />
    <glyph glyph-name="bracketright.case" horiz-adv-x="555" 
d="M453 -180h-433v164h248v1495h-248v163h433v-1822z" />
    <glyph glyph-name="hyphen.case" horiz-adv-x="522" 
d="M461 655h-400v154h400v-154z" />
    <glyph glyph-name="endash.case" horiz-adv-x="1064" 
d="M1004 655h-943v154h943v-154z" />
    <glyph glyph-name="emdash.case" horiz-adv-x="2068" 
d="M2007 655h-1946v154h1946v-154z" />
    <glyph glyph-name="guillemotleft.case" horiz-adv-x="1056" 
d="M526 487v-217l-506 392v141l506 391v-199l-327 -243v-21zM1016 487v-217l-506 392v141l506 391v-199l-330 -243v-21z" />
    <glyph glyph-name="guillemotright.case" horiz-adv-x="1056" 
d="M547 662l-506 -392v199l328 244v20l-328 244v217l506 -391v-141zM1036 662l-506 -392v199l328 244v20l-328 244v217l506 -391v-141z" />
    <glyph glyph-name="guilsinglleft.case" horiz-adv-x="577" 
d="M537 487v-217l-517 392v141l517 391v-199l-338 -243v-21z" />
    <glyph glyph-name="guilsinglright.case" horiz-adv-x="577" 
d="M557 662l-516 -392v199l338 244v20l-338 244v217l516 -391v-141z" />
    <glyph glyph-name="at.case" horiz-adv-x="2265" 
d="M1044 -223q-204 0 -376 62.5t-291.5 174.5t-186.5 272t-67 349q0 227 86.5 424t234 334t349 215t426.5 78q274 0 483.5 -106.5t324.5 -301t115 -447.5q0 -126 -29 -230t-76.5 -173.5t-111 -117.5t-130.5 -69.5t-136 -21.5q-99 0 -170 48t-84 134h-16q-134 -180 -375 -180
q-185 0 -292.5 113.5t-107.5 310.5q0 260 146.5 417t374.5 157q218 0 315 -156h16l33 131h146l-80 -653q-4 -40 -4 -56q0 -67 29.5 -92.5t86.5 -25.5q55 0 107 29t95 84t69 146.5t26 204.5q0 158 -53 289t-150.5 223t-238.5 142.5t-313 50.5q-187 0 -354.5 -64t-294 -178.5
t-201 -285.5t-74.5 -373q0 -209 91.5 -369t262 -249t395.5 -89q271 0 510 131l74 -135q-266 -147 -584 -147zM1053 371q164 0 267 110.5t103 300.5q0 132 -72 209.5t-206 77.5q-162 0 -262.5 -114.5t-100.5 -290.5q0 -136 74.5 -214.5t196.5 -78.5z" />
    <glyph glyph-name="dieresis.case" horiz-adv-x="972" 
d="M236 1602q-57 0 -95.5 37.5t-38.5 95.5q0 57 38.5 95t95.5 38q58 0 95.5 -38t37.5 -95q0 -59 -37.5 -96t-95.5 -37zM737 1602q-57 0 -95 37.5t-38 95.5q0 57 38 95t95 38q58 0 95.5 -38t37.5 -95q0 -59 -37 -96t-96 -37z" />
    <glyph glyph-name="dotaccent.case" horiz-adv-x="471" 
d="M236 1602q-57 0 -95.5 37.5t-38.5 95.5q0 57 38.5 95t95.5 38q58 0 95.5 -38t37.5 -95q0 -59 -37.5 -96t-95.5 -37z" />
    <glyph glyph-name="grave.case" horiz-adv-x="673" 
d="M571 1583h-170l-299 330h260z" />
    <glyph glyph-name="acute.case" horiz-adv-x="679" 
d="M274 1583h-172l215 330h261z" />
    <glyph glyph-name="hungarumlaut.case" horiz-adv-x="1028" 
d="M248 1583h-158l186 330h230zM635 1583h-156l199 330h244z" />
    <glyph glyph-name="circumflex.case" horiz-adv-x="915" 
d="M276 1583h-174l242 330h229l240 -330h-178l-180 207z" />
    <glyph glyph-name="caron.case" horiz-adv-x="915" 
d="M573 1583h-229l-242 330h179l180 -207l178 207h174z" />
    <glyph glyph-name="breve.case" horiz-adv-x="880" 
d="M442 1563q-142 0 -233.5 92t-106.5 241h152q39 -188 188 -188q148 0 187 188h149q-15 -149 -106 -241t-230 -92z" />
    <glyph glyph-name="ring.case" horiz-adv-x="696" 
d="M348 1524q-105 0 -175.5 62t-70.5 161q0 98 71 160.5t175 62.5t175 -62.5t71 -160.5q0 -99 -70.5 -161t-175.5 -62zM348 1630q47 0 77 33.5t30 83.5t-30 83.5t-77 33.5q-45 0 -74.5 -33.5t-29.5 -83.5t29.5 -83.5t74.5 -33.5z" />
    <glyph glyph-name="tilde.case" horiz-adv-x="1001" 
d="M664 1577q-51 0 -101.5 22.5t-83.5 49t-71.5 49t-67.5 22.5q-34 0 -63 -29.5t-35 -84.5h-152q8 125 81.5 192.5t166.5 67.5q52 0 103 -23t84 -50t72.5 -50t70.5 -23q35 0 62 26t34 89h147q-10 -125 -82 -191.5t-165 -66.5z" />
    <glyph glyph-name="macron.case" horiz-adv-x="890" 
d="M788 1642h-686v154h686v-154z" />
    <glyph glyph-name="caron.salt" horiz-adv-x="444" 
d="M215 1147h-113l41 385h181z" />
    <glyph glyph-name="brevecombcy" horiz-adv-x="0" 
d="M-662 1196q-128 0 -211 83.5t-98 238.5h152q9 -100 50 -149.5t107 -49.5q65 0 107 49.5t51 149.5h150q-15 -155 -98 -238.5t-210 -83.5z" />
    <glyph glyph-name="brevecombcy.case" horiz-adv-x="0" 
d="M-700 1563q-140 0 -231.5 92t-106.5 241h157q28 -204 181 -204q84 0 125.5 53.5t56.5 150.5h156q-15 -149 -106.5 -241t-231.5 -92z" />
    </font>
</defs>
</svg>
