<?xml version="1.0" standalone="no"?>
<!DOCTYPE svg PUBLIC "-//W3C//DTD SVG 1.1//EN" "http://www.w3.org/Graphics/SVG/1.1/DTD/svg11.dtd" >
<svg xmlns="http://www.w3.org/2000/svg" xmlns:xlink="http://www.w3.org/1999/xlink" version="1.1">
<metadata>
Created by FontForge 20170731 at Wed Dec 29 19:42:57 2021
 By Aleksey,,,
Copyright (c) 2019 TypoBrand LLC. www.atftype.com.
</metadata>
<defs>
<font id="FranklinGothicATF-Light" horiz-adv-x="788" >
  <font-face 
    font-family="Franklin Gothic ATF Lt"
    font-weight="350"
    font-stretch="normal"
    units-per-em="2048"
    panose-1="2 11 4 3 6 6 2 4 2 4"
    ascent="1536"
    descent="-512"
    x-height="1022"
    cap-height="1464"
    bbox="-276 -526 2800 2087"
    underline-thickness="40"
    underline-position="-312"
    unicode-range="U+0020-FB02"
  />
<missing-glyph horiz-adv-x="1191" 
d="M1192 0h-1192v1464h1192v-1464zM139 121h912v1222h-912v-1222z" />
    <glyph glyph-name="f_f" unicode="ff" horiz-adv-x="1286" 
d="M993 0h-137l2 178v737h-473v-737l2 -178h-139l2 178v737h-201v107h201v158q0 87 21.5 148t61 93t85 45t104.5 13q52 0 115 -15v-110q-58 14 -109 14q-76 0 -109.5 -43t-33.5 -141v-162h473v158q0 87 21 148t60.5 93t85.5 45t105 13q56 0 113 -15v-110q-58 14 -106 14
q-77 0 -111.5 -43t-34.5 -141v-162h252v-107h-252v-737z" />
    <glyph glyph-name="f_t" unicode="ft" horiz-adv-x="1341" 
d="M1255 1022v-107h-284v-688q0 -77 29 -110t96 -33q74 0 166 35v-111q-98 -35 -187 -35q-53 0 -93 10.5t-74 36.5t-52 75.5t-18 121.5v698h-453v-737l2 -178h-139l2 178v737h-201v107h201v158q0 87 21.5 148t61 93t85 45t104.5 13q52 0 115 -15v-110q-58 14 -109 14
q-76 0 -109.5 -43t-33.5 -141v-162h455l18 291h113v-291h284z" />
    <glyph glyph-name="f_f_t" unicode="fft" horiz-adv-x="1947" 
d="M385 915v-737l2 -178h-139l2 178v737h-201v107h201v158q0 87 21.5 148t61 93t85 45t104.5 13q52 0 115 -15v-110q-58 14 -109 14q-76 0 -109.5 -43t-33.5 -141v-162h473v158q0 87 21 148t60.5 93t85.5 45t105 13q56 0 113 -15v-110q-58 14 -106 14q-77 0 -111.5 -43
t-34.5 -141v-162h455l20 291h111v-291h287v-107h-287v-688q0 -77 29 -110t96 -33q76 0 168 35v-111q-98 -35 -189 -35q-53 0 -93 10.5t-74 36.5t-52 75.5t-18 121.5v698h-453v-737l2 -178h-137l2 178v737h-473z" />
    <glyph glyph-name="t_t" unicode="tt" horiz-adv-x="1447" 
d="M1364 1022v-107h-287v-688q0 -77 29 -110t96 -33q76 0 168 35v-111q-98 -35 -188 -35q-53 0 -93 10.5t-74.5 36.5t-52.5 75.5t-18 121.5v698h-561v-688q0 -77 28 -110t95 -33q76 0 168 35v-111q-98 -35 -189 -35q-53 0 -93 10.5t-74 36.5t-52 75.5t-18 121.5v698h-193
v107h195l20 291h113v-291h563l21 291h110v-291h287z" />
    <glyph glyph-name=".notdef" horiz-adv-x="1191" 
d="M1192 0h-1192v1464h1192v-1464zM139 121h912v1222h-912v-1222z" />
    <glyph glyph-name=".null" horiz-adv-x="0" 
 />
    <glyph glyph-name="nonmarkingreturn" horiz-adv-x="682" 
 />
    <glyph glyph-name="space" unicode=" " horiz-adv-x="491" 
 />
    <glyph glyph-name="exclam" unicode="!" horiz-adv-x="581" 
d="M381 1464l-41 -1052h-94l-41 1052h176zM379 0h-176v227h176v-227z" />
    <glyph glyph-name="quotedbl" unicode="&#x22;" horiz-adv-x="782" 
d="M203 1464h162l-138 -493h-80zM524 1464h162l-137 -493h-80z" />
    <glyph glyph-name="numbersign" unicode="#" horiz-adv-x="1449" 
d="M1092 1397h110l-76 -350h226v-107h-250l-105 -481h263v-105h-285l-76 -354h-111l76 354h-432l-76 -354h-110l76 354h-226v105h248l105 481h-259v107h283l76 350h110l-75 -350h432zM559 940l-104 -481h432l104 481h-432z" />
    <glyph glyph-name="dollar" unicode="$" horiz-adv-x="1187" 
d="M668 -164h-129v221q-79 8 -148.5 33.5t-116.5 57t-87 72t-62.5 74t-40.5 68.5l115 62q27 -43 50 -73.5t61 -67.5t78.5 -59.5t99.5 -38t128 -15.5q66 0 125.5 13t109 38.5t78.5 70.5t29 103q0 49 -20.5 86t-51.5 60.5t-84.5 41t-101.5 27t-120 19.5q-175 25 -253 54
q-202 75 -202 269q0 153 116 244t298 100v193h129v-197q84 -12 155 -43t118.5 -73.5t77 -80t50.5 -77.5l-111 -66q-30 47 -59.5 81.5t-75.5 72t-110 58t-140 20.5q-61 0 -116 -13t-99.5 -38.5t-71 -69.5t-26.5 -100q0 -31 9.5 -57t23 -43.5t40 -32.5t48 -23.5t61 -17.5
t64.5 -13t72 -11q13 -2 20 -3q58 -9 94 -15t94 -20.5t95 -30t81 -42.5t69.5 -60t43 -80t17.5 -104q0 -157 -119 -249.5t-305 -103.5v-221z" />
    <glyph glyph-name="percent" unicode="%" horiz-adv-x="1718" 
d="M416 680q-143 0 -242.5 102t-99.5 258q0 155 99.5 257t242.5 102t243.5 -102t100.5 -257q0 -156 -100.5 -258t-243.5 -102zM1303 -29q-143 0 -242.5 101.5t-99.5 257.5q0 155 99.5 257.5t242.5 102.5q141 0 240 -102.5t99 -257.5q0 -156 -98.5 -257.5t-240.5 -101.5z
M1325 1370l-805 -1370h-123l801 1370h127zM416 782q98 0 158.5 72.5t60.5 185.5t-60.5 184.5t-158.5 71.5t-157.5 -71.5t-59.5 -184.5t60.5 -185.5t156.5 -72.5zM1303 74q95 0 155 71.5t60 184.5q0 114 -60 186t-155 72q-98 0 -158 -71.5t-60 -186.5q0 -113 60.5 -184.5
t157.5 -71.5z" />
    <glyph glyph-name="ampersand" unicode="&#x26;" horiz-adv-x="1560" 
d="M1303 719l114 -47q-39 -99 -111 -217t-155 -213q77 -76 131.5 -107t110.5 -31q45 0 100 15v-119q-53 -18 -104 -18q-87 0 -159.5 36t-168.5 129q-202 -176 -471 -176q-98 0 -184 22.5t-158 69t-114 126.5t-42 186q0 79 25.5 144.5t64 110t99.5 82.5t115 61t128 48
q-60 99 -90.5 174t-30.5 144q0 43 11.5 86.5t40 87.5t69.5 77.5t106 54.5t144 21q168 0 262 -87.5t94 -225.5q0 -64 -22.5 -117t-58.5 -91t-93 -71.5t-112 -56t-131 -47.5q160 -221 362 -451q130 148 228 400zM602 82q211 0 381 147q-224 247 -399 500q-62 -21 -106 -39
t-94 -48t-81 -64t-51.5 -84.5t-20.5 -110.5q0 -79 32.5 -139.5t87 -94.5t118 -50.5t133.5 -16.5zM539 1139q0 -109 110 -277q40 13 57 18.5t52.5 17.5t51.5 19.5t45 20.5t42 23.5t33.5 26t30 31.5t20 35.5t14.5 42t4 48.5q0 92 -56.5 150.5t-166.5 58.5q-115 0 -176 -61
t-61 -154z" />
    <glyph glyph-name="quotesingle" unicode="'" horiz-adv-x="460" 
d="M147 971l56 493h162l-138 -493h-80z" />
    <glyph glyph-name="parenleft" unicode="(" horiz-adv-x="632" 
d="M578 -283h-132q-130 119 -229.5 359.5t-99.5 511.5q0 142 29 279.5t77.5 248t104.5 197.5t118 151h132q-310 -393 -310 -876q0 -129 25 -255.5t59 -216.5t82 -178t79 -132.5t65 -88.5z" />
    <glyph glyph-name="parenright" unicode=")" horiz-adv-x="632" 
d="M188 -283h-131q34 44 65 88.5t79 132.5t82 178t59 216.5t25 255.5q0 474 -310 876h131q62 -64 117.5 -151t104 -197.5t77.5 -248t29 -279.5q0 -270 -99.5 -510.5t-228.5 -360.5z" />
    <glyph glyph-name="asterisk" unicode="*" horiz-adv-x="1003" 
d="M446 1464h103l8 -315l297 98l31 -94l-291 -113l176 -245l-78 -58l-188 234l-189 -238l-79 60l170 245l-291 107l32 96l293 -92z" />
    <glyph glyph-name="plus" unicode="+" horiz-adv-x="1095" 
d="M489 1122h119v-475h469v-110h-469v-474h-119v474h-471v110h471v475z" />
    <glyph glyph-name="comma" unicode="," horiz-adv-x="524" 
d="M176 2v225h180v-227l-166 -297h-92l154 299h-76z" />
    <glyph glyph-name="hyphen" unicode="-" horiz-adv-x="737" 
d="M158 526v140h424v-140h-424z" />
    <glyph glyph-name="hyphen" unicode="&#xad;" horiz-adv-x="737" 
d="M158 526v140h424v-140h-424z" />
    <glyph glyph-name="period" unicode="." horiz-adv-x="493" 
d="M158 0v227h180v-227h-180z" />
    <glyph glyph-name="slash" unicode="/" horiz-adv-x="872" 
d="M201 -168h-127l594 1632h131z" />
    <glyph glyph-name="zero" unicode="0" horiz-adv-x="1288" 
d="M643 1399q162 0 284.5 -97t184.5 -258t62 -360t-62 -359.5t-184.5 -257t-284.5 -96.5q-160 0 -282 96t-185 257.5t-63 359.5t63 360t185 258.5t282 96.5zM643 1284q-112 0 -200.5 -77t-137.5 -213.5t-49 -307.5q0 -263 108.5 -431.5t278.5 -168.5q171 0 280 168.5
t109 431.5q0 171 -49 307.5t-138 213.5t-202 77z" />
    <glyph glyph-name="one" unicode="1" horiz-adv-x="780" 
d="M516 182l2 -182h-141l2 182v1032h-4l-303 -167h-4v127l352 196h98l-2 -182v-1006z" />
    <glyph glyph-name="two" unicode="2" horiz-adv-x="1159" 
d="M1044 999q0 -68 -22 -128.5t-53.5 -104.5t-87.5 -93t-100.5 -80.5t-116.5 -79.5q-11 -7 -17 -11q-97 -65 -157 -109.5t-130 -117.5t-110 -150v-4h782v-121h-930v109q29 67 73.5 130.5t86 108.5t106 98t103.5 81t107 75q46 31 66.5 45.5t59 43t57 45.5t46.5 44t41.5 49
t28.5 50t20.5 57t5.5 61q0 52 -17.5 101.5t-51.5 91t-91 67t-129 25.5q-270 0 -376 -338l-125 43q148 412 505 412q89 0 162.5 -24.5t121.5 -64.5t81 -92.5t47 -107.5t14 -111z" />
    <glyph glyph-name="three" unicode="3" horiz-adv-x="1191" 
d="M88 209l96 80q92 -101 189 -150t211 -49q160 0 255 74.5t95 208.5q0 66 -24 117.5t-61 82.5t-88 50.5t-99.5 26.5t-100.5 7h-219v113h211q151 3 246.5 73t95.5 193q0 109 -85.5 177.5t-225.5 68.5q-219 0 -363 -197l-98 78q98 122 206.5 179t256.5 57q110 0 197.5 -28
t142 -76.5t83.5 -110.5t29 -133q0 -64 -22 -119t-53.5 -89.5t-70 -60.5t-68.5 -37.5t-52 -15.5v-8q27 -4 60.5 -14.5t78.5 -37t80.5 -63.5t60.5 -98.5t25 -136.5q0 -59 -15 -113.5t-52 -107.5t-91.5 -92t-140 -63t-192.5 -24q-92 0 -170.5 19t-138.5 54.5t-104 74.5t-85 90z
" />
    <glyph glyph-name="four" unicode="4" horiz-adv-x="1204" 
d="M49 369v88l643 913h199l-2 -182v-707h289v-112h-289v-187l2 -182h-139l2 182v187h-705zM217 481h537v652l4 116h-4l-537 -764v-4z" />
    <glyph glyph-name="five" unicode="5" horiz-adv-x="1175" 
d="M100 209l101 76q90 -104 180 -151.5t203 -47.5q164 0 259 89.5t95 254.5q0 87 -28 153.5t-76.5 105t-108.5 58t-131 19.5q-67 0 -126.5 -16.5t-100 -42t-62 -43.5t-35.5 -35l-112 30l39 711h811l-25 -121h-664l-28 -475h4q130 104 326 107q89 0 169 -27t146.5 -79.5
t105.5 -140.5t39 -200q0 -216 -136.5 -339.5t-362.5 -123.5q-299 0 -482 238z" />
    <glyph glyph-name="six" unicode="6" horiz-adv-x="1206" 
d="M727 1282q-68 0 -133.5 -24t-126 -76t-106 -126.5t-73.5 -183t-30 -237.5h4q145 244 412 244q67 0 129 -15t118.5 -49t98 -83.5t66 -123.5t24.5 -164q0 -114 -38.5 -205.5t-105 -149t-152.5 -88t-183 -30.5q-233 0 -375.5 171t-142.5 479q0 229 81.5 407.5t221 274.5
t311.5 96q96 0 178 -25t129 -53l-61 -109q-132 70 -246 70zM657 764q-250 0 -393 -268q24 -207 125 -308.5t250 -101.5q154 0 242 94.5t88 255.5q0 150 -80.5 239t-231.5 89z" />
    <glyph glyph-name="seven" unicode="7" horiz-adv-x="1054" 
d="M209 0l655 1249h-784v121h932v-98l-633 -1272h-170z" />
    <glyph glyph-name="eight" unicode="8" horiz-adv-x="1255" 
d="M621 -31q-233 0 -371.5 101t-138.5 270q0 251 335 373v4q-284 118 -284 332q0 153 126 253.5t339 100.5q89 0 169.5 -19t151.5 -58t113.5 -109.5t42.5 -163.5q0 -115 -73 -196t-234 -134v-4q342 -124 342 -377q0 -173 -144 -273t-374 -100zM1008 338q0 40 -14 76
t-34.5 63t-57 53t-66.5 43t-80 37t-80.5 30.5t-83.5 27.5q-338 -114 -338 -324q0 -89 55 -149.5t137 -85.5t185 -25q105 0 189 27.5t136 86t52 140.5zM303 1051q0 -57 25.5 -102t76.5 -78t105.5 -56t134.5 -47q160 45 244 112.5t84 166.5q0 117 -95.5 178t-250.5 61
q-161 0 -242.5 -65.5t-81.5 -169.5z" />
    <glyph glyph-name="nine" unicode="9" horiz-adv-x="1206" 
d="M479 88q68 0 133.5 24t126 76t106 126.5t73.5 183t30 237.5h-4q-145 -243 -412 -243q-85 0 -160.5 25t-138.5 75t-100 136t-37 198q0 114 38.5 205.5t105 149t152.5 88t183 30.5q233 0 376 -170.5t143 -478.5q0 -172 -47.5 -318.5t-130 -247t-195.5 -157t-242 -56.5
q-96 0 -178 25t-129 53l61 109q132 -70 246 -70zM549 606q250 0 393 268q-24 207 -125 308.5t-250 101.5q-154 0 -241.5 -94.5t-87.5 -255.5q0 -151 80 -239.5t231 -88.5z" />
    <glyph glyph-name="colon" unicode=":" horiz-adv-x="495" 
d="M158 0v227h180v-227h-180zM158 795v227h180v-227h-180z" />
    <glyph glyph-name="semicolon" unicode=";" horiz-adv-x="571" 
d="M207 795v227h180v-227h-180zM207 2v225h180v-227l-166 -297h-92l154 299h-76z" />
    <glyph glyph-name="less" unicode="&#x3c;" horiz-adv-x="1095" 
d="M45 631l975 459v-129l-684 -308l-131 -53v-14l131 -51l684 -308v-127l-975 453v78z" />
    <glyph glyph-name="equal" unicode="=" horiz-adv-x="1095" 
d="M59 856h975v-111h-975v111zM59 438h975v-110h-975v110z" />
    <glyph glyph-name="greater" unicode="&#x3e;" horiz-adv-x="1095" 
d="M76 1090l975 -459v-78l-975 -453v127l682 308l131 51v14l-131 53l-682 308v129z" />
    <glyph glyph-name="question" unicode="?" horiz-adv-x="915" 
d="M162 1202l-82 74q23 32 56 63.5t83.5 66.5t121 57t146.5 22q86 0 153.5 -26.5t108 -71.5t61.5 -100.5t21 -117.5q0 -71 -25 -132.5t-64 -107.5t-85.5 -89.5t-91.5 -87t-80.5 -91t-53.5 -111.5t-9 -138h-129q-4 54 -4 69q0 82 30.5 155t75.5 123.5t98.5 103t98.5 95.5
t75.5 100t30.5 116q0 86 -61 142t-160 56q-95 0 -176 -50.5t-139 -119.5zM446 0h-176v227h176v-227z" />
    <glyph glyph-name="at" unicode="@" horiz-adv-x="2066" 
d="M1389 1014h118l-190 -625q-27 -91 5 -135.5t101 -44.5t143 44t136.5 118.5t101.5 186t37 233.5q-2 128 -51.5 241t-137 196.5t-216.5 132t-281 48.5q-129 0 -254.5 -33.5t-241 -106t-203.5 -174.5t-140 -250t-52 -323q0 -163 45.5 -297t121 -223.5t177 -151t211 -89
t225.5 -27.5q135 0 282.5 36t244.5 97l41 -76q-110 -65 -278.5 -105t-309.5 -40q-85 0 -172.5 16t-177 50t-170.5 84t-152 123t-123 161t-82 203.5t-30 246.5q0 183 58.5 342.5t158 273t230.5 195t277.5 121t297.5 39.5q174 0 324.5 -55t255.5 -150.5t165 -228.5t60 -285
q0 -138 -49.5 -265t-127.5 -215t-176 -140.5t-194 -52.5q-99 0 -156.5 55.5t-50.5 157.5h-6q-64 -108 -153 -160.5t-185 -52.5q-128 0 -205.5 87.5t-77.5 239.5q0 148 73.5 289.5t192.5 229t244 87.5q45 0 84 -13t74 -42t56.5 -83.5t25.5 -129.5h6zM893 207q86 0 160 66.5
t127 197.5q63 157 63 277q0 94 -47.5 147t-120.5 53q-86 0 -171.5 -72t-141 -190t-55.5 -240q0 -117 51.5 -178t134.5 -61z" />
    <glyph glyph-name="A" unicode="A" horiz-adv-x="1363" 
d="M348 440l-158 -440h-137l539 1464h182l539 -1464h-152l-157 440h-656zM676 1352l-285 -791h570l-281 791h-4z" />
    <glyph glyph-name="B" unicode="B" horiz-adv-x="1499" 
d="M211 193v1079l-2 192h545q99 0 180 -10t156.5 -35t127.5 -65t82.5 -104t30.5 -148q0 -75 -27 -136.5t-65.5 -98t-86.5 -62t-83.5 -35.5t-62.5 -12v-10q20 -2 43.5 -6t60.5 -15.5t71 -27.5t70.5 -45t62.5 -65t43 -90t17 -118q0 -87 -31.5 -154.5t-83 -109.5t-125 -69
t-150 -37.5t-165.5 -10.5h-610zM797 686h-447v-573h492q183 0 281 71.5t98 204.5q0 82 -37 142.5t-100 92.5t-134 47t-153 15zM350 1352v-547h447q106 0 191 29.5t139.5 95.5t54.5 160q0 139 -106.5 200.5t-307.5 61.5h-418z" />
    <glyph glyph-name="C" unicode="C" horiz-adv-x="1527" 
d="M1339 424l121 -47q-17 -50 -48 -102t-87 -109t-125 -101t-169 -73t-212 -29q-115 0 -218.5 29.5t-191.5 90.5t-152 149t-100 211.5t-36 271.5q0 228 87 406.5t248.5 279t372.5 100.5q120 0 222 -32t176 -89t127.5 -125.5t91.5 -152.5l-127 -51q-24 60 -65 114.5
t-100.5 103.5t-144.5 78t-182 29q-118 0 -219.5 -46t-176 -129t-117 -207.5t-42.5 -274.5q0 -133 31.5 -241t84.5 -179t124.5 -120t149 -70t161.5 -21q87 0 166 23.5t135.5 60t102 83t72.5 89t40 80.5z" />
    <glyph glyph-name="D" unicode="D" horiz-adv-x="1587" 
d="M211 1272l-2 192h479q72 0 139 -7t146.5 -27.5t147 -53.5t132 -90t109.5 -131t72.5 -182.5t27.5 -239.5q0 -130 -27 -237.5t-71.5 -182t-108 -132t-131 -91t-147 -54.5t-148 -28.5t-141.5 -7.5h-479l2 193v1079zM350 1341v-1218h338q86 0 161 12.5t146.5 39t128 73
t99 111t65.5 156t23 204.5q0 136 -34 243.5t-91.5 177.5t-138.5 116t-169.5 65.5t-189.5 19.5h-338z" />
    <glyph glyph-name="E" unicode="E" horiz-adv-x="1339" 
d="M1071 805v-119h-721v-563h891v-123h-1032l2 193v1079l-2 192h1032v-123h-891v-536h721z" />
    <glyph glyph-name="F" unicode="F" horiz-adv-x="1239" 
d="M1034 805v-119h-684v-493l2 -193h-143l2 193v1079l-2 192h954v-123h-813v-536h684z" />
    <glyph glyph-name="G" unicode="G" horiz-adv-x="1581" 
d="M1436 498v-498h-115v258h-4q-116 -295 -492 -295q-322 0 -513 193.5t-191 545.5q0 129 27 246t83.5 218.5t137.5 175.5t197 116.5t255 42.5q422 0 604 -399l-127 -51q-19 46 -46.5 89.5t-70 87t-93 76t-119.5 52.5t-146 20q-247 0 -399 -178t-152 -483q0 -161 46.5 -285
t126.5 -197t178.5 -109t212.5 -36q76 0 144.5 17t129.5 55t106 93t72 135.5t29 178.5v2h-469v121h590z" />
    <glyph glyph-name="H" unicode="H" horiz-adv-x="1613" 
d="M1405 0h-143l2 193v493h-914v-493l2 -193h-143l2 193v1079l-2 192h143l-2 -192v-467h914v467l-2 192h143l-2 -192v-1079z" />
    <glyph glyph-name="I" unicode="I" horiz-adv-x="561" 
d="M352 0h-143l2 193v1079l-2 192h143l-2 -192v-1079z" />
    <glyph glyph-name="J" unicode="J" horiz-adv-x="813" 
d="M61 -12v125q83 -17 148 -17q266 0 266 328v850l-2 190h143l-2 -192v-848q0 -104 -23.5 -184.5t-61.5 -130t-92.5 -81t-110 -43.5t-119.5 -12q-81 0 -146 15z" />
    <glyph glyph-name="K" unicode="K" horiz-adv-x="1406" 
d="M209 0l2 193v1079l-2 192h143l-2 -192v-631h4l799 823h172v-4l-524 -526l588 -930v-4h-168l-516 836l-355 -359v-284l2 -193h-143z" />
    <glyph glyph-name="L" unicode="L" horiz-adv-x="1218" 
d="M1163 0h-954l2 193v1079l-2 192h143l-2 -192v-1149h813v-123z" />
    <glyph glyph-name="M" unicode="M" horiz-adv-x="1875" 
d="M209 0l2 193v1079l-2 192h221l514 -1249h4l514 1249h205l-2 -192v-1079l2 -193h-143l2 193v993l4 119h-4l-533 -1305h-108l-535 1305h-4l4 -119v-993l2 -193h-143z" />
    <glyph glyph-name="N" unicode="N" horiz-adv-x="1576" 
d="M1227 1272l-2 192h143l-2 -192v-1079l2 -193h-129l-889 1225h-4l4 -109v-923l2 -193h-143l2 193v1079l-2 192h129l889 -1218h4l-4 108v918z" />
    <glyph glyph-name="O" unicode="O" horiz-adv-x="1662" 
d="M829 -37q-164 0 -299.5 60.5t-224.5 165.5t-137.5 245t-48.5 299t48.5 298.5t137.5 244t224.5 165t299.5 60.5q132 0 247 -39t200 -109.5t146 -166.5t91.5 -211t30.5 -242t-30.5 -242.5t-91.5 -211.5t-146 -167t-200 -110t-247 -39zM829 88q247 0 404.5 175.5
t157.5 469.5q0 293 -157.5 468t-404.5 175q-246 0 -402.5 -175t-156.5 -468q0 -294 156.5 -469.5t402.5 -175.5z" />
    <glyph glyph-name="P" unicode="P" horiz-adv-x="1374" 
d="M774 610h-424v-417l2 -193h-143l2 193v1079l-2 192h565q54 0 99 -3t100 -14t98.5 -29t86.5 -50t72 -75t46.5 -106.5t17.5 -142.5q0 -76 -17 -139t-45 -107.5t-69.5 -78.5t-86 -54t-98 -33t-102 -17.5t-102.5 -4.5zM350 1341v-610h408q64 0 114.5 6t103.5 26t88 53
t57 90.5t22 135.5q0 58 -12 103.5t-31.5 76.5t-50.5 53.5t-62 35t-73 19.5t-76.5 9t-79.5 2h-408z" />
    <glyph glyph-name="Q" unicode="Q" horiz-adv-x="1662" 
d="M1202 -365q-60 0 -104.5 5.5t-96.5 25t-87 53.5t-63 96t-38 148q-160 3 -292.5 64.5t-219.5 166t-134.5 243t-47.5 296.5q0 159 48.5 298.5t137.5 244t224.5 165t299.5 60.5q132 0 247 -39t200 -109.5t146 -166.5t91.5 -211t30.5 -242q0 -144 -40 -272.5t-114.5 -229.5
t-186.5 -169t-249 -89q7 -114 70 -160t170 -46q79 0 174 14v-129q-107 -17 -166 -17zM829 88q247 0 404.5 175.5t157.5 469.5q0 293 -157.5 468t-404.5 175q-246 0 -402.5 -175t-156.5 -468q0 -294 156.5 -469.5t402.5 -175.5z" />
    <glyph glyph-name="R" unicode="R" horiz-adv-x="1447" 
d="M1339 0h-180l-375 610h-432v-417l2 -193h-145l2 193v1079l-2 192h563q549 0 549 -424q0 -81 -23 -147.5t-60.5 -111t-89.5 -78t-104.5 -51.5t-111.5 -29l407 -619v-4zM352 1341v-610h391q424 0 424 307q0 61 -15.5 109t-38.5 79.5t-61 54t-72 34t-84 17.5t-84.5 7.5
t-84.5 1.5h-375z" />
    <glyph glyph-name="S" unicode="S" horiz-adv-x="1423" 
d="M1274 1233l-96 -90q-32 39 -73 75t-102 75.5t-143 63t-172 23.5q-107 0 -196.5 -30.5t-148 -97.5t-58.5 -160q0 -42 13.5 -76t32.5 -58t56.5 -44.5t68 -33t85 -24.5t90 -18.5t100.5 -16.5q72 -11 113.5 -18.5t112 -24.5t112.5 -35.5t94.5 -51t81.5 -71.5t49.5 -95.5
t20.5 -125.5q0 -198 -150 -317t-417 -119q-127 0 -241.5 29t-195 75.5t-133.5 91t-88 89.5l94 88q33 -34 60.5 -60t82.5 -65t110.5 -64t136 -44t167.5 -19q89 0 165.5 18.5t137 54.5t95.5 95t35 135q0 47 -14.5 86t-36.5 66t-58.5 49t-71.5 35.5t-85 25.5t-88.5 18.5
t-90.5 14.5q-3 0 -5 0.5t-4.5 1t-4.5 0.5q-70 11 -117 19.5t-112.5 25t-109 35.5t-91.5 49.5t-76.5 67t-47 88.5t-18.5 114q0 186 145.5 302t389.5 116q112 0 213.5 -26.5t175 -69.5t124 -85.5t83.5 -86.5z" />
    <glyph glyph-name="T" unicode="T" horiz-adv-x="1226" 
d="M1167 1341h-485v-1148l2 -193h-143l2 193v1148h-484v123h1108v-123z" />
    <glyph glyph-name="U" unicode="U" horiz-adv-x="1538" 
d="M340 1464l-2 -194v-733q0 -236 111 -340q109 -109 319 -109q213 0 324 111q106 106 106 313v758l-2 194h147l-2 -194v-740q0 -280 -141 -421q-143 -146 -432 -146q-286 0 -430 141q-81 80 -112 192t-31 259v715l-2 194h147z" />
    <glyph glyph-name="V" unicode="V" horiz-adv-x="1376" 
d="M598 0l-551 1464h166l481 -1349h4l465 1349h158l-535 -1464h-188z" />
    <glyph glyph-name="W" unicode="W" horiz-adv-x="1990" 
d="M494 0l-428 1464h163l338 -1261h4l359 1261h141l356 -1261h5l333 1261h160l-430 -1464h-135l-361 1262h-4l-366 -1262h-135z" />
    <glyph glyph-name="X" unicode="X" horiz-adv-x="1333" 
d="M1128 0l-466 668l-459 -668h-174v4l553 764l-504 692v4h178l414 -585l407 585h170v-4l-497 -680l561 -776v-4h-183z" />
    <glyph glyph-name="Y" unicode="Y" horiz-adv-x="1347" 
d="M602 0l2 193v413l-575 854v4h174l477 -737l479 737h160v-4l-576 -854v-413l2 -193h-143z" />
    <glyph glyph-name="Z" unicode="Z" horiz-adv-x="1255" 
d="M129 1343v121h1028v-121l-919 -1216v-4h919v-123h-1083v123l923 1216v4h-868z" />
    <glyph glyph-name="bracketleft" unicode="[" horiz-adv-x="661" 
d="M559 -283h-340v1747h340v-102h-201v-1542h201v-103z" />
    <glyph glyph-name="backslash" unicode="\" horiz-adv-x="872" 
d="M799 -168h-127l-598 1632h131z" />
    <glyph glyph-name="bracketright" unicode="]" horiz-adv-x="661" 
d="M102 -283v103h203v1542h-203v102h340v-1747h-340z" />
    <glyph glyph-name="asciicircum" unicode="^" horiz-adv-x="1095" 
d="M506 1464h80l473 -880h-133l-310 598l-63 135h-14l-62 -135l-309 -598h-133z" />
    <glyph glyph-name="underscore" unicode="_" horiz-adv-x="860" 
d="M-10 -143v102h880v-102h-880z" />
    <glyph glyph-name="grave" unicode="`" 
d="M549 1176h-125l-264 288h188z" />
    <glyph glyph-name="a" unicode="a" horiz-adv-x="1128" 
d="M223 778l-86 68q143 205 420 205q85 0 155.5 -21t126.5 -64t87.5 -116.5t31.5 -171.5v-408q0 -47 2.5 -92t4.5 -70t6.5 -61.5t5.5 -46.5h-129q-12 103 -19 223h-4q-41 -97 -151 -173.5t-250 -76.5q-61 0 -115.5 15t-103 46t-77 87t-28.5 131q0 373 729 373v55
q0 264 -280 264q-112 0 -185 -41t-141 -125zM444 78q65 0 130.5 26t123.5 76t94.5 134t36.5 188v28q-589 -5 -589 -274q0 -86 55.5 -132t148.5 -46z" />
    <glyph glyph-name="b" unicode="b" horiz-adv-x="1241" 
d="M291 0h-115l2 176v1108l-2 180h137l-2 -180v-479h4q46 111 134 178.5t225 67.5q203 0 329.5 -151.5t126.5 -389.5q0 -128 -38 -232t-102.5 -170t-147 -101.5t-172.5 -35.5q-74 0 -135.5 22t-104 60.5t-71.5 81t-48 92.5h-4zM655 938q-154 0 -251 -114t-97 -312v-8
q0 -102 29.5 -183.5t79 -132.5t111.5 -77.5t130 -26.5q151 0 241.5 117t90.5 313q0 194 -89.5 309t-244.5 115z" />
    <glyph glyph-name="c" unicode="c" horiz-adv-x="1112" 
d="M922 293l108 -53q-8 -19 -25.5 -47t-55 -68.5t-84 -73.5t-117.5 -56.5t-150 -23.5q-95 0 -181 33.5t-155 97.5t-110 167t-41 231q0 241 135 396t358 155q287 0 411 -253q2 -4 3 -5l-117 -56q-10 22 -24 44t-41 51.5t-58.5 52t-79 38t-100.5 15.5q-152 0 -250 -116
t-98 -312q0 -197 100.5 -311.5t247.5 -114.5q68 0 128.5 24.5t99.5 61t62 67.5t34 56z" />
    <glyph glyph-name="d" unicode="d" horiz-adv-x="1241" 
d="M571 -29q-197 0 -327.5 147.5t-130.5 393.5q0 240 128.5 389.5t329.5 149.5q140 0 226.5 -70t128.5 -178h4v481l-2 180h137l-2 -180v-1108l2 -176h-131v227h-4q-44 -114 -133.5 -185t-225.5 -71zM588 938q-156 0 -246 -115.5t-90 -308.5q0 -198 90.5 -314t243.5 -116
q146 0 248 110t102 310v8q0 198 -97.5 312t-250.5 114z" />
    <glyph glyph-name="e" unicode="e" horiz-adv-x="1181" 
d="M975 244l80 -78q-19 -23 -50 -50t-86 -62.5t-136 -59t-169 -23.5q-225 0 -363 136t-138 382q0 256 137.5 409t351.5 153q102 0 184 -31.5t135.5 -84.5t88.5 -125t49 -150t10 -162h-819v-9q0 -186 103 -295.5t272 -109.5q62 0 123 18.5t106 46t74.5 51.5t46.5 44zM606 940
q-138 0 -231 -85.5t-117 -252.5h668q0 142 -86 240t-234 98z" />
    <glyph glyph-name="f" unicode="f" horiz-adv-x="679" 
d="M49 915v107h201v158q0 87 21.5 148t61 93t85 45t104.5 13q52 0 115 -15v-110q-58 14 -109 14q-76 0 -109.5 -43t-33.5 -141v-162h252v-107h-252v-737l2 -178h-139l2 178v737h-201z" />
    <glyph glyph-name="g" unicode="g" horiz-adv-x="1146" 
d="M545 365q-118 0 -199 34q-40 -9 -65 -39.5t-25 -70.5q0 -65 61 -102t156 -40l268 -8q179 -4 266 -73.5t87 -192.5q0 -86 -43 -150t-120 -100.5t-171.5 -54t-208.5 -17.5q-103 0 -187.5 14.5t-151 44t-103.5 80t-37 117.5q0 84 57 149.5t170 92.5v4q-170 67 -170 201
q0 66 39 113.5t102 74.5q-127 91 -127 263q0 157 109.5 251.5t294.5 94.5q169 0 278 -82q73 139 213 139q43 0 80 -14v-109q-42 10 -86 10q-105 0 -145 -90q61 -83 61 -196q0 -157 -109.5 -250.5t-293.5 -93.5zM741 20l-313 9q-101 -26 -162 -79t-61 -124q0 -172 366 -172
q392 0 392 199q0 67 -50 115t-172 52zM545 467q130 0 203 62t73 178q0 117 -72 179t-204 62q-130 0 -203.5 -62.5t-73.5 -178.5q0 -117 73 -178.5t204 -61.5z" />
    <glyph glyph-name="h" unicode="h" horiz-adv-x="1216" 
d="M311 1284v-459h4q153 226 387 226q164 0 256.5 -105.5t92.5 -302.5v-465l2 -178h-140l2 178v453q0 303 -231 303q-117 0 -216.5 -73.5t-156.5 -186.5v-496l2 -178h-137l2 178v1106l-2 180h137z" />
    <glyph glyph-name="i" unicode="i" horiz-adv-x="489" 
d="M313 0h-137l2 178v664l-2 180h137l-2 -180v-664zM311 1237h-133v227h133v-227z" />
    <glyph glyph-name="j" unicode="j" horiz-adv-x="489" 
d="M176 1022h137l-2 -178v-998q0 -89 -17.5 -148.5t-52.5 -89.5t-75.5 -42t-97.5 -12q-32 0 -113 14v108q58 -14 104 -14q68 0 93.5 41.5t25.5 144.5v996zM311 1237h-133v227h133v-227z" />
    <glyph glyph-name="k" unicode="k" horiz-adv-x="1114" 
d="M1081 0h-151l-383 547l-236 -219v-140l2 -188h-137l2 188v1088l-2 188h137l-2 -188v-809h4l578 555h162v-4l-422 -391l448 -623v-4z" />
    <glyph glyph-name="l" unicode="l" horiz-adv-x="495" 
d="M315 1284v-1106l2 -178h-137l2 178v1106l-2 180h137z" />
    <glyph glyph-name="m" unicode="m" horiz-adv-x="1859" 
d="M1004 0h-138l2 178v457q0 299 -229 299q-101 0 -188.5 -74.5t-139.5 -189.5v-492l2 -178h-137l2 178v664l-2 180h133v-195h4q142 224 346 224q117 0 203.5 -60t118.5 -182h4q135 242 365 242q160 0 251 -105.5t91 -302.5v-465l2 -178h-140l2 178v453q0 303 -227 303
q-103 0 -190.5 -74t-137.5 -188v-494z" />
    <glyph glyph-name="n" unicode="n" horiz-adv-x="1216" 
d="M1053 0h-140l2 178v453q0 303 -231 303q-117 0 -216.5 -73.5t-156.5 -186.5v-496l2 -178h-137l2 178v664l-2 180h133v-199h4q155 228 389 228q164 0 256.5 -105.5t92.5 -302.5v-465z" />
    <glyph glyph-name="o" unicode="o" horiz-adv-x="1228" 
d="M614 -29q-113 0 -209 44.5t-160 119t-100 172t-36 203.5q0 107 36 205t100 172.5t160 119t209 44.5t209 -44.5t160.5 -119t100.5 -172.5t36 -205q0 -143 -61 -265t-178 -198t-267 -76zM614 84q158 0 262.5 118.5t104.5 307.5q0 190 -104 309t-263 119t-262.5 -119
t-103.5 -309q0 -189 104 -307.5t262 -118.5z" />
    <glyph glyph-name="p" unicode="p" horiz-adv-x="1243" 
d="M672 -29q-134 0 -223.5 69.5t-133.5 180.5h-4v-481l2 -178h-137l2 178v1102l-2 180h135v-225h4q20 51 49 94t71 80.5t103 58.5t134 21q200 0 329 -149t129 -388q0 -246 -131 -394.5t-327 -148.5zM655 938q-154 0 -251 -114.5t-97 -311.5v-8q0 -102 29 -183.5t78 -132.5
t110.5 -77.5t130.5 -26.5q152 0 243 117.5t91 312.5q0 194 -89.5 309t-244.5 115z" />
    <glyph glyph-name="q" unicode="q" horiz-adv-x="1243" 
d="M930 -438l2 178v479h-4q-43 -110 -134.5 -179t-226.5 -69q-200 0 -327 150t-127 393q0 122 36.5 224.5t99.5 170t146 105t176 37.5q75 0 137.5 -22.5t105.5 -61t71.5 -80.5t46.5 -90h4l14 225h117l-2 -178v-1104l2 -178h-137zM588 938q-156 0 -246 -115.5t-90 -308.5
q0 -198 90.5 -314t243.5 -116q146 0 248 110t102 310v8q0 198 -97.5 312t-250.5 114z" />
    <glyph glyph-name="r" unicode="r" horiz-adv-x="782" 
d="M311 438v-260l2 -178h-137l2 178v664l-2 180h133v-344h4q61 189 167 281t225 92q24 0 40 -4v-125q-14 2 -40 2q-98 0 -187 -76.5t-142 -187t-65 -222.5z" />
    <glyph glyph-name="s" unicode="s" horiz-adv-x="1064" 
d="M92 162l80 80q35 -31 47.5 -42t55.5 -41t76.5 -43.5t88.5 -26.5t113 -13q122 0 204.5 51t82.5 147q0 40 -16.5 70t-42.5 48t-64.5 31t-77 20.5t-84.5 15.5q-6 1 -9.5 1.5t-8.5 1t-9 1.5q-49 8 -81 14t-78.5 18t-77 25t-65 35t-54.5 48.5t-33.5 64t-13.5 82.5
q0 131 101.5 217t281.5 86q100 0 192 -32t144 -69.5t86 -77.5l-80 -81q-147 153 -334 153q-110 0 -187 -49t-77 -135q0 -24 5.5 -43.5t20 -35t27.5 -27t39.5 -21.5t43.5 -16t52.5 -13t52.5 -10t58 -10q49 -7 80 -12t79.5 -17t80 -25t68 -36t58 -51.5t36 -69.5t14.5 -90
q0 -140 -106 -228t-304 -88q-89 0 -168.5 19t-136 50t-95 61t-65.5 63z" />
    <glyph glyph-name="t" unicode="t" horiz-adv-x="751" 
d="M668 1022v-107h-285v-690q0 -77 28 -110t95 -33q76 0 168 35v-111q-98 -35 -189 -35q-53 0 -93 10.5t-74 36.5t-52 75.5t-18 121.5v700h-193v107h195l20 291h113v-291h285z" />
    <glyph glyph-name="u" unicode="u" horiz-adv-x="1216" 
d="M164 1022h137l-2 -178v-453q0 -303 231 -303q117 0 216.5 73.5t156.5 186.5v496l-2 178h139l-2 -178v-664l2 -180h-133v201h-4q-153 -230 -389 -230q-163 0 -255.5 105.5t-92.5 302.5v465z" />
    <glyph glyph-name="v" unicode="v" horiz-adv-x="1075" 
d="M457 0l-394 1022h146l332 -930h4l327 930h138l-385 -1022h-168z" />
    <glyph glyph-name="w" unicode="w" horiz-adv-x="1536" 
d="M395 0l-321 1022h141l238 -856h4l258 856h112l258 -856h5l235 856h137l-323 -1022h-115l-254 836h-4l-258 -836h-113z" />
    <glyph glyph-name="x" unicode="x" horiz-adv-x="1040" 
d="M836 0l-318 459l-321 -459h-150v4l391 535l-348 479v4h158l270 -397l277 397h149v-4l-346 -473l397 -541v-4h-159z" />
    <glyph glyph-name="y" unicode="y" horiz-adv-x="1054" 
d="M57 1022h148l340 -891h4l309 891h139l-440 -1188q-58 -154 -154 -217t-227 -63q-59 0 -117 14v108q63 -14 111 -14q107 0 173 56t116 184l33 80z" />
    <glyph glyph-name="z" unicode="z" horiz-adv-x="1013" 
d="M127 907v115h784v-98l-665 -807v-4h665v-113h-829v96l663 807v4h-618z" />
    <glyph glyph-name="braceleft" unicode="{" horiz-adv-x="716" 
d="M272 872l11 306q2 78 26 135t64 89t88 47t104 15h64v-100q-53 -1 -87 -8.5t-63 -28t-43 -60.5t-16 -102l-12 -270q-7 -138 -72.5 -208.5t-155.5 -72.5v-20q92 0 156 -71t70 -208l12 -299q2 -61 16 -100.5t42 -61t63.5 -29.5t89.5 -9v-101h-74q-56 0 -101.5 14.5
t-84.5 46.5t-61.5 90t-24.5 138l-13 332q-2 101 -38 152t-128 51h-43v131h43q89 0 127 48.5t41 153.5z" />
    <glyph glyph-name="bar" unicode="|" horiz-adv-x="921" 
d="M528 -336h-135v2048h135v-2048z" />
    <glyph glyph-name="braceright" unicode="}" horiz-adv-x="716" 
d="M297 1165q-2 62 -16 102t-43 60.5t-63 28t-87 8.5v100h64q56 0 104 -15t88 -47t64 -89t26 -135l10 -306q3 -105 41 -153.5t127 -48.5h43v-131h-43q-92 0 -128 -51t-38 -152l-12 -332q-2 -80 -24.5 -138t-61.5 -90t-84.5 -46.5t-101.5 -14.5h-74v101q54 1 89.5 9
t63.5 29.5t42 61t16 100.5l12 299q6 137 70 208t156 71v20q-90 2 -155.5 72.5t-72.5 208.5z" />
    <glyph glyph-name="asciitilde" unicode="~" horiz-adv-x="1095" 
d="M92 414q0 161 73.5 263.5t192.5 102.5q63 0 106.5 -28t96.5 -90l49 -56q36 -44 65.5 -66t67.5 -22q73 0 112.5 75.5t39.5 178.5h111q0 -162 -73.5 -265.5t-193.5 -103.5q-61 0 -104.5 27.5t-97.5 89.5l-48 55q-38 47 -67.5 69t-69.5 22q-73 0 -112 -75t-39 -177h-109z
" />
    <glyph glyph-name="uni00A0" unicode="&#xa0;" horiz-adv-x="491" 
 />
    <glyph glyph-name="exclamdown" unicode="&#xa1;" horiz-adv-x="546" 
d="M184 -442l41 1052h94l41 -1052h-176zM186 1022h179v-227h-179v227z" />
    <glyph glyph-name="cent" unicode="&#xa2;" horiz-adv-x="1171" 
d="M932 291l106 -51q-8 -19 -25.5 -47t-55 -69t-84 -74t-117.5 -57t-150 -24q-70 0 -151 23l-88 -223h-119l106 266q-108 65 -171.5 182.5t-63.5 282.5q0 240 136.5 395.5t356.5 155.5q65 0 131 -17l80 201h119l-98 -242q22 -13 42.5 -28.5t36 -30t30.5 -31t24.5 -29.5
t19 -28t14 -23.5t10 -18.5t5.5 -11l-117 -54q-12 28 -32.5 57.5t-56.5 65t-92 58t-122 22.5q-153 0 -251.5 -118t-98.5 -314q0 -199 100.5 -314.5t249.5 -115.5q56 0 107 17.5t85.5 42t64.5 56t44.5 54t24.5 41.5z" />
    <glyph glyph-name="sterling" unicode="&#xa3;" horiz-adv-x="1325" 
d="M115 639v109h247q-23 59 -34.5 93.5t-23 92.5t-11.5 115q0 107 56.5 188t149 121.5t206.5 40.5q55 0 106.5 -9.5t106.5 -35.5t99 -65.5t81 -105t57 -149.5l-141 -26q-32 143 -117.5 208.5t-198.5 65.5t-187.5 -65t-74.5 -183q0 -30 4 -58t14.5 -61.5t17 -51.5t24 -60
t22.5 -55h402v-109h-365q25 -98 25 -190q0 -88 -31 -170q181 -185 336 -185q85 0 137 82.5t61 251.5l140 -10q-19 -447 -326 -447q-119 0 -214 54.5t-185 146.5h-4q-62 -89 -160.5 -142t-216.5 -53v144q144 0 231.5 76.5t87.5 226.5q0 105 -35 215h-286z" />
    <glyph glyph-name="currency" unicode="&#xa4;" horiz-adv-x="1363" 
d="M287 1370l131 -190q113 69 264 69q147 0 266 -69l131 190h162l-188 -278q141 -153 141 -400q0 -253 -145 -413l186 -279h-156l-131 193q-118 -72 -266 -72t-268 74l-129 -195h-158l186 279q-143 162 -143 413q0 247 141 400l-186 278h162zM682 1135q-164 0 -267.5 -123.5
t-103.5 -317.5q0 -201 103.5 -328.5t267.5 -127.5t268.5 127.5t104.5 328.5q0 194 -104.5 317.5t-268.5 123.5z" />
    <glyph glyph-name="yen" unicode="&#xa5;" horiz-adv-x="1411" 
d="M133 784v93h320l-320 489v4h170l420 -678l422 678h155v-4l-321 -489h293v-93h-352l-119 -180h471v-92h-488v-330l2 -182h-139l2 182v330h-516v92h498l-117 180h-381z" />
    <glyph glyph-name="brokenbar" unicode="&#xa6;" horiz-adv-x="921" 
d="M528 842h-135v719h135v-719zM528 -182h-135v719h135v-719z" />
    <glyph glyph-name="section" unicode="&#xa7;" horiz-adv-x="1290" 
d="M1221 463q0 -220 -250 -311q57 -70 57 -170q0 -148 -108.5 -231t-284.5 -83q-117 0 -228.5 36t-189.5 97l80 105q63 -54 154 -86.5t188 -32.5q112 0 182 44.5t70 131.5q0 100 -106 158q-55 29 -216 77q-10 3 -18 5q-114 36 -191 69t-147 80.5t-104.5 110t-34.5 141.5
q0 222 248 309q-58 71 -58 174q0 146 108.5 229t282.5 83q107 0 209 -30.5t174 -82.5l-75 -102q-139 98 -312 98q-109 0 -179.5 -45.5t-70.5 -130.5q0 -40 16 -72t43 -54.5t67.5 -41.5t84 -33.5t98.5 -31.5q21 -6 31 -9q90 -29 154.5 -54t130 -61t105.5 -75t65 -93t25 -118z
M696 731q-5 1 -34.5 10.5t-36.5 11.5t-33.5 10.5t-36 12t-31.5 11.5t-34 13.5t-29 13t-31 15t-27 15.5q-192 -61 -192 -215q0 -55 27 -99t83.5 -79t119 -61t157.5 -56q74 -22 110.5 -34t91 -34t91.5 -45q190 64 190 219q0 45 -19.5 82t-50 65t-83 54.5t-104 46t-128.5 43.5z
" />
    <glyph glyph-name="dieresis" unicode="&#xa8;" 
d="M496 1237v227h135v-227h-135zM158 1237v227h133v-227h-133z" />
    <glyph glyph-name="copyright" unicode="&#xa9;" horiz-adv-x="1968" 
d="M117 686q0 177 65 336t178.5 276t275.5 185.5t347 68.5q186 0 348 -68.5t275 -185.5t178 -276t65 -336q0 -178 -65 -337.5t-178 -276.5t-275 -185.5t-348 -68.5q-185 0 -347 68.5t-275.5 185.5t-178.5 276.5t-65 337.5zM1294 506l117 -47q-9 -21 -25.5 -46.5t-52.5 -64
t-80 -68t-112.5 -51.5t-145.5 -22q-87 0 -169.5 32t-149.5 90t-107.5 150.5t-40.5 204.5q0 139 60.5 253.5t167 180.5t237.5 66q84 0 157.5 -24.5t123 -63.5t81.5 -79.5t46 -78.5l-125 -43q-12 27 -33 55t-54.5 58t-85 48.5t-110.5 18.5q-136 0 -226.5 -105.5t-90.5 -281.5
q0 -165 95 -268t226 -103q62 0 117 21.5t90.5 54t57 61t32.5 52.5zM229 686q0 -159 57 -301.5t155.5 -246.5t239.5 -165t302 -61q162 0 303 61t239.5 165t155 246.5t56.5 301.5q0 158 -56.5 300t-155 246t-239.5 165t-303 61q-214 0 -388 -104t-270 -280.5t-96 -387.5z" />
    <glyph glyph-name="ordfeminine" unicode="&#xaa;" horiz-adv-x="899" 
d="M180 1110l-78 61q106 148 334 148q70 0 128 -15t104 -47.5t72 -88.5t26 -132v-321q0 -99 14 -199h-121q-10 53 -14 158h-4q-33 -67 -118 -123.5t-195 -56.5q-46 0 -88.5 11t-81.5 34t-62.5 67t-23.5 103q0 295 573 295v32q0 185 -217 185q-84 0 -139 -26t-109 -85z
M346 584q49 0 100 20t96 56.5t74 97t29 133.5v29q-82 -1 -154.5 -10.5t-142 -31t-110.5 -64t-41 -101.5q0 -62 40.5 -95.5t108.5 -33.5z" />
    <glyph glyph-name="guillemotleft" unicode="&#xab;" horiz-adv-x="974" 
d="M469 238h-111l-252 335v37l250 334h113l-207 -354zM836 238h-109l-254 335v37l250 334h113l-205 -354z" />
    <glyph glyph-name="logicalnot" unicode="&#xac;" horiz-adv-x="1095" 
d="M61 895h951v-606h-119v495h-832v111z" />
    <glyph glyph-name="registered" unicode="&#xae;" horiz-adv-x="1306" 
d="M651 1491q109 0 207.5 -41.5t169 -112t111.5 -168t41 -204.5q0 -106 -41 -202t-111.5 -166t-169 -111.5t-207.5 -41.5q-143 0 -264 70t-190.5 190t-69.5 261q0 143 70 264t190.5 191.5t263.5 70.5zM653 1425q-189 0 -320.5 -133t-131.5 -325q0 -125 60 -230.5t164 -167
t228 -61.5q191 0 323 134t132 325q0 192 -131.5 325t-323.5 133zM678 928h-154v-240h-82v580h238q221 0 221 -174q0 -65 -37.5 -105t-101.5 -53l156 -248h-103zM524 1204v-213h133q156 0 156 103q0 29 -10 50.5t-24 32.5t-36.5 17.5t-41 8t-42.5 1.5h-135z" />
    <glyph glyph-name="macron" unicode="&#xaf;" 
d="M651 1296h-514v115h514v-115z" />
    <glyph glyph-name="degree" unicode="&#xb0;" horiz-adv-x="905" 
d="M791 1149q0 -149 -98 -246.5t-240 -97.5t-240 97.5t-98 246.5q0 150 98 248t240 98t240 -98t98 -248zM666 1149q0 111 -59.5 177.5t-153.5 66.5q-93 0 -153 -67t-60 -175q0 -112 60.5 -178t154.5 -66q92 0 151.5 66.5t59.5 175.5z" />
    <glyph glyph-name="plusminus" unicode="&#xb1;" horiz-adv-x="1095" 
d="M70 670v108h419v381h117v-381h418v-108h-418v-385h-117v385h-419zM70 0v109h954v-109h-954z" />
    <glyph glyph-name="two.superior" unicode="&#xb2;" horiz-adv-x="843" 
d="M764 1210q0 -38 -9 -71t-31.5 -62.5t-44 -51.5t-62.5 -49.5t-69.5 -45t-82.5 -47.5q-51 -29 -79.5 -46.5t-69 -46t-69 -58.5t-48.5 -64v-4h557v-105h-684v94q24 54 62.5 102.5t88.5 89t90 67.5t95 59q120 68 154 95q79 62 79 142q0 70 -50.5 121t-144.5 51
q-185 0 -262 -202l-108 34q111 269 373 269q83 0 146 -24.5t98.5 -64.5t53 -86t17.5 -96z" />
    <glyph glyph-name="three.superior" unicode="&#xb3;" horiz-adv-x="831" 
d="M51 702l88 70q120 -133 277 -133q89 0 145.5 41.5t56.5 128.5q0 89 -67.5 130.5t-183.5 41.5h-117v98h112q114 0 174 43t60 119q0 68 -45 105.5t-127 37.5q-144 0 -256 -112l-82 67q130 142 338 142q146 0 222.5 -67.5t76.5 -166.5q0 -47 -18 -87t-45.5 -64.5t-56.5 -39
t-56 -18.5v-6q21 -3 44.5 -11t51.5 -25.5t50 -41.5t37 -62t15 -83q0 -51 -18.5 -97t-56 -85t-105 -62.5t-155.5 -23.5q-122 0 -206.5 42.5t-152.5 118.5z" />
    <glyph glyph-name="acute" unicode="&#xb4;" 
d="M365 1176h-123l200 288h185z" />
    <glyph glyph-name="mu" unicode="&#xb5;" horiz-adv-x="1298" 
d="M213 -125v969l-2 178h137l-2 -178v-453q0 -303 236 -303q115 0 213 66.5t155 169.5v520l-2 178h137l-2 -178v-664l2 -180h-131v180h-4q-161 -209 -391 -209q-82 0 -143.5 35t-89.5 96h-4q24 -105 24 -227v-211h-135z" />
    <glyph glyph-name="mu" unicode="&#x3bc;" horiz-adv-x="1298" 
d="M213 -125v969l-2 178h137l-2 -178v-453q0 -303 236 -303q115 0 213 66.5t155 169.5v520l-2 178h137l-2 -178v-664l2 -180h-131v180h-4q-161 -209 -391 -209q-82 0 -143.5 35t-89.5 96h-4q24 -105 24 -227v-211h-135z" />
    <glyph glyph-name="paragraph" unicode="&#xb6;" horiz-adv-x="1298" 
d="M487 1464h582l-2 -149v-1501l2 -150h-133l2 150v1538h-229v-1538l2 -150h-133l2 150v815h-93q-120 0 -203 31.5t-127 90.5t-62.5 129.5t-18.5 163.5v5q0 91 18.5 161.5t62.5 130t127.5 91.5t202.5 32zM504 743h76v609h-76q-86 0 -146 -23t-91.5 -66.5t-44.5 -94.5
t-13 -119v-5q0 -68 13.5 -119.5t45 -94t91 -65t145.5 -22.5z" />
    <glyph glyph-name="periodcentered" unicode="&#xb7;" horiz-adv-x="704" 
d="M260 696h184v-200h-184v200z" />
    <glyph glyph-name="cedilla" unicode="&#xb8;" 
d="M338 35h111l-29 -148q94 -5 153.5 -43.5t59.5 -113.5q0 -74 -69 -118t-204 -44q-113 0 -208 31l8 88q111 -33 196 -33q150 0 150 84q0 82 -170 82h-37z" />
    <glyph glyph-name="one.superior" unicode="&#xb9;" horiz-adv-x="552" 
d="M391 680l2 -121h-123l2 121v653h-4l-215 -108h-4v108l258 131h86l-2 -123v-661z" />
    <glyph glyph-name="ordmasculine" unicode="&#xba;" horiz-adv-x="968" 
d="M485 494q-120 0 -214 58.5t-142.5 152.5t-48.5 204t48.5 204.5t142.5 153t214 58.5t214 -58.5t143 -153t49 -204.5q0 -170 -113 -292.5t-293 -122.5zM485 598q119 0 198 85t79 226q0 142 -79.5 228t-197.5 86t-196 -86t-78 -228t78 -226.5t196 -84.5z" />
    <glyph glyph-name="guillemotright" unicode="&#xbb;" horiz-adv-x="974" 
d="M616 238h-110l207 352l-207 354h115l247 -334v-37zM250 238h-111l207 352l-207 354h115l248 -334v-37z" />
    <glyph glyph-name="onequarter" unicode="&#xbc;" horiz-adv-x="1658" 
d="M391 680l2 -121h-123l2 121v653h-4l-215 -108h-4v108l258 131h86l-2 -123v-661zM276 0l760 1464h129l-759 -1464h-130zM807 231v78l455 596h172l-2 -123v-452h198v-99h-198v-110l2 -121h-123l2 121v110h-506zM948 330h365v385l4 96h-4l-365 -477v-4z" />
    <glyph glyph-name="onehalf" unicode="&#xbd;" horiz-adv-x="1732" 
d="M391 680l2 -121h-123l2 121v653h-4l-215 -108h-4v108l258 131h86l-2 -123v-661zM276 0l760 1464h129l-759 -1464h-130zM1653 651q0 -38 -9 -71t-31.5 -62.5t-44 -51.5t-62.5 -49.5t-69.5 -45t-82.5 -47.5q-52 -30 -80 -46.5t-69 -45.5t-69.5 -59t-48.5 -64v-5h558v-104
h-684v94q24 54 62.5 102.5t88 88.5t90 67.5t94.5 59.5q120 68 153 94q81 63 81 143q0 70 -50.5 121t-144.5 51q-88 0 -155.5 -50.5t-106.5 -152.5l-108 35q111 269 372 269q83 0 146.5 -24.5t99 -64.5t53 -86.5t17.5 -95.5z" />
    <glyph glyph-name="threequarters" unicode="&#xbe;" horiz-adv-x="1937" 
d="M51 702l88 70q120 -133 277 -133q89 0 145.5 41.5t56.5 128.5q0 89 -67.5 130.5t-183.5 41.5h-117v98h112q114 0 174 43t60 119q0 68 -45 105.5t-127 37.5q-144 0 -256 -112l-82 67q130 142 338 142q146 0 222.5 -67.5t76.5 -166.5q0 -47 -18 -87t-45.5 -64.5t-56.5 -39
t-56 -18.5v-6q21 -3 44.5 -11t51.5 -25.5t50 -41.5t37 -62t15 -83q0 -51 -18.5 -97t-56 -85t-105 -62.5t-155.5 -23.5q-122 0 -206.5 42.5t-152.5 118.5zM555 0l760 1464h129l-760 -1464h-129zM1085 231v78l455 596h172l-2 -123v-452h199v-99h-199v-110l2 -121h-123l2 121
v110h-506zM1227 330h364v385l4 96h-4l-364 -477v-4z" />
    <glyph glyph-name="questiondown" unicode="&#xbf;" horiz-adv-x="899" 
d="M745 -182l82 -74q-23 -32 -56 -63.5t-83.5 -66.5t-121 -57t-146.5 -22q-86 0 -153.5 26.5t-108 71.5t-61.5 100t-21 117q0 71 25 132.5t64 107.5t85.5 89.5t91.5 87.5t80.5 91.5t53.5 111.5t9 138h129q4 -54 4 -69q0 -82 -30.5 -155t-75.5 -123.5t-98.5 -103t-98.5 -95.5
t-75.5 -100t-30.5 -116q0 -86 61 -142t160 -56q95 0 176 50.5t139 119.5zM461 1020h176v-227h-176v227z" />
    <glyph glyph-name="Agrave" unicode="&#xc0;" horiz-adv-x="1363" 
d="M348 440l-158 -440h-137l539 1464h182l539 -1464h-152l-157 440h-656zM676 1352l-285 -791h570l-281 791h-4zM819 1606h-125l-245 258h188z" />
    <glyph glyph-name="Aacute" unicode="&#xc1;" horiz-adv-x="1363" 
d="M348 440l-158 -440h-137l539 1464h182l539 -1464h-152l-157 440h-656zM676 1352l-285 -791h570l-281 791h-4zM672 1606h-125l184 258h184z" />
    <glyph glyph-name="Acircumflex" unicode="&#xc2;" horiz-adv-x="1363" 
d="M348 440l-158 -440h-137l539 1464h182l539 -1464h-152l-157 440h-656zM676 1352l-285 -791h570l-281 791h-4zM977 1606h-109l-184 178l-186 -178h-109l213 258h158z" />
    <glyph glyph-name="Atilde" unicode="&#xc3;" horiz-adv-x="1363" 
d="M348 440l-158 -440h-137l539 1464h182l539 -1464h-152l-157 440h-656zM676 1352l-285 -791h570l-281 791h-4zM375 1620q0 135 46 195.5t118 60.5q79 0 161 -82l11.5 -11.5l12 -12t11.5 -11t12 -11t11 -9t12.5 -9t12 -6.5t13.5 -5.5t13 -3t14 -1.5q80 0 80 152h86
q0 -136 -47 -195t-123 -59q-80 0 -162 82q-25 27 -38 39.5t-36 25.5t-44 13q-80 0 -80 -152h-84z" />
    <glyph glyph-name="Adieresis" unicode="&#xc4;" horiz-adv-x="1363" 
d="M348 440l-158 -440h-137l539 1464h182l539 -1464h-152l-157 440h-656zM676 1352l-285 -791h570l-281 791h-4zM799 1616v227h135v-227h-135zM432 1616v227h133v-227h-133z" />
    <glyph glyph-name="Aring" unicode="&#xc5;" horiz-adv-x="1363" 
d="M348 440l-158 -440h-137l539 1464h182l539 -1464h-152l-157 440h-656zM676 1352l-285 -791h570l-281 791h-4zM913 1751q0 -78 -60 -134t-169 -56q-112 0 -172.5 56t-60.5 134q0 80 61 138.5t172 58.5q109 0 169 -58.5t60 -138.5zM831 1751q0 49 -41.5 87t-105.5 38
q-71 0 -111.5 -37.5t-40.5 -87.5q0 -48 40.5 -83.5t111.5 -35.5q65 0 106 36t41 83z" />
    <glyph glyph-name="AE" unicode="&#xc6;" horiz-adv-x="2172" 
d="M420 440l-268 -440h-156l913 1464h1166v-123h-889v-536h719v-119h-719v-563h889v-123h-1031l3 193v247h-627zM969 1341l-475 -780h553v780h-78z" />
    <glyph glyph-name="Ccedilla" unicode="&#xc7;" horiz-adv-x="1525" 
d="M1339 424l121 -47q-16 -47 -45.5 -97t-81.5 -105t-116.5 -99t-156.5 -75t-196 -36l-14 -78q94 -5 153.5 -43.5t59.5 -113.5q0 -74 -68.5 -118t-203.5 -44q-114 0 -209 31l8 88q111 -33 196 -33q150 0 150 84q0 82 -170 82h-37l27 145q-134 10 -248 62t-201 143
t-136.5 231t-49.5 314q0 228 87 406.5t248.5 279t372.5 100.5q120 0 222 -32t176 -89t127.5 -125.5t91.5 -152.5l-127 -51q-24 60 -65 114.5t-100.5 103.5t-144.5 78t-182 29q-118 0 -219.5 -46t-176 -129t-117 -207.5t-42.5 -274.5q0 -133 31.5 -241t84.5 -179t124.5 -120
t149 -70t161.5 -21q87 0 166 23.5t135.5 60t102 83t72.5 89t40 80.5z" />
    <glyph glyph-name="Egrave" unicode="&#xc8;" horiz-adv-x="1339" 
d="M1071 805v-119h-721v-563h891v-123h-1032l2 193v1079l-2 192h1032v-123h-891v-536h721zM864 1606h-125l-245 258h188z" />
    <glyph glyph-name="Eacute" unicode="&#xc9;" horiz-adv-x="1339" 
d="M1071 805v-119h-721v-563h891v-123h-1032l2 193v1079l-2 192h1032v-123h-891v-536h721zM717 1606h-125l184 258h185z" />
    <glyph glyph-name="Ecircumflex" unicode="&#xca;" horiz-adv-x="1339" 
d="M1071 805v-119h-721v-563h891v-123h-1032l2 193v1079l-2 192h1032v-123h-891v-536h721zM1022 1606h-109l-184 178l-186 -178h-109l213 258h158z" />
    <glyph glyph-name="Edieresis" unicode="&#xcb;" horiz-adv-x="1339" 
d="M1071 805v-119h-721v-563h891v-123h-1032l2 193v1079l-2 192h1032v-123h-891v-536h721zM844 1616v227h135v-227h-135zM477 1616v227h133v-227h-133z" />
    <glyph glyph-name="Igrave" unicode="&#xcc;" horiz-adv-x="561" 
d="M352 0h-143l2 193v1079l-2 192h143l-2 -192v-1079zM418 1606h-125l-246 258h189z" />
    <glyph glyph-name="Iacute" unicode="&#xcd;" horiz-adv-x="561" 
d="M352 0h-143l2 193v1079l-2 192h143l-2 -192v-1079zM270 1606h-125l185 258h184z" />
    <glyph glyph-name="Icircumflex" unicode="&#xce;" horiz-adv-x="561" 
d="M352 0h-143l2 193v1079l-2 192h143l-2 -192v-1079zM575 1606h-108l-184 178l-187 -178h-108l213 258h157z" />
    <glyph glyph-name="Idieresis" unicode="&#xcf;" horiz-adv-x="561" 
d="M352 0h-143l2 193v1079l-2 192h143l-2 -192v-1079zM397 1616v227h135v-227h-135zM31 1616v227h133v-227h-133z" />
    <glyph glyph-name="Eth" unicode="&#xd0;" horiz-adv-x="1609" 
d="M37 694v97h199v481l-3 192h480q71 0 138 -7t146.5 -27.5t147 -53.5t132.5 -90t110 -131t72.5 -182.5t27.5 -239.5q0 -130 -27 -237.5t-71.5 -182t-108.5 -132t-131.5 -91t-146.5 -54.5t-147.5 -28.5t-141.5 -7.5h-480l3 193v501h-199zM375 1341v-550h434v-97h-434v-571
h336q104 0 192 17t169 59.5t137.5 109t90 171t33.5 239.5q0 136 -33.5 243.5t-91 177.5t-138 116t-169 65.5t-190.5 19.5h-336z" />
    <glyph glyph-name="Ntilde" unicode="&#xd1;" horiz-adv-x="1576" 
d="M1227 1272l-2 192h143l-2 -192v-1079l2 -193h-129l-889 1225h-4l4 -109v-923l2 -193h-143l2 193v1079l-2 192h129l889 -1218h4l-4 108v918zM479 1620q0 135 46 195.5t118 60.5q80 0 162 -82l11.5 -11.5l12 -12t11.5 -11t12 -11t11 -9t12.5 -9t12 -6.5t13.5 -5.5t13 -3
t14 -1.5q80 0 80 152h86q0 -136 -47 -195t-123 -59q-80 0 -162 82q-25 26 -38.5 39t-36.5 26t-44 13q-80 0 -80 -152h-84z" />
    <glyph glyph-name="Ograve" unicode="&#xd2;" horiz-adv-x="1662" 
d="M829 -37q-164 0 -299.5 60.5t-224.5 165.5t-137.5 245t-48.5 299t48.5 298.5t137.5 244t224.5 165t299.5 60.5q132 0 247 -39t200 -109.5t146 -166.5t91.5 -211t30.5 -242t-30.5 -242.5t-91.5 -211.5t-146 -167t-200 -110t-247 -39zM829 88q247 0 404.5 175.5
t157.5 469.5q0 293 -157.5 468t-404.5 175q-246 0 -402.5 -175t-156.5 -468q0 -294 156.5 -469.5t402.5 -175.5zM967 1606h-125l-246 258h188z" />
    <glyph glyph-name="Oacute" unicode="&#xd3;" horiz-adv-x="1662" 
d="M829 -37q-164 0 -299.5 60.5t-224.5 165.5t-137.5 245t-48.5 299t48.5 298.5t137.5 244t224.5 165t299.5 60.5q132 0 247 -39t200 -109.5t146 -166.5t91.5 -211t30.5 -242t-30.5 -242.5t-91.5 -211.5t-146 -167t-200 -110t-247 -39zM829 88q247 0 404.5 175.5
t157.5 469.5q0 293 -157.5 468t-404.5 175q-246 0 -402.5 -175t-156.5 -468q0 -294 156.5 -469.5t402.5 -175.5zM819 1606h-125l185 258h184z" />
    <glyph glyph-name="Ocircumflex" unicode="&#xd4;" horiz-adv-x="1662" 
d="M829 -37q-164 0 -299.5 60.5t-224.5 165.5t-137.5 245t-48.5 299t48.5 298.5t137.5 244t224.5 165t299.5 60.5q132 0 247 -39t200 -109.5t146 -166.5t91.5 -211t30.5 -242t-30.5 -242.5t-91.5 -211.5t-146 -167t-200 -110t-247 -39zM829 88q247 0 404.5 175.5
t157.5 469.5q0 293 -157.5 468t-404.5 175q-246 0 -402.5 -175t-156.5 -468q0 -294 156.5 -469.5t402.5 -175.5zM1124 1606h-108l-185 178l-186 -178h-108l213 258h157z" />
    <glyph glyph-name="Otilde" unicode="&#xd5;" horiz-adv-x="1662" 
d="M829 -37q-164 0 -299.5 60.5t-224.5 165.5t-137.5 245t-48.5 299t48.5 298.5t137.5 244t224.5 165t299.5 60.5q132 0 247 -39t200 -109.5t146 -166.5t91.5 -211t30.5 -242t-30.5 -242.5t-91.5 -211.5t-146 -167t-200 -110t-247 -39zM829 88q247 0 404.5 175.5
t157.5 469.5q0 293 -157.5 468t-404.5 175q-246 0 -402.5 -175t-156.5 -468q0 -294 156.5 -469.5t402.5 -175.5zM522 1620q0 135 46 195.5t118 60.5q80 0 162 -82l11.5 -11.5l12 -12t11.5 -11t12 -11t11 -9t12.5 -9t12 -6.5t13.5 -5.5t13 -3t14 -1.5q80 0 80 152h86
q0 -136 -47 -195t-123 -59q-80 0 -162 82q-25 26 -38.5 39t-36.5 26t-44 13q-80 0 -80 -152h-84z" />
    <glyph glyph-name="Odieresis" unicode="&#xd6;" horiz-adv-x="1662" 
d="M829 -37q-164 0 -299.5 60.5t-224.5 165.5t-137.5 245t-48.5 299t48.5 298.5t137.5 244t224.5 165t299.5 60.5q132 0 247 -39t200 -109.5t146 -166.5t91.5 -211t30.5 -242t-30.5 -242.5t-91.5 -211.5t-146 -167t-200 -110t-247 -39zM829 88q247 0 404.5 175.5
t157.5 469.5q0 293 -157.5 468t-404.5 175q-246 0 -402.5 -175t-156.5 -468q0 -294 156.5 -469.5t402.5 -175.5zM946 1616v227h135v-227h-135zM580 1616v227h133v-227h-133z" />
    <glyph glyph-name="multiply" unicode="&#xd7;" horiz-adv-x="1095" 
d="M145 113l-77 77l401 400l-403 405l79 80l406 -403l401 403l78 -78l-399 -405l401 -402l-82 -79l-401 401z" />
    <glyph glyph-name="Oslash" unicode="&#xd8;" horiz-adv-x="1662" 
d="M319 -76l-88 47l121 170q-113 105 -173 258.5t-60 333.5q0 159 48.5 298.5t137.5 244t224.5 165t299.5 60.5q230 0 402 -117l112 156l89 -47l-121 -172q113 -105 173 -257.5t60 -330.5q0 -127 -30.5 -242.5t-91.5 -211.5t-146 -167t-200 -110t-247 -39q-232 0 -401 115z
M270 733q0 -301 162 -477l721 1018q-135 102 -324 102q-246 0 -402.5 -175t-156.5 -468zM829 88q247 0 404.5 175.5t157.5 469.5q0 293 -162 473l-721 -1018q133 -100 321 -100z" />
    <glyph glyph-name="Ugrave" unicode="&#xd9;" horiz-adv-x="1538" 
d="M340 1464l-2 -194v-733q0 -236 111 -340q109 -109 319 -109q213 0 324 111q106 106 106 313v758l-2 194h147l-2 -194v-740q0 -280 -141 -421q-143 -146 -432 -146q-286 0 -430 141q-81 80 -112 192t-31 259v715l-2 194h147zM905 1606h-125l-245 258h188z" />
    <glyph glyph-name="Uacute" unicode="&#xda;" horiz-adv-x="1538" 
d="M340 1464l-2 -194v-733q0 -236 111 -340q109 -109 319 -109q213 0 324 111q106 106 106 313v758l-2 194h147l-2 -194v-740q0 -280 -141 -421q-143 -146 -432 -146q-286 0 -430 141q-81 80 -112 192t-31 259v715l-2 194h147zM758 1606h-125l184 258h184z" />
    <glyph glyph-name="Ucircumflex" unicode="&#xdb;" horiz-adv-x="1538" 
d="M340 1464l-2 -194v-733q0 -236 111 -340q109 -109 319 -109q213 0 324 111q106 106 106 313v758l-2 194h147l-2 -194v-740q0 -280 -141 -421q-143 -146 -432 -146q-286 0 -430 141q-81 80 -112 192t-31 259v715l-2 194h147zM1063 1606h-109l-184 178l-186 -178h-109
l213 258h158z" />
    <glyph glyph-name="Udieresis" unicode="&#xdc;" horiz-adv-x="1538" 
d="M340 1464l-2 -194v-733q0 -236 111 -340q109 -109 319 -109q213 0 324 111q106 106 106 313v758l-2 194h147l-2 -194v-740q0 -280 -141 -421q-143 -146 -432 -146q-286 0 -430 141q-81 80 -112 192t-31 259v715l-2 194h147zM885 1616v227h135v-227h-135zM518 1616v227
h133v-227h-133z" />
    <glyph glyph-name="Yacute" unicode="&#xdd;" horiz-adv-x="1347" 
d="M602 0l2 193v413l-575 854v4h174l477 -737l479 737h160v-4l-576 -854v-413l2 -193h-143zM702 1606h-124l184 258h184z" />
    <glyph glyph-name="Thorn" unicode="&#xde;" horiz-adv-x="1382" 
d="M209 1464h145l-2 -192v-66h422q54 0 99 -3.5t100 -14.5t98.5 -30t86.5 -52t72 -78t46.5 -111.5t17.5 -148.5q0 -111 -32.5 -195t-82.5 -132.5t-122 -79t-139 -40.5t-144 -10h-422v-118l2 -193h-145l2 193v1079zM758 1085h-406v-653h406q64 0 114.5 6.5t103.5 28t88 56.5
t57 96.5t22 144.5q0 71 -15 126t-44.5 89t-63 56t-81.5 32.5t-88 14t-93 3.5z" />
    <glyph glyph-name="germandbls" unicode="&#xdf;" horiz-adv-x="1134" 
d="M508 0l6 111q51 -11 98 -11q134 0 203.5 79.5t69.5 234.5q0 104 -32 182.5t-87 123t-119 66.5t-137 23v121q93 6 147 62.5t54 160.5q0 102 -52.5 157.5t-148.5 55.5t-147.5 -60.5t-51.5 -179.5v-948l2 -178h-137l2 178v934q0 100 25.5 173t72 114.5t104 60.5t128.5 19
q89 0 158.5 -29t108 -76t58 -100.5t19.5 -110.5q0 -107 -60.5 -179t-134.5 -87v-10q38 -4 78 -16.5t94 -45.5t94.5 -80.5t69.5 -131.5t29 -189q0 -203 -99 -322.5t-280 -119.5q-80 0 -135 18z" />
    <glyph glyph-name="agrave" unicode="&#xe0;" horiz-adv-x="1128" 
d="M223 778l-86 68q143 205 420 205q85 0 155.5 -21t126.5 -64t87.5 -116.5t31.5 -171.5v-408q0 -47 2.5 -92t4.5 -70t6.5 -61.5t5.5 -46.5h-129q-12 103 -19 223h-4q-41 -97 -151 -173.5t-250 -76.5q-61 0 -115.5 15t-103 46t-77 87t-28.5 131q0 373 729 373v55
q0 264 -280 264q-112 0 -185 -41t-141 -125zM444 78q65 0 130.5 26t123.5 76t94.5 134t36.5 188v28q-589 -5 -589 -274q0 -86 55.5 -132t148.5 -46zM719 1176h-125l-264 288h188z" />
    <glyph glyph-name="aacute" unicode="&#xe1;" horiz-adv-x="1128" 
d="M223 778l-86 68q143 205 420 205q85 0 155.5 -21t126.5 -64t87.5 -116.5t31.5 -171.5v-408q0 -47 2.5 -92t4.5 -70t6.5 -61.5t5.5 -46.5h-129q-12 103 -19 223h-4q-41 -97 -151 -173.5t-250 -76.5q-61 0 -115.5 15t-103 46t-77 87t-28.5 131q0 373 729 373v55
q0 264 -280 264q-112 0 -185 -41t-141 -125zM444 78q65 0 130.5 26t123.5 76t94.5 134t36.5 188v28q-589 -5 -589 -274q0 -86 55.5 -132t148.5 -46zM535 1176h-123l200 288h185z" />
    <glyph glyph-name="acircumflex" unicode="&#xe2;" horiz-adv-x="1128" 
d="M223 778l-86 68q143 205 420 205q85 0 155.5 -21t126.5 -64t87.5 -116.5t31.5 -171.5v-408q0 -47 2.5 -92t4.5 -70t6.5 -61.5t5.5 -46.5h-129q-12 103 -19 223h-4q-41 -97 -151 -173.5t-250 -76.5q-61 0 -115.5 15t-103 46t-77 87t-28.5 131q0 373 729 373v55
q0 264 -280 264q-112 0 -185 -41t-141 -125zM444 78q65 0 130.5 26t123.5 76t94.5 134t36.5 188v28q-589 -5 -589 -274q0 -86 55.5 -132t148.5 -46zM858 1176h-108l-185 208l-186 -208h-109l213 288h158z" />
    <glyph glyph-name="atilde" unicode="&#xe3;" horiz-adv-x="1128" 
d="M223 778l-86 68q143 205 420 205q85 0 155.5 -21t126.5 -64t87.5 -116.5t31.5 -171.5v-408q0 -47 2.5 -92t4.5 -70t6.5 -61.5t5.5 -46.5h-129q-12 103 -19 223h-4q-41 -97 -151 -173.5t-250 -76.5q-61 0 -115.5 15t-103 46t-77 87t-28.5 131q0 373 729 373v55
q0 264 -280 264q-112 0 -185 -41t-141 -125zM444 78q65 0 130.5 26t123.5 76t94.5 134t36.5 188v28q-589 -5 -589 -274q0 -86 55.5 -132t148.5 -46zM256 1198q0 135 46 195.5t118 60.5q82 0 162 -80q2 -2 16 -16.5t17.5 -17.5t16 -14t18.5 -14.5t16.5 -9.5t19.5 -8t19 -2
q79 0 79 154h86q0 -136 -47.5 -196t-122.5 -60q-81 0 -161 84q-25 26 -38.5 39t-36.5 26t-44 13q-80 0 -80 -154h-84z" />
    <glyph glyph-name="adieresis" unicode="&#xe4;" horiz-adv-x="1128" 
d="M223 778l-86 68q143 205 420 205q85 0 155.5 -21t126.5 -64t87.5 -116.5t31.5 -171.5v-408q0 -47 2.5 -92t4.5 -70t6.5 -61.5t5.5 -46.5h-129q-12 103 -19 223h-4q-41 -97 -151 -173.5t-250 -76.5q-61 0 -115.5 15t-103 46t-77 87t-28.5 131q0 373 729 373v55
q0 264 -280 264q-112 0 -185 -41t-141 -125zM444 78q65 0 130.5 26t123.5 76t94.5 134t36.5 188v28q-589 -5 -589 -274q0 -86 55.5 -132t148.5 -46zM666 1237v227h135v-227h-135zM328 1237v227h133v-227h-133z" />
    <glyph glyph-name="aring" unicode="&#xe5;" horiz-adv-x="1128" 
d="M223 778l-86 68q143 205 420 205q85 0 155.5 -21t126.5 -64t87.5 -116.5t31.5 -171.5v-408q0 -47 2.5 -92t4.5 -70t6.5 -61.5t5.5 -46.5h-129q-12 103 -19 223h-4q-41 -97 -151 -173.5t-250 -76.5q-61 0 -115.5 15t-103 46t-77 87t-28.5 131q0 373 729 373v55
q0 264 -280 264q-112 0 -185 -41t-141 -125zM444 78q65 0 130.5 26t123.5 76t94.5 134t36.5 188v28q-589 -5 -589 -274q0 -86 55.5 -132t148.5 -46zM795 1366q0 -76 -60.5 -132t-169.5 -56q-112 0 -172.5 55.5t-60.5 132.5q0 81 60.5 139t172.5 58q109 0 169.5 -58
t60.5 -139zM713 1366q0 50 -41.5 87.5t-106.5 37.5q-71 0 -111 -37t-40 -88q0 -48 40 -82.5t111 -34.5q65 0 106.5 35.5t41.5 81.5z" />
    <glyph glyph-name="ae" unicode="&#xe6;" horiz-adv-x="1904" 
d="M1698 244l80 -78q-15 -18 -34 -36.5t-61.5 -49t-89.5 -53t-117 -39.5t-145 -17q-155 0 -270 64t-176 190h-4q-71 -117 -188.5 -185.5t-262.5 -68.5q-65 0 -121.5 15t-104.5 46t-76 86.5t-28 129.5q0 62 22 114t59.5 87.5t88 64t108 44.5t119 28t121 14.5t114 5t97.5 -1.5
l2 76q0 135 -74 199.5t-208 64.5q-112 0 -185 -41t-141 -125l-86 68q143 205 420 205q127 0 225.5 -48.5t145.5 -150.5h4q66 97 168.5 148t230.5 51q96 0 175.5 -30.5t133.5 -83t90.5 -123.5t51 -150.5t10.5 -165.5h-827q3 -197 104.5 -305.5t269.5 -108.5q68 0 131.5 18.5
t109 47.5t72.5 51t46 43zM444 78q117 0 229.5 73t172.5 187q-17 67 -17 158v14q-60 0 -110 -2.5t-113 -9t-112 -17t-98.5 -30t-82 -45.5t-53 -64t-20.5 -86q0 -85 56 -131.5t148 -46.5zM1327 940q-140 0 -236.5 -89t-119.5 -249h676q0 143 -85 240.5t-235 97.5z" />
    <glyph glyph-name="ccedilla" unicode="&#xe7;" horiz-adv-x="1112" 
d="M922 293l108 -53q-8 -19 -24 -44.5t-50.5 -64t-76.5 -70.5t-106.5 -57.5t-135.5 -30.5l-16 -86q94 -5 153.5 -43.5t59.5 -113.5q0 -74 -69 -118t-204 -44q-114 0 -209 31l8 88q111 -33 197 -33q150 0 150 84q0 82 -170 82h-37l28 157q-85 11 -159 49.5t-132 101.5
t-92 159t-34 213q0 241 135 396t358 155q287 0 411 -253q2 -4 3 -5l-117 -56q-10 22 -24 44t-41 51.5t-58.5 52t-79 38t-100.5 15.5q-152 0 -250 -116t-98 -312q0 -197 100.5 -311.5t247.5 -114.5q68 0 128.5 24.5t99.5 61t62 67.5t34 56z" />
    <glyph glyph-name="egrave" unicode="&#xe8;" horiz-adv-x="1181" 
d="M975 244l80 -78q-19 -23 -50 -50t-86 -62.5t-136 -59t-169 -23.5q-225 0 -363 136t-138 382q0 256 137.5 409t351.5 153q102 0 184 -31.5t135.5 -84.5t88.5 -125t49 -150t10 -162h-819v-9q0 -186 103 -295.5t272 -109.5q62 0 123 18.5t106 46t74.5 51.5t46.5 44zM606 940
q-138 0 -231 -85.5t-117 -252.5h668q0 142 -86 240t-234 98zM748 1176h-125l-265 288h189z" />
    <glyph glyph-name="eacute" unicode="&#xe9;" horiz-adv-x="1181" 
d="M975 244l80 -78q-19 -23 -50 -50t-86 -62.5t-136 -59t-169 -23.5q-225 0 -363 136t-138 382q0 256 137.5 409t351.5 153q102 0 184 -31.5t135.5 -84.5t88.5 -125t49 -150t10 -162h-819v-9q0 -186 103 -295.5t272 -109.5q62 0 123 18.5t106 46t74.5 51.5t46.5 44zM606 940
q-138 0 -231 -85.5t-117 -252.5h668q0 142 -86 240t-234 98zM563 1176h-123l201 288h184z" />
    <glyph glyph-name="ecircumflex" unicode="&#xea;" horiz-adv-x="1181" 
d="M975 244l80 -78q-19 -23 -50 -50t-86 -62.5t-136 -59t-169 -23.5q-225 0 -363 136t-138 382q0 256 137.5 409t351.5 153q102 0 184 -31.5t135.5 -84.5t88.5 -125t49 -150t10 -162h-819v-9q0 -186 103 -295.5t272 -109.5q62 0 123 18.5t106 46t74.5 51.5t46.5 44zM606 940
q-138 0 -231 -85.5t-117 -252.5h668q0 142 -86 240t-234 98zM887 1176h-109l-184 208l-186 -208h-109l213 288h158z" />
    <glyph glyph-name="edieresis" unicode="&#xeb;" horiz-adv-x="1181" 
d="M975 244l80 -78q-19 -23 -50 -50t-86 -62.5t-136 -59t-169 -23.5q-225 0 -363 136t-138 382q0 256 137.5 409t351.5 153q102 0 184 -31.5t135.5 -84.5t88.5 -125t49 -150t10 -162h-819v-9q0 -186 103 -295.5t272 -109.5q62 0 123 18.5t106 46t74.5 51.5t46.5 44zM606 940
q-138 0 -231 -85.5t-117 -252.5h668q0 142 -86 240t-234 98zM694 1237v227h135v-227h-135zM356 1237v227h133v-227h-133z" />
    <glyph glyph-name="igrave" unicode="&#xec;" horiz-adv-x="489" 
d="M313 0h-137l2 178v664l-2 180h137l-2 -180v-664zM399 1176h-125l-264 288h189z" />
    <glyph glyph-name="iacute" unicode="&#xed;" horiz-adv-x="489" 
d="M313 0h-137l2 178v664l-2 180h137l-2 -180v-664zM215 1176h-123l201 288h184z" />
    <glyph glyph-name="icircumflex" unicode="&#xee;" horiz-adv-x="489" 
d="M313 0h-137l2 178v664l-2 180h137l-2 -180v-664zM539 1176h-109l-184 208l-187 -208h-108l213 288h158z" />
    <glyph glyph-name="idieresis" unicode="&#xef;" horiz-adv-x="489" 
d="M313 0h-137l2 178v664l-2 180h137l-2 -180v-664zM346 1237v227h135v-227h-135zM8 1237v227h133v-227h-133z" />
    <glyph glyph-name="eth" unicode="&#xf0;" horiz-adv-x="1234" 
d="M530 1489q87 -58 168 -129l291 65v-88l-217 -49q151 -155 249.5 -345.5t98.5 -399.5q0 -158 -58.5 -287t-173.5 -207t-267 -78q-115 0 -212.5 44.5t-162 119.5t-101 171.5t-36.5 201.5q0 142 61 263t178 196t266 75q85 0 148 -27.5t123 -82.5l4 4q-90 171 -250 324
l-332 -74v86l254 57q-66 54 -166 123zM621 84q160 0 263 119.5t103 318.5q0 192 -100.5 304t-257.5 112q-169 0 -275 -118.5t-106 -309.5q0 -190 105 -308t268 -118z" />
    <glyph glyph-name="ntilde" unicode="&#xf1;" horiz-adv-x="1216" 
d="M1053 0h-140l2 178v453q0 303 -231 303q-117 0 -216.5 -73.5t-156.5 -186.5v-496l2 -178h-137l2 178v664l-2 180h133v-199h4q155 228 389 228q164 0 256.5 -105.5t92.5 -302.5v-465zM299 1198q0 135 46 195.5t118 60.5q82 0 162 -80q2 -2 16 -16.5t17.5 -17.5t16 -14
t18.5 -14.5t16.5 -9.5t19.5 -8t19 -2q79 0 79 154h86q0 -136 -47.5 -196t-122.5 -60q-81 0 -161 84q-25 26 -38.5 39t-36.5 26t-44 13q-80 0 -80 -154h-84z" />
    <glyph glyph-name="ograve" unicode="&#xf2;" horiz-adv-x="1228" 
d="M614 -29q-113 0 -209 44.5t-160 119t-100 172t-36 203.5q0 107 36 205t100 172.5t160 119t209 44.5t209 -44.5t160.5 -119t100.5 -172.5t36 -205q0 -143 -61 -265t-178 -198t-267 -76zM614 84q158 0 262.5 118.5t104.5 307.5q0 190 -104 309t-263 119t-262.5 -119
t-103.5 -309q0 -189 104 -307.5t262 -118.5zM768 1176h-125l-264 288h188z" />
    <glyph glyph-name="oacute" unicode="&#xf3;" horiz-adv-x="1228" 
d="M614 -29q-113 0 -209 44.5t-160 119t-100 172t-36 203.5q0 107 36 205t100 172.5t160 119t209 44.5t209 -44.5t160.5 -119t100.5 -172.5t36 -205q0 -143 -61 -265t-178 -198t-267 -76zM614 84q158 0 262.5 118.5t104.5 307.5q0 190 -104 309t-263 119t-262.5 -119
t-103.5 -309q0 -189 104 -307.5t262 -118.5zM584 1176h-123l201 288h184z" />
    <glyph glyph-name="ocircumflex" unicode="&#xf4;" horiz-adv-x="1228" 
d="M614 -29q-113 0 -209 44.5t-160 119t-100 172t-36 203.5q0 107 36 205t100 172.5t160 119t209 44.5t209 -44.5t160.5 -119t100.5 -172.5t36 -205q0 -143 -61 -265t-178 -198t-267 -76zM614 84q158 0 262.5 118.5t104.5 307.5q0 190 -104 309t-263 119t-262.5 -119
t-103.5 -309q0 -189 104 -307.5t262 -118.5zM907 1176h-108l-185 208l-186 -208h-109l213 288h158z" />
    <glyph glyph-name="otilde" unicode="&#xf5;" horiz-adv-x="1228" 
d="M614 -29q-113 0 -209 44.5t-160 119t-100 172t-36 203.5q0 107 36 205t100 172.5t160 119t209 44.5t209 -44.5t160.5 -119t100.5 -172.5t36 -205q0 -143 -61 -265t-178 -198t-267 -76zM614 84q158 0 262.5 118.5t104.5 307.5q0 190 -104 309t-263 119t-262.5 -119
t-103.5 -309q0 -189 104 -307.5t262 -118.5zM305 1198q0 135 46 195.5t118 60.5q82 0 162 -80q2 -2 16 -16.5t17.5 -17.5t16 -14t18.5 -14.5t16.5 -9.5t19.5 -8t19 -2q80 0 80 154h86q0 -136 -47.5 -196t-122.5 -60q-82 0 -162 84q-25 26 -38.5 39t-36.5 26t-44 13
q-80 0 -80 -154h-84z" />
    <glyph glyph-name="odieresis" unicode="&#xf6;" horiz-adv-x="1228" 
d="M614 -29q-113 0 -209 44.5t-160 119t-100 172t-36 203.5q0 107 36 205t100 172.5t160 119t209 44.5t209 -44.5t160.5 -119t100.5 -172.5t36 -205q0 -143 -61 -265t-178 -198t-267 -76zM614 84q158 0 262.5 118.5t104.5 307.5q0 190 -104 309t-263 119t-262.5 -119
t-103.5 -309q0 -189 104 -307.5t262 -118.5zM715 1237v227h135v-227h-135zM377 1237v227h133v-227h-133z" />
    <glyph glyph-name="divide" unicode="&#xf7;" horiz-adv-x="1095" 
d="M86 537v110h922v-110h-922zM477 63v216h144v-216h-144zM477 907v215h144v-215h-144z" />
    <glyph glyph-name="oslash" unicode="&#xf8;" horiz-adv-x="1228" 
d="M260 -76l-88 47l98 138q-77 74 -119 179.5t-42 221.5q0 107 36 205t100 172.5t160 119t209 44.5q150 0 271 -78l88 123l86 -47l-98 -140q76 -75 117.5 -179t41.5 -220q0 -143 -61 -265t-178 -198t-267 -76q-146 0 -266 76zM248 510q0 -183 96 -299l471 663
q-89 64 -201 64q-159 0 -262.5 -119t-103.5 -309zM614 84q158 0 262.5 118.5t104.5 307.5q0 176 -92 295l-471 -662q83 -59 196 -59z" />
    <glyph glyph-name="ugrave" unicode="&#xf9;" horiz-adv-x="1216" 
d="M164 1022h137l-2 -178v-453q0 -303 231 -303q117 0 216.5 73.5t156.5 186.5v496l-2 178h139l-2 -178v-664l2 -180h-133v201h-4q-153 -230 -389 -230q-163 0 -255.5 105.5t-92.5 302.5v465zM760 1176h-125l-264 288h188z" />
    <glyph glyph-name="uacute" unicode="&#xfa;" horiz-adv-x="1216" 
d="M164 1022h137l-2 -178v-453q0 -303 231 -303q117 0 216.5 73.5t156.5 186.5v496l-2 178h139l-2 -178v-664l2 -180h-133v201h-4q-153 -230 -389 -230q-163 0 -255.5 105.5t-92.5 302.5v465zM575 1176h-122l200 288h185z" />
    <glyph glyph-name="ucircumflex" unicode="&#xfb;" horiz-adv-x="1216" 
d="M164 1022h137l-2 -178v-453q0 -303 231 -303q117 0 216.5 73.5t156.5 186.5v496l-2 178h139l-2 -178v-664l2 -180h-133v201h-4q-153 -230 -389 -230q-163 0 -255.5 105.5t-92.5 302.5v465zM899 1176h-108l-185 208l-186 -208h-109l213 288h158z" />
    <glyph glyph-name="udieresis" unicode="&#xfc;" horiz-adv-x="1216" 
d="M164 1022h137l-2 -178v-453q0 -303 231 -303q117 0 216.5 73.5t156.5 186.5v496l-2 178h139l-2 -178v-664l2 -180h-133v201h-4q-153 -230 -389 -230q-163 0 -255.5 105.5t-92.5 302.5v465zM707 1237v227h135v-227h-135zM369 1237v227h133v-227h-133z" />
    <glyph glyph-name="yacute" unicode="&#xfd;" horiz-adv-x="1054" 
d="M57 1022h148l340 -891h4l309 891h139l-440 -1188q-58 -154 -154 -217t-227 -63q-59 0 -117 14v108q63 -14 111 -14q107 0 173 56t116 184l33 80zM539 1176h-123l200 288h185z" />
    <glyph glyph-name="thorn" unicode="&#xfe;" horiz-adv-x="1243" 
d="M670 -29q-134 0 -224.5 71t-130.5 179h-4v-481l2 -178h-137l2 178v1544l-2 180h137l-2 -180v-487h4q42 110 130 182t225 72q203 0 331.5 -149t128.5 -390q0 -244 -131 -392.5t-329 -148.5zM657 938q-155 0 -252.5 -117t-97.5 -315v-6q0 -100 29 -181t78 -131t110.5 -77
t130.5 -27q152 0 243 118t91 312t-89 309t-243 115z" />
    <glyph glyph-name="ydieresis" unicode="&#xff;" horiz-adv-x="1054" 
d="M57 1022h148l340 -891h4l309 891h139l-440 -1188q-58 -154 -154 -217t-227 -63q-59 0 -117 14v108q63 -14 111 -14q107 0 173 56t116 184l33 80zM629 1237v227h135v-227h-135zM291 1237v227h133v-227h-133z" />
    <glyph glyph-name="Amacron" unicode="&#x100;" horiz-adv-x="1363" 
d="M348 440l-158 -440h-137l539 1464h182l539 -1464h-152l-157 440h-656zM676 1352l-285 -791h570l-281 791h-4zM940 1663h-514v115h514v-115z" />
    <glyph glyph-name="amacron" unicode="&#x101;" horiz-adv-x="1128" 
d="M223 778l-86 68q143 205 420 205q85 0 155.5 -21t126.5 -64t87.5 -116.5t31.5 -171.5v-408q0 -47 2.5 -92t4.5 -70t6.5 -61.5t5.5 -46.5h-129q-12 103 -19 223h-4q-41 -97 -151 -173.5t-250 -76.5q-61 0 -115.5 15t-103 46t-77 87t-28.5 131q0 373 729 373v55
q0 264 -280 264q-112 0 -185 -41t-141 -125zM444 78q65 0 130.5 26t123.5 76t94.5 134t36.5 188v28q-589 -5 -589 -274q0 -86 55.5 -132t148.5 -46zM821 1296h-514v115h514v-115z" />
    <glyph glyph-name="Abreve" unicode="&#x102;" horiz-adv-x="1363" 
d="M348 440l-158 -440h-137l539 1464h182l539 -1464h-152l-157 440h-656zM676 1352l-285 -791h570l-281 791h-4zM836 1864h108q0 -128 -74.5 -192t-185.5 -64q-70 0 -128 25t-97 84.5t-39 146.5h110q0 -160 154 -160q152 0 152 160z" />
    <glyph glyph-name="abreve" unicode="&#x103;" horiz-adv-x="1128" 
d="M223 778l-86 68q143 205 420 205q85 0 155.5 -21t126.5 -64t87.5 -116.5t31.5 -171.5v-408q0 -47 2.5 -92t4.5 -70t6.5 -61.5t5.5 -46.5h-129q-12 103 -19 223h-4q-41 -97 -151 -173.5t-250 -76.5q-61 0 -115.5 15t-103 46t-77 87t-28.5 131q0 373 729 373v55
q0 264 -280 264q-112 0 -185 -41t-141 -125zM444 78q65 0 130.5 26t123.5 76t94.5 134t36.5 188v28q-589 -5 -589 -274q0 -86 55.5 -132t148.5 -46zM723 1464h111q0 -75 -22.5 -132t-61.5 -89.5t-85.5 -48.5t-99.5 -16q-52 0 -99 16t-86.5 48.5t-63 89.5t-23.5 132h113
q0 -192 159 -192q158 0 158 192z" />
    <glyph glyph-name="Aogonek" unicode="&#x104;" horiz-adv-x="1363" 
d="M1358 -293l8 -88q-21 -14 -68 -28.5t-108 -14.5q-57 0 -105 14.5t-82 51t-34 90.5q0 134 192 268l-157 440h-656l-158 -440h-137l539 1464h182l539 -1464q-84 -40 -147.5 -106.5t-63.5 -129.5q0 -47 33 -69.5t86 -22.5q64 0 137 35zM676 1352l-285 -791h570l-281 791h-4z
" />
    <glyph glyph-name="aogonek" unicode="&#x105;" horiz-adv-x="1128" 
d="M1044 -293l9 -88q-21 -14 -68 -28.5t-108 -14.5q-42 0 -80 8.5t-70.5 26t-52 49t-19.5 72.5q0 133 193 268q-12 103 -19 223h-4q-41 -97 -151 -173.5t-250 -76.5q-61 0 -115.5 15t-103 46t-77 87t-28.5 131q0 373 729 373v55q0 264 -280 264q-112 0 -185 -41t-141 -125
l-86 68q143 205 420 205q85 0 155.5 -21t126.5 -64t87.5 -116.5t31.5 -171.5v-408q0 -94 19 -270q-67 -34 -128 -104.5t-61 -131.5q0 -47 33 -69.5t86 -22.5q64 0 137 35zM444 78q65 0 130.5 26t123.5 76t94.5 134t36.5 188v28q-589 -5 -589 -274q0 -86 55.5 -132t148.5 -46
z" />
    <glyph glyph-name="Cacute" unicode="&#x106;" horiz-adv-x="1527" 
d="M1339 424l121 -47q-17 -50 -48 -102t-87 -109t-125 -101t-169 -73t-212 -29q-115 0 -218.5 29.5t-191.5 90.5t-152 149t-100 211.5t-36 271.5q0 228 87 406.5t248.5 279t372.5 100.5q120 0 222 -32t176 -89t127.5 -125.5t91.5 -152.5l-127 -51q-24 60 -65 114.5
t-100.5 103.5t-144.5 78t-182 29q-118 0 -219.5 -46t-176 -129t-117 -207.5t-42.5 -274.5q0 -133 31.5 -241t84.5 -179t124.5 -120t149 -70t161.5 -21q87 0 166 23.5t135.5 60t102 83t72.5 89t40 80.5zM813 1606h-125l184 258h185z" />
    <glyph glyph-name="cacute" unicode="&#x107;" horiz-adv-x="1112" 
d="M922 293l108 -53q-8 -19 -25.5 -47t-55 -68.5t-84 -73.5t-117.5 -56.5t-150 -23.5q-95 0 -181 33.5t-155 97.5t-110 167t-41 231q0 241 135 396t358 155q287 0 411 -253q2 -4 3 -5l-117 -56q-10 22 -24 44t-41 51.5t-58.5 52t-79 38t-100.5 15.5q-152 0 -250 -116
t-98 -312q0 -197 100.5 -311.5t247.5 -114.5q68 0 128.5 24.5t99.5 61t62 67.5t34 56zM580 1176h-123l200 288h185z" />
    <glyph glyph-name="Ccircumflex" unicode="&#x108;" horiz-adv-x="1527" 
d="M1339 424l121 -47q-17 -50 -48 -102t-87 -109t-125 -101t-169 -73t-212 -29q-115 0 -218.5 29.5t-191.5 90.5t-152 149t-100 211.5t-36 271.5q0 228 87 406.5t248.5 279t372.5 100.5q120 0 222 -32t176 -89t127.5 -125.5t91.5 -152.5l-127 -51q-24 60 -65 114.5
t-100.5 103.5t-144.5 78t-182 29q-118 0 -219.5 -46t-176 -129t-117 -207.5t-42.5 -274.5q0 -133 31.5 -241t84.5 -179t124.5 -120t149 -70t161.5 -21q87 0 166 23.5t135.5 60t102 83t72.5 89t40 80.5zM1118 1606h-108l-185 178l-186 -178h-109l213 258h158z" />
    <glyph glyph-name="ccircumflex" unicode="&#x109;" horiz-adv-x="1112" 
d="M922 293l108 -53q-8 -19 -25.5 -47t-55 -68.5t-84 -73.5t-117.5 -56.5t-150 -23.5q-95 0 -181 33.5t-155 97.5t-110 167t-41 231q0 241 135 396t358 155q287 0 411 -253q2 -4 3 -5l-117 -56q-10 22 -24 44t-41 51.5t-58.5 52t-79 38t-100.5 15.5q-152 0 -250 -116
t-98 -312q0 -197 100.5 -311.5t247.5 -114.5q68 0 128.5 24.5t99.5 61t62 67.5t34 56zM903 1176h-108l-185 208l-186 -208h-109l213 288h158z" />
    <glyph glyph-name="Cdotaccent" unicode="&#x10a;" horiz-adv-x="1527" 
d="M1339 424l121 -47q-17 -50 -48 -102t-87 -109t-125 -101t-169 -73t-212 -29q-115 0 -218.5 29.5t-191.5 90.5t-152 149t-100 211.5t-36 271.5q0 228 87 406.5t248.5 279t372.5 100.5q120 0 222 -32t176 -89t127.5 -125.5t91.5 -152.5l-127 -51q-24 60 -65 114.5
t-100.5 103.5t-144.5 78t-182 29q-118 0 -219.5 -46t-176 -129t-117 -207.5t-42.5 -274.5q0 -133 31.5 -241t84.5 -179t124.5 -120t149 -70t161.5 -21q87 0 166 23.5t135.5 60t102 83t72.5 89t40 80.5zM758 1616v227h133v-227h-133z" />
    <glyph glyph-name="cdotaccent" unicode="&#x10b;" horiz-adv-x="1112" 
d="M922 293l108 -53q-8 -19 -25.5 -47t-55 -68.5t-84 -73.5t-117.5 -56.5t-150 -23.5q-95 0 -181 33.5t-155 97.5t-110 167t-41 231q0 241 135 396t358 155q287 0 411 -253q2 -4 3 -5l-117 -56q-10 22 -24 44t-41 51.5t-58.5 52t-79 38t-100.5 15.5q-152 0 -250 -116
t-98 -312q0 -197 100.5 -311.5t247.5 -114.5q68 0 128.5 24.5t99.5 61t62 67.5t34 56zM543 1237v227h133v-227h-133z" />
    <glyph glyph-name="Ccaron" unicode="&#x10c;" horiz-adv-x="1527" 
d="M1339 424l121 -47q-17 -50 -48 -102t-87 -109t-125 -101t-169 -73t-212 -29q-115 0 -218.5 29.5t-191.5 90.5t-152 149t-100 211.5t-36 271.5q0 228 87 406.5t248.5 279t372.5 100.5q120 0 222 -32t176 -89t127.5 -125.5t91.5 -152.5l-127 -51q-24 60 -65 114.5
t-100.5 103.5t-144.5 78t-182 29q-118 0 -219.5 -46t-176 -129t-117 -207.5t-42.5 -274.5q0 -133 31.5 -241t84.5 -179t124.5 -120t149 -70t161.5 -21q87 0 166 23.5t135.5 60t102 83t72.5 89t40 80.5zM1010 1864h108l-217 -258h-158l-213 258h109l186 -178z" />
    <glyph glyph-name="ccaron" unicode="&#x10d;" horiz-adv-x="1112" 
d="M922 293l108 -53q-8 -19 -25.5 -47t-55 -68.5t-84 -73.5t-117.5 -56.5t-150 -23.5q-95 0 -181 33.5t-155 97.5t-110 167t-41 231q0 241 135 396t358 155q287 0 411 -253q2 -4 3 -5l-117 -56q-10 22 -24 44t-41 51.5t-58.5 52t-79 38t-100.5 15.5q-152 0 -250 -116
t-98 -312q0 -197 100.5 -311.5t247.5 -114.5q68 0 128.5 24.5t99.5 61t62 67.5t34 56zM795 1464h108l-217 -288h-158l-213 288h109l186 -211z" />
    <glyph glyph-name="Dcaron" unicode="&#x10e;" horiz-adv-x="1587" 
d="M211 1272l-2 192h479q72 0 139 -7t146.5 -27.5t147 -53.5t132 -90t109.5 -131t72.5 -182.5t27.5 -239.5q0 -130 -27 -237.5t-71.5 -182t-108 -132t-131 -91t-147 -54.5t-148 -28.5t-141.5 -7.5h-479l2 193v1079zM350 1341v-1218h338q86 0 161 12.5t146.5 39t128 73
t99 111t65.5 156t23 204.5q0 136 -34 243.5t-91.5 177.5t-138.5 116t-169.5 65.5t-189.5 19.5h-338zM973 1864h108l-217 -258h-157l-213 258h108l186 -178z" />
    <glyph glyph-name="dcaron" unicode="&#x10f;" horiz-adv-x="1259" 
d="M571 -29q-197 0 -327.5 147.5t-130.5 393.5q0 240 128.5 389.5t329.5 149.5q140 0 226.5 -70t128.5 -178h4v481l-2 180h137l-2 -180v-1108l2 -176h-131v227h-4q-44 -114 -133.5 -185t-225.5 -71zM588 938q-156 0 -246 -115.5t-90 -308.5q0 -198 90.5 -314t243.5 -116
q146 0 248 110t102 310v8q0 198 -97.5 312t-250.5 114zM1266 1464h139l-51 -426h-88v426z" />
    <glyph glyph-name="Dcroat" unicode="&#x110;" horiz-adv-x="1609" 
d="M37 692v96h199v484l-3 192h480q71 0 138 -7t146.5 -27.5t147 -53.5t132.5 -90t110 -131t72.5 -182.5t27.5 -239.5q0 -130 -27 -237.5t-71.5 -182t-108.5 -132t-131.5 -91t-146.5 -54.5t-147.5 -28.5t-141.5 -7.5h-480l3 193v499h-199zM375 1341v-553h434v-96h-434v-569
h336q104 0 192 17t169 59.5t137.5 109t90 171t33.5 239.5q0 136 -33.5 243.5t-91 177.5t-138 116t-169 65.5t-190.5 19.5h-336z" />
    <glyph glyph-name="dcroat" unicode="&#x111;" horiz-adv-x="1241" 
d="M571 -29q-197 0 -327.5 147.5t-130.5 393.5q0 240 128.5 389.5t329.5 149.5q140 0 226.5 -70t128.5 -178h4v414h-297v79h297v168h133v-168h192v-79h-192v-1041l2 -176h-131v227h-4q-44 -114 -133.5 -185t-225.5 -71zM588 938q-156 0 -246 -115.5t-90 -308.5
q0 -198 90.5 -314t243.5 -116q146 0 248 110t102 310v8q0 198 -97.5 312t-250.5 114z" />
    <glyph glyph-name="Emacron" unicode="&#x112;" horiz-adv-x="1339" 
d="M1071 805v-119h-721v-563h891v-123h-1032l2 193v1079l-2 192h1032v-123h-891v-536h721zM985 1663h-514v115h514v-115z" />
    <glyph glyph-name="emacron" unicode="&#x113;" horiz-adv-x="1181" 
d="M975 244l80 -78q-19 -23 -50 -50t-86 -62.5t-136 -59t-169 -23.5q-225 0 -363 136t-138 382q0 256 137.5 409t351.5 153q102 0 184 -31.5t135.5 -84.5t88.5 -125t49 -150t10 -162h-819v-9q0 -186 103 -295.5t272 -109.5q62 0 123 18.5t106 46t74.5 51.5t46.5 44zM606 940
q-138 0 -231 -85.5t-117 -252.5h668q0 142 -86 240t-234 98zM850 1296h-514v115h514v-115z" />
    <glyph glyph-name="Ebreve" unicode="&#x114;" horiz-adv-x="1339" 
d="M1071 805v-119h-721v-563h891v-123h-1032l2 193v1079l-2 192h1032v-123h-891v-536h721zM881 1864h108q0 -128 -74.5 -192t-185.5 -64q-70 0 -128 25t-97 84.5t-39 146.5h110q0 -160 154 -160q152 0 152 160z" />
    <glyph glyph-name="ebreve" unicode="&#x115;" horiz-adv-x="1181" 
d="M975 244l80 -78q-19 -23 -50 -50t-86 -62.5t-136 -59t-169 -23.5q-225 0 -363 136t-138 382q0 256 137.5 409t351.5 153q102 0 184 -31.5t135.5 -84.5t88.5 -125t49 -150t10 -162h-819v-9q0 -186 103 -295.5t272 -109.5q62 0 123 18.5t106 46t74.5 51.5t46.5 44zM606 940
q-138 0 -231 -85.5t-117 -252.5h668q0 142 -86 240t-234 98zM752 1464h110q0 -75 -22.5 -132t-61.5 -89.5t-85 -48.5t-99 -16q-52 0 -99 16t-86.5 48.5t-63 89.5t-23.5 132h112q0 -192 160 -192q158 0 158 192z" />
    <glyph glyph-name="Edotaccent" unicode="&#x116;" horiz-adv-x="1339" 
d="M1071 805v-119h-721v-563h891v-123h-1032l2 193v1079l-2 192h1032v-123h-891v-536h721zM662 1616v227h133v-227h-133z" />
    <glyph glyph-name="edotaccent" unicode="&#x117;" horiz-adv-x="1181" 
d="M975 244l80 -78q-19 -23 -50 -50t-86 -62.5t-136 -59t-169 -23.5q-225 0 -363 136t-138 382q0 256 137.5 409t351.5 153q102 0 184 -31.5t135.5 -84.5t88.5 -125t49 -150t10 -162h-819v-9q0 -186 103 -295.5t272 -109.5q62 0 123 18.5t106 46t74.5 51.5t46.5 44zM606 940
q-138 0 -231 -85.5t-117 -252.5h668q0 142 -86 240t-234 98zM526 1237v227h133v-227h-133z" />
    <glyph glyph-name="Eogonek" unicode="&#x118;" horiz-adv-x="1339" 
d="M1233 -293l8 -88q-21 -14 -68 -28.5t-108 -14.5q-57 0 -105 14.5t-82 51t-34 90.5q0 133 188 264v4h-823l2 193v1079l-2 192h1032v-123h-891v-536h721v-119h-721v-563h891v-123h-92q-65 -48 -118.5 -112.5t-53.5 -123.5q0 -47 33 -69.5t86 -22.5q64 0 137 35z" />
    <glyph glyph-name="eogonek" unicode="&#x119;" horiz-adv-x="1181" 
d="M899 -293l8 -88q-21 -14 -68 -28.5t-108 -14.5q-57 0 -105 14.5t-82 51t-34 90.5q0 117 152 237v4q-23 -2 -48 -2q-225 0 -363 136t-138 382q0 256 137.5 409t351.5 153q102 0 184 -31.5t135.5 -84.5t88.5 -125t49 -150t10 -162h-819v-9q0 -186 103 -295.5t272 -109.5
q62 0 123 18.5t106 46t74.5 51.5t46.5 44l80 -78q-91 -105 -228 -156q-39 -29 -76 -63t-72.5 -87t-35.5 -96q0 -47 33 -69.5t86 -22.5q64 0 137 35zM606 940q-138 0 -231 -85.5t-117 -252.5h668q0 142 -86 240t-234 98z" />
    <glyph glyph-name="Ecaron" unicode="&#x11a;" horiz-adv-x="1339" 
d="M1071 805v-119h-721v-563h891v-123h-1032l2 193v1079l-2 192h1032v-123h-891v-536h721zM913 1864h109l-217 -258h-158l-213 258h109l186 -178z" />
    <glyph glyph-name="ecaron" unicode="&#x11b;" horiz-adv-x="1181" 
d="M975 244l80 -78q-19 -23 -50 -50t-86 -62.5t-136 -59t-169 -23.5q-225 0 -363 136t-138 382q0 256 137.5 409t351.5 153q102 0 184 -31.5t135.5 -84.5t88.5 -125t49 -150t10 -162h-819v-9q0 -186 103 -295.5t272 -109.5q62 0 123 18.5t106 46t74.5 51.5t46.5 44zM606 940
q-138 0 -231 -85.5t-117 -252.5h668q0 142 -86 240t-234 98zM778 1464h109l-217 -288h-158l-213 288h109l186 -211z" />
    <glyph glyph-name="Gcircumflex" unicode="&#x11c;" horiz-adv-x="1581" 
d="M1436 498v-498h-115v258h-4q-116 -295 -492 -295q-322 0 -513 193.5t-191 545.5q0 129 27 246t83.5 218.5t137.5 175.5t197 116.5t255 42.5q422 0 604 -399l-127 -51q-19 46 -46.5 89.5t-70 87t-93 76t-119.5 52.5t-146 20q-247 0 -399 -178t-152 -483q0 -161 46.5 -285
t126.5 -197t178.5 -109t212.5 -36q76 0 144.5 17t129.5 55t106 93t72 135.5t29 178.5v2h-469v121h590zM1116 1606h-108l-185 178l-186 -178h-109l213 258h158z" />
    <glyph glyph-name="gcircumflex" unicode="&#x11d;" horiz-adv-x="1146" 
d="M545 365q-118 0 -199 34q-40 -9 -65 -39.5t-25 -70.5q0 -65 61 -102t156 -40l268 -8q179 -4 266 -73.5t87 -192.5q0 -86 -43 -150t-120 -100.5t-171.5 -54t-208.5 -17.5q-103 0 -187.5 14.5t-151 44t-103.5 80t-37 117.5q0 84 57 149.5t170 92.5v4q-170 67 -170 201
q0 66 39 113.5t102 74.5q-127 91 -127 263q0 157 109.5 251.5t294.5 94.5q169 0 278 -82q73 139 213 139q43 0 80 -14v-109q-42 10 -86 10q-105 0 -145 -90q61 -83 61 -196q0 -157 -109.5 -250.5t-293.5 -93.5zM741 20l-313 9q-101 -26 -162 -79t-61 -124q0 -172 366 -172
q392 0 392 199q0 67 -50 115t-172 52zM545 467q130 0 203 62t73 178q0 117 -72 179t-204 62q-130 0 -203.5 -62.5t-73.5 -178.5q0 -117 73 -178.5t204 -61.5zM866 1176h-108l-185 208l-186 -208h-108l213 288h157z" />
    <glyph glyph-name="Gbreve" unicode="&#x11e;" horiz-adv-x="1581" 
d="M1436 498v-498h-115v258h-4q-116 -295 -492 -295q-322 0 -513 193.5t-191 545.5q0 129 27 246t83.5 218.5t137.5 175.5t197 116.5t255 42.5q422 0 604 -399l-127 -51q-19 46 -46.5 89.5t-70 87t-93 76t-119.5 52.5t-146 20q-247 0 -399 -178t-152 -483q0 -161 46.5 -285
t126.5 -197t178.5 -109t212.5 -36q76 0 144.5 17t129.5 55t106 93t72 135.5t29 178.5v2h-469v121h590zM975 1864h108q0 -128 -74.5 -192t-185.5 -64q-70 0 -128 25t-97 84.5t-39 146.5h111q0 -160 153 -160q152 0 152 160z" />
    <glyph glyph-name="gbreve" unicode="&#x11f;" horiz-adv-x="1146" 
d="M545 365q-118 0 -199 34q-40 -9 -65 -39.5t-25 -70.5q0 -65 61 -102t156 -40l268 -8q179 -4 266 -73.5t87 -192.5q0 -86 -43 -150t-120 -100.5t-171.5 -54t-208.5 -17.5q-103 0 -187.5 14.5t-151 44t-103.5 80t-37 117.5q0 84 57 149.5t170 92.5v4q-170 67 -170 201
q0 66 39 113.5t102 74.5q-127 91 -127 263q0 157 109.5 251.5t294.5 94.5q169 0 278 -82q73 139 213 139q43 0 80 -14v-109q-42 10 -86 10q-105 0 -145 -90q61 -83 61 -196q0 -157 -109.5 -250.5t-293.5 -93.5zM741 20l-313 9q-101 -26 -162 -79t-61 -124q0 -172 366 -172
q392 0 392 199q0 67 -50 115t-172 52zM545 467q130 0 203 62t73 178q0 117 -72 179t-204 62q-130 0 -203.5 -62.5t-73.5 -178.5q0 -117 73 -178.5t204 -61.5zM731 1464h111q0 -75 -22.5 -132t-61.5 -89.5t-85.5 -48.5t-99.5 -16q-52 0 -99 16t-86.5 48.5t-63 89.5t-23.5 132
h113q0 -192 159 -192q158 0 158 192z" />
    <glyph glyph-name="Gdotaccent" unicode="&#x120;" horiz-adv-x="1581" 
d="M1436 498v-498h-115v258h-4q-116 -295 -492 -295q-322 0 -513 193.5t-191 545.5q0 129 27 246t83.5 218.5t137.5 175.5t197 116.5t255 42.5q422 0 604 -399l-127 -51q-19 46 -46.5 89.5t-70 87t-93 76t-119.5 52.5t-146 20q-247 0 -399 -178t-152 -483q0 -161 46.5 -285
t126.5 -197t178.5 -109t212.5 -36q76 0 144.5 17t129.5 55t106 93t72 135.5t29 178.5v2h-469v121h590zM756 1616v227h133v-227h-133z" />
    <glyph glyph-name="gdotaccent" unicode="&#x121;" horiz-adv-x="1146" 
d="M545 365q-118 0 -199 34q-40 -9 -65 -39.5t-25 -70.5q0 -65 61 -102t156 -40l268 -8q179 -4 266 -73.5t87 -192.5q0 -86 -43 -150t-120 -100.5t-171.5 -54t-208.5 -17.5q-103 0 -187.5 14.5t-151 44t-103.5 80t-37 117.5q0 84 57 149.5t170 92.5v4q-170 67 -170 201
q0 66 39 113.5t102 74.5q-127 91 -127 263q0 157 109.5 251.5t294.5 94.5q169 0 278 -82q73 139 213 139q43 0 80 -14v-109q-42 10 -86 10q-105 0 -145 -90q61 -83 61 -196q0 -157 -109.5 -250.5t-293.5 -93.5zM741 20l-313 9q-101 -26 -162 -79t-61 -124q0 -172 366 -172
q392 0 392 199q0 67 -50 115t-172 52zM545 467q130 0 203 62t73 178q0 117 -72 179t-204 62q-130 0 -203.5 -62.5t-73.5 -178.5q0 -117 73 -178.5t204 -61.5zM506 1237v227h133v-227h-133z" />
    <glyph glyph-name="uni0122" unicode="&#x122;" horiz-adv-x="1581" 
d="M1436 498v-498h-115v258h-4q-116 -295 -492 -295q-322 0 -513 193.5t-191 545.5q0 129 27 246t83.5 218.5t137.5 175.5t197 116.5t255 42.5q422 0 604 -399l-127 -51q-19 46 -46.5 89.5t-70 87t-93 76t-119.5 52.5t-146 20q-247 0 -399 -178t-152 -483q0 -161 46.5 -285
t126.5 -197t178.5 -109t212.5 -36q76 0 144.5 17t129.5 55t106 93t72 135.5t29 178.5v2h-469v121h590zM717 -418h-123l201 289h184z" />
    <glyph glyph-name="uni0123" unicode="&#x123;" horiz-adv-x="1146" 
d="M668 1464h123l-201 -288h-184zM545 365q-118 0 -199 34q-40 -9 -65 -39.5t-25 -70.5q0 -65 61 -102t156 -40l268 -8q179 -4 266 -73.5t87 -192.5q0 -86 -43 -150t-120 -100.5t-171.5 -54t-208.5 -17.5q-103 0 -187.5 14.5t-151 44t-103.5 80t-37 117.5q0 84 57 149.5
t170 92.5v4q-170 67 -170 201q0 66 39 113.5t102 74.5q-127 91 -127 263q0 157 109.5 251.5t294.5 94.5q169 0 278 -82q73 139 213 139q43 0 80 -14v-109q-42 10 -86 10q-105 0 -145 -90q61 -83 61 -196q0 -157 -109.5 -250.5t-293.5 -93.5zM741 20l-313 9
q-101 -26 -162 -79t-61 -124q0 -172 366 -172q392 0 392 199q0 67 -50 115t-172 52zM545 467q130 0 203 62t73 178q0 117 -72 179t-204 62q-130 0 -203.5 -62.5t-73.5 -178.5q0 -117 73 -178.5t204 -61.5z" />
    <glyph glyph-name="Hcircumflex" unicode="&#x124;" horiz-adv-x="1613" 
d="M1405 0h-143l2 193v493h-914v-493l2 -193h-143l2 193v1079l-2 192h143l-2 -192v-467h914v467l-2 192h143l-2 -192v-1079zM1100 1606h-109l-184 178l-186 -178h-109l213 258h158z" />
    <glyph glyph-name="hcircumflex" unicode="&#x125;" horiz-adv-x="1216" 
d="M311 1284v-459h4q153 226 387 226q164 0 256.5 -105.5t92.5 -302.5v-465l2 -178h-140l2 178v453q0 303 -231 303q-117 0 -216.5 -73.5t-156.5 -186.5v-496l2 -178h-137l2 178v1106l-2 180h137zM575 1606h-108l-184 178l-187 -178h-108l213 258h157z" />
    <glyph glyph-name="Hbar" unicode="&#x126;" horiz-adv-x="1671" 
d="M41 1090v96h199v86l-2 192h143l-2 -192v-86h911v86l-2 192h146l-2 -192v-86h198v-96h-198v-897l2 -193h-146l2 193v493h-911v-493l2 -193h-143l2 193v897h-199zM379 805h911v285h-911v-285z" />
    <glyph glyph-name="hbar" unicode="&#x127;" horiz-adv-x="1216" 
d="M-12 1217v79h190v168h133v-168h299v-79h-299v-392h4q153 226 387 226q164 0 256.5 -105.5t92.5 -302.5v-465l2 -178h-140l2 178v453q0 303 -231 303q-117 0 -216.5 -73.5t-156.5 -186.5v-496l2 -178h-137l2 178v1039h-190z" />
    <glyph glyph-name="Itilde" unicode="&#x128;" horiz-adv-x="561" 
d="M352 0h-143l2 193v1079l-2 192h143l-2 -192v-1079zM-27 1620q0 135 46 195.5t118 60.5q80 0 162 -82l11.5 -11.5l12 -12t11.5 -11t12 -11t11 -9t12.5 -9t12 -6.5t13.5 -5.5t13 -3t14 -1.5q80 0 80 152h86q0 -136 -47 -195t-123 -59q-80 0 -162 82q-25 26 -38.5 39
t-36.5 26t-44 13q-80 0 -80 -152h-84z" />
    <glyph glyph-name="itilde" unicode="&#x129;" horiz-adv-x="489" 
d="M313 0h-137l2 178v664l-2 180h137l-2 -180v-664zM-63 1198q0 135 45.5 195.5t117.5 60.5q82 0 162 -80q2 -2 16 -16.5t17.5 -17.5t16 -14t18.5 -14.5t16.5 -9.5t19.5 -8t19 -2q80 0 80 154h86q0 -136 -47.5 -196t-122.5 -60q-82 0 -162 84q-25 26 -38.5 39t-36.5 26
t-44 13q-80 0 -80 -154h-83z" />
    <glyph glyph-name="Imacron" unicode="&#x12a;" horiz-adv-x="561" 
d="M352 0h-143l2 193v1079l-2 192h143l-2 -192v-1079zM539 1663h-514v115h514v-115z" />
    <glyph glyph-name="imacron" unicode="&#x12b;" horiz-adv-x="489" 
d="M313 0h-137l2 178v664l-2 180h137l-2 -180v-664zM502 1296h-514v115h514v-115z" />
    <glyph glyph-name="Ibreve" unicode="&#x12c;" horiz-adv-x="561" 
d="M352 0h-143l2 193v1079l-2 192h143l-2 -192v-1079zM434 1864h109q0 -128 -74.5 -192t-185.5 -64q-70 0 -128 25t-97.5 84.5t-39.5 146.5h111q0 -160 154 -160q151 0 151 160z" />
    <glyph glyph-name="ibreve" unicode="&#x12d;" horiz-adv-x="489" 
d="M313 0h-137l2 178v664l-2 180h137l-2 -180v-664zM403 1464h111q0 -75 -22.5 -132t-61.5 -89.5t-85 -48.5t-99 -16q-52 0 -99 16t-87 48.5t-63.5 89.5t-23.5 132h113q0 -192 160 -192q157 0 157 192z" />
    <glyph glyph-name="Iogonek" unicode="&#x12e;" horiz-adv-x="561" 
d="M434 -293l8 -88q-21 -14 -68 -28.5t-108 -14.5q-57 0 -105 14.5t-82 51t-34 90.5q0 33 11.5 66t34 64.5t39.5 52t45 49.5t34 36l2 193v1079l-2 192h143l-2 -192v-1079l2 -193q-66 -47 -120 -112t-54 -124q0 -47 33 -69.5t86 -22.5q64 0 137 35z" />
    <glyph glyph-name="iogonek" unicode="&#x12f;" horiz-adv-x="489" 
d="M393 -293l8 -88q-21 -14 -68 -28.5t-108 -14.5q-57 0 -105 14.5t-82 51t-34 90.5q0 21 6 43t12.5 39.5t22 39.5t24.5 34.5t29 34t27 28.5t28.5 27.5t22.5 21.5l2 178v664l-2 180h137l-2 -180v-664l2 -178q-66 -46 -121 -111.5t-55 -124.5q0 -47 33 -69.5t86 -22.5
q64 0 137 35zM311 1237h-133v227h133v-227z" />
    <glyph glyph-name="Idotaccent" unicode="&#x130;" horiz-adv-x="561" 
d="M211 1616v227h139v-227h-139zM352 0h-143l2 193v1079l-2 192h143l-2 -192v-1079z" />
    <glyph glyph-name="dotlessi" unicode="&#x131;" horiz-adv-x="489" 
d="M313 0h-137l2 178v664l-2 180h137l-2 -180v-664z" />
    <glyph glyph-name="uni0132" unicode="&#x132;" horiz-adv-x="1351" 
d="M352 0h-143l2 193v1079l-2 192h143l-2 -192v-1079zM598 -12v125q83 -17 147 -17q267 0 267 328v850l-2 190h143l-2 -192v-848q0 -104 -23.5 -184.5t-62 -130t-92.5 -81t-110 -43.5t-120 -12q-81 0 -145 15z" />
    <glyph glyph-name="uni0133" unicode="&#x133;" horiz-adv-x="956" 
d="M313 0h-137l2 178v664l-2 180h137l-2 -180v-664zM311 1237h-133v227h133v-227zM641 1022h137l-2 -178v-998q0 -71 -12.5 -123.5t-33 -84.5t-53 -51t-66.5 -26t-79 -7q-32 0 -112 14v108q58 -14 104 -14q68 0 93.5 41.5t25.5 144.5v996zM776 1237h-133v227h133v-227z" />
    <glyph glyph-name="Jcircumflex" unicode="&#x134;" horiz-adv-x="813" 
d="M61 -12v125q83 -17 148 -17q266 0 266 328v850l-2 190h143l-2 -192v-848q0 -104 -23.5 -184.5t-61.5 -130t-92.5 -81t-110 -43.5t-119.5 -12q-81 0 -146 15zM838 1606h-109l-184 178l-187 -178h-108l213 258h158z" />
    <glyph glyph-name="jcircumflex" unicode="&#x135;" horiz-adv-x="489" 
d="M176 1022h137l-2 -178v-998q0 -89 -17.5 -148.5t-52.5 -89.5t-75.5 -42t-97.5 -12q-32 0 -113 14v108q58 -14 104 -14q68 0 93.5 41.5t25.5 144.5v996zM539 1176h-109l-184 208l-187 -208h-108l213 288h158z" />
    <glyph glyph-name="uni0136" unicode="&#x136;" horiz-adv-x="1406" 
d="M209 0l2 193v1079l-2 192h143l-2 -192v-631h4l799 823h172v-4l-524 -526l588 -930v-4h-168l-516 836l-355 -359v-284l2 -193h-143zM625 -418h-123l200 289h185z" />
    <glyph glyph-name="uni0137" unicode="&#x137;" horiz-adv-x="1114" 
d="M1081 0h-151l-383 547l-236 -219v-140l2 -188h-137l2 188v1088l-2 188h137l-2 -188v-809h4l578 555h162v-4l-422 -391l448 -623v-4zM475 -418h-123l201 289h184z" />
    <glyph glyph-name="kgreenlandic" unicode="&#x138;" horiz-adv-x="1114" 
d="M1081 0h-151l-383 547l-236 -219v-140l2 -188h-137l2 188v646l-2 188h137l-2 -188v-367h4l578 555h162v-4l-422 -391l448 -623v-4z" />
    <glyph glyph-name="Lacute" unicode="&#x139;" horiz-adv-x="1218" 
d="M1163 0h-954l2 193v1079l-2 192h143l-2 -192v-1149h813v-123zM270 1606h-125l185 258h184z" />
    <glyph glyph-name="lacute" unicode="&#x13a;" horiz-adv-x="495" 
d="M315 1284v-1106l2 -178h-137l2 178v1106l-2 180h137zM236 1606h-125l184 258h184z" />
    <glyph glyph-name="uni013B" unicode="&#x13b;" horiz-adv-x="1218" 
d="M1163 0h-954l2 193v1079l-2 192h143l-2 -192v-1149h813v-123zM541 -418h-123l200 289h185z" />
    <glyph glyph-name="uni013C" unicode="&#x13c;" horiz-adv-x="495" 
d="M315 1284v-1106l2 -178h-137l2 178v1106l-2 180h137zM168 -418h-123l201 289h184z" />
    <glyph glyph-name="Lcaron" unicode="&#x13d;" horiz-adv-x="1224" 
d="M1163 0h-954l2 193v1079l-2 192h143l-2 -192v-1149h813v-123zM928 1464h139l-51 -426h-88v426z" />
    <glyph glyph-name="lcaron" unicode="&#x13e;" horiz-adv-x="512" 
d="M315 1284v-1106l2 -178h-137l2 178v1106l-2 180h137zM496 1464h139l-51 -426h-88v426z" />
    <glyph glyph-name="Ldot" unicode="&#x13f;" horiz-adv-x="1218" 
d="M821 616v228h140v-228h-140zM1163 0h-954l2 193v1079l-2 192h143l-2 -192v-1149h813v-123z" />
    <glyph glyph-name="ldot" unicode="&#x140;" horiz-adv-x="612" 
d="M487 557v227h134v-227h-134zM315 1284v-1106l2 -178h-137l2 178v1106l-2 180h137z" />
    <glyph glyph-name="Lslash" unicode="&#x141;" horiz-adv-x="1249" 
d="M45 520v111l199 108v533l-2 192h143l-2 -192v-455l422 232v-113l-422 -231v-582h811v-123h-952l2 193v436z" />
    <glyph glyph-name="lslash" unicode="&#x142;" horiz-adv-x="626" 
d="M70 479v113l172 96v596l-2 180h137l-2 -180v-520l178 102v-112l-178 -103v-473l2 -178h-137l2 178v397z" />
    <glyph glyph-name="Nacute" unicode="&#x143;" horiz-adv-x="1576" 
d="M1227 1272l-2 192h143l-2 -192v-1079l2 -193h-129l-889 1225h-4l4 -109v-923l2 -193h-143l2 193v1079l-2 192h129l889 -1218h4l-4 108v918zM776 1606h-125l185 258h184z" />
    <glyph glyph-name="nacute" unicode="&#x144;" horiz-adv-x="1216" 
d="M1053 0h-140l2 178v453q0 303 -231 303q-117 0 -216.5 -73.5t-156.5 -186.5v-496l2 -178h-137l2 178v664l-2 180h133v-199h4q155 228 389 228q164 0 256.5 -105.5t92.5 -302.5v-465zM578 1176h-123l200 288h185z" />
    <glyph glyph-name="uni0145" unicode="&#x145;" horiz-adv-x="1576" 
d="M1227 1272l-2 192h143l-2 -192v-1079l2 -193h-129l-889 1225h-4l4 -109v-923l2 -193h-143l2 193v1079l-2 192h129l889 -1218h4l-4 108v918zM674 -418h-123l201 289h184z" />
    <glyph glyph-name="uni0146" unicode="&#x146;" horiz-adv-x="1216" 
d="M1053 0h-140l2 178v453q0 303 -231 303q-117 0 -216.5 -73.5t-156.5 -186.5v-496l2 -178h-137l2 178v664l-2 180h133v-199h4q155 228 389 228q164 0 256.5 -105.5t92.5 -302.5v-465zM500 -418h-123l201 289h184z" />
    <glyph glyph-name="Ncaron" unicode="&#x147;" horiz-adv-x="1576" 
d="M1227 1272l-2 192h143l-2 -192v-1079l2 -193h-129l-889 1225h-4l4 -109v-923l2 -193h-143l2 193v1079l-2 192h129l889 -1218h4l-4 108v918zM973 1864h108l-217 -258h-157l-213 258h108l186 -178z" />
    <glyph glyph-name="ncaron" unicode="&#x148;" horiz-adv-x="1216" 
d="M1053 0h-140l2 178v453q0 303 -231 303q-117 0 -216.5 -73.5t-156.5 -186.5v-496l2 -178h-137l2 178v664l-2 180h133v-199h4q155 228 389 228q164 0 256.5 -105.5t92.5 -302.5v-465zM793 1464h108l-217 -288h-158l-213 288h109l186 -211z" />
    <glyph glyph-name="napostrophe" unicode="&#x149;" horiz-adv-x="1216" 
d="M164 1366v182h158v-184l-91 -213h-86l80 215h-61zM1053 0h-140l2 178v453q0 303 -231 303q-117 0 -216.5 -73.5t-156.5 -186.5v-496l2 -178h-137l2 178v664l-2 180h133v-199h4q155 228 389 228q164 0 256.5 -105.5t92.5 -302.5v-465z" />
    <glyph glyph-name="uni014A" unicode="&#x14a;" horiz-adv-x="1576" 
d="M1227 1272l-2 192h143l-2 -192v-1166q0 -104 -24 -184.5t-62.5 -129.5t-93 -80.5t-109 -43.5t-116.5 -12q-87 0 -162 16l22 125q67 -18 140 -18q230 0 260 244l-871 1202h-4l4 -88v-944l2 -193h-143l2 193v1079l-2 192h129l889 -1218h4l-4 88v938z" />
    <glyph glyph-name="uni014B" unicode="&#x14b;" horiz-adv-x="1214" 
d="M915 -145v776q0 303 -231 303q-117 0 -216.5 -73.5t-156.5 -186.5v-496l2 -178h-137l2 178v664l-2 180h133v-199h4q155 228 389 228q164 0 256.5 -105.5t92.5 -302.5v-790q0 -88 -18.5 -148.5t-53.5 -92.5t-76.5 -45t-97.5 -13q-33 0 -113 14v117q62 -15 105 -15
q69 0 93.5 41t24.5 144z" />
    <glyph glyph-name="Omacron" unicode="&#x14c;" horiz-adv-x="1662" 
d="M829 -37q-164 0 -299.5 60.5t-224.5 165.5t-137.5 245t-48.5 299t48.5 298.5t137.5 244t224.5 165t299.5 60.5q132 0 247 -39t200 -109.5t146 -166.5t91.5 -211t30.5 -242t-30.5 -242.5t-91.5 -211.5t-146 -167t-200 -110t-247 -39zM829 88q247 0 404.5 175.5
t157.5 469.5q0 293 -157.5 468t-404.5 175q-246 0 -402.5 -175t-156.5 -468q0 -294 156.5 -469.5t402.5 -175.5zM1087 1663h-514v115h514v-115z" />
    <glyph glyph-name="omacron" unicode="&#x14d;" horiz-adv-x="1228" 
d="M614 -29q-113 0 -209 44.5t-160 119t-100 172t-36 203.5q0 107 36 205t100 172.5t160 119t209 44.5t209 -44.5t160.5 -119t100.5 -172.5t36 -205q0 -143 -61 -265t-178 -198t-267 -76zM614 84q158 0 262.5 118.5t104.5 307.5q0 190 -104 309t-263 119t-262.5 -119
t-103.5 -309q0 -189 104 -307.5t262 -118.5zM870 1296h-514v115h514v-115z" />
    <glyph glyph-name="Obreve" unicode="&#x14e;" horiz-adv-x="1662" 
d="M829 -37q-164 0 -299.5 60.5t-224.5 165.5t-137.5 245t-48.5 299t48.5 298.5t137.5 244t224.5 165t299.5 60.5q132 0 247 -39t200 -109.5t146 -166.5t91.5 -211t30.5 -242t-30.5 -242.5t-91.5 -211.5t-146 -167t-200 -110t-247 -39zM829 88q247 0 404.5 175.5
t157.5 469.5q0 293 -157.5 468t-404.5 175q-246 0 -402.5 -175t-156.5 -468q0 -294 156.5 -469.5t402.5 -175.5zM983 1864h109q0 -128 -75 -192t-186 -64q-70 0 -128 25t-97 84.5t-39 146.5h111q0 -160 153 -160q152 0 152 160z" />
    <glyph glyph-name="obreve" unicode="&#x14f;" horiz-adv-x="1228" 
d="M614 -29q-113 0 -209 44.5t-160 119t-100 172t-36 203.5q0 107 36 205t100 172.5t160 119t209 44.5t209 -44.5t160.5 -119t100.5 -172.5t36 -205q0 -143 -61 -265t-178 -198t-267 -76zM614 84q158 0 262.5 118.5t104.5 307.5q0 190 -104 309t-263 119t-262.5 -119
t-103.5 -309q0 -189 104 -307.5t262 -118.5zM772 1464h111q0 -75 -22.5 -132t-61.5 -89.5t-85.5 -48.5t-99.5 -16q-52 0 -99 16t-86.5 48.5t-63 89.5t-23.5 132h113q0 -192 159 -192q158 0 158 192z" />
    <glyph glyph-name="Ohungarumlaut" unicode="&#x150;" horiz-adv-x="1662" 
d="M829 -37q-164 0 -299.5 60.5t-224.5 165.5t-137.5 245t-48.5 299t48.5 298.5t137.5 244t224.5 165t299.5 60.5q132 0 247 -39t200 -109.5t146 -166.5t91.5 -211t30.5 -242t-30.5 -242.5t-91.5 -211.5t-146 -167t-200 -110t-247 -39zM829 88q247 0 404.5 175.5
t157.5 469.5q0 293 -157.5 468t-404.5 175q-246 0 -402.5 -175t-156.5 -468q0 -294 156.5 -469.5t402.5 -175.5zM741 1606h-125l84 258h158zM1049 1606h-125l123 258h153z" />
    <glyph glyph-name="ohungarumlaut" unicode="&#x151;" horiz-adv-x="1228" 
d="M614 -29q-113 0 -209 44.5t-160 119t-100 172t-36 203.5q0 107 36 205t100 172.5t160 119t209 44.5t209 -44.5t160.5 -119t100.5 -172.5t36 -205q0 -143 -61 -265t-178 -198t-267 -76zM614 84q158 0 262.5 118.5t104.5 307.5q0 190 -104 309t-263 119t-262.5 -119
t-103.5 -309q0 -189 104 -307.5t262 -118.5zM508 1176h-127l117 288h157zM813 1176h-125l156 288h155z" />
    <glyph glyph-name="OE" unicode="&#x152;" horiz-adv-x="2476" 
d="M1354 0v309h-6q-78 -162 -219.5 -251t-323.5 -89q-153 0 -283 60t-217.5 163t-136.5 242t-49 297q0 126 31 242t90.5 211t142 165.5t191 109t231.5 38.5q182 0 323.5 -89.5t219.5 -252.5h6v309h1026v-123h-891v-536h721v-119h-721v-563h891v-123h-1026zM819 92
q112 0 209.5 44.5t170 125.5t114 203t41.5 268t-41.5 267t-114 202t-170 125.5t-209.5 44.5q-153 0 -277 -76t-198 -223t-74 -340q0 -146 43 -268t117 -203t174.5 -125.5t214.5 -44.5z" />
    <glyph glyph-name="oe" unicode="&#x153;" horiz-adv-x="2060" 
d="M616 -29q-113 0 -209 44.5t-160.5 119t-101 172t-36.5 203.5q0 107 36.5 205t101 172.5t160.5 119t209 44.5q144 0 257 -70t178 -190h4q62 123 173.5 191.5t252.5 68.5q102 0 184 -31.5t136 -84.5t89 -125t48.5 -150t9.5 -162h-826v-9q0 -186 104.5 -295.5t276.5 -109.5
q63 0 124.5 18.5t106 46t74 51.5t45.5 44l80 -78q-17 -22 -48.5 -49.5t-86 -63t-135.5 -59t-170 -23.5q-153 0 -267 62.5t-175 185.5h-4q-65 -113 -178 -180.5t-253 -67.5zM616 84q159 0 265 119t106 307q0 189 -106 308.5t-265 119.5q-160 0 -264 -119t-104 -309
q0 -189 104 -307.5t264 -118.5zM1485 940q-141 0 -236 -85.5t-119 -252.5h674q0 142 -85 240t-234 98z" />
    <glyph glyph-name="Racute" unicode="&#x154;" horiz-adv-x="1447" 
d="M1339 0h-180l-375 610h-432v-417l2 -193h-145l2 193v1079l-2 192h563q549 0 549 -424q0 -81 -23 -147.5t-60.5 -111t-89.5 -78t-104.5 -51.5t-111.5 -29l407 -619v-4zM352 1341v-610h391q424 0 424 307q0 61 -15.5 109t-38.5 79.5t-61 54t-72 34t-84 17.5t-84.5 7.5
t-84.5 1.5h-375zM721 1606h-125l184 258h185z" />
    <glyph glyph-name="racute" unicode="&#x155;" horiz-adv-x="782" 
d="M311 438v-260l2 -178h-137l2 178v664l-2 180h133v-344h4q61 189 167 281t225 92q24 0 40 -4v-125q-14 2 -40 2q-98 0 -187 -76.5t-142 -187t-65 -222.5zM373 1176h-123l201 288h184z" />
    <glyph glyph-name="uni0156" unicode="&#x156;" horiz-adv-x="1447" 
d="M1339 0h-180l-375 610h-432v-417l2 -193h-145l2 193v1079l-2 192h563q549 0 549 -424q0 -81 -23 -147.5t-60.5 -111t-89.5 -78t-104.5 -51.5t-111.5 -29l407 -619v-4zM352 1341v-610h391q424 0 424 307q0 61 -15.5 109t-38.5 79.5t-61 54t-72 34t-84 17.5t-84.5 7.5
t-84.5 1.5h-375zM625 -418h-123l200 289h185z" />
    <glyph glyph-name="uni0157" unicode="&#x157;" horiz-adv-x="782" 
d="M311 438v-260l2 -178h-137l2 178v664l-2 180h133v-344h4q61 189 167 281t225 92q24 0 40 -4v-125q-14 2 -40 2q-98 0 -187 -76.5t-142 -187t-65 -222.5zM180 -418h-123l201 289h184z" />
    <glyph glyph-name="Rcaron" unicode="&#x158;" horiz-adv-x="1447" 
d="M1339 0h-180l-375 610h-432v-417l2 -193h-145l2 193v1079l-2 192h563q549 0 549 -424q0 -81 -23 -147.5t-60.5 -111t-89.5 -78t-104.5 -51.5t-111.5 -29l407 -619v-4zM352 1341v-610h391q424 0 424 307q0 61 -15.5 109t-38.5 79.5t-61 54t-72 34t-84 17.5t-84.5 7.5
t-84.5 1.5h-375zM918 1864h108l-217 -258h-158l-213 258h109l186 -178z" />
    <glyph glyph-name="rcaron" unicode="&#x159;" horiz-adv-x="782" 
d="M311 438v-260l2 -178h-137l2 178v664l-2 180h133v-344h4q61 189 167 281t225 92q24 0 40 -4v-125q-14 2 -40 2q-98 0 -187 -76.5t-142 -187t-65 -222.5zM588 1464h108l-217 -288h-157l-213 288h108l186 -211z" />
    <glyph glyph-name="Sacute" unicode="&#x15a;" horiz-adv-x="1423" 
d="M1274 1233l-96 -90q-32 39 -73 75t-102 75.5t-143 63t-172 23.5q-107 0 -196.5 -30.5t-148 -97.5t-58.5 -160q0 -42 13.5 -76t32.5 -58t56.5 -44.5t68 -33t85 -24.5t90 -18.5t100.5 -16.5q72 -11 113.5 -18.5t112 -24.5t112.5 -35.5t94.5 -51t81.5 -71.5t49.5 -95.5
t20.5 -125.5q0 -198 -150 -317t-417 -119q-127 0 -241.5 29t-195 75.5t-133.5 91t-88 89.5l94 88q33 -34 60.5 -60t82.5 -65t110.5 -64t136 -44t167.5 -19q89 0 165.5 18.5t137 54.5t95.5 95t35 135q0 47 -14.5 86t-36.5 66t-58.5 49t-71.5 35.5t-85 25.5t-88.5 18.5
t-90.5 14.5q-3 0 -5 0.5t-4.5 1t-4.5 0.5q-70 11 -117 19.5t-112.5 25t-109 35.5t-91.5 49.5t-76.5 67t-47 88.5t-18.5 114q0 186 145.5 302t389.5 116q112 0 213.5 -26.5t175 -69.5t124 -85.5t83.5 -86.5zM692 1606h-125l185 258h184z" />
    <glyph glyph-name="sacute" unicode="&#x15b;" horiz-adv-x="1064" 
d="M92 162l80 80q35 -31 47.5 -42t55.5 -41t76.5 -43.5t88.5 -26.5t113 -13q122 0 204.5 51t82.5 147q0 40 -16.5 70t-42.5 48t-64.5 31t-77 20.5t-84.5 15.5q-6 1 -9.5 1.5t-8.5 1t-9 1.5q-49 8 -81 14t-78.5 18t-77 25t-65 35t-54.5 48.5t-33.5 64t-13.5 82.5
q0 131 101.5 217t281.5 86q100 0 192 -32t144 -69.5t86 -77.5l-80 -81q-147 153 -334 153q-110 0 -187 -49t-77 -135q0 -24 5.5 -43.5t20 -35t27.5 -27t39.5 -21.5t43.5 -16t52.5 -13t52.5 -10t58 -10q49 -7 80 -12t79.5 -17t80 -25t68 -36t58 -51.5t36 -69.5t14.5 -90
q0 -140 -106 -228t-304 -88q-89 0 -168.5 19t-136 50t-95 61t-65.5 63zM500 1176h-123l201 288h184z" />
    <glyph glyph-name="Scircumflex" unicode="&#x15c;" horiz-adv-x="1423" 
d="M1274 1233l-96 -90q-32 39 -73 75t-102 75.5t-143 63t-172 23.5q-107 0 -196.5 -30.5t-148 -97.5t-58.5 -160q0 -42 13.5 -76t32.5 -58t56.5 -44.5t68 -33t85 -24.5t90 -18.5t100.5 -16.5q72 -11 113.5 -18.5t112 -24.5t112.5 -35.5t94.5 -51t81.5 -71.5t49.5 -95.5
t20.5 -125.5q0 -198 -150 -317t-417 -119q-127 0 -241.5 29t-195 75.5t-133.5 91t-88 89.5l94 88q33 -34 60.5 -60t82.5 -65t110.5 -64t136 -44t167.5 -19q89 0 165.5 18.5t137 54.5t95.5 95t35 135q0 47 -14.5 86t-36.5 66t-58.5 49t-71.5 35.5t-85 25.5t-88.5 18.5
t-90.5 14.5q-3 0 -5 0.5t-4.5 1t-4.5 0.5q-70 11 -117 19.5t-112.5 25t-109 35.5t-91.5 49.5t-76.5 67t-47 88.5t-18.5 114q0 186 145.5 302t389.5 116q112 0 213.5 -26.5t175 -69.5t124 -85.5t83.5 -86.5zM997 1606h-108l-184 178l-187 -178h-108l213 258h157z" />
    <glyph glyph-name="scircumflex" unicode="&#x15d;" horiz-adv-x="1064" 
d="M92 162l80 80q35 -31 47.5 -42t55.5 -41t76.5 -43.5t88.5 -26.5t113 -13q122 0 204.5 51t82.5 147q0 40 -16.5 70t-42.5 48t-64.5 31t-77 20.5t-84.5 15.5q-6 1 -9.5 1.5t-8.5 1t-9 1.5q-49 8 -81 14t-78.5 18t-77 25t-65 35t-54.5 48.5t-33.5 64t-13.5 82.5
q0 131 101.5 217t281.5 86q100 0 192 -32t144 -69.5t86 -77.5l-80 -81q-147 153 -334 153q-110 0 -187 -49t-77 -135q0 -24 5.5 -43.5t20 -35t27.5 -27t39.5 -21.5t43.5 -16t52.5 -13t52.5 -10t58 -10q49 -7 80 -12t79.5 -17t80 -25t68 -36t58 -51.5t36 -69.5t14.5 -90
q0 -140 -106 -228t-304 -88q-89 0 -168.5 19t-136 50t-95 61t-65.5 63zM823 1176h-108l-185 208l-186 -208h-108l213 288h157z" />
    <glyph glyph-name="uni015E" unicode="&#x15e;" horiz-adv-x="1423" 
d="M1274 1233l-96 -90q-32 39 -73 75t-102 75.5t-143 63t-172 23.5q-107 0 -196.5 -30.5t-148 -97.5t-58.5 -160q0 -42 13.5 -76t32.5 -58t56.5 -44.5t68 -33t85 -24.5t90 -18.5t100.5 -16.5q72 -11 113.5 -18.5t112 -24.5t112.5 -35.5t94.5 -51t81.5 -71.5t49.5 -95.5
t20.5 -125.5q0 -198 -150 -317t-417 -119h-5l-14 -76q94 -5 153.5 -43.5t59.5 -113.5q0 -74 -68.5 -118t-203.5 -44q-114 0 -209 31l8 88q111 -33 197 -33q149 0 149 84q0 82 -170 82h-37l27 149q-104 12 -197.5 43.5t-160 74t-112.5 82.5t-75 79l94 88q33 -34 60.5 -60
t82.5 -65t110.5 -64t136 -44t167.5 -19q89 0 165.5 18.5t137 54.5t95.5 95t35 135q0 47 -14.5 86t-36.5 66t-58.5 49t-71.5 35.5t-85 25.5t-88.5 18.5t-90.5 14.5q-3 0 -5 0.5t-4.5 1t-4.5 0.5q-70 11 -117 19.5t-112.5 25t-109 35.5t-91.5 49.5t-76.5 67t-47 88.5
t-18.5 114q0 186 145.5 302t389.5 116q112 0 213.5 -26.5t175 -69.5t124 -85.5t83.5 -86.5z" />
    <glyph glyph-name="uni015F" unicode="&#x15f;" horiz-adv-x="1064" 
d="M92 162l80 80q35 -31 47.5 -42t55.5 -41t76.5 -43.5t88.5 -26.5t113 -13q122 0 204.5 51t82.5 147q0 40 -16.5 70t-42.5 48t-64.5 31t-77 20.5t-84.5 15.5q-6 1 -9.5 1.5t-8.5 1t-9 1.5q-49 8 -81 14t-78.5 18t-77 25t-65 35t-54.5 48.5t-33.5 64t-13.5 82.5
q0 131 101.5 217t281.5 86q100 0 192 -32t144 -69.5t86 -77.5l-80 -81q-147 153 -334 153q-110 0 -187 -49t-77 -135q0 -24 5.5 -43.5t20 -35t27.5 -27t39.5 -21.5t43.5 -16t52.5 -13t52.5 -10t58 -10q49 -7 80 -12t79.5 -17t80 -25t68 -36t58 -51.5t36 -69.5t14.5 -90
q0 -137 -102 -224.5t-294 -91.5l-16 -82q94 -5 153.5 -43.5t59.5 -113.5q0 -74 -68.5 -118t-203.5 -44q-114 0 -209 31l8 88q111 -33 197 -33q149 0 149 84q0 82 -170 82h-37l27 155q-131 17 -224 70.5t-145 116.5z" />
    <glyph glyph-name="Scaron" unicode="&#x160;" horiz-adv-x="1423" 
d="M1274 1233l-96 -90q-32 39 -73 75t-102 75.5t-143 63t-172 23.5q-107 0 -196.5 -30.5t-148 -97.5t-58.5 -160q0 -42 13.5 -76t32.5 -58t56.5 -44.5t68 -33t85 -24.5t90 -18.5t100.5 -16.5q72 -11 113.5 -18.5t112 -24.5t112.5 -35.5t94.5 -51t81.5 -71.5t49.5 -95.5
t20.5 -125.5q0 -198 -150 -317t-417 -119q-127 0 -241.5 29t-195 75.5t-133.5 91t-88 89.5l94 88q33 -34 60.5 -60t82.5 -65t110.5 -64t136 -44t167.5 -19q89 0 165.5 18.5t137 54.5t95.5 95t35 135q0 47 -14.5 86t-36.5 66t-58.5 49t-71.5 35.5t-85 25.5t-88.5 18.5
t-90.5 14.5q-3 0 -5 0.5t-4.5 1t-4.5 0.5q-70 11 -117 19.5t-112.5 25t-109 35.5t-91.5 49.5t-76.5 67t-47 88.5t-18.5 114q0 186 145.5 302t389.5 116q112 0 213.5 -26.5t175 -69.5t124 -85.5t83.5 -86.5zM889 1864h108l-217 -258h-157l-213 258h108l187 -178z" />
    <glyph glyph-name="scaron" unicode="&#x161;" horiz-adv-x="1064" 
d="M92 162l80 80q35 -31 47.5 -42t55.5 -41t76.5 -43.5t88.5 -26.5t113 -13q122 0 204.5 51t82.5 147q0 40 -16.5 70t-42.5 48t-64.5 31t-77 20.5t-84.5 15.5q-6 1 -9.5 1.5t-8.5 1t-9 1.5q-49 8 -81 14t-78.5 18t-77 25t-65 35t-54.5 48.5t-33.5 64t-13.5 82.5
q0 131 101.5 217t281.5 86q100 0 192 -32t144 -69.5t86 -77.5l-80 -81q-147 153 -334 153q-110 0 -187 -49t-77 -135q0 -24 5.5 -43.5t20 -35t27.5 -27t39.5 -21.5t43.5 -16t52.5 -13t52.5 -10t58 -10q49 -7 80 -12t79.5 -17t80 -25t68 -36t58 -51.5t36 -69.5t14.5 -90
q0 -140 -106 -228t-304 -88q-89 0 -168.5 19t-136 50t-95 61t-65.5 63zM715 1464h108l-217 -288h-157l-213 288h108l186 -211z" />
    <glyph glyph-name="uni0162" unicode="&#x162;" horiz-adv-x="1226" 
d="M1167 1341h-485v-1148l2 -193l-37 -113q94 -5 153.5 -43.5t59.5 -113.5q0 -74 -68.5 -118t-203.5 -44q-114 0 -209 31l8 88q111 -33 197 -33q149 0 149 84q0 82 -170 82h-33l54 180h-43l2 193v1148h-484v123h1108v-123z" />
    <glyph glyph-name="uni0163" unicode="&#x163;" horiz-adv-x="751" 
d="M668 1022v-107h-285v-690q0 -77 28 -110t95 -33q76 0 168 35v-111q-98 -35 -189 -35q-30 0 -55 4l-16 -88q94 -5 153.5 -43.5t59.5 -113.5q0 -74 -69 -118t-204 -44q-114 0 -209 31l9 88q111 -33 196 -33q150 0 150 84q0 82 -170 82h-37l35 190q-80 57 -80 205v700h-193
v107h195l20 291h113v-291h285z" />
    <glyph glyph-name="Tcaron" unicode="&#x164;" horiz-adv-x="1226" 
d="M1167 1341h-485v-1148l2 -193h-143l2 193v1148h-484v123h1108v-123zM799 1864h108l-217 -258h-158l-213 258h109l186 -178z" />
    <glyph glyph-name="tcaron" unicode="&#x165;" horiz-adv-x="751" 
d="M668 1022v-107h-285v-690q0 -77 28 -110t95 -33q76 0 168 35v-111q-98 -35 -189 -35q-53 0 -93 10.5t-74 36.5t-52 75.5t-18 121.5v700h-193v107h195l20 291h113v-291h285zM551 1614h139l-51 -426h-88v426z" />
    <glyph glyph-name="Tbar" unicode="&#x166;" horiz-adv-x="1236" 
d="M291 690v96h258v555h-486v123h1111v-123h-486v-555h258v-96h-258v-497l2 -193h-143l2 193v497h-258z" />
    <glyph glyph-name="tbar" unicode="&#x167;" horiz-adv-x="776" 
d="M74 473v80h192v362h-192v107h194l19 291h112v-291h285v-107h-285v-362h285v-80h-285v-248q0 -77 29 -110t96 -33q74 0 166 35v-111q-98 -35 -186 -35q-113 0 -175.5 53t-62.5 191v258h-192z" />
    <glyph glyph-name="Utilde" unicode="&#x168;" horiz-adv-x="1538" 
d="M340 1464l-2 -194v-733q0 -236 111 -340q109 -109 319 -109q213 0 324 111q106 106 106 313v758l-2 194h147l-2 -194v-740q0 -280 -141 -421q-143 -146 -432 -146q-286 0 -430 141q-81 80 -112 192t-31 259v715l-2 194h147zM461 1620q0 135 46 195.5t118 60.5
q79 0 161 -82l11.5 -11.5l12 -12t11.5 -11t12 -11t11 -9t12.5 -9t12 -6.5t13.5 -5.5t13 -3t14 -1.5q80 0 80 152h86q0 -136 -47 -195t-123 -59q-80 0 -162 82q-25 27 -38 39.5t-36 25.5t-44 13q-80 0 -80 -152h-84z" />
    <glyph glyph-name="utilde" unicode="&#x169;" horiz-adv-x="1216" 
d="M164 1022h137l-2 -178v-453q0 -303 231 -303q117 0 216.5 73.5t156.5 186.5v496l-2 178h139l-2 -178v-664l2 -180h-133v201h-4q-153 -230 -389 -230q-163 0 -255.5 105.5t-92.5 302.5v465zM297 1198q0 135 46 195.5t118 60.5q82 0 162 -80l16.5 -16.5l17 -17t15.5 -14.5
t18 -14.5t17 -10t19 -7.5t19 -2q80 0 80 154h86q0 -136 -47.5 -196t-122.5 -60q-81 0 -161 84q-25 26 -38.5 39t-36.5 26t-44 13q-80 0 -80 -154h-84z" />
    <glyph glyph-name="Umacron" unicode="&#x16a;" horiz-adv-x="1538" 
d="M340 1464l-2 -194v-733q0 -236 111 -340q109 -109 319 -109q213 0 324 111q106 106 106 313v758l-2 194h147l-2 -194v-740q0 -280 -141 -421q-143 -146 -432 -146q-286 0 -430 141q-81 80 -112 192t-31 259v715l-2 194h147zM1026 1663h-514v115h514v-115z" />
    <glyph glyph-name="umacron" unicode="&#x16b;" horiz-adv-x="1216" 
d="M164 1022h137l-2 -178v-453q0 -303 231 -303q117 0 216.5 73.5t156.5 186.5v496l-2 178h139l-2 -178v-664l2 -180h-133v201h-4q-153 -230 -389 -230q-163 0 -255.5 105.5t-92.5 302.5v465zM862 1296h-514v115h514v-115z" />
    <glyph glyph-name="Ubreve" unicode="&#x16c;" horiz-adv-x="1538" 
d="M340 1464l-2 -194v-733q0 -236 111 -340q109 -109 319 -109q213 0 324 111q106 106 106 313v758l-2 194h147l-2 -194v-740q0 -280 -141 -421q-143 -146 -432 -146q-286 0 -430 141q-81 80 -112 192t-31 259v715l-2 194h147zM922 1864h108q0 -128 -74.5 -192t-185.5 -64
q-70 0 -128 25t-97 84.5t-39 146.5h110q0 -160 154 -160q152 0 152 160z" />
    <glyph glyph-name="ubreve" unicode="&#x16d;" horiz-adv-x="1216" 
d="M164 1022h137l-2 -178v-453q0 -303 231 -303q117 0 216.5 73.5t156.5 186.5v496l-2 178h139l-2 -178v-664l2 -180h-133v201h-4q-153 -230 -389 -230q-163 0 -255.5 105.5t-92.5 302.5v465zM764 1464h110q0 -75 -22.5 -132t-61.5 -89.5t-85 -48.5t-99 -16q-52 0 -99 16
t-86.5 48.5t-63 89.5t-23.5 132h112q0 -192 160 -192q158 0 158 192z" />
    <glyph glyph-name="Uring" unicode="&#x16e;" horiz-adv-x="1538" 
d="M340 1464l-2 -194v-733q0 -236 111 -340q109 -109 319 -109q213 0 324 111q106 106 106 313v758l-2 194h147l-2 -194v-740q0 -280 -141 -421q-143 -146 -432 -146q-286 0 -430 141q-81 80 -112 192t-31 259v715l-2 194h147zM999 1751q0 -78 -60 -134t-169 -56
q-112 0 -172.5 56t-60.5 134q0 80 61 138.5t172 58.5q109 0 169 -58.5t60 -138.5zM918 1751q0 48 -41.5 86.5t-106.5 38.5q-71 0 -111.5 -37.5t-40.5 -87.5q0 -48 40.5 -83.5t111.5 -35.5q65 0 106.5 36t41.5 83z" />
    <glyph glyph-name="uring" unicode="&#x16f;" horiz-adv-x="1216" 
d="M164 1022h137l-2 -178v-453q0 -303 231 -303q117 0 216.5 73.5t156.5 186.5v496l-2 178h139l-2 -178v-664l2 -180h-133v201h-4q-153 -230 -389 -230q-163 0 -255.5 105.5t-92.5 302.5v465zM836 1366q0 -76 -60.5 -132t-169.5 -56q-112 0 -172.5 55.5t-60.5 132.5
q0 81 60.5 139t172.5 58q109 0 169.5 -58t60.5 -139zM754 1366q0 50 -41.5 87.5t-106.5 37.5q-71 0 -111 -37t-40 -88q0 -48 40 -82.5t111 -34.5q65 0 106.5 35.5t41.5 81.5z" />
    <glyph glyph-name="Uhungarumlaut" unicode="&#x170;" horiz-adv-x="1538" 
d="M340 1464l-2 -194v-733q0 -236 111 -340q109 -109 319 -109q213 0 324 111q106 106 106 313v758l-2 194h147l-2 -194v-740q0 -280 -141 -421q-143 -146 -432 -146q-286 0 -430 141q-81 80 -112 192t-31 259v715l-2 194h147zM680 1606h-125l84 258h158zM987 1606h-125
l123 258h154z" />
    <glyph glyph-name="uhungarumlaut" unicode="&#x171;" horiz-adv-x="1216" 
d="M164 1022h137l-2 -178v-453q0 -303 231 -303q117 0 216.5 73.5t156.5 186.5v496l-2 178h139l-2 -178v-664l2 -180h-133v201h-4q-153 -230 -389 -230q-163 0 -255.5 105.5t-92.5 302.5v465zM500 1176h-127l116 288h158zM805 1176h-125l156 288h155z" />
    <glyph glyph-name="Uogonek" unicode="&#x172;" horiz-adv-x="1538" 
d="M971 -293l8 -88q-21 -14 -68 -28.5t-108 -14.5q-57 0 -105 14.5t-82 51t-34 90.5q0 110 139 227v4q-253 14 -383 141q-81 80 -112 192t-31 259v715l-2 194h147l-2 -194v-733q0 -236 111 -340q109 -109 319 -109q213 0 324 111q106 106 106 313v758l-2 194h147l-2 -194
v-740q0 -280 -141 -421q-125 -125 -354 -142q-131 -114 -131 -203q0 -47 33 -69.5t86 -22.5q64 0 137 35z" />
    <glyph glyph-name="uogonek" unicode="&#x173;" horiz-adv-x="1216" 
d="M1118 -293l8 -88q-21 -14 -68 -28.5t-108 -14.5q-57 0 -105 14.5t-82 51t-34 90.5q0 40 17 80.5t51 79t54.5 58t55.5 50.5v201h-4q-153 -230 -389 -230q-163 0 -255.5 105.5t-92.5 302.5v465l-2 178h137l-2 -178v-453q0 -303 231 -303q117 0 216.5 73.5t156.5 186.5v496
l-2 178h139l-2 -178v-664l2 -180q-67 -46 -122.5 -111.5t-55.5 -124.5q0 -47 33 -69.5t86 -22.5q64 0 137 35z" />
    <glyph glyph-name="Wcircumflex" unicode="&#x174;" horiz-adv-x="1990" 
d="M494 0l-428 1464h163l338 -1261h4l359 1261h141l356 -1261h5l333 1261h160l-430 -1464h-135l-361 1262h-4l-366 -1262h-135zM1288 1606h-108l-185 178l-186 -178h-109l213 258h158z" />
    <glyph glyph-name="wcircumflex" unicode="&#x175;" horiz-adv-x="1536" 
d="M395 0l-321 1022h141l238 -856h4l258 856h112l258 -856h5l235 856h137l-323 -1022h-115l-254 836h-4l-258 -836h-113zM1059 1176h-109l-184 208l-186 -208h-109l213 288h158z" />
    <glyph glyph-name="Ycircumflex" unicode="&#x176;" horiz-adv-x="1347" 
d="M602 0l2 193v413l-575 854v4h174l477 -737l479 737h160v-4l-576 -854v-413l2 -193h-143zM967 1606h-109l-184 178l-187 -178h-108l213 258h158z" />
    <glyph glyph-name="ycircumflex" unicode="&#x177;" horiz-adv-x="1054" 
d="M57 1022h148l340 -891h4l309 891h139l-440 -1188q-58 -154 -154 -217t-227 -63q-59 0 -117 14v108q63 -14 111 -14q107 0 173 56t116 184l33 80zM821 1176h-108l-185 208l-186 -208h-109l213 288h158z" />
    <glyph glyph-name="Ydieresis" unicode="&#x178;" horiz-adv-x="1347" 
d="M602 0l2 193v413l-575 854v4h174l477 -737l479 737h160v-4l-576 -854v-413l2 -193h-143zM788 1616v227h136v-227h-136zM422 1616v227h133v-227h-133z" />
    <glyph glyph-name="Zacute" unicode="&#x179;" horiz-adv-x="1255" 
d="M129 1343v121h1028v-121l-919 -1216v-4h919v-123h-1083v123l923 1216v4h-868zM616 1606h-124l184 258h184z" />
    <glyph glyph-name="zacute" unicode="&#x17a;" horiz-adv-x="1013" 
d="M127 907v115h784v-98l-665 -807v-4h665v-113h-829v96l663 807v4h-618zM477 1176h-123l201 288h184z" />
    <glyph glyph-name="Zdotaccent" unicode="&#x17b;" horiz-adv-x="1255" 
d="M129 1343v121h1028v-121l-919 -1216v-4h919v-123h-1083v123l923 1216v4h-868zM561 1616v227h133v-227h-133z" />
    <glyph glyph-name="zdotaccent" unicode="&#x17c;" horiz-adv-x="1013" 
d="M127 907v115h784v-98l-665 -807v-4h665v-113h-829v96l663 807v4h-618zM440 1237v227h133v-227h-133z" />
    <glyph glyph-name="Zcaron" unicode="&#x17d;" horiz-adv-x="1255" 
d="M129 1343v121h1028v-121l-919 -1216v-4h919v-123h-1083v123l923 1216v4h-868zM813 1864h109l-217 -258h-158l-213 258h108l187 -178z" />
    <glyph glyph-name="zcaron" unicode="&#x17e;" horiz-adv-x="1013" 
d="M127 907v115h784v-98l-665 -807v-4h665v-113h-829v96l663 807v4h-618zM692 1464h109l-217 -288h-158l-213 288h109l186 -211z" />
    <glyph glyph-name="uni018F" unicode="&#x18f;" horiz-adv-x="1611" 
d="M258 1047l-127 51q43 84 103.5 153.5t140.5 126t184.5 88t222.5 31.5q175 0 313 -62.5t223.5 -170t130 -244.5t44.5 -293q0 -164 -53 -305.5t-145.5 -240.5t-223 -155.5t-280.5 -56.5q-185 0 -337.5 81.5t-242.5 232t-90 340.5q0 57 4 86h1212q0 3 1 9.5t1 10.5
q0 150 -42.5 272t-117.5 203t-177 124.5t-220 43.5q-97 0 -185.5 -29t-153.5 -77.5t-111.5 -104t-73.5 -114.5zM791 92q90 0 175.5 30.5t160 90t128.5 156.5t74 219h-1040q-3 -111 39 -206t113 -157.5t162 -97.5t188 -35z" />
    <glyph glyph-name="uni0192" unicode="&#x192;" horiz-adv-x="790" 
d="M438 1100v-352h285v-109h-285v-668q0 -86 -22 -147t-62 -93.5t-88 -46.5t-110 -14q-45 0 -133 13v114q87 -12 127 -12q86 0 122.5 43t36.5 143v668h-241v109h241v348q0 88 21.5 149t62 93.5t88 46.5t109.5 14q74 0 133 -13v-116q-68 14 -127 14q-87 0 -122.5 -42
t-35.5 -142z" />
    <glyph glyph-name="uni01FA" unicode="&#x1fa;" horiz-adv-x="1363" 
d="M913 1567q0 -54 -29 -99t-85 -71l514 -1397h-152l-157 440h-656l-158 -440h-137l514 1397q-58 25 -87 70t-29 100q0 80 60.5 138t172.5 58q109 0 169 -58t60 -138zM676 1352l-285 -791h570l-281 791h-4zM672 1829h-125l184 258h184zM831 1567q0 49 -41.5 87t-105.5 38
q-71 0 -111.5 -37.5t-40.5 -87.5q0 -48 40.5 -83.5t111.5 -35.5q65 0 106 36t41 83z" />
    <glyph glyph-name="uni01FB" unicode="&#x1fb;" horiz-adv-x="1128" 
d="M795 1167q0 -87 -72 -141q235 -77 235 -348v-408q0 -47 2.5 -92t4.5 -70t6.5 -61.5t5.5 -46.5h-129q-12 103 -19 223h-4q-41 -97 -151 -173.5t-250 -76.5q-61 0 -115.5 15t-103 46t-77 87t-28.5 131q0 373 729 373v55q0 264 -280 264q-112 0 -185 -41t-141 -125l-86 68
q100 142 260 184q-65 53 -65 137q0 81 60.5 139t172.5 58q109 0 169.5 -58t60.5 -139zM444 78q65 0 130.5 26t123.5 76t94.5 134t36.5 188v28q-589 -5 -589 -274q0 -86 55.5 -132t148.5 -46zM553 1425h-125l184 258h185zM713 1167q0 50 -41.5 87.5t-106.5 37.5
q-71 0 -111 -37t-40 -88q0 -48 40 -82t111 -34q65 0 106.5 35t41.5 81z" />
    <glyph glyph-name="uni01FC" unicode="&#x1fc;" horiz-adv-x="2172" 
d="M420 440l-268 -440h-156l913 1464h1166v-123h-889v-536h719v-119h-719v-563h889v-123h-1031l3 193v247h-627zM969 1341l-475 -780h553v780h-78zM1253 1606h-125l185 258h184z" />
    <glyph glyph-name="uni01FD" unicode="&#x1fd;" horiz-adv-x="1904" 
d="M1698 244l80 -78q-15 -18 -34 -36.5t-61.5 -49t-89.5 -53t-117 -39.5t-145 -17q-155 0 -270 64t-176 190h-4q-71 -117 -188.5 -185.5t-262.5 -68.5q-65 0 -121.5 15t-104.5 46t-76 86.5t-28 129.5q0 62 22 114t59.5 87.5t88 64t108 44.5t119 28t121 14.5t114 5t97.5 -1.5
l2 76q0 135 -74 199.5t-208 64.5q-112 0 -185 -41t-141 -125l-86 68q143 205 420 205q127 0 225.5 -48.5t145.5 -150.5h4q66 97 168.5 148t230.5 51q96 0 175.5 -30.5t133.5 -83t90.5 -123.5t51 -150.5t10.5 -165.5h-827q3 -197 104.5 -305.5t269.5 -108.5q68 0 131.5 18.5
t109 47.5t72.5 51t46 43zM444 78q117 0 229.5 73t172.5 187q-17 67 -17 158v14q-60 0 -110 -2.5t-113 -9t-112 -17t-98.5 -30t-82 -45.5t-53 -64t-20.5 -86q0 -85 56 -131.5t148 -46.5zM1327 940q-140 0 -236.5 -89t-119.5 -249h676q0 143 -85 240.5t-235 97.5zM922 1176
h-123l200 288h185z" />
    <glyph glyph-name="uni01FE" unicode="&#x1fe;" horiz-adv-x="1662" 
d="M319 -76l-88 47l121 170q-113 105 -173 258.5t-60 333.5q0 159 48.5 298.5t137.5 244t224.5 165t299.5 60.5q230 0 402 -117l112 156l89 -47l-121 -172q113 -105 173 -257.5t60 -330.5q0 -127 -30.5 -242.5t-91.5 -211.5t-146 -167t-200 -110t-247 -39q-232 0 -401 115z
M270 733q0 -301 162 -477l721 1018q-135 102 -324 102q-246 0 -402.5 -175t-156.5 -468zM829 88q247 0 404.5 175.5t157.5 469.5q0 293 -162 473l-721 -1018q133 -100 321 -100zM819 1606h-125l185 258h184z" />
    <glyph glyph-name="uni01FF" unicode="&#x1ff;" horiz-adv-x="1228" 
d="M260 -76l-88 47l98 138q-77 74 -119 179.5t-42 221.5q0 107 36 205t100 172.5t160 119t209 44.5q150 0 271 -78l88 123l86 -47l-98 -140q76 -75 117.5 -179t41.5 -220q0 -143 -61 -265t-178 -198t-267 -76q-146 0 -266 76zM248 510q0 -183 96 -299l471 663
q-89 64 -201 64q-159 0 -262.5 -119t-103.5 -309zM614 84q158 0 262.5 118.5t104.5 307.5q0 176 -92 295l-471 -662q83 -59 196 -59zM584 1176h-123l201 288h184z" />
    <glyph glyph-name="uni0218" unicode="&#x218;" horiz-adv-x="1423" 
d="M1274 1233l-96 -90q-32 39 -73 75t-102 75.5t-143 63t-172 23.5q-107 0 -196.5 -30.5t-148 -97.5t-58.5 -160q0 -42 13.5 -76t32.5 -58t56.5 -44.5t68 -33t85 -24.5t90 -18.5t100.5 -16.5q72 -11 113.5 -18.5t112 -24.5t112.5 -35.5t94.5 -51t81.5 -71.5t49.5 -95.5
t20.5 -125.5q0 -198 -150 -317t-417 -119q-127 0 -241.5 29t-195 75.5t-133.5 91t-88 89.5l94 88q33 -34 60.5 -60t82.5 -65t110.5 -64t136 -44t167.5 -19q89 0 165.5 18.5t137 54.5t95.5 95t35 135q0 47 -14.5 86t-36.5 66t-58.5 49t-71.5 35.5t-85 25.5t-88.5 18.5
t-90.5 14.5q-3 0 -5 0.5t-4.5 1t-4.5 0.5q-70 11 -117 19.5t-112.5 25t-109 35.5t-91.5 49.5t-76.5 67t-47 88.5t-18.5 114q0 186 145.5 302t389.5 116q112 0 213.5 -26.5t175 -69.5t124 -85.5t83.5 -86.5zM625 -418h-123l200 289h185z" />
    <glyph glyph-name="uni0219" unicode="&#x219;" horiz-adv-x="1064" 
d="M92 162l80 80q35 -31 47.5 -42t55.5 -41t76.5 -43.5t88.5 -26.5t113 -13q122 0 204.5 51t82.5 147q0 40 -16.5 70t-42.5 48t-64.5 31t-77 20.5t-84.5 15.5q-6 1 -9.5 1.5t-8.5 1t-9 1.5q-49 8 -81 14t-78.5 18t-77 25t-65 35t-54.5 48.5t-33.5 64t-13.5 82.5
q0 131 101.5 217t281.5 86q100 0 192 -32t144 -69.5t86 -77.5l-80 -81q-147 153 -334 153q-110 0 -187 -49t-77 -135q0 -24 5.5 -43.5t20 -35t27.5 -27t39.5 -21.5t43.5 -16t52.5 -13t52.5 -10t58 -10q49 -7 80 -12t79.5 -17t80 -25t68 -36t58 -51.5t36 -69.5t14.5 -90
q0 -140 -106 -228t-304 -88q-89 0 -168.5 19t-136 50t-95 61t-65.5 63zM451 -418h-123l200 289h185z" />
    <glyph glyph-name="uni021A" unicode="&#x21a;" horiz-adv-x="1226" 
d="M1167 1341h-485v-1148l2 -193h-143l2 193v1148h-484v123h1108v-123zM537 -418h-123l200 289h185z" />
    <glyph glyph-name="uni021B" unicode="&#x21b;" horiz-adv-x="751" 
d="M668 1022v-107h-285v-690q0 -77 28 -110t95 -33q76 0 168 35v-111q-98 -35 -189 -35q-53 0 -93 10.5t-74 36.5t-52 75.5t-18 121.5v700h-193v107h195l20 291h113v-291h285zM309 -418h-123l201 289h184z" />
    <glyph glyph-name="uni0237" unicode="&#x237;" horiz-adv-x="489" 
d="M176 1022h137l-2 -178v-998q0 -89 -17.5 -148.5t-52.5 -89.5t-75.5 -42t-97.5 -12q-32 0 -113 14v108q58 -14 104 -14q68 0 93.5 41.5t25.5 144.5v996z" />
    <glyph glyph-name="uni0259" unicode="&#x259;" horiz-adv-x="1183" 
d="M209 778l-80 78q17 22 48.5 49.5t86 63t135.5 59t170 23.5q225 0 363.5 -136.5t138.5 -382.5q0 -256 -137.5 -408.5t-351.5 -152.5q-102 0 -184 31.5t-136 84.5t-89 125t-48.5 150t-9.5 162h819v8q0 186 -103 296t-272 110q-63 0 -124.5 -18.5t-106 -46t-74 -51.5
t-45.5 -44zM578 82q138 0 231 85.5t117 252.5h-668q0 -142 85.5 -240t234.5 -98z" />
    <glyph glyph-name="h.superior" unicode="&#x2b0;" horiz-adv-x="980" 
d="M266 1473v-308h4q121 160 299 160q132 0 206.5 -81.5t74.5 -233.5v-357l2 -137h-129l2 137v342q0 224 -172 224q-86 0 -163.5 -53t-123.5 -136v-377l2 -137h-129l2 137v820l-2 139h129z" />
    <glyph glyph-name="r.superior" unicode="&#x2b3;" horiz-adv-x="634" 
d="M139 516l2 137v510l-2 140h123v-259h4q50 144 132 212.5t177 68.5q21 0 33 -4v-115h-35q-77 0 -146 -58t-110 -138.5t-51 -159.5v-197l2 -137h-129z" />
    <glyph glyph-name="circumflex" unicode="&#x2c6;" 
d="M688 1176h-108l-185 208l-186 -208h-109l213 288h158z" />
    <glyph glyph-name="caron" unicode="&#x2c7;" 
d="M580 1464h108l-217 -288h-158l-213 288h109l186 -211z" />
    <glyph glyph-name="breve" unicode="&#x2d8;" 
d="M553 1464h111q0 -75 -22.5 -132t-61.5 -89.5t-85.5 -48.5t-99.5 -16q-52 0 -99 16t-86.5 48.5t-63 89.5t-23.5 132h113q0 -192 159 -192q158 0 158 192z" />
    <glyph glyph-name="dotaccent" unicode="&#x2d9;" 
d="M328 1237v227h133v-227h-133z" />
    <glyph glyph-name="ring" unicode="&#x2da;" 
d="M625 1366q0 -76 -60.5 -132t-169.5 -56q-112 0 -172.5 55.5t-60.5 132.5q0 81 60.5 139t172.5 58q109 0 169.5 -58t60.5 -139zM543 1366q0 50 -41.5 87.5t-106.5 37.5q-71 0 -111 -37t-40 -88q0 -48 40 -82.5t111 -34.5q65 0 106.5 35.5t41.5 81.5z" />
    <glyph glyph-name="ogonek" unicode="&#x2db;" 
d="M596 -293l8 -88q-21 -14 -68 -28.5t-108 -14.5q-57 0 -105 14.5t-82 51t-34 90.5q0 134 215 284h113q-27 -20 -55.5 -44t-62.5 -59.5t-55.5 -75t-21.5 -73.5q0 -47 33 -69.5t86 -22.5q64 0 137 35z" />
    <glyph glyph-name="tilde" unicode="&#x2dc;" 
d="M86 1198q0 135 46 195.5t118 60.5q82 0 162 -80q2 -2 16 -16.5t17.5 -17.5t16 -14t18.5 -14.5t16.5 -9.5t19.5 -8t19 -2q79 0 79 154h86q0 -136 -47.5 -196t-122.5 -60q-81 0 -161 84q-25 26 -38.5 39t-36.5 26t-44 13q-80 0 -80 -154h-84z" />
    <glyph glyph-name="hungarumlaut" unicode="&#x2dd;" 
d="M289 1176h-127l117 288h157zM594 1176h-125l156 288h155z" />
    <glyph glyph-name="Delta" unicode="&#x394;" horiz-adv-x="1386" 
d="M63 0l539 1464h182l539 -1464h-1260zM686 1348l-440 -1227h884l-440 1227h-4z" />
    <glyph glyph-name="Delta" unicode="&#x2206;" horiz-adv-x="1386" 
d="M63 0l539 1464h182l539 -1464h-1260zM686 1348l-440 -1227h884l-440 1227h-4z" />
    <glyph glyph-name="Omega" unicode="&#x3a9;" horiz-adv-x="1683" 
d="M842 1497q155 0 287.5 -60t221.5 -162t139 -237t50 -284q0 -418 -362 -627v-4h352v-123h-572v92q428 181 428 637q0 192 -71.5 339.5t-195 225.5t-277.5 78q-237 0 -392 -176.5t-155 -466.5q0 -455 428 -637v-92h-569v123h350v4q-361 211 -361 627q0 200 85 368.5
t246.5 271.5t367.5 103z" />
    <glyph glyph-name="Omega" unicode="&#x2126;" horiz-adv-x="1683" 
d="M842 1497q155 0 287.5 -60t221.5 -162t139 -237t50 -284q0 -418 -362 -627v-4h352v-123h-572v92q428 181 428 637q0 192 -71.5 339.5t-195 225.5t-277.5 78q-237 0 -392 -176.5t-155 -466.5q0 -455 428 -637v-92h-569v123h350v4q-361 211 -361 627q0 200 85 368.5
t246.5 271.5t367.5 103z" />
    <glyph glyph-name="pi" unicode="&#x3c0;" horiz-adv-x="1304" 
d="M924 889h-502l-103 -576q-35 -193 -40 -313h-134q9 143 41 313l103 576h-191v133h1129v-133h-170l-103 -576q-37 -226 -41 -313h-133q8 124 41 313z" />
    <glyph glyph-name="Wgrave" unicode="&#x1e80;" horiz-adv-x="1990" 
d="M494 0l-428 1464h163l338 -1261h4l359 1261h141l356 -1261h5l333 1261h160l-430 -1464h-135l-361 1262h-4l-366 -1262h-135zM1130 1606h-124l-246 258h188z" />
    <glyph glyph-name="wgrave" unicode="&#x1e81;" horiz-adv-x="1536" 
d="M395 0l-321 1022h141l238 -856h4l258 856h112l258 -856h5l235 856h137l-323 -1022h-115l-254 836h-4l-258 -836h-113zM920 1176h-125l-265 288h189z" />
    <glyph glyph-name="Wacute" unicode="&#x1e82;" horiz-adv-x="1990" 
d="M494 0l-428 1464h163l338 -1261h4l359 1261h141l356 -1261h5l333 1261h160l-430 -1464h-135l-361 1262h-4l-366 -1262h-135zM983 1606h-125l184 258h185z" />
    <glyph glyph-name="wacute" unicode="&#x1e83;" horiz-adv-x="1536" 
d="M395 0l-321 1022h141l238 -856h4l258 856h112l258 -856h5l235 856h137l-323 -1022h-115l-254 836h-4l-258 -836h-113zM735 1176h-123l201 288h184z" />
    <glyph glyph-name="Wdieresis" unicode="&#x1e84;" horiz-adv-x="1990" 
d="M494 0l-428 1464h163l338 -1261h4l359 1261h141l356 -1261h5l333 1261h160l-430 -1464h-135l-361 1262h-4l-366 -1262h-135zM1110 1616v227h135v-227h-135zM743 1616v227h134v-227h-134z" />
    <glyph glyph-name="wdieresis" unicode="&#x1e85;" horiz-adv-x="1536" 
d="M395 0l-321 1022h141l238 -856h4l258 856h112l258 -856h5l235 856h137l-323 -1022h-115l-254 836h-4l-258 -836h-113zM866 1237v227h135v-227h-135zM528 1237v227h134v-227h-134z" />
    <glyph glyph-name="Ygrave" unicode="&#x1ef2;" horiz-adv-x="1347" 
d="M602 0l2 193v413l-575 854v4h174l477 -737l479 737h160v-4l-576 -854v-413l2 -193h-143zM768 1606h-125l-246 258h189z" />
    <glyph glyph-name="ygrave" unicode="&#x1ef3;" horiz-adv-x="1054" 
d="M57 1022h148l340 -891h4l309 891h139l-440 -1188q-58 -154 -154 -217t-227 -63q-59 0 -117 14v108q63 -14 111 -14q107 0 173 56t116 184l33 80zM641 1176h-125l-264 288h188z" />
    <glyph glyph-name="endash" unicode="&#x2013;" horiz-adv-x="1185" 
d="M166 537v110h854v-110h-854z" />
    <glyph glyph-name="emdash" unicode="&#x2014;" horiz-adv-x="2154" 
d="M166 537v110h1823v-110h-1823z" />
    <glyph glyph-name="quoteleft" unicode="&#x2018;" horiz-adv-x="495" 
d="M328 1198v-227h-178v229l112 264h86l-98 -266h78z" />
    <glyph glyph-name="quoteright" unicode="&#x2019;" horiz-adv-x="479" 
d="M174 1237v227h178v-229l-112 -264h-86l100 266h-80z" />
    <glyph glyph-name="quotesinglbase" unicode="&#x201a;" horiz-adv-x="509" 
d="M168 0v227h178v-229l-113 -264h-88l101 266h-78z" />
    <glyph glyph-name="quotedblleft" unicode="&#x201c;" horiz-adv-x="831" 
d="M328 1198v-227h-178v229l112 264h86l-98 -266h78zM666 1198v-227h-179v229l113 264h86l-98 -266h78z" />
    <glyph glyph-name="quotedblright" unicode="&#x201d;" horiz-adv-x="817" 
d="M512 1237v227h178v-229l-112 -264h-86l100 266h-80zM174 1237v227h178v-229l-112 -264h-86l100 266h-80z" />
    <glyph glyph-name="quotedblbase" unicode="&#x201e;" horiz-adv-x="847" 
d="M504 0v227h180v-229l-113 -264h-88l101 266h-80zM168 0v227h178v-229l-113 -264h-88l101 266h-78z" />
    <glyph glyph-name="dagger" unicode="&#x2020;" horiz-adv-x="925" 
d="M139 1034v123l269 -6l-5 313h119l-4 -313l268 6v-123l-268 10l4 -847h-119l5 847z" />
    <glyph glyph-name="daggerdbl" unicode="&#x2021;" horiz-adv-x="925" 
d="M139 1034v123l269 -6l-5 313h119l-4 -313l268 6v-123l-268 10v-368l268 16v-125l-268 11l4 -381h-119l5 381l-269 -11v125l269 -16v368z" />
    <glyph glyph-name="bullet" unicode="&#x2022;" horiz-adv-x="933" 
d="M178 600q0 120 84.5 204.5t204.5 84.5q121 0 205 -84.5t84 -204.5q0 -122 -84 -205.5t-205 -83.5q-120 0 -204.5 84t-84.5 205z" />
    <glyph glyph-name="ellipsis" unicode="&#x2026;" horiz-adv-x="2154" 
d="M326 0v227h180v-227h-180zM987 0v227h180v-227h-180zM1649 0v227h180v-227h-180z" />
    <glyph glyph-name="perthousand" unicode="&#x2030;" horiz-adv-x="2492" 
d="M2077 -29q-144 0 -243 101.5t-99 257.5q0 155 99 257.5t243 102.5q142 0 242 -103t100 -257q0 -156 -100 -257.5t-242 -101.5zM2077 74q96 0 156.5 71.5t60.5 184.5q0 114 -60 186t-157 72q-99 0 -159 -71.5t-60 -186.5q0 -113 60.5 -184.5t158.5 -71.5zM1303 -29
q-143 0 -242.5 101.5t-99.5 257.5q0 155 99.5 257.5t242.5 102.5q141 0 240 -102.5t99 -257.5q0 -156 -98.5 -257.5t-240.5 -101.5zM1303 74q95 0 155 71.5t60 184.5q0 114 -60 186t-155 72q-98 0 -158 -71.5t-60 -186.5q0 -113 60.5 -184.5t157.5 -71.5zM1325 1370
l-805 -1370h-123l801 1370h127zM416 680q-143 0 -242.5 102t-99.5 258q0 155 99.5 257t242.5 102t243.5 -102t100.5 -257q0 -156 -100.5 -258t-243.5 -102zM416 782q98 0 158.5 72.5t60.5 185.5t-60.5 184.5t-158.5 71.5t-157.5 -71.5t-59.5 -184.5t60.5 -185.5t156.5 -72.5
z" />
    <glyph glyph-name="guilsinglleft" unicode="&#x2039;" horiz-adv-x="608" 
d="M469 238h-111l-252 335v37l250 334h113l-207 -354z" />
    <glyph glyph-name="guilsinglright" unicode="&#x203a;" horiz-adv-x="608" 
d="M250 238h-111l207 352l-207 354h115l248 -334v-37z" />
    <glyph glyph-name="fraction" unicode="&#x2044;" horiz-adv-x="335" 
d="M-276 0l759 1464h129l-759 -1464h-129z" />
    <glyph glyph-name="zero.superior" unicode="&#x2070;" horiz-adv-x="919" 
d="M461 1483q115 0 201 -64t130 -170t44 -237q0 -203 -101.5 -337t-273.5 -134t-274.5 134.5t-102.5 336.5q0 201 102.5 336t274.5 135zM461 1384q-111 0 -182.5 -103.5t-71.5 -268.5q0 -166 71.5 -269.5t182.5 -103.5q109 0 180.5 104t71.5 269q0 164 -72 268t-180 104z
" />
    <glyph glyph-name="i.superior" unicode="&#x2071;" horiz-adv-x="407" 
d="M268 516h-129l2 137v510l-2 140h129l-2 -140v-510zM266 1436h-125v176h125v-176z" />
    <glyph glyph-name="four.superior" unicode="&#x2074;" horiz-adv-x="888" 
d="M37 791v77l455 596h172l-2 -123v-452h198v-98h-198v-111l2 -121h-123l2 121v111h-506zM178 889h365v385l4 96h-4l-365 -477v-4z" />
    <glyph glyph-name="five.superior" unicode="&#x2075;" horiz-adv-x="854" 
d="M68 705l88 67q69 -73 130 -103t132 -30q114 0 180 53.5t66 153.5q0 102 -65.5 153.5t-166.5 51.5q-142 -2 -227 -95l-99 25l29 483h600l-20 -104h-473l-17 -283h4q89 70 226 70q65 0 124 -18t106 -53t75 -93t28 -131q0 -145 -100 -228t-266 -83q-122 0 -204.5 44
t-149.5 120z" />
    <glyph glyph-name="six.superior" unicode="&#x2076;" horiz-adv-x="886" 
d="M535 1380q-57 0 -110.5 -21.5t-102 -65.5t-79 -122t-34.5 -180h4q108 156 287 156q62 0 117 -17t100.5 -50.5t72.5 -91t27 -132.5q0 -101 -49.5 -174t-126.5 -107t-172 -34q-179 0 -282 111t-103 313q0 230 129 373t322 143q124 0 227 -56l-53 -96q-83 51 -174 51z
M485 1047q-87 0 -150.5 -42t-119.5 -128q35 -238 254 -238q111 0 168 57.5t57 151.5q0 86 -52.5 142.5t-156.5 56.5z" />
    <glyph glyph-name="seven.superior" unicode="&#x2077;" horiz-adv-x="770" 
d="M150 559l458 801h-555v104h684v-86l-444 -819h-143z" />
    <glyph glyph-name="eight.superior" unicode="&#x2078;" horiz-adv-x="925" 
d="M459 541q-187 0 -282 67t-95 174q0 91 58.5 148.5t162.5 97.5v4q-186 81 -186 213q0 101 94.5 169.5t249.5 68.5q56 0 114 -12.5t114.5 -38t92 -73.5t35.5 -110q0 -145 -209 -213v-4q234 -79 234 -246q0 -114 -101.5 -179.5t-281.5 -65.5zM727 784q0 32 -16.5 59.5
t-39.5 46.5t-66.5 38t-78.5 31t-94 30q-108 -34 -166.5 -81.5t-58.5 -114.5q0 -78 71 -116t187 -38q121 0 191.5 36.5t70.5 108.5zM240 1247q0 -62 59 -101.5t172 -72.5q117 31 174 70t57 100q0 66 -66 103.5t-171 37.5q-114 0 -169.5 -39.5t-55.5 -97.5z" />
    <glyph glyph-name="nine.superior" unicode="&#x2079;" horiz-adv-x="886" 
d="M352 641q57 0 110.5 21.5t102 65.5t79 122t34.5 180h-4q-108 -156 -287 -156q-62 0 -117 17t-100.5 50.5t-72.5 91t-27 132.5q0 101 49.5 174t127 107.5t171.5 34.5q179 0 282 -111t103 -313q0 -230 -129 -373t-322 -143q-126 0 -227 55l53 96q83 -51 174 -51zM401 975
q87 0 151 42t120 128q-35 237 -254 237q-111 0 -168 -57t-57 -151q0 -86 52 -142.5t156 -56.5z" />
    <glyph glyph-name="parenleft.superior" unicode="&#x207d;" horiz-adv-x="444" 
d="M406 381h-107q-86 77 -151.5 227.5t-65.5 321.5t64.5 318t152.5 233h107q-27 -35 -40 -52.5t-49 -79t-56 -115t-38 -136.5t-18 -168q0 -99 20.5 -189.5t56.5 -161t60 -108t54 -77.5q7 -9 10 -13z" />
    <glyph glyph-name="parenright.superior" unicode="&#x207e;" horiz-adv-x="444" 
d="M145 381h-106q3 3 9 12q24 32 40.5 56t48 80.5t51 110t35 131.5t15.5 159q0 283 -191 540q-6 8 -8 11h106q88 -86 152.5 -233t64.5 -318t-66 -321t-151 -228z" />
    <glyph glyph-name="n.superior" unicode="&#x207f;" horiz-adv-x="980" 
d="M852 516h-129l2 137v342q0 224 -172 224q-86 0 -163.5 -53t-123.5 -136v-377l2 -137h-129l2 137v510l-2 140h123v-144h4q122 166 303 166q132 0 206.5 -81.5t74.5 -233.5v-357z" />
    <glyph glyph-name="zero.inferior" unicode="&#x2080;" horiz-adv-x="919" 
d="M461 776q115 0 201 -64t130 -170t44 -237q0 -203 -101.5 -337t-273.5 -134t-274.5 134.5t-102.5 336.5q0 201 102.5 336t274.5 135zM461 678q-111 0 -182.5 -104t-71.5 -269q0 -166 71.5 -269.5t182.5 -103.5q109 0 180.5 104t71.5 269q0 164 -72 268.5t-180 104.5z" />
    <glyph glyph-name="one.inferior" unicode="&#x2081;" horiz-adv-x="552" 
d="M391 -27l2 -120h-123l2 120v654h-4l-215 -109h-4v109l258 131h86l-2 -123v-662z" />
    <glyph glyph-name="two.inferior" unicode="&#x2082;" horiz-adv-x="843" 
d="M764 504q0 -33 -8.5 -62.5t-20.5 -53.5t-36 -49t-44.5 -42.5t-57 -41t-62 -38.5t-70.5 -41q-51 -29 -79.5 -46.5t-69 -46t-69 -58.5t-48.5 -64v-4h557v-104h-684v94q24 54 62.5 102t88.5 88.5t90 67t95 59.5q120 68 155 96q78 63 78 142q0 70 -50.5 121t-144.5 51
q-88 0 -155.5 -50.5t-106.5 -152.5l-108 35q110 268 373 268q83 0 146 -24t98.5 -64.5t53 -86t17.5 -95.5z" />
    <glyph glyph-name="three.inferior" unicode="&#x2083;" horiz-adv-x="831" 
d="M51 -4l88 70q121 -134 277 -134q89 0 145.5 41.5t56.5 128.5q0 89 -67.5 130.5t-183.5 41.5h-117v99h112q114 0 174 43t60 119q0 68 -45 105.5t-127 37.5q-143 0 -256 -113l-82 68q129 141 338 141q147 0 223 -67.5t76 -165.5q0 -47 -18 -87t-45.5 -64.5t-56.5 -39
t-56 -18.5v-6q21 -3 44.5 -11t51.5 -26t50 -42t37 -62t15 -83q0 -51 -18.5 -97t-56 -85t-105 -62.5t-155.5 -23.5q-122 0 -206.5 42.5t-152.5 119.5z" />
    <glyph glyph-name="four.inferior" unicode="&#x2084;" horiz-adv-x="888" 
d="M37 84v78l455 596h172l-2 -123v-453h198v-98h-198v-111l2 -120h-123l2 120v111h-506zM178 182h365v385l4 97h-4l-365 -478v-4z" />
    <glyph glyph-name="five.inferior" unicode="&#x2085;" horiz-adv-x="854" 
d="M68 -2l88 68q69 -73 130 -103.5t132 -30.5q114 0 180 53.5t66 153.5q0 102 -65.5 153.5t-166.5 51.5q-142 -2 -227 -94l-99 24l29 484h600l-20 -105h-473l-17 -282h4q88 69 226 69q65 0 124 -18t106 -53t75 -93t28 -131q0 -145 -100 -228t-266 -83q-122 0 -204.5 44
t-149.5 120z" />
    <glyph glyph-name="six.inferior" unicode="&#x2086;" horiz-adv-x="886" 
d="M535 674q-57 0 -110.5 -21.5t-102 -65.5t-79 -122t-34.5 -180h4q107 155 287 155q62 0 117 -16.5t100.5 -50t72.5 -91t27 -132.5q0 -101 -49.5 -174t-127 -107.5t-171.5 -34.5q-179 0 -282 111t-103 313q0 230 129 373t322 143q126 0 227 -55l-53 -96q-83 51 -174 51z
M485 340q-87 0 -150.5 -42t-119.5 -128q35 -238 254 -238q111 0 168 57.5t57 151.5q0 86 -52.5 142.5t-156.5 56.5z" />
    <glyph glyph-name="seven.inferior" unicode="&#x2087;" horiz-adv-x="770" 
d="M150 -147l458 800h-555v105h684v-86l-444 -819h-143z" />
    <glyph glyph-name="eight.inferior" unicode="&#x2088;" horiz-adv-x="925" 
d="M459 -166q-186 0 -281.5 67.5t-95.5 174.5q0 91 58.5 148.5t162.5 97.5v4q-186 81 -186 213q0 101 94.5 169t249.5 68q56 0 114 -12.5t114.5 -37.5t92 -73t35.5 -110q0 -145 -209 -213v-4q234 -79 234 -246q0 -114 -102 -180t-281 -66zM727 78q0 32 -16.5 59.5
t-39.5 46.5t-66.5 38t-78.5 31t-94 30q-225 -72 -225 -197q0 -78 71 -116t187 -38q120 0 191 37t71 109zM240 541q0 -62 59 -101.5t172 -72.5q117 31 174 70t57 100q0 66 -66 103.5t-171 37.5q-114 0 -169.5 -39.5t-55.5 -97.5z" />
    <glyph glyph-name="nine.inferior" unicode="&#x2089;" horiz-adv-x="886" 
d="M352 -66q45 0 88 13t85.5 42.5t75 73.5t53.5 111.5t24 149.5h-4q-108 -156 -287 -156q-62 0 -117 17t-100.5 50.5t-72.5 91t-27 132.5q0 101 49.5 174t126.5 107t172 34q179 0 282 -111t103 -313q0 -230 -129 -373t-322 -143q-126 0 -227 55l53 97q84 -52 174 -52z
M401 268q87 0 151 42t120 128q-35 238 -254 238q-111 0 -168 -57.5t-57 -151.5q0 -86 52 -142.5t156 -56.5z" />
    <glyph glyph-name="colonmonetary" unicode="&#x20a1;" horiz-adv-x="1234" 
d="M561 -166h-92v250q-164 56 -261 204.5t-97 373.5q0 221 98 380t260 222v225h92v-201q52 10 98 10q43 0 84 -6v197h93v-219q101 -36 174.5 -110t115.5 -169l-125 -45q-37 94 -126.5 165t-215.5 71q-79 0 -151 -34.5t-128.5 -97.5t-90 -162t-33.5 -220q0 -127 35.5 -225.5
t95 -155.5t129.5 -86t146 -29q58 0 112.5 17.5t94.5 45t72.5 61t51.5 65.5t27 59l117 -43q-24 -81 -102 -166t-199 -127v-250h-93v227q-43 -6 -92 -6q-47 0 -90 6v-227z" />
    <glyph glyph-name="franc" unicode="&#x20a3;" horiz-adv-x="1183" 
d="M1020 813v-117h-588v-311h379v-92h-379v-111l2 -182h-141l2 182v111h-217v92h217v803l-2 182h809v-117h-670v-440h588z" />
    <glyph glyph-name="lira" unicode="&#x20a4;" horiz-adv-x="1339" 
d="M131 784v93h203q-25 91 -25 172q0 160 118 255t292 95q56 0 107.5 -9.5t107 -35.5t99.5 -65.5t81 -105t57 -149.5l-141 -26q-32 143 -117 208.5t-198 65.5t-187.5 -65t-74.5 -183q0 -75 30 -157h453v-93h-416q45 -108 60 -180h356v-92h-342q2 -20 2 -63q0 -88 -31 -170
q181 -185 336 -185q86 0 139 83t60 251l139 -10q-19 -447 -326 -447q-120 0 -214.5 55t-182.5 148h-4q-62 -90 -161 -143.5t-218 -53.5v144q143 0 231.5 77t88.5 226q0 37 -7 88h-315v92h297q-20 69 -63 180h-234z" />
    <glyph glyph-name="peseta" unicode="&#x20a7;" horiz-adv-x="2840" 
d="M1731 1022v-107h-287v-682q0 -77 29 -110t96 -33q75 0 168 35v-119q-97 -35 -189 -35q-110 0 -173.5 56.5t-63.5 195.5v692h-172q-9 -83 -43 -146.5t-81 -101t-110 -61t-122 -31.5t-126 -8h-309v-389l2 -178h-141l2 178v1012l-2 180h448q68 0 124 -6t123 -27.5t114 -57.5
t81.5 -102t41.5 -155h172l20 291h111v-291h287zM348 1253v-569h291q61 0 108 6t96 24t81 49t52.5 85t20.5 127q0 74 -21.5 127t-53.5 81.5t-83 45t-95 20.5t-105 4h-291zM1866 162l82 80q38 -35 61.5 -54t74 -50t112 -46.5t133.5 -15.5q122 0 204 51t82 147q0 40 -16.5 70
t-42.5 48t-64.5 31t-76.5 21t-84 15q-6 1 -9.5 1.5t-8.5 1t-9 1.5q-49 8 -81 14t-78.5 18t-77 25t-65 35t-54.5 48.5t-33.5 64t-13.5 82.5q0 131 101 217t279 86q101 0 193.5 -32t144.5 -69.5t86 -77.5l-79 -81q-147 153 -334 153q-110 0 -188.5 -49t-78.5 -135
q0 -19 3.5 -35.5t13.5 -30t18.5 -24.5t27 -20.5t30 -16.5t37 -14t38.5 -10.5t44 -9t43.5 -7.5t46.5 -8q49 -7 79.5 -12t79 -17t79.5 -25t68 -36.5t58.5 -51.5t36 -69t14.5 -90q0 -140 -106 -228t-303 -88q-90 0 -169.5 18.5t-136 50t-94.5 61.5t-67 63z" />
    <glyph glyph-name="Euro" unicode="&#x20ac;" horiz-adv-x="1339" 
d="M100 784v93h195q44 246 190.5 384t358.5 138q104 0 202.5 -32t174.5 -91l-76 -100q-120 102 -297 102q-152 0 -259 -103t-143 -298h609v-93h-621q-4 -33 -4 -100q0 -55 2 -80h623v-92h-613q31 -206 139.5 -313t266.5 -107q172 0 297 103l76 -101q-160 -123 -377 -123
q-223 0 -371 142t-184 399h-189v92h181q-2 23 -2 72q0 38 4 108h-183z" />
    <glyph glyph-name="uni20B1" unicode="&#x20b1;" horiz-adv-x="1392" 
d="M80 907v90h215v191l-2 182h356q49 0 90.5 -3t92 -12.5t90.5 -25.5t80.5 -44.5t68.5 -66.5t47.5 -94.5t24.5 -126.5h178v-90h-178q-7 -90 -41 -159t-81.5 -110t-112.5 -66.5t-127 -34.5t-132 -9h-215v-346l2 -182h-143l2 182v725h-215zM631 647q58 0 104.5 5.5t94 22.5
t80.5 45t56 75.5t29 111.5h-561v-260h197zM631 1253h-197v-256h561q-6 68 -30.5 117t-57.5 75.5t-83 41.5t-92 18.5t-101 3.5z" />
    <glyph glyph-name="uni20B9" unicode="&#x20b9;" horiz-adv-x="1222" 
d="M143 907v90h645q-4 57 -20.5 100.5t-45 71t-59.5 45t-74.5 25.5t-79.5 11t-85 3h-281v117h969v-92h-348v-4q156 -89 172 -277h176v-90h-176q-22 -292 -320 -362l381 -541v-4h-176l-346 528h-332v119h281q58 0 104 5.5t93.5 22.5t80.5 45t56.5 75.5t29.5 111.5h-645z" />
    <glyph glyph-name="uni20BA" unicode="&#x20ba;" horiz-adv-x="1243" 
d="M106 754v96l197 76v262l-2 182h141l-2 -182v-209l441 170v-96l-441 -170v-185l441 172v-96l-441 -170v-485h260q158 0 234.5 111.5t91.5 361.5l139 -10q-16 -582 -452 -582h-412l2 182v369l-197 -76v94l197 76v184z" />
    <glyph glyph-name="uni20BD" unicode="&#x20bd;" horiz-adv-x="1284" 
d="M111 293v92h215v182h-215v119h215v502l-2 182h383q51 0 94 -3t96 -13t94 -26.5t82 -46.5t68 -70.5t44 -101t17 -134.5q0 -97 -30.5 -171.5t-78.5 -118.5t-115.5 -71.5t-132 -37t-138.5 -9.5h-242v-182h379v-92h-379v-111l2 -182h-143l2 182v111h-215zM690 1253h-225v-567
h225q61 0 110 6t99 25t83 50t54 84t21 124q0 54 -11.5 96.5t-30 71.5t-48 49.5t-58.5 32t-69.5 18t-73 8.5t-76.5 2z" />
    <glyph glyph-name="uni2113" unicode="&#x2113;" horiz-adv-x="911" 
d="M238 246v104q-20 -15 -44 -31t-54 -36.5t-48 -32.5v123l146 96v633q0 205 80.5 297t218.5 92q133 0 211.5 -88t78.5 -270q0 -184 -101.5 -338t-358.5 -351v-180q0 -90 43.5 -132t130.5 -42q117 0 258 80v-98q-107 -90 -283 -90q-134 0 -206 65.5t-72 198.5zM367 1112
v-549q191 151 268.5 281t77.5 280q0 269 -172 269q-174 0 -174 -281z" />
    <glyph glyph-name="uni2117" unicode="&#x2117;" horiz-adv-x="1968" 
d="M117 686q0 177 65 336t178.5 276t276 185.5t348.5 68.5q185 0 347 -68.5t274.5 -185.5t177.5 -276t65 -336q0 -178 -65 -337.5t-177.5 -276.5t-274.5 -185.5t-347 -68.5q-186 0 -348.5 68.5t-276 185.5t-178.5 276.5t-65 337.5zM229 686q0 -159 57 -301.5t155.5 -246.5
t240 -165t303.5 -61q161 0 302 61t239.5 165t155.5 246.5t57 301.5q0 211 -96 387.5t-270 280.5t-388 104q-162 0 -303.5 -61t-240 -165t-155.5 -246t-57 -300zM811 217h-131v944h340q46 0 81 -2t81 -9t79 -19.5t67.5 -36t56 -56t35.5 -81t14 -109.5q0 -316 -414 -316h-209
v-315zM811 637h193q44 0 73 2t66 8t61 20t46.5 36t33 58.5t10.5 84.5q0 38 -6 69t-19 53t-27.5 38t-38 26t-43 16t-50 9t-51.5 3.5t-55 0.5h-193v-424z" />
    <glyph glyph-name="uni2120" unicode="&#x2120;" horiz-adv-x="1558" 
d="M137 965l62 41q76 -115 217 -115q72 0 120 26t48 82q0 25 -11.5 43.5t-25.5 29t-45.5 20t-50 12.5t-60.5 10q-53 9 -89.5 19.5t-72 29.5t-53.5 51t-18 76q0 87 65 137t168 50q96 0 161.5 -41t82.5 -84l-60 -41q-65 94 -186 94q-62 0 -104.5 -27.5t-42.5 -79.5
q0 -22 9 -38.5t21.5 -26.5t37 -18t44.5 -12t54 -9q37 -5 59.5 -9.5t57 -13t56 -21.5t43 -31.5t32 -46t10.5 -62.5q0 -93 -70.5 -142t-183.5 -49q-116 0 -185.5 46.5t-89.5 99.5zM1087 987l168 477h131v-630h-88v526h-4l-186 -526h-57l-189 526h-4v-526h-84v630h133l176 -477
h4z" />
    <glyph glyph-name="trademark" unicode="&#x2122;" horiz-adv-x="1437" 
d="M965 987l168 477h131v-630h-88v526h-5l-186 -526h-57l-189 526h-4v-526h-84v630h133l177 -477h4zM371 1395v-561h-90v561h-187v69h463v-69h-186z" />
    <glyph glyph-name="estimated" unicode="&#x212e;" horiz-adv-x="1939" 
d="M1761 352q-148 -192 -347 -287.5t-421 -95.5q-137 0 -268 36t-240.5 105t-192 161t-128 211.5t-43.5 250.5q0 135 48.5 256t132.5 211.5t194 156.5t236 100t255 34q233 0 426.5 -99.5t309.5 -279.5t126 -407h-1388q-4 0 -9.5 -6.5t-5.5 -14.5v-346q0 -48 15 -70
q39 -63 128 -115t198 -80t214 -28q168 0 337 78t288 229h135zM467 786h1036q21 0 21 19v338q0 25 -17 51q-44 79 -195.5 150t-326.5 71q-95 0 -187.5 -22.5t-159 -57.5t-113 -72t-64.5 -69q-15 -25 -15 -51v-338q0 -19 21 -19z" />
    <glyph glyph-name="onethird" unicode="&#x2153;" horiz-adv-x="1720" 
d="M391 680l2 -121h-123l2 121v653h-4l-215 -108h-4v108l258 131h86l-2 -123v-661zM276 0l760 1464h129l-759 -1464h-130zM940 143l88 70q120 -133 277 -133q89 0 145.5 41.5t56.5 128.5q0 89 -68 130.5t-184 41.5h-116v98h112q114 0 174 43t60 119q0 68 -45 105.5
t-127 37.5q-144 0 -256 -112l-82 67q130 142 338 142q146 0 222.5 -67.5t76.5 -166.5q0 -47 -18 -87t-45.5 -64.5t-56.5 -39t-56 -18.5v-6q21 -3 44.5 -11t51.5 -25.5t50 -41.5t37 -62t15 -83q0 -51 -18.5 -97t-56.5 -85t-105.5 -62.5t-155.5 -23.5q-122 0 -206 42.5
t-152 118.5z" />
    <glyph glyph-name="twothirds" unicode="&#x2154;" horiz-adv-x="2011" 
d="M764 1210q0 -38 -9 -71t-31.5 -62.5t-44 -51.5t-62.5 -49.5t-69.5 -45t-82.5 -47.5q-51 -29 -79.5 -46.5t-69 -46t-69 -58.5t-48.5 -64v-4h557v-105h-684v94q24 54 62.5 102.5t88.5 89t90 67.5t95 59q120 68 154 95q79 62 79 142q0 70 -50.5 121t-144.5 51
q-185 0 -262 -202l-108 34q111 269 373 269q83 0 146 -24.5t98.5 -64.5t53 -86t17.5 -96zM567 0l760 1464h129l-760 -1464h-129zM1231 143l88 70q120 -133 276 -133q89 0 146 41.5t57 128.5q0 89 -68 130.5t-184 41.5h-116v98h112q114 0 174 43t60 119q0 68 -45 105.5
t-127 37.5q-144 0 -256 -112l-82 67q130 142 338 142q146 0 222.5 -67.5t76.5 -166.5q0 -47 -18 -87t-46 -64.5t-57 -39t-56 -18.5v-6q27 -4 57.5 -17t64 -37.5t55.5 -69t22 -99.5q0 -51 -18.5 -97t-56.5 -85t-105.5 -62.5t-155.5 -23.5q-122 0 -206 42.5t-152 118.5z" />
    <glyph glyph-name="oneeighth" unicode="&#x215b;" horiz-adv-x="1800" 
d="M391 680l2 -121h-123l2 121v653h-4l-215 -108h-4v108l258 131h86l-2 -123v-661zM276 0l760 1464h129l-759 -1464h-130zM1333 -18q-187 0 -282 67t-95 174q0 91 59 148.5t163 97.5v4q-187 82 -187 213q0 101 94.5 169.5t249.5 68.5q56 0 114.5 -12.5t115 -38t92 -73.5
t35.5 -110q0 -145 -209 -213v-4q233 -79 233 -246q0 -114 -101.5 -179.5t-281.5 -65.5zM1602 225q0 32 -16.5 59.5t-39.5 46.5t-66.5 38t-78.5 31t-94 30q-226 -72 -226 -197q0 -78 71 -115.5t187 -37.5q121 0 192 36.5t71 108.5zM1114 688q0 -62 59 -101.5t173 -72.5
q117 31 174 70t57 100q0 66 -66.5 103.5t-171.5 37.5q-114 0 -169.5 -39.5t-55.5 -97.5z" />
    <glyph glyph-name="threeeighths" unicode="&#x215c;" horiz-adv-x="2078" 
d="M51 702l88 70q120 -133 277 -133q89 0 145.5 41.5t56.5 128.5q0 89 -67.5 130.5t-183.5 41.5h-117v98h112q114 0 174 43t60 119q0 68 -45 105.5t-127 37.5q-144 0 -256 -112l-82 67q130 142 338 142q146 0 222.5 -67.5t76.5 -166.5q0 -47 -18 -87t-45.5 -64.5t-56.5 -39
t-56 -18.5v-6q21 -3 44.5 -11t51.5 -25.5t50 -41.5t37 -62t15 -83q0 -51 -18.5 -97t-56 -85t-105 -62.5t-155.5 -23.5q-122 0 -206.5 42.5t-152.5 118.5zM555 0l760 1464h129l-760 -1464h-129zM1612 -18q-187 0 -282 67t-95 174q0 91 58.5 148.5t162.5 97.5v4
q-186 81 -186 213q0 101 94.5 169.5t249.5 68.5q56 0 114 -12.5t114.5 -38t92 -73.5t35.5 -110q0 -145 -209 -213v-4q234 -79 234 -246q0 -114 -101.5 -179.5t-281.5 -65.5zM1880 225q0 32 -16.5 59.5t-39.5 46.5t-66.5 38t-78.5 31t-94 30q-225 -72 -225 -197
q0 -78 71 -115.5t187 -37.5q121 0 191.5 36.5t70.5 108.5zM1393 688q0 -62 59 -101.5t172 -72.5q117 31 174 70t57 100q0 66 -66 103.5t-171 37.5q-114 0 -169.5 -39.5t-55.5 -97.5z" />
    <glyph glyph-name="fiveeighths" unicode="&#x215d;" horiz-adv-x="2101" 
d="M68 705l88 67q69 -73 130 -103t132 -30q114 0 180 53.5t66 153.5q0 102 -65.5 153.5t-166.5 51.5q-142 -2 -227 -95l-99 25l29 483h600l-20 -104h-473l-17 -283h4q89 70 226 70q65 0 124 -18t106 -53t75 -93t28 -131q0 -145 -100 -228t-266 -83q-122 0 -204.5 44
t-149.5 120zM578 0l759 1464h129l-759 -1464h-129zM1634 -18q-187 0 -282 67t-95 174q0 91 59 148.5t163 97.5v4q-187 82 -187 213q0 101 94.5 169.5t249.5 68.5q56 0 114.5 -12.5t115 -38t92 -73.5t35.5 -110q0 -145 -209 -213v-4q233 -79 233 -246q0 -114 -101.5 -179.5
t-281.5 -65.5zM1903 225q0 32 -16.5 59.5t-39.5 46.5t-66.5 38t-78.5 31t-94 30q-226 -72 -226 -197q0 -78 71 -115.5t187 -37.5q121 0 192 36.5t71 108.5zM1415 688q0 -62 59 -101.5t173 -72.5q117 31 174 70t57 100q0 66 -66.5 103.5t-171.5 37.5q-114 0 -169.5 -39.5
t-55.5 -97.5z" />
    <glyph glyph-name="seveneighths" unicode="&#x215e;" horiz-adv-x="1908" 
d="M150 559l458 801h-555v104h684v-86l-444 -819h-143zM385 0l760 1464h129l-760 -1464h-129zM1442 -18q-187 0 -282 67t-95 174q0 91 58.5 148.5t162.5 97.5v4q-186 81 -186 213q0 101 94.5 169.5t249.5 68.5q56 0 114 -12.5t114.5 -38t92 -73.5t35.5 -110
q0 -145 -209 -213v-4q234 -79 234 -246q0 -114 -101.5 -179.5t-281.5 -65.5zM1710 225q0 32 -16.5 59.5t-39.5 46.5t-66.5 38t-78.5 31t-94 30q-225 -72 -225 -197q0 -78 71 -115.5t187 -37.5q121 0 191.5 36.5t70.5 108.5zM1223 688q0 -62 59 -101.5t172 -72.5
q117 32 174.5 70.5t57.5 99.5q0 66 -66.5 103.5t-171.5 37.5q-114 0 -169.5 -39.5t-55.5 -97.5z" />
    <glyph glyph-name="partialdiff" unicode="&#x2202;" horiz-adv-x="1132" 
d="M567 1057q179 0 301 -166h4q-6 245 -92 359t-270 114q-79 0 -162 -27l-4 107q71 29 170 29q257 0 374.5 -158t117.5 -502q0 -397 -139 -618.5t-382 -221.5q-75 0 -138.5 23t-117 72.5t-84 138t-30.5 209.5q0 175 61.5 323t165.5 233t225 85zM494 86q160 0 262.5 163.5
t115.5 500.5q-48 88 -123.5 141t-158.5 53q-97 0 -176 -71t-122.5 -191t-43.5 -264q0 -174 68 -253t178 -79z" />
    <glyph glyph-name="product" unicode="&#x220f;" horiz-adv-x="1570" 
d="M1341 1464l-2 -192v-1415l2 -193h-143l2 193v1484h-829v-1484l2 -193h-146l2 193v1415l-2 192h1114z" />
    <glyph glyph-name="summation" unicode="&#x2211;" horiz-adv-x="1406" 
d="M1294 -213v-123h-1222v123l794 834l-725 720v123h1147v-123h-964v-4l688 -682v-69l-758 -795v-4h1040z" />
    <glyph glyph-name="minus" unicode="&#x2212;" horiz-adv-x="1095" 
d="M59 647h975v-110h-975v110z" />
    <glyph glyph-name="radical" unicode="&#x221a;" horiz-adv-x="1236" 
d="M-23 913v109h385l302 -834h2l467 1399h139l-555 -1587h-105l-340 913h-295z" />
    <glyph glyph-name="infinity" unicode="&#x221e;" horiz-adv-x="1806" 
d="M469 279q-150 0 -242 86t-92 235t92 235.5t240 86.5q82 0 160 -33t138 -80.5t142 -128.5q79 80 136.5 127t135.5 81t160 34q150 0 241 -86.5t91 -235.5t-91 -235t-239 -86q-120 0 -218.5 60.5t-217.5 184.5q-122 -124 -219.5 -184.5t-216.5 -60.5zM1341 385
q97 0 154 58.5t57 156.5q0 99 -56.5 158t-154.5 59q-92 0 -180 -54.5t-188 -158.5q98 -108 187 -163.5t181 -55.5zM467 385q92 0 181.5 55.5t189.5 163.5q-101 105 -190.5 159t-180.5 54q-98 0 -154.5 -59t-56.5 -158q0 -98 57 -156.5t154 -58.5z" />
    <glyph glyph-name="integral" unicode="&#x222b;" horiz-adv-x="737" 
d="M680 1464v-118q-63 14 -111 14q-77 0 -105 -39t-28 -129v-1241q0 -162 -69 -229.5t-197 -67.5q-56 0 -119 14v119q63 -14 113 -14q81 0 110 40t29 134v1241q0 159 68 225t192 66q55 0 117 -15z" />
    <glyph glyph-name="approxequal" unicode="&#x2248;" horiz-adv-x="1095" 
d="M59 680v115q59 55 136 87.5t145 32.5q57 0 103.5 -12.5t78.5 -30l64 -35t78.5 -30t103.5 -12.5q136 0 266 120v-116q-61 -54 -133.5 -85.5t-138.5 -31.5q-60 0 -107.5 12.5t-80 30t-64 35.5t-76.5 30.5t-102 12.5q-66 0 -138 -33t-135 -90zM59 272v115q60 54 136.5 86.5
t144.5 32.5q57 0 103.5 -12.5t78.5 -30t64 -34.5t78.5 -29.5t103.5 -12.5q137 0 266 119v-119q-61 -52 -133.5 -82.5t-138.5 -30.5q-60 0 -107.5 12t-80 29t-64 33.5t-76.5 28.5t-102 12q-68 0 -140 -31t-133 -86z" />
    <glyph glyph-name="notequal" unicode="&#x2260;" horiz-adv-x="1095" 
d="M59 745v111h588l162 266h113l-160 -266h272v-111h-340l-184 -307h524v-110h-592l-157 -265h-115l160 265h-271v110h336l187 307h-523z" />
    <glyph glyph-name="lessequal" unicode="&#x2264;" horiz-adv-x="1095" 
d="M70 756l954 393v-125l-668 -256l-123 -45v-14l123 -43l668 -252v-125l-954 387v80zM70 109h954v-109h-954v109z" />
    <glyph glyph-name="greaterequal" unicode="&#x2265;" horiz-adv-x="1095" 
d="M70 0v109h954v-109h-954zM70 289v125l669 252l123 43v14l-123 45l-669 256v125l954 -393v-80z" />
    <glyph glyph-name="lozenge" unicode="&#x25ca;" horiz-adv-x="1107" 
d="M516 -35l-432 531v41l432 526h78l436 -526v-41l-436 -531h-78zM219 514l338 -412l334 414l-336 414z" />
    <glyph glyph-name="R_p" unicode="&#xf6dd;" horiz-adv-x="2447" 
d="M1208 0h-174l-346 567h-340v-389q0 -6 1 -87.5t1 -90.5h-141q0 9 1 90.5t1 87.5v1012q0 7 -1 89.5t-1 90.5h467q514 0 514 -399q0 -94 -31 -166.5t-85 -116.5t-113.5 -69.5t-129.5 -38.5l377 -576v-4zM348 1253v-569h301q60 0 107 4.5t103.5 22t94 47t63 84t25.5 129.5
q0 56 -14 100.5t-35.5 73.5t-56.5 50t-67.5 32t-78.5 17t-78.5 7.5t-78.5 1.5h-285zM1878 -29q-134 0 -223 69.5t-133 180.5h-4v-481l2 -178h-138l2 178v1102l-2 180h136v-225h4q20 51 48.5 94t71 80.5t103 58.5t133.5 21q200 0 329.5 -149t129.5 -388q0 -123 -36 -226
t-98 -172t-146 -107t-179 -38zM1862 938q-154 0 -251.5 -114.5t-97.5 -311.5v-8q0 -102 29 -183.5t78 -132.5t111 -77.5t131 -26.5q152 0 242.5 117.5t90.5 312.5q0 194 -89 309t-244 115z" />
    <glyph glyph-name="atftype.com" unicode="&#xf8ff;" horiz-adv-x="2252" 
d="M348 0v1464h1557v-1464h-1557zM651 508l19 119h106l21 -119h129l-113 620h-176l-115 -620h129zM1556 770h130v113h-130v135h162v110h-293l2 -63v-494l-2 -63h134l-3 63v199zM1204 1018h111v110h-348v-110h110v-447l-2 -63h131l-2 63v447zM1200 -129q17 0 17 -10
q0 -2 -3.5 -10t-7.5 -20t-6 -24q0 -8 6 -8q3 0 12.5 2t14.5 2q53 0 53 -43q0 -45 -38 -105.5t-85 -60.5q-6 0 -13.5 1.5t-8.5 1.5q-4 0 -8 -13q-21 -71 -21 -76q0 -9 6.5 -13t30.5 -5q8 0 8 -8t-8 -8q-4 0 -25 3t-32 3l-12 -2q-13 -2 -29 -2q-13 0 -13 8t11 8q17 1 21 5
t9 18q56 191 78 256q3 8 -4 8h-20q-7 0 -7 4q0 11 25 14q18 3 20 8q6 23 13 58q0 8 16 8zM1878 -264q0 11 32 42.5t50 31.5q7 0 11.5 -4.5t4.5 -8.5q0 -6 -4 -18t-9.5 -26t-6.5 -17q-3 -8 2 -8q4 0 6 4q17 35 38 57.5t36 22.5q14 0 21 -7.5t7 -17.5q0 -9 -3.5 -19.5
t-9.5 -23t-7 -16.5q-3 -9 2 -9q4 0 8 9q42 84 84 84q14 0 22.5 -9.5t8.5 -21.5q0 -7 -2.5 -14.5t-11.5 -26t-15 -31.5q-8 -17 -17.5 -37.5t-13.5 -29t-4 -11.5q0 -4 4 -4q3 0 19 12t27 25q6 6 8 6q6 0 6 -8q0 -7 -36 -38.5t-56 -31.5q-15 0 -15 13q0 14 43 94q31 58 31 80
q0 12 -10 12q-25 0 -80 -96q-6 -9 -16.5 -31.5t-14.5 -30.5q-3 -6 -7 -14.5t-6 -12.5t-5.5 -8.5t-6.5 -6t-7 -1.5q-17 0 -17 11q0 3 3.5 10t15 30.5t24.5 57.5q27 69 27 76q0 12 -15 12q-11 0 -73 -92q-23 -41 -35 -70q-13 -32 -21 -34q-2 -1 -4 -1q-6 0 -11 4.5t-5 10.5
q0 2 1 4l3.5 7t6.5 13.5t12 27.5t18 44q24 63 24 68q0 10 -4 10q-3 0 -18 -15q-6 -6 -11.5 -13t-9 -11.5t-7.5 -8t-7 -3.5q-4 0 -4 8zM1743 -410q-22 0 -33.5 21t-11.5 41q0 64 35 111t67 47q18 0 30.5 -20.5t12.5 -59.5q0 -52 -33.5 -96t-66.5 -44zM82 -381q0 -5 16 -10
q13 -3 13 -8q0 -7 -11 -7q-1 0 -17.5 2.5t-23.5 2.5q-5 0 -17.5 -1t-18.5 -1q-9 0 -9 6q0 5 19 10q13 3 39 33q137 158 170 190q6 6 10 6q10 0 10 -6l-2 -6q-1 -7 -3 -18.5t-3 -22.5q-10 -88 -10 -158q0 -10 3 -13t11 -5q16 -3 16 -8q0 -8 -10 -8l-16 2q-17 2 -29 2
q-8 0 -23 -2t-18 -2q-6 0 -6 6t14 8q23 3 23 22l4 52q0 6 -6 6h-66q-4 0 -10 -6q-5 -6 -12.5 -15.5t-13.5 -16t-11.5 -14t-8.5 -12.5t-3 -8zM934 -264q0 21 20 53q14 21 33 21t26 -30.5t7 -92.5q0 -12 -1 -26t-2 -23l-1 -9q0 -6 4 -6q3 0 9.5 13t14 36.5t13.5 48.5
q10 45 10 74q0 15 14 15q13 0 13 -17q0 -21 -18 -78.5t-46 -109.5q-64 -119 -131 -119q-22 0 -22 20q0 19 20 19q9 0 15 -8.5t8 -8.5q23 0 47 37t24 58q0 168 -18 168q-17 0 -25 -33q-3 -8 -8 -8q-6 0 -6 6zM545 -152q10 0 10 -10l-8 -24q-1 -3 -2 -10t-2 -10.5t-3 -8
t-5 -6.5t-7 -2q-8 0 -8 8q0 3 2 9t2 9q0 4 -2.5 5.5t-13.5 2.5t-35 1q-12 0 -15.5 -3.5t-6.5 -15.5l-35 -147q-5 -22 -1.5 -27.5t29.5 -9.5q15 -3 15 -8q0 -9 -8 -9q-1 0 -23 4.5t-37 4.5q-5 0 -24 -3.5t-27 -3.5q-14 0 -10 11q3 6 16 6q18 1 22.5 8t12.5 39l35 135
q3 18 -2 19q-51 0 -68 -13q-7 -4 -16 -16t-13 -12q-6 0 -6 6q0 3 15 33q2 4 4 11t3 12t3.5 9t7.5 4q4 0 5.5 -8t10.5 -8q3 0 29.5 -1t54.5 -1q19 0 46 1t30 1q10 0 15 9t10 9zM1419 -190q33 0 33 -43q0 -65 -94 -80q-15 -2 -15 -27q0 -35 29 -35q12 0 33 21q10 10 14 10
l4 -6q0 -9 -23.5 -33.5t-41.5 -24.5q-17 0 -31 14t-14 40q0 58 36 111t70 53zM653 -395q0 -8 -10 -8q-4 0 -20 2t-31 2q-5 0 -18.5 -2t-18.5 -2q-14 0 -14 8t12 8q18 2 22.5 6t8.5 27l34 147q2 11 2.5 15t-1.5 5.5t-7 2.5q-22 2 -22 8q0 10 8 10q3 0 33.5 -2t40.5 -2
q51 0 67 2q3 1 6.5 2t5.5 1.5t3 0.5q12 0 12 -16v-37q0 -6 -8 -6q-4 0 -8 5t-8 13.5t-5 9.5q-5 6 -15 7.5t-54 1.5q-13 0 -15 -11l-14 -69q-2 -10 -1 -12.5t7 -2.5h45q20 0 29 27q4 8 8 8q8 0 8 -6q0 -5 -4.5 -21t-5.5 -22q-3 -35 -12 -35q-8 0 -8 8q0 17 -4.5 22t-16.5 5
h-43q-9 0 -12 -14l-11 -45l-2 -10l-1.5 -7.5t-0.5 -3.5q0 -5 2 -7.5t7 -4t16 -2.5q14 0 14 -6zM881 -221l-47 -133q0 -6 8 -6q12 0 32 26q15 19 17 19q4 0 4 -7q0 -15 -37.5 -50.5t-54.5 -35.5q-15 0 -15 13q0 7 10 34.5t26.5 69.5t25.5 70q1 3 -1 4.5t-7 1.5h-27q-6 0 -6 8
t8 8q4 0 15 -1t16 -1q10 0 14 8l15 48q3 11 6.5 13.5t13.5 2.5q4 0 8 -3.5t4 -6.5q0 -5 -8 -23t-10 -31q-3 -8 4 -8q12 0 23 1l12 1q4 0 4 -4q0 -12 -6 -12h-35q-9 0 -12 -6zM1212 -211q-16 0 -22 -16q-37 -119 -37 -144q0 -20 14 -20q29 0 57.5 57.5t28.5 91.5
q0 11 -10.5 21t-30.5 10zM1802 -203q-21 0 -48.5 -57t-27.5 -98q0 -37 17 -37q25 0 51.5 56.5t26.5 98.5q0 14 -6 25.5t-13 11.5zM1663 -190q17 0 27 -8.5t10 -16.5q0 -21 -14 -21t-26 13.5t-15 13.5q-17 0 -41.5 -50t-24.5 -81q0 -33 23 -33q13 0 27.5 16.5t17.5 16.5
q4 0 4 -8q0 -10 -29 -35q-32 -27 -45 -27q-12 0 -22.5 15t-10.5 41q0 34 16.5 71t41.5 62q31 31 61 31zM686 737l25 144l12 96h4l12 -96l21 -144h-74zM1417 -207q-17 0 -38 -33.5t-21 -50.5q0 -6 6 -6q16 0 43 24.5t27 45.5q0 20 -17 20zM215 -283l6 60q3 18 0 18
q-2 0 -4.5 -2.5t-4.5 -6.5l-3 -3l-49 -64q-7 -10 2 -10h47q6 0 6 8zM1483 -356q16 0 16 -21q0 -14 -8.5 -23.5t-20.5 -9.5q-16 0 -16 21q0 14 8.5 23.5t20.5 9.5z" />
    <glyph glyph-name="uniFB01" unicode="&#xfb01;" horiz-adv-x="1169" 
d="M49 915v107h201v158q0 87 21.5 148t61 93t85 45t104.5 13q52 0 115 -15v-110q-58 14 -109 14q-76 0 -109.5 -43t-33.5 -141v-162h252v-107h-252v-737l2 -178h-139l2 178v737h-201zM993 0h-137l2 178v664l-2 180h137l-2 -180v-664zM991 1237h-133v227h133v-227z" />
    <glyph glyph-name="uniFB02" unicode="&#xfb02;" horiz-adv-x="1175" 
d="M49 915v107h201v158q0 87 21.5 148t61 93t85 45t104.5 13q52 0 115 -15v-110q-58 14 -109 14q-76 0 -109.5 -43t-33.5 -141v-162h252v-107h-252v-737l2 -178h-139l2 178v737h-201zM995 1284v-1106l2 -178h-139l2 178v1106l-2 180h139z" />
    <glyph glyph-name="dollar.superior" horiz-adv-x="823" 
d="M469 451h-107v147q-65 7 -119.5 29t-91 52t-59 57.5t-37.5 56.5l90 53q33 -47 63.5 -78t88.5 -55.5t131 -24.5q56 0 102.5 12t79.5 43.5t33 77.5q0 35 -18 60t-55.5 40.5t-76 23.5t-98.5 16q-137 21 -194 45q-119 52 -119 174q0 103 77.5 166t202.5 71v123h107v-127
q182 -27 274 -176l-92 -57q-45 64 -104 103.5t-152 39.5q-81 0 -139.5 -33.5t-58.5 -97.5q0 -19 6.5 -34t15.5 -26t28.5 -20t33.5 -14t43 -10.5t46 -7.5t52 -7q40 -6 64.5 -11t64.5 -15t65 -20.5t55 -29t47.5 -40.5t29.5 -53.5t12 -69.5q0 -105 -81.5 -168t-209.5 -72v-143z
" />
    <glyph glyph-name="cent.superior" horiz-adv-x="755" 
d="M592 754l90 -41q-8 -18 -26 -42t-52 -56.5t-90 -54t-121 -21.5q-40 0 -88 10l-57 -135h-98l71 170q-70 42 -110.5 115t-40.5 173q0 152 91.5 250.5t239.5 98.5q41 0 76 -9l49 125h99l-64 -157q69 -40 113 -125l-99 -43q-16 43 -62.5 82t-119.5 39q-89 0 -147 -66.5
t-58 -183.5t59 -184.5t150 -67.5q73 0 124 41t71 82z" />
    <glyph glyph-name="Euro.superior" horiz-adv-x="915" 
d="M66 1069v72h131q32 163 134.5 253.5t250.5 90.5q152 0 260 -82l-58 -88q-87 69 -198 69q-95 0 -163.5 -61.5t-92.5 -181.5h399v-72h-410q-2 -18 -2 -57q0 -35 2 -49h410v-72h-401q22 -125 91 -188.5t167 -63.5q107 0 198 68l58 -86q-108 -80 -262 -80q-153 0 -255.5 91
t-129.5 259h-129v72h120v43q0 43 2 63h-122z" />
    <glyph glyph-name="sterling.superior" horiz-adv-x="913" 
d="M80 973v90h158q-45 99 -45 178q0 114 82 177t208 63q51 0 97 -11.5t90.5 -37.5t79 -75.5t51.5 -117.5l-119 -20q-43 163 -201 163q-71 0 -116.5 -36t-45.5 -105q0 -18 2 -34.5t10 -39.5t10.5 -31t15.5 -39.5t14 -33.5h268v-90h-238q11 -53 11 -94q0 -65 -25 -129
q124 -107 217 -107q116 0 127 201l119 -8q-11 -295 -229 -295q-84 0 -148.5 33t-128.5 90h-4q-44 -56 -113 -89.5t-147 -33.5v121q96 0 153.5 46t57.5 146q0 49 -19 119h-192z" />
    <glyph glyph-name="yen.superior" horiz-adv-x="960" 
d="M86 1069v72h209l-213 319v4h145l267 -424l266 424h133v-4l-215 -319h194v-72h-243l-72 -106h315v-72h-327v-211l2 -121h-121l2 121v211h-342v72h328l-70 106h-258z" />
    <glyph glyph-name="numbersign.superior" horiz-adv-x="989" 
d="M739 1481h90l-51 -221h146v-93h-166l-66 -293h170v-92h-190l-49 -223h-91l50 223h-281l-49 -223h-92l49 223h-146v92h166l68 293h-168v93h188l52 221h90l-51 -221h280zM387 1167l-65 -293h280l66 293h-281z" />
    <glyph glyph-name="percent.superior" horiz-adv-x="1193" 
d="M289 1008q-100 0 -169 66.5t-69 170.5q0 103 69 169.5t169 66.5t167.5 -66.5t67.5 -169.5q0 -104 -67.5 -170.5t-167.5 -66.5zM905 541q-98 0 -166.5 67t-68.5 170t68.5 170.5t166.5 67.5q100 0 169 -67.5t69 -170.5t-69 -170t-169 -67zM924 1464l-549 -905h-103l549 905
h103zM289 1090q59 0 95 43.5t36 111.5t-36 111t-95 43q-62 0 -97.5 -42.5t-35.5 -111.5t36 -112t97 -43zM905 623q61 0 97 43t36 112t-35.5 112.5t-97.5 43.5q-60 0 -95.5 -43.5t-35.5 -112.5q0 -68 36 -111.5t95 -43.5z" />
    <glyph glyph-name="period.superior" horiz-adv-x="360" 
d="M106 559v174h150v-174h-150z" />
    <glyph glyph-name="comma.superior" horiz-adv-x="360" 
d="M106 559v174h148v-172l-119 -196h-76l109 194h-62z" />
    <glyph glyph-name="hyphen.superior" horiz-adv-x="466" 
d="M104 879v112h256v-112h-256z" />
    <glyph glyph-name="zero.tl" horiz-adv-x="1206" 
d="M602 1399q162 0 284.5 -97t184.5 -258t62 -360t-62 -359.5t-184.5 -257t-284.5 -96.5q-160 0 -282 96t-185 257.5t-63 359.5t63 360t185 258.5t282 96.5zM602 1284q-112 0 -200.5 -77t-137.5 -213.5t-49 -307.5q0 -263 108.5 -431.5t278.5 -168.5q171 0 280 168.5
t109 431.5q0 171 -49 307.5t-138 213.5t-202 77z" />
    <glyph glyph-name="one.tl" horiz-adv-x="1206" 
d="M614 102v1115h-4l-403 -170h-4v127l452 196h97l-2 -182v-1086h370v-102h-917v102h411z" />
    <glyph glyph-name="two.tl" horiz-adv-x="1206" 
d="M1081 999q0 -68 -24.5 -130.5t-52.5 -103.5t-94.5 -96t-101.5 -78.5t-124 -80.5q-8 -5 -12 -8q-75 -48 -123 -81.5t-108.5 -82.5t-105.5 -101.5t-77 -111.5v-4h811v-121h-960v109q29 67 75 130.5t89.5 109t109 97.5t107.5 81t112 75q159 105 215 155q121 117 125 240
q0 52 -18.5 101.5t-54 91t-95 67t-133.5 25.5q-285 0 -397 -338l-125 43q151 412 524 412q93 0 169 -24.5t125 -64.5t82.5 -93t47.5 -107.5t14 -110.5z" />
    <glyph glyph-name="three.tl" horiz-adv-x="1206" 
d="M106 209l97 80q89 -101 182.5 -150t204.5 -49q160 0 255 74.5t95 208.5q0 66 -24 117.5t-61 82.5t-88 50.5t-99.5 26.5t-100.5 7h-205v113h197q151 3 246.5 73t95.5 193q0 109 -85.5 177.5t-225.5 68.5q-209 0 -350 -197l-99 78q94 121 201 178.5t250 57.5
q110 0 197.5 -28t142 -76.5t83.5 -110.5t29 -133q0 -64 -22 -119t-53.5 -89.5t-70 -60.5t-68.5 -37.5t-52 -15.5v-8q27 -4 60.5 -14.5t78.5 -37t80.5 -63.5t60.5 -98.5t25 -136.5q0 -59 -15 -113.5t-52 -107.5t-91.5 -92t-140 -63t-192.5 -24q-170 0 -284.5 64.5
t-201.5 173.5z" />
    <glyph glyph-name="four.tl" horiz-adv-x="1206" 
d="M49 369v88l643 913h199l-2 -182v-707h289v-112h-289v-187l2 -182h-139l2 182v187h-705zM217 481h537v652l4 116h-4l-537 -764v-4z" />
    <glyph glyph-name="five.tl" horiz-adv-x="1206" 
d="M102 209l103 76q92 -104 184.5 -151.5t208.5 -47.5q169 0 269 90t100 254q0 87 -29 153.5t-79 105t-112.5 58t-134.5 19.5q-70 0 -132 -16t-104 -42.5t-64 -44t-38 -34.5l-110 30l41 711h827l-22 -121h-684l-29 -477h4q140 107 336 109q70 0 137 -16t128 -51.5
t106.5 -86.5t72.5 -126.5t27 -166.5q0 -215 -139.5 -339t-370.5 -124q-306 0 -496 238z" />
    <glyph glyph-name="six.tl" horiz-adv-x="1206" 
d="M727 1282q-68 0 -133.5 -24t-126 -76t-106 -126.5t-73.5 -183t-30 -237.5h4q145 244 412 244q67 0 129 -15t118.5 -49t98 -83.5t66 -123.5t24.5 -164q0 -114 -38.5 -205.5t-105 -149t-152.5 -88t-183 -30.5q-233 0 -375.5 171t-142.5 479q0 229 81.5 407.5t221 274.5
t311.5 96q96 0 178 -25t129 -53l-61 -109q-132 70 -246 70zM657 764q-250 0 -393 -268q24 -207 125 -308.5t250 -101.5q154 0 242 94.5t88 255.5q0 150 -80.5 239t-231.5 89z" />
    <glyph glyph-name="seven.tl" horiz-adv-x="1206" 
d="M289 0l655 1249h-784v121h932v-98l-633 -1272h-170z" />
    <glyph glyph-name="eight.tl" horiz-adv-x="1206" 
d="M598 -31q-224 0 -356.5 100.5t-132.5 268.5q0 252 321 377v4q-119 51 -195.5 132.5t-76.5 197.5q0 153 121 253.5t327 100.5q67 0 130.5 -11t124.5 -37.5t106 -65.5t72.5 -100t27.5 -136q0 -229 -297 -330v-4q73 -28 128 -59.5t103 -76t73.5 -105t25.5 -134.5
q0 -175 -139.5 -275t-362.5 -100zM969 336q0 32 -8.5 61.5t-21 52.5t-36 46t-42.5 39t-53.5 34t-56 28.5t-61.5 26t-60 22t-61 20.5q-151 -54 -234 -131.5t-83 -190.5q0 -89 52 -149.5t129.5 -85.5t174.5 -25q156 0 258.5 65.5t102.5 186.5zM299 1053q0 -47 17.5 -86t45 -67
t72.5 -53.5t88 -42.5t103 -36q153 46 232 113.5t79 167.5q0 116 -91 176.5t-239 60.5q-155 0 -231 -64.5t-76 -168.5z" />
    <glyph glyph-name="nine.tl" horiz-adv-x="1206" 
d="M479 88q68 0 133.5 24t126 76t106 126.5t73.5 183t30 237.5h-4q-145 -243 -412 -243q-85 0 -160.5 25t-138.5 75t-100 136t-37 198q0 114 38.5 205.5t105 149t152.5 88t183 30.5q233 0 376 -170.5t143 -478.5q0 -172 -47.5 -318.5t-130 -247t-195.5 -157t-242 -56.5
q-96 0 -178 25t-129 53l61 109q132 -70 246 -70zM549 606q250 0 393 268q-24 207 -125 308.5t-250 101.5q-154 0 -241.5 -94.5t-87.5 -255.5q0 -151 80 -239.5t231 -88.5z" />
    <glyph glyph-name="dollar.tl" horiz-adv-x="1206" 
d="M680 -164h-129v221q-80 8 -151 33t-119.5 56.5t-89 72t-63.5 74.5t-40 69l113 62q27 -42 51.5 -73.5t63.5 -67.5t81.5 -59t102.5 -38.5t129 -15.5q91 0 166.5 21.5t128.5 74t53 129.5q0 49 -21.5 86t-53.5 60.5t-87.5 41t-103.5 27t-121 19.5q-174 25 -251 53
q-210 75 -210 270q0 153 119 244t303 100v193h129v-197q84 -12 156.5 -43.5t121.5 -73.5t80.5 -80t51.5 -77l-113 -66q-29 46 -60 81.5t-78 72.5t-112 57.5t-143 20.5q-84 0 -154 -22t-118 -73.5t-48 -125.5q0 -107 114 -152q58 -23 218 -47q8 -1 14 -2q45 -7 73 -11.5
t74 -14t76.5 -19t71 -25t67.5 -33t56 -43t45.5 -55t27.5 -68t11 -83.5q0 -105 -58.5 -184t-155 -120.5t-218.5 -48.5v-221z" />
    <glyph glyph-name="cent.tl" horiz-adv-x="1206" 
d="M956 291l109 -51q-8 -20 -25.5 -47.5t-55.5 -68.5t-84.5 -74t-118 -57t-150.5 -24q-73 0 -150 23l-90 -223h-117l107 268q-108 63 -172 180.5t-64 282.5q0 241 136 396t356 155q65 0 131 -17l82 201h117l-99 -242q23 -13 43.5 -28.5t36.5 -29.5t31 -31t24.5 -30
t19.5 -28.5t14.5 -23.5t10.5 -18l5 -11l-117 -54q-10 22 -24 44.5t-41 52t-58.5 52t-79 38.5t-100.5 16q-153 0 -251.5 -118t-98.5 -314q0 -199 100.5 -314.5t249.5 -115.5q68 0 128 25t99 62.5t62 68t34 55.5z" />
    <glyph glyph-name="Euro.tl" horiz-adv-x="1206" 
d="M86 784v93h174q41 246 175.5 384t330.5 138q91 0 181.5 -30t158.5 -89l-72 -100q-52 47 -122 72.5t-140 25.5q-137 0 -233 -102.5t-127 -298.5h544v-93h-555q-4 -66 -4 -100q0 -15 1 -41.5t1 -38.5h557v-92h-548q30 -206 126 -313t236 -107q146 0 264 98l72 -100
q-62 -54 -151 -86.5t-189 -32.5q-206 0 -341.5 142t-168.5 399h-170v92h162q-2 23 -2 72q0 73 4 108h-164z" />
    <glyph glyph-name="sterling.tl" horiz-adv-x="1206" 
d="M100 639v109h224q-21 57 -32 93t-21.5 93t-10.5 115q0 161 109 255.5t270 94.5q66 0 125.5 -17t119 -55.5t105.5 -113.5t70 -179l-146 -26q-27 143 -102 208.5t-176 65.5q-99 0 -165.5 -65t-66.5 -183q0 -30 3.5 -58.5t13 -61t15.5 -51.5t21.5 -60t20.5 -55h365v-109
h-332q22 -86 22 -190q0 -93 -30 -175q165 -180 305 -180q74 0 120.5 83t53.5 251l139 -10q-10 -236 -87.5 -341.5t-213.5 -105.5q-109 0 -195 52.5t-169 142.5h-4q-59 -88 -151 -138.5t-198 -50.5v144q129 0 209 77t80 226q0 100 -33 215h-258z" />
    <glyph glyph-name="uni20BD.tl" horiz-adv-x="1206" 
d="M102 293v92h201v182h-201v119h201v502l-2 182h346q50 0 92.5 -3t94.5 -13t93 -26.5t82 -46.5t68 -70.5t43.5 -101t16.5 -134.5q0 -97 -30 -171.5t-77.5 -118.5t-114.5 -71.5t-131 -37t-137 -9.5h-207v-182h355v-92h-355v-111l2 -182h-141l2 182v111h-201zM631 1253h-191
v-567h191q61 0 108.5 6t95.5 25t80 50t52 84t20 124q0 75 -21.5 128t-52.5 81.5t-82.5 44.5t-94.5 20t-105 4z" />
    <glyph glyph-name="yen.tl" horiz-adv-x="1206" 
d="M102 784v93h275l-275 489v4h170l346 -678l349 678h155v-4l-274 -489h250v-93h-301l-103 -180h404v-92h-418v-330l2 -182h-139l2 182v330h-443v92h426l-100 180h-326z" />
    <glyph glyph-name="uni0192.tl" horiz-adv-x="1206" 
d="M635 1100v-352h358v-109h-358v-668q0 -301 -324 -301q-57 0 -164 13v114q99 -12 158 -12q103 0 152 44t49 142v668h-303v109h303v348q0 88 24.5 149t71 93.5t101.5 46.5t126 14q93 0 164 -13v-116q-82 14 -159 14q-103 0 -151 -43t-48 -141z" />
    <glyph glyph-name="colonmonetary.tl" horiz-adv-x="1206" 
d="M551 -166h-92v250q-161 56 -257 204.5t-96 373.5q0 222 97 380t256 222v225h92v-199q58 8 92 8q43 0 84 -6v197h92v-221q98 -35 170 -108.5t113 -168.5l-123 -45q-37 94 -125 165t-209 71q-76 0 -145.5 -34.5t-124.5 -97.5t-88 -162.5t-33 -219.5q0 -102 23 -186.5
t61.5 -140.5t89.5 -95t105.5 -56.5t111.5 -17.5q70 0 134 26.5t107 66t71 80.5t36 75l119 -43q-24 -80 -100.5 -164.5t-192.5 -126.5v-252h-92v227q-43 -6 -90 -6q-45 0 -86 6v-227z" />
    <glyph glyph-name="franc.tl" horiz-adv-x="1206" 
d="M1034 813v-117h-594v-311h385v-92h-385v-111l2 -182h-141l2 182v111h-221v92h221v803l-2 182h819v-117h-680v-440h594z" />
    <glyph glyph-name="lira.tl" horiz-adv-x="1206" 
d="M113 784v93h178q-23 84 -23 172q0 160 108.5 255t268.5 95q51 0 98.5 -9.5t98 -35.5t91 -65.5t74.5 -105t52 -149.5l-144 -26q-27 143 -101 208.5t-173 65.5t-164 -65t-65 -183q0 -77 26 -157h408v-93h-375q37 -101 53 -180h322v-92h-309q0 -10 1 -30.5t1 -32.5
q0 -90 -31 -175q161 -180 305 -180q72 0 117.5 83t52.5 251l139 -10q-16 -447 -297 -447q-109 0 -195 52.5t-167 142.5h-4q-57 -87 -148 -138t-196 -51v144q128 0 206 77t78 226q0 44 -6 88h-280v92h264q-7 28 -17 58t-23.5 67t-19.5 55h-204z" />
    <glyph glyph-name="uni20B1.tl" horiz-adv-x="1206" 
d="M63 907v90h179v191l-2 182h299q66 0 120 -6t119 -29t110 -61.5t78 -109.5t38 -167h149v-90h-149q-7 -90 -38 -159t-76 -110t-106 -66.5t-119.5 -34.5t-125.5 -9h-158v-346l2 -182h-143l2 182v725h-179zM522 647q55 0 98 5.5t86.5 22.5t73 45t50.5 75.5t26 111.5h-475
v-260h141zM522 1253h-141v-256h475q-5 68 -27.5 117t-52 75.5t-75.5 41.5t-85 18.5t-94 3.5z" />
    <glyph glyph-name="uni20B9.tl" horiz-adv-x="1206" 
d="M119 907v90h672q-5 68 -31 117t-60.5 75.5t-87.5 41.5t-97 18.5t-105 3.5h-291v117h1003v-92h-358v-4q158 -90 174 -277h184v-90h-184q-22 -296 -336 -362l399 -541v-4h-176l-364 528h-342v119h291q60 0 108 5.5t97.5 22.5t84.5 45t59.5 75.5t31.5 111.5h-672z" />
    <glyph glyph-name="uni20BA.tl" horiz-adv-x="1206" 
d="M100 754v96l191 76v262l-2 182h141l-2 -182v-209l426 170v-96l-426 -170v-183l426 170v-96l-426 -170v-485h254q151 0 223.5 111t87.5 362l137 -10q-14 -582 -436 -582h-405l2 182v369l-191 -76v94l191 76v184z" />
    <glyph glyph-name="section.tl" horiz-adv-x="1206" 
d="M1143 461q0 -219 -230 -311q52 -68 52 -168q0 -148 -103 -231t-270 -83q-109 0 -213.5 36t-179.5 97l80 105q60 -54 143.5 -86.5t173.5 -32.5q102 0 166.5 44.5t64.5 131.5q0 26 -5 48t-18.5 40.5t-25 32.5t-37.5 28.5t-41 23t-51 21.5t-53 19t-59 19q-17 5 -25 8
q-85 29 -146 54t-121.5 61t-98 75.5t-60.5 93t-23 117.5q0 223 232 311q-51 66 -51 172q0 146 102.5 228t267.5 82q100 0 197 -31t162 -82l-78 -102q-53 44 -128.5 71t-156.5 27q-99 0 -164 -45.5t-65 -130.5q0 -29 8.5 -54t19.5 -43t35 -36t42 -29t54.5 -25.5t57.5 -22
t66 -22.5q20 -7 30 -10q107 -35 180 -68t138.5 -80t98 -110t32.5 -143zM649 729q-166 55 -227 86q-27 14 -49 29q-172 -64 -172 -215q0 -55 25 -99t77 -79t109.5 -60.5t144.5 -54.5q11 -4 58 -19.5t64 -22t51.5 -19.5t58 -25.5t45.5 -26.5q174 61 174 215q0 44 -18.5 82
t-47.5 66t-78 54.5t-97 45.5t-118 43z" />
    <glyph glyph-name="numbersign.tl" horiz-adv-x="1206" 
d="M907 1397h111l-66 -350h185v-107h-205l-90 -481h215v-105h-234l-65 -354h-111l66 354h-351l-65 -354h-109l66 354h-184v105h202l90 481h-210v107h229l65 350h111l-65 -350h350zM471 940l-90 -481h350l90 481h-350z" />
    <glyph glyph-name="percent.tl" horiz-adv-x="1206" 
d="M915 -29q-102 0 -172.5 99.5t-70.5 253.5q0 96 28 178.5t83.5 135t127.5 52.5q104 0 174 -101t70 -253q0 -96 -29 -178.5t-84.5 -134.5t-126.5 -52zM911 74q66 0 104 75t38 183q0 103 -36.5 178.5t-101.5 75.5q-64 0 -100.5 -73t-36.5 -183q0 -67 14 -123.5t45 -94.5
t74 -38zM350 0h-119l631 1370h119zM299 678q-102 0 -174 100t-72 254q0 94 28.5 176.5t85 135.5t128.5 53q104 0 176 -101t72 -252q0 -96 -29 -179t-86 -135t-129 -52zM436 1040q0 105 -34.5 180.5t-100.5 75.5q-65 0 -102 -73.5t-37 -184.5q0 -67 14 -123.5t45 -94.5
t74 -38q66 0 103.5 74t37.5 184z" />
    <glyph glyph-name="zero.numerator" horiz-adv-x="919" 
d="M461 1483q115 0 201 -64t130 -170t44 -237q0 -203 -101.5 -337t-273.5 -134t-274.5 134.5t-102.5 336.5q0 201 102.5 336t274.5 135zM461 1384q-111 0 -182.5 -103.5t-71.5 -268.5q0 -166 71.5 -269.5t182.5 -103.5q109 0 180.5 104t71.5 269q0 164 -72 268t-180 104z
" />
    <glyph glyph-name="one.numerator" horiz-adv-x="552" 
d="M391 680l2 -121h-123l2 121v653h-4l-215 -108h-4v108l258 131h86l-2 -123v-661z" />
    <glyph glyph-name="two.numerator" horiz-adv-x="843" 
d="M764 1210q0 -38 -9 -71t-31.5 -62.5t-44 -51.5t-62.5 -49.5t-69.5 -45t-82.5 -47.5q-51 -29 -79.5 -46.5t-69 -46t-69 -58.5t-48.5 -64v-4h557v-105h-684v94q24 54 62.5 102.5t88.5 89t90 67.5t95 59q120 68 154 95q79 62 79 142q0 70 -50.5 121t-144.5 51
q-185 0 -262 -202l-108 34q111 269 373 269q83 0 146 -24.5t98.5 -64.5t53 -86t17.5 -96z" />
    <glyph glyph-name="three.numerator" horiz-adv-x="831" 
d="M51 702l88 70q120 -133 277 -133q89 0 145.5 41.5t56.5 128.5q0 89 -67.5 130.5t-183.5 41.5h-117v98h112q114 0 174 43t60 119q0 68 -45 105.5t-127 37.5q-144 0 -256 -112l-82 67q130 142 338 142q146 0 222.5 -67.5t76.5 -166.5q0 -47 -18 -87t-45.5 -64.5t-56.5 -39
t-56 -18.5v-6q21 -3 44.5 -11t51.5 -25.5t50 -41.5t37 -62t15 -83q0 -51 -18.5 -97t-56 -85t-105 -62.5t-155.5 -23.5q-122 0 -206.5 42.5t-152.5 118.5z" />
    <glyph glyph-name="four.numerator" horiz-adv-x="888" 
d="M37 791v77l455 596h172l-2 -123v-452h198v-98h-198v-111l2 -121h-123l2 121v111h-506zM178 889h365v385l4 96h-4l-365 -477v-4z" />
    <glyph glyph-name="five.numerator" horiz-adv-x="854" 
d="M68 705l88 67q69 -73 130 -103t132 -30q114 0 180 53.5t66 153.5q0 102 -65.5 153.5t-166.5 51.5q-142 -2 -227 -95l-99 25l29 483h600l-20 -104h-473l-17 -283h4q89 70 226 70q65 0 124 -18t106 -53t75 -93t28 -131q0 -145 -100 -228t-266 -83q-122 0 -204.5 44
t-149.5 120z" />
    <glyph glyph-name="six.numerator" horiz-adv-x="886" 
d="M535 1380q-57 0 -110.5 -21.5t-102 -65.5t-79 -122t-34.5 -180h4q108 156 287 156q62 0 117 -17t100.5 -50.5t72.5 -91t27 -132.5q0 -101 -49.5 -174t-126.5 -107t-172 -34q-179 0 -282 111t-103 313q0 230 129 373t322 143q124 0 227 -56l-53 -96q-83 51 -174 51z
M485 1047q-87 0 -150.5 -42t-119.5 -128q35 -238 254 -238q111 0 168 57.5t57 151.5q0 86 -52.5 142.5t-156.5 56.5z" />
    <glyph glyph-name="seven.numerator" horiz-adv-x="770" 
d="M150 559l458 801h-555v104h684v-86l-444 -819h-143z" />
    <glyph glyph-name="eight.numerator" horiz-adv-x="925" 
d="M459 541q-187 0 -282 67t-95 174q0 91 58.5 148.5t162.5 97.5v4q-186 81 -186 213q0 101 94.5 169.5t249.5 68.5q56 0 114 -12.5t114.5 -38t92 -73.5t35.5 -110q0 -145 -209 -213v-4q234 -79 234 -246q0 -114 -101.5 -179.5t-281.5 -65.5zM727 784q0 32 -16.5 59.5
t-39.5 46.5t-66.5 38t-78.5 31t-94 30q-108 -34 -166.5 -81.5t-58.5 -114.5q0 -78 71 -116t187 -38q121 0 191.5 36.5t70.5 108.5zM240 1247q0 -62 59 -101.5t172 -72.5q117 31 174 70t57 100q0 66 -66 103.5t-171 37.5q-114 0 -169.5 -39.5t-55.5 -97.5z" />
    <glyph glyph-name="nine.numerator" horiz-adv-x="886" 
d="M352 641q57 0 110.5 21.5t102 65.5t79 122t34.5 180h-4q-108 -156 -287 -156q-62 0 -117 17t-100.5 50.5t-72.5 91t-27 132.5q0 101 49.5 174t127 107.5t171.5 34.5q179 0 282 -111t103 -313q0 -230 -129 -373t-322 -143q-126 0 -227 55l53 96q83 -51 174 -51zM401 975
q87 0 151 42t120 128q-35 237 -254 237q-111 0 -168 -57t-57 -151q0 -86 52 -142.5t156 -56.5z" />
    <glyph glyph-name="zero.denominator" horiz-adv-x="919" 
d="M461 924q115 0 201 -64t130 -170t44 -237q0 -203 -101.5 -337t-273.5 -134t-274.5 134.5t-102.5 336.5q0 201 102.5 336t274.5 135zM461 825q-111 0 -182.5 -103.5t-71.5 -268.5q0 -166 71.5 -269.5t182.5 -103.5q109 0 180.5 104t71.5 269q0 164 -72 268t-180 104z" />
    <glyph glyph-name="one.denominator" horiz-adv-x="552" 
d="M391 121l2 -121h-123l2 121v653h-4l-215 -108h-4v108l258 131h86l-2 -123v-661z" />
    <glyph glyph-name="two.denominator" horiz-adv-x="843" 
d="M764 651q0 -38 -9 -71t-31.5 -62.5t-44 -51.5t-62.5 -49.5t-69.5 -45t-82.5 -47.5q-51 -29 -79.5 -46.5t-69 -46t-69 -58.5t-48.5 -64v-5h557v-104h-684v94q24 54 62.5 102.5t88.5 89t90 67.5t95 59q120 68 154 95q79 62 79 142q0 70 -50.5 121t-144.5 51
q-88 0 -155.5 -50.5t-106.5 -152.5l-108 35q111 269 373 269q83 0 146 -24.5t98.5 -64.5t53 -86t17.5 -96z" />
    <glyph glyph-name="three.denominator" horiz-adv-x="831" 
d="M51 143l88 70q120 -133 277 -133q89 0 145.5 41.5t56.5 128.5q0 89 -67.5 130.5t-183.5 41.5h-117v98h112q114 0 174 43t60 119q0 68 -45 105.5t-127 37.5q-144 0 -256 -112l-82 67q130 142 338 142q146 0 222.5 -67.5t76.5 -166.5q0 -47 -18 -87t-45.5 -64.5t-56.5 -39
t-56 -18.5v-6q21 -3 44.5 -11t51.5 -25.5t50 -41.5t37 -62t15 -83q0 -51 -18.5 -97t-56 -85t-105 -62.5t-155.5 -23.5q-122 0 -206.5 42.5t-152.5 118.5z" />
    <glyph glyph-name="four.denominator" horiz-adv-x="888" 
d="M37 231v78l455 596h172l-2 -123v-452h198v-99h-198v-110l2 -121h-123l2 121v110h-506zM178 330h365v385l4 96h-4l-365 -477v-4z" />
    <glyph glyph-name="five.denominator" horiz-adv-x="854" 
d="M68 145l88 68q69 -73 130 -103t132 -30q114 0 180 53.5t66 153.5q0 102 -65.5 153.5t-166.5 51.5q-142 -2 -227 -95l-99 25l29 483h600l-20 -104h-473l-17 -283h4q89 70 226 70q65 0 124 -18t106 -53t75 -93t28 -131q0 -145 -100 -228t-266 -83q-122 0 -204.5 43.5
t-149.5 119.5z" />
    <glyph glyph-name="six.denominator" horiz-adv-x="886" 
d="M535 821q-57 0 -110.5 -21.5t-102 -65.5t-79 -122t-34.5 -180h4q108 156 287 156q62 0 117 -17t100.5 -50.5t72.5 -91t27 -132.5q0 -101 -49.5 -174t-126.5 -107t-172 -34q-179 0 -282 111t-103 313q0 230 129 373t322 143q124 0 227 -56l-53 -96q-83 51 -174 51z
M485 487q-87 0 -150.5 -42t-119.5 -128q35 -237 254 -237q111 0 168 57.5t57 151.5q0 86 -52.5 142t-156.5 56z" />
    <glyph glyph-name="seven.denominator" horiz-adv-x="770" 
d="M150 0l458 801h-555v104h684v-86l-444 -819h-143z" />
    <glyph glyph-name="eight.denominator" horiz-adv-x="925" 
d="M459 -18q-187 0 -282 67t-95 174q0 91 58.5 148.5t162.5 97.5v4q-186 81 -186 213q0 101 94.5 169.5t249.5 68.5q56 0 114 -12.5t114.5 -38t92 -73.5t35.5 -110q0 -145 -209 -213v-4q234 -79 234 -246q0 -114 -101.5 -179.5t-281.5 -65.5zM727 225q0 32 -16.5 59.5
t-39.5 46.5t-66.5 38t-78.5 31t-94 30q-225 -72 -225 -197q0 -78 71 -115.5t187 -37.5q121 0 191.5 36.5t70.5 108.5zM240 688q0 -62 59 -101.5t172 -72.5q117 31 174 70t57 100q0 66 -66 103.5t-171 37.5q-114 0 -169.5 -39.5t-55.5 -97.5z" />
    <glyph glyph-name="nine.denominator" horiz-adv-x="886" 
d="M352 82q57 0 110.5 21.5t102 65.5t79 122t34.5 180h-4q-108 -156 -287 -156q-62 0 -117 17t-100.5 50.5t-72.5 91t-27 132.5q0 101 49.5 174t127 107.5t171.5 34.5q179 0 282 -111t103 -313q0 -230 -129 -373t-322 -143q-126 0 -227 55l53 96q83 -51 174 -51zM401 416
q87 0 151 42t120 128q-35 237 -254 237q-111 0 -168 -57.5t-57 -151.5q0 -86 52 -142t156 -56z" />
    <glyph glyph-name="acute.cap" 
d="M383 1606h-125l184 258h185z" />
    <glyph glyph-name="grave.cap" 
d="M530 1606h-124l-246 258h188z" />
    <glyph glyph-name="circumflex.cap" 
d="M688 1606h-108l-185 178l-186 -178h-109l213 258h158z" />
    <glyph glyph-name="dieresis.cap" 
d="M510 1616v227h135v-227h-135zM143 1616v227h133v-227h-133z" />
    <glyph glyph-name="tilde.cap" 
d="M86 1620q0 135 46 195.5t118 60.5q80 0 162 -82l11.5 -11.5l12 -12t11.5 -11t12 -11t11 -9t12.5 -9t12 -6.5t13.5 -5.5t13 -3t14 -1.5q79 0 79 152h86q0 -136 -47 -195t-123 -59q-79 0 -161 82q-25 26 -38.5 39t-36.5 26t-44 13q-80 0 -80 -152h-84z" />
    <glyph glyph-name="ring.cap" 
d="M625 1751q0 -78 -60.5 -134t-169.5 -56q-112 0 -172.5 56t-60.5 134q0 80 61 138.5t172 58.5q109 0 169.5 -58.5t60.5 -138.5zM543 1751q0 48 -41.5 86.5t-106.5 38.5q-71 0 -111 -37.5t-40 -87.5q0 -48 40 -83.5t111 -35.5q65 0 106.5 36t41.5 83z" />
    <glyph glyph-name="cedilla.cap" 
d="M338 35h111l-29 -148q94 -5 153.5 -43.5t59.5 -113.5q0 -74 -69 -118t-204 -44q-113 0 -208 31l8 88q111 -33 196 -33q150 0 150 84q0 82 -170 82h-37z" />
    <glyph glyph-name="breve.cap" 
d="M547 1864h108q0 -128 -74.5 -192t-185.5 -64q-70 0 -128 25t-97 84.5t-39 146.5h111q0 -160 153 -160q152 0 152 160z" />
    <glyph glyph-name="caron.cap" 
d="M580 1864h108l-217 -258h-158l-213 258h109l186 -178z" />
    <glyph glyph-name="dotaccent.cap" 
d="M328 1616v227h133v-227h-133z" />
    <glyph glyph-name="hungarumlaut.cap" 
d="M305 1606h-125l84 258h158zM612 1606h-125l123 258h154z" />
    <glyph glyph-name="macron.cap" 
d="M651 1663h-514v115h514v-115z" />
    <glyph glyph-name="ogonek.cap" 
d="M596 -293l8 -88q-21 -14 -68 -28.5t-108 -14.5q-57 0 -105 14.5t-82 51t-34 90.5q0 134 215 284h113q-27 -20 -55.5 -44t-62.5 -59.5t-55.5 -75t-21.5 -73.5q0 -47 33 -69.5t86 -22.5q64 0 137 35z" />
    <glyph glyph-name="uni00200326.cap" 
d="M315 -418h-122l200 289h185z" />
    <glyph glyph-name="caron.capalt" 
d="M322 1464h139l-51 -426h-88v426z" />
    <glyph glyph-name="ampersand.cap" horiz-adv-x="1542" 
d="M1292 731l117 -47q-39 -100 -112 -222t-156 -218q82 -77 136.5 -108.5t113.5 -31.5q37 0 92 15v-119q-49 -16 -109 -16q-76 0 -150 37t-173 131q-205 -189 -471 -189q-98 0 -184.5 23.5t-158 71.5t-113.5 130t-42 189q0 82 26 150t64.5 114t100 86t115.5 63.5t128 49.5
q-62 96 -92.5 170.5t-30.5 150.5q0 59 20 116t61.5 108.5t116 83.5t171.5 32q169 0 264.5 -90t95.5 -227q0 -63 -22.5 -116.5t-58.5 -92.5t-92.5 -74t-113 -59.5t-130.5 -50.5q47 -63 106.5 -143t87.5 -117.5t61.5 -81.5t56 -71t44.5 -52q124 141 231 405zM590 76
q204 0 381 157q-184 201 -393 517q-80 -27 -136.5 -54.5t-110.5 -69.5t-82 -102t-28 -137q0 -82 32.5 -144t86.5 -97t117.5 -52.5t132.5 -17.5zM530 1165q0 -111 111 -284q47 16 77 27t70.5 28.5t66.5 33t54.5 38.5t44.5 47t26.5 55.5t10.5 67.5q0 91 -57.5 151t-167.5 60
q-114 0 -175 -65t-61 -159z" />
    <glyph glyph-name="zero.cap" horiz-adv-x="1390" 
d="M696 1501q132 0 242 -61t183 -166t113 -245t40 -298q0 -212 -68.5 -385.5t-201.5 -278t-308 -104.5q-132 0 -241.5 60.5t-182.5 165t-113 244.5t-40 298t40 298t113 245t182.5 166t241.5 61zM696 1382q-126 0 -225 -84t-153 -232t-54 -333q0 -187 54 -335t153 -232
t225 -84t224.5 84t152 232t53.5 335q0 282 -120 465.5t-310 183.5z" />
    <glyph glyph-name="one.cap" horiz-adv-x="815" 
d="M551 197l2 -197h-145l2 197v1108h-4l-334 -181h-4v131l387 209h98l-2 -196v-1071z" />
    <glyph glyph-name="two.cap" horiz-adv-x="1251" 
d="M1133 1073q0 -90 -30.5 -164.5t-106 -145t-126 -107.5t-165.5 -112q-5 -3 -7 -5q-82 -54 -130 -89t-113.5 -89t-113.5 -111.5t-83 -122.5v-4h860v-123h-1014v113q23 52 55 102.5t63.5 90.5t76.5 83t78 72t85 67t82 59t83 56q63 41 98.5 65.5t84 62t75 67t53 67.5t38 79
t11.5 87q0 45 -11.5 88.5t-37 83.5t-62.5 70.5t-91.5 48.5t-120.5 18q-300 0 -420 -362l-129 43q161 440 553 440q98 0 178.5 -26t132.5 -69t87.5 -99.5t51 -115t15.5 -118.5z" />
    <glyph glyph-name="three.cap" horiz-adv-x="1261" 
d="M92 221l101 80q185 -219 438 -219q171 0 268.5 85.5t97.5 225.5q0 72 -26.5 128t-67.5 90t-97.5 56t-109.5 30t-110 8h-213v118h207q75 0 141 18.5t118.5 53.5t83.5 92.5t31 128.5q0 122 -87.5 196t-239.5 74q-116 0 -216.5 -52.5t-174.5 -155.5l-101 73q193 250 494 250
q117 0 209 -31t148.5 -84.5t86 -121t29.5 -144.5q0 -71 -25 -131t-61 -96.5t-79.5 -63t-76 -37.5t-55.5 -14v-8q28 -3 64.5 -13.5t87 -38.5t91 -67t69 -105.5t28.5 -148.5q0 -62 -15.5 -121t-53.5 -116.5t-95.5 -100.5t-147.5 -69.5t-202 -26.5q-332 0 -539 258z" />
    <glyph glyph-name="four.cap" horiz-adv-x="1300" 
d="M47 395v90l713 979h203q0 -9 -1 -98t-1 -98v-756h315v-117h-315v-198q0 -9 1 -98.5t1 -98.5h-144q0 9 1 98.5t1 98.5v198h-774zM217 512h604v717l4 117h-4l-604 -830v-4z" />
    <glyph glyph-name="five.cap" horiz-adv-x="1271" 
d="M102 217l103 80q97 -112 198.5 -163.5t227.5 -51.5q184 0 291.5 98.5t107.5 276.5q0 93 -31 165t-85.5 115t-121.5 64.5t-145 21.5q-61 0 -118.5 -13t-96 -30.5t-73.5 -41t-50.5 -37.5t-27.5 -27l-115 31l43 759h883l-25 -123h-731l-31 -514h4q63 47 158.5 80t208.5 33
q73 0 143.5 -17.5t135.5 -55.5t114 -92.5t78 -135.5t29 -178q0 -230 -149.5 -364t-397.5 -134q-322 0 -527 254z" />
    <glyph glyph-name="six.cap" horiz-adv-x="1306" 
d="M266 668h4q170 270 459 270q94 0 177 -26.5t152 -80t109.5 -145t40.5 -211.5q0 -122 -42 -221t-114.5 -161.5t-166 -96t-199.5 -33.5q-124 0 -228 47t-179.5 135.5t-117.5 223t-42 301.5q0 185 51.5 341.5t141 263.5t212.5 166.5t264 59.5q104 0 192.5 -25.5t143.5 -54.5
l-65 -112q-142 71 -271 71q-99 0 -189.5 -42.5t-166 -126t-121 -224t-45.5 -319.5zM715 821q-140 0 -248 -73.5t-193 -223.5q28 -222 140.5 -332t279.5 -110q170 0 269.5 105.5t99.5 279.5q0 163 -90.5 258.5t-257.5 95.5z" />
    <glyph glyph-name="seven.cap" horiz-adv-x="1132" 
d="M217 0l725 1341h-864v123h1018v-102l-705 -1362h-174z" />
    <glyph glyph-name="eight.cap" horiz-adv-x="1357" 
d="M674 -39q-253 0 -405 108.5t-152 290.5q0 272 370 406v4q-63 25 -115.5 57.5t-99.5 76.5t-73.5 102t-26.5 124q0 162 137 267.5t371 105.5q77 0 148.5 -11.5t140 -39.5t119 -69.5t81.5 -105.5t31 -144q0 -246 -348 -357v-4q385 -133 385 -410q0 -123 -73 -215t-200 -139
t-290 -47zM1102 356q0 58 -26 108t-65.5 85t-105 68.5t-124 55.5t-142.5 48q-377 -127 -377 -359q0 -95 60 -161t152.5 -94.5t207.5 -28.5q181 0 300.5 73.5t119.5 204.5zM315 1128q0 -50 21.5 -92.5t54.5 -72.5t86 -57.5t102 -45.5t117 -39q183 53 276 124.5t93 180.5
q0 126 -106.5 193t-278.5 67q-180 0 -272.5 -72t-92.5 -186z" />
    <glyph glyph-name="nine.cap" horiz-adv-x="1306" 
d="M1040 797h-4q-170 -271 -458 -271q-94 0 -177 26.5t-152.5 80t-110 145t-40.5 211.5q0 122 42.5 221t115 161.5t166 96t199.5 33.5q254 0 410.5 -186.5t156.5 -519.5q0 -185 -51.5 -342t-141 -264t-213 -166.5t-264.5 -59.5q-104 0 -192.5 25.5t-143.5 54.5l66 113
q144 -72 270 -72q78 0 152 26t141.5 82.5t118 138.5t80.5 202t30 264zM592 643q140 0 247.5 73t192.5 224q-28 222 -140.5 332t-279.5 110q-170 0 -269 -105.5t-99 -279.5q0 -163 90.5 -258.5t257.5 -95.5z" />
    <glyph glyph-name="exclamdown.cap" horiz-adv-x="602" 
d="M211 0l41 1053h94l41 -1053h-176zM213 1464h178v-227h-178v227z" />
    <glyph glyph-name="questiondown.cap" horiz-adv-x="915" 
d="M754 262l82 -74q-18 -24 -41.5 -48.5t-62 -54.5t-81.5 -52.5t-102 -37.5t-121 -15q-86 0 -153.5 26.5t-108 71.5t-61.5 100t-21 117q0 71 25 132.5t64 107.5t86 89.5t92 87.5t80.5 91.5t53.5 111.5t9 138h129q4 -54 4 -70q0 -71 -22.5 -134.5t-59 -111.5t-80 -92
t-87 -84.5t-80 -81t-59 -88.5t-22.5 -100q0 -86 61.5 -142.5t159.5 -56.5q95 0 176.5 51t139.5 119zM469 1464h176v-227h-176v227z" />
    <glyph glyph-name="guilsinglleft.cap" horiz-adv-x="632" 
d="M481 346h-110l-252 336v37l248 334h114l-207 -355z" />
    <glyph glyph-name="guilsinglright.cap" horiz-adv-x="632" 
d="M262 346h-110l206 352l-206 355h114l248 -334v-37z" />
    <glyph glyph-name="guillemotleft.cap" horiz-adv-x="1001" 
d="M483 346h-110l-252 336v37l248 334h114l-207 -355zM850 346h-111l-252 336v37l250 334h113l-207 -355z" />
    <glyph glyph-name="guillemotright.cap" horiz-adv-x="1001" 
d="M629 346h-111l207 352l-207 355h113l250 -334v-37zM260 346h-108l204 352l-204 355h112l250 -334v-37z" />
    <glyph glyph-name="hyphen.cap" horiz-adv-x="747" 
d="M162 635v139h424v-139h-424z" />
    <glyph glyph-name="endash.cap" horiz-adv-x="1204" 
d="M174 645v111h856v-111h-856z" />
    <glyph glyph-name="emdash.cap" horiz-adv-x="2170" 
d="M174 645v111h1823v-111h-1823z" />
    <glyph glyph-name="parenleft.cap" horiz-adv-x="667" 
d="M586 -182h-131q-60 55 -117.5 143t-105.5 199.5t-77.5 250t-29.5 277.5q0 142 29 280t78 248.5t105 197.5t118 151h131q-310 -393 -310 -877q0 -129 25 -255.5t59 -216t82 -178t78.5 -132.5t65.5 -88z" />
    <glyph glyph-name="parenright.cap" horiz-adv-x="667" 
d="M213 -182h-131q34 43 65 88t79 132.5t81.5 177.5t58.5 216.5t25 255.5q0 485 -309 877h131q62 -64 118 -151t105 -197.5t78 -248.5t29 -280q0 -139 -29.5 -277.5t-77.5 -250t-105.5 -199.5t-117.5 -143z" />
    <glyph glyph-name="bracketleft.cap" horiz-adv-x="690" 
d="M567 -182h-338v1747h338v-103h-200v-1542h200v-102z" />
    <glyph glyph-name="bracketright.cap" horiz-adv-x="690" 
d="M121 -182v102h203v1542h-203v103h340v-1747h-340z" />
    <glyph glyph-name="braceleft.cap" horiz-adv-x="753" 
d="M287 973l10 305q2 78 26 135t64.5 89.5t88.5 47.5t104 15h63v-101q-53 -1 -87 -8t-63 -27.5t-43 -60.5t-16 -102l-12 -271q-7 -138 -72 -208t-155 -72v-21q91 0 155 -70.5t70 -207.5l12 -299q2 -61 16 -101t42 -61.5t63.5 -29.5t89.5 -9v-100h-74q-56 0 -101.5 14.5
t-84.5 46t-61.5 89.5t-24.5 138l-12 332q-2 101 -38 152t-128 51h-43v131h43q89 0 127 48.5t41 154.5z" />
    <glyph glyph-name="braceright.cap" horiz-adv-x="753" 
d="M322 1266q-3 62 -17.5 102t-43.5 60.5t-63 27.5t-87 8v101h63q56 0 104 -15t88.5 -47.5t64.5 -89.5t26 -135l10 -305q3 -105 42 -154t126 -49h45v-131h-45q-91 0 -127 -50.5t-39 -152.5l-12 -332q-2 -80 -25 -138t-61.5 -89.5t-84.5 -46t-102 -14.5h-73v100q55 1 91 9
t64 29.5t41.5 61.5t14.5 101l12 299q7 137 71.5 207.5t155.5 70.5v21q-91 2 -156.5 71.5t-72.5 208.5z" />
    <glyph glyph-name="bullet.cap" horiz-adv-x="933" 
d="M178 709q0 120 84.5 204t204.5 84q121 0 205 -84t84 -204q0 -121 -84 -205t-205 -84q-120 0 -204.5 84t-84.5 205z" />
    <glyph glyph-name="at.cap" horiz-adv-x="2025" 
d="M1389 1106h118l-190 -625q-27 -91 5 -135.5t101 -44.5t143 44t136.5 118.5t101.5 186t37 233.5q-2 128 -51.5 241t-137 196.5t-216.5 132t-281 48.5q-129 0 -254.5 -33.5t-241 -106t-203.5 -174.5t-140 -250t-52 -323q0 -163 45.5 -297t121 -223.5t177 -151t211 -89
t225.5 -27.5q135 0 282.5 36t244.5 97l41 -76q-110 -65 -278.5 -105t-309.5 -40q-85 0 -172.5 16t-177 50.5t-170.5 84.5t-152 123t-123 161t-82 203.5t-30 246.5q0 183 58.5 342t158 272.5t230.5 195t277.5 121t297.5 39.5q174 0 324.5 -55t255.5 -150.5t165 -228.5
t60 -285q0 -138 -49.5 -265t-127.5 -215t-176 -140.5t-194 -52.5q-99 0 -156.5 55.5t-50.5 157.5h-6q-64 -108 -153 -160.5t-185 -52.5q-128 0 -205.5 87.5t-77.5 239.5q0 148 73.5 289.5t192.5 229.5t244 88q45 0 84 -13t74 -42.5t56.5 -84t25.5 -129.5h6zM893 299
q86 0 160 66.5t127 197.5q63 157 63 277q0 94 -47.5 147t-120.5 53q-86 0 -171.5 -72t-141 -189.5t-55.5 -239.5q0 -117 51.5 -178.5t134.5 -61.5z" />
    <glyph glyph-name="dollar.cap" horiz-adv-x="1224" 
d="M688 -174h-133v237q-83 8 -156 35t-122 60.5t-90 77.5t-64 79t-41 72l115 66q28 -47 52.5 -80t64.5 -72.5t82.5 -64t105 -41.5t135.5 -17q70 0 131.5 14t113.5 42t82.5 76.5t30.5 111.5q0 44 -13.5 79.5t-42.5 60.5t-61 42.5t-82.5 31t-92.5 21.5t-105 17q-45 6 -69 9.5
t-69.5 12.5t-73 17.5t-67 23.5t-64 32t-52.5 42t-43.5 54t-26 68.5t-10.5 84.5q0 165 121 262t311 106v203h133v-207q71 -9 135 -34.5t107.5 -56t81.5 -70t59.5 -70.5t38.5 -64l-115 -67q-31 50 -61.5 87.5t-79 78t-115 62.5t-147.5 22q-87 0 -159.5 -24t-121.5 -80
t-49 -136q0 -27 6 -50t15.5 -41t27 -33t33.5 -25.5t42.5 -20t47 -15t54 -12t55.5 -10t59 -8.5q9 -1 14 -2q46 -7 76 -12t77 -15t79 -20.5t73 -27t69 -35.5t57 -46.5t46.5 -59t28.5 -72.5t11 -89q0 -168 -124.5 -266t-320.5 -109v-235z" />
    <glyph glyph-name="cent.cap" horiz-adv-x="1171" 
d="M932 291l106 -51q-8 -19 -25.5 -47t-55 -69t-84 -74t-117.5 -57t-150 -24q-70 0 -151 23l-88 -223h-119l106 266q-108 65 -171.5 182.5t-63.5 282.5q0 240 136.5 395.5t356.5 155.5q65 0 131 -17l80 201h119l-98 -242q22 -13 42.5 -28.5t36 -30t30.5 -31t24.5 -29.5
t19 -28t14 -23.5t10 -18.5t5.5 -11l-117 -54q-12 28 -32.5 57.5t-56.5 65t-92 58t-122 22.5q-153 0 -251.5 -118t-98.5 -314q0 -199 100.5 -314.5t249.5 -115.5q56 0 107 17.5t85.5 42t64.5 56t44.5 54t24.5 41.5z" />
    <glyph glyph-name="Euro.cap" horiz-adv-x="1382" 
d="M96 840v96h203q46 265 200 415t380 150q105 0 208 -34t181 -97l-76 -102q-62 49 -144 78.5t-167 29.5q-163 0 -276.5 -113.5t-151.5 -326.5h641v-96h-654q-4 -35 -4 -109q0 -59 2 -88h656v-96h-645q35 -223 149.5 -341t282.5 -118q87 0 168 30.5t143 80.5l76 -105
q-75 -61 -177 -96t-214 -35q-236 0 -390 153.5t-192 430.5h-199v96h189q0 12 -1 38.5t-1 41.5q0 39 4 117h-191z" />
    <glyph glyph-name="sterling.cap" horiz-adv-x="1370" 
d="M113 684v113h260q-24 63 -36.5 101.5t-24 100.5t-11.5 123q0 173 123.5 276t304.5 103q58 0 112 -10.5t111.5 -38t104 -70t85 -112.5t58.5 -160l-145 -27q-33 155 -123 226t-207 71q-120 0 -199.5 -71.5t-79.5 -198.5q0 -33 4.5 -64.5t15 -66t18 -56.5t24.5 -64.5
t24 -61.5h420v-113h-383q27 -118 27 -209q0 -87 -33 -184q189 -201 355 -201q91 0 146 91.5t64 275.5l142 -11q-17 -483 -340 -483q-126 0 -227 59.5t-191 159.5h-4q-66 -96 -168 -153.5t-225 -57.5v148q151 0 243.5 85t92.5 247q0 107 -37 233h-301z" />
    <glyph glyph-name="uni20BD.cap" horiz-adv-x="1327" 
d="M109 315v97h227v198h-227v123h227v535l-2 196h397q54 0 99 -3t100.5 -13.5t98.5 -28t86.5 -49.5t72 -75t46 -107t17.5 -144q0 -104 -32 -183.5t-82 -126t-121 -75.5t-139 -39t-146 -10h-254v-198h400v-97h-400v-118l2 -197h-145l2 197v118h-227zM713 1343h-236v-610h236
q65 0 117 6.5t104.5 27t87 53.5t56.5 89.5t22 132.5q0 81 -23.5 139t-58 88.5t-90.5 48t-102 21.5t-113 4z" />
    <glyph glyph-name="yen.cap" horiz-adv-x="1460" 
d="M131 840v96h336l-336 524v4h174l443 -729l442 729h162v-4l-336 -524h305v-96h-367l-127 -197h494v-96h-510v-350l2 -197h-143l2 197v350h-541v96h522l-125 197h-397z" />
    <glyph glyph-name="uni0192.cap" horiz-adv-x="819" 
d="M453 1182v-385h299v-111h-299v-725q0 -92 -22.5 -156.5t-64.5 -99t-92 -49t-114 -14.5q-72 0 -140 14v119q88 -17 134 -17q90 0 127.5 46.5t37.5 156.5v725h-251v111h251v381q0 93 22.5 158t64.5 100t92 50t114 15q72 0 140 -14v-121q-83 16 -134 16q-90 0 -127.5 -45.5
t-37.5 -154.5z" />
    <glyph glyph-name="colonmonetary.cap" horiz-adv-x="1273" 
d="M580 -176h-97v266q-171 58 -274 217t-103 400q0 240 103 409.5t274 235.5v237h97v-211q61 11 102 11q23 0 88 -9v209h96v-233q105 -38 183.5 -117t119.5 -178l-127 -49q-18 47 -49.5 90.5t-75.5 81t-105.5 60t-129.5 22.5q-83 0 -159 -37t-135 -105t-94.5 -174
t-35.5 -235q0 -110 24.5 -200.5t65.5 -151t96 -102.5t115 -60.5t123 -18.5q76 0 145.5 27.5t116 69.5t77 85t40.5 80l121 -43q-12 -39 -37.5 -81.5t-63.5 -86t-94 -81.5t-121 -60v-268h-96v242q-54 -7 -96 -7q-40 0 -94 7v-242z" />
    <glyph glyph-name="franc.cap" horiz-adv-x="1224" 
d="M1057 868v-120h-613v-336h400v-97h-400v-118l2 -197h-145l2 197v118h-227v97h227v856l-2 196h844v-121h-701v-475h613z" />
    <glyph glyph-name="uni20A4.cap" horiz-adv-x="1384" 
d="M129 840v96h215q-27 96 -27 190q0 114 59 201t155 130.5t214 43.5q58 0 112 -10.5t111.5 -38t104.5 -70t86 -112.5t60 -160l-148 -27q-33 155 -123 226t-207 71q-120 0 -199 -70t-79 -198q0 -75 33 -176h475v-96h-439q44 -103 64 -197h375v-96h-363q4 -46 4 -72
q0 -102 -32 -184q189 -201 354 -201q91 0 146.5 91.5t64.5 275.5l143 -11q-19 -483 -342 -483q-126 0 -226 59.5t-190 159.5h-4q-64 -95 -168 -153t-227 -58v148q151 0 243.5 85t92.5 247q0 49 -6 96h-332v96h313q-12 46 -67 197h-246z" />
    <glyph glyph-name="uni20B1.cap" horiz-adv-x="1447" 
d="M80 971v94h227v203l-2 196h369q51 0 94.5 -3t96.5 -13t95.5 -27t85 -47t72 -71t50 -102t24.5 -136h184v-94h-184q-8 -96 -43.5 -169.5t-85.5 -117t-118.5 -71t-133 -37t-137.5 -9.5h-225v-370l2 -197h-146l2 197v774h-227zM655 690q61 0 109.5 6t99 24t85 48t59.5 81.5
t32 121.5h-591v-281h206zM655 1341h-206v-276h591q-4 54 -18.5 96.5t-34.5 71t-51 49t-60.5 32t-70.5 18t-73.5 8t-76.5 1.5z" />
    <glyph glyph-name="peseta.cap" horiz-adv-x="2897" 
d="M1786 1022v-107h-285v-688q0 -77 28.5 -110t96.5 -33q74 0 166 35v-111q-98 -35 -186 -35q-113 0 -175.5 53t-62.5 191v698h-170q-71 -305 -506 -305h-340v-417l2 -193h-145l2 193v1079l-2 192h483q54 0 99 -3t100 -14t98.5 -29t86.5 -50t72 -75t46.5 -106.5t17.5 -142.5
v-22h158l19 291h112v-291h285zM352 1341v-610h324q64 0 114.5 6t103.5 26t88 53t57 90.5t22 135.5q0 58 -12 103.5t-31.5 76.5t-50.5 53.5t-62 35t-73 19.5t-76.5 9t-79.5 2h-324zM1925 162l80 80q33 -29 47 -41t55.5 -41t76 -43t89.5 -26.5t113 -12.5q123 0 205 50t82 146
q0 40 -16.5 70t-44 48t-66.5 31t-79 21t-86 15q-19 3 -28 4q-49 8 -80.5 14t-78.5 18t-77 25t-65 35t-55 48.5t-33.5 64t-13.5 82.5q0 131 102 217t281 86q101 0 193.5 -32t144.5 -69.5t86 -77.5l-82 -81q-146 151 -334 151q-110 0 -187 -48t-77 -134q0 -31 10.5 -56
t34.5 -42.5t47 -29t63.5 -21.5t68.5 -15t77 -12q41 -6 62 -9.5t62.5 -12t65 -16t59 -21t56.5 -28t46.5 -36.5t38.5 -47t22.5 -58.5t9.5 -72.5q0 -139 -106 -226.5t-304 -87.5q-90 0 -169.5 18.5t-136 50t-94.5 61t-65 61.5z" />
    <glyph glyph-name="rupiah.cap" horiz-adv-x="2500" 
d="M1280 0h-180l-375 610h-373v-417l2 -193h-145l2 193v1079l-2 192h504q549 0 549 -424q0 -81 -23.5 -147.5t-60.5 -111t-89.5 -78t-105 -51.5t-111.5 -29l408 -619v-4zM352 1341v-610h332q424 0 424 307q0 48 -9.5 87.5t-24.5 69t-39.5 52.5t-48.5 38t-58.5 26t-63 16.5
t-67.5 9t-66 4t-65 0.5h-314zM1931 -29q-134 0 -223 69.5t-133 180.5h-4v-481l2 -178h-137l2 178v1102l-2 180h135v-225h4q20 51 48.5 94t71 80.5t103 58.5t133.5 21q200 0 329.5 -149t129.5 -388q0 -123 -36 -226t-98 -172t-146 -107t-179 -38zM1915 938
q-154 0 -251 -114.5t-97 -311.5v-8q0 -102 29 -183.5t78 -132.5t110.5 -77.5t130.5 -26.5q152 0 243 117.5t91 312.5q0 194 -89.5 309t-244.5 115z" />
    <glyph glyph-name="uni20B9.cap" horiz-adv-x="1259" 
d="M141 973v96h676q-4 53 -19 95t-35.5 70t-51.5 48.5t-60.5 31.5t-70 17.5t-73 8t-75.5 1.5h-291v123h1012v-94h-369v-4q169 -94 185 -297h184v-96h-184q-5 -74 -27 -135.5t-54 -103t-75.5 -73t-87.5 -49t-94 -28.5l401 -580v-4h-180l-371 571h-340v121h291q61 0 110 6
t99 24.5t85 48.5t59.5 81.5t31.5 120.5h-676z" />
    <glyph glyph-name="uni20BA.cap" horiz-adv-x="1286" 
d="M102 805v100l207 82v281l-2 196h144l-2 -196v-226l460 185v-101l-460 -184v-197l460 183v-99l-460 -184v-522h274q166 0 246.5 120t97.5 390l141 -10q-19 -623 -475 -623h-426l2 197v393l-207 -82v100l207 82v197z" />
    <glyph glyph-name="section.cap" horiz-adv-x="1343" 
d="M1272 502q0 -241 -262 -334q61 -74 61 -182q0 -158 -112 -245t-297 -87q-124 0 -241.5 38t-197.5 103l82 109q65 -58 161.5 -92.5t197.5 -34.5q119 0 193.5 48t74.5 142q0 27 -5.5 50.5t-20.5 43.5t-28.5 35t-41 30.5t-45.5 25t-56.5 23t-59 20.5t-65.5 21q-8 2 -12 3.5
t-11 3.5t-12 4q-94 29 -164 56t-137 64.5t-109 80t-67.5 100t-25.5 125.5q0 119 68 202.5t194 127.5q-60 72 -60 186q0 156 112.5 244t295.5 88q113 0 219.5 -33t181.5 -88l-79 -108q-62 49 -147.5 77.5t-178.5 28.5q-116 0 -190 -48.5t-74 -143.5q0 -43 16.5 -77t44 -58
t69.5 -44t87 -35.5t102 -32.5q25 -7 37 -11q95 -30 163.5 -57t136 -64.5t109.5 -80t67.5 -99.5t25.5 -125zM723 791q-183 57 -249 88q-32 16 -58 32q-203 -68 -203 -233q0 -47 20.5 -87.5t54 -71.5t88 -60t110.5 -50.5t135 -46.5q10 -3 54.5 -17.5t58.5 -19t49.5 -17.5
t54 -21t43.5 -20.5t45 -24.5q96 30 150 89t54 144q0 48 -20 88.5t-53 71.5t-88 59.5t-111 50t-135 46.5z" />
    <glyph glyph-name="numbersign.cap" horiz-adv-x="1499" 
d="M1130 1464h115l-76 -350h238v-108h-260l-111 -514h275v-111h-297l-82 -381h-115l82 381h-455l-79 -381h-115l80 381h-238v111h262l109 514h-273v108h295l76 350h113l-74 -350h455zM578 1006l-109 -514h453l110 514h-454z" />
    <glyph glyph-name="percent.cap" horiz-adv-x="1789" 
d="M430 733q-150 0 -253 109t-103 276q0 165 103 274t253 109q151 0 256 -109t105 -274q0 -167 -105 -276t-256 -109zM1356 -37q-150 0 -253.5 108.5t-103.5 274.5q0 165 104 275t253 110q151 0 255.5 -110t104.5 -275q0 -166 -104.5 -274.5t-255.5 -108.5zM1382 1464
l-841 -1464h-129l839 1464h131zM430 840q104 0 168 77.5t64 200.5q0 121 -64.5 199t-167.5 78q-102 0 -164.5 -78t-62.5 -199q0 -123 63 -200.5t164 -77.5zM1356 70q104 0 167.5 77t63.5 199q0 124 -63.5 201.5t-167.5 77.5q-102 0 -165 -77.5t-63 -201.5q0 -122 63.5 -199
t164.5 -77z" />
    <glyph glyph-name="uni2030.cap" horiz-adv-x="2598" 
d="M2167 -37q-150 0 -253.5 108.5t-103.5 274.5q0 165 104 275t253 110q151 0 254.5 -109.5t103.5 -275.5q0 -167 -103.5 -275t-254.5 -108zM2167 70q104 0 167.5 77t63.5 199q0 124 -63.5 201.5t-167.5 77.5q-102 0 -166 -78t-64 -201q0 -122 64.5 -199t165.5 -77z
M1356 -37q-150 0 -253.5 108.5t-103.5 274.5q0 165 104 275t253 110q151 0 255.5 -110t104.5 -275q0 -166 -104.5 -274.5t-255.5 -108.5zM1356 70q104 0 167.5 77t63.5 199q0 124 -63.5 201.5t-167.5 77.5q-102 0 -165 -77.5t-63 -201.5q0 -122 63.5 -199t164.5 -77z
M1382 1464l-841 -1464h-129l839 1464h131zM430 733q-150 0 -253 109t-103 276q0 165 103 274t253 109q151 0 256 -109t105 -274q0 -167 -105 -276t-256 -109zM430 840q104 0 168 77.5t64 200.5q0 121 -64.5 199t-167.5 78q-102 0 -164.5 -78t-62.5 -199q0 -123 63 -200.5
t164 -77.5z" />
    <glyph glyph-name="uni00200326" 
d="M315 -418h-122l200 289h185z" />
    <glyph glyph-name="caron.alt" 
d="M322 1464h139l-51 -426h-88v426z" />
    <glyph glyph-name="a.superior" horiz-adv-x="899" 
d="M180 1110l-78 61q106 148 334 148q70 0 128 -15t104 -47.5t72 -88.5t26 -132v-321q0 -99 14 -199h-121q-10 53 -14 158h-4q-33 -67 -118 -123.5t-195 -56.5q-46 0 -88.5 11t-81.5 34t-62.5 67t-23.5 103q0 295 573 295v32q0 185 -217 185q-84 0 -139 -26t-109 -85z
M346 584q49 0 100 20t96 56.5t74 97t29 133.5v29q-82 -1 -154.5 -10.5t-142 -31t-110.5 -64t-41 -101.5q0 -62 40.5 -95.5t108.5 -33.5z" />
    <glyph glyph-name="b.superior" horiz-adv-x="989" 
d="M248 516h-109l2 135v822l-2 139h129l-2 -139v-322h4q36 76 104.5 125t170.5 49q161 0 261.5 -117t100.5 -301q0 -98 -30.5 -178t-82 -130.5t-116.5 -77.5t-137 -27q-57 0 -105.5 17t-80.5 46t-53 57t-36 60h-4zM526 1223q-115 0 -189.5 -86t-74.5 -228v-8
q0 -142 77.5 -223.5t186.5 -81.5q117 0 184.5 85.5t67.5 229.5q0 143 -67.5 227.5t-184.5 84.5z" />
    <glyph glyph-name="d.superior" horiz-adv-x="989" 
d="M451 494q-160 0 -264.5 112t-104.5 305q0 185 103.5 299.5t265.5 114.5q100 0 166.5 -51t101.5 -123h4v322l-2 139h129l-2 -139v-822l2 -135h-123v160h-4q-37 -75 -105 -128.5t-167 -53.5zM463 1223q-116 0 -183 -84.5t-67 -227.5q0 -144 66.5 -229.5t183.5 -85.5
q109 0 186.5 81.5t77.5 223.5v8q0 142 -74.5 228t-189.5 86z" />
    <glyph glyph-name="e.superior" horiz-adv-x="927" 
d="M764 717l76 -74q-14 -17 -40 -38t-70 -48t-108.5 -45t-134.5 -18q-182 0 -293.5 105t-111.5 294q0 197 111 314.5t282 117.5q102 0 179 -36.5t120 -98.5t62 -138t14 -163h-641q1 -132 80 -210.5t209 -78.5q86 0 160.5 39.5t105.5 77.5zM479 1223q-104 0 -174 -59
t-90 -179h500q0 105 -64 171.5t-172 66.5z" />
    <glyph glyph-name="egrave.superior" horiz-adv-x="927" 
d="M567 1417h-116l-185 195h166zM764 717l76 -74q-14 -17 -40 -38t-70 -48t-108.5 -45t-134.5 -18q-182 0 -293.5 105t-111.5 294q0 197 111 314.5t282 117.5q102 0 179 -36.5t120 -98.5t62 -138t14 -163h-641q1 -132 80 -210.5t209 -78.5q86 0 160.5 39.5t105.5 77.5z
M479 1223q-104 0 -174 -59t-90 -179h500q0 105 -64 171.5t-172 66.5z" />
    <glyph glyph-name="l.superior" horiz-adv-x="407" 
d="M266 1473v-820l2 -137h-129l2 137v820l-2 139h129z" />
    <glyph glyph-name="m.superior" horiz-adv-x="1486" 
d="M811 516h-127l2 137v344q0 222 -174 222q-74 0 -139.5 -51t-106.5 -132v-383l2 -137h-129l2 137v510l-2 140h123v-138h4q105 160 266 160q199 0 256 -176h5q44 74 114.5 125t169.5 51q131 0 205 -81.5t74 -233.5v-357l2 -137h-129l2 137v342q0 224 -174 224
q-76 0 -142.5 -52.5t-105.5 -136.5v-377z" />
    <glyph glyph-name="o.superior" horiz-adv-x="968" 
d="M485 494q-120 0 -214 58.5t-142.5 152.5t-48.5 204t48.5 204.5t142.5 153t214 58.5t214 -58.5t143 -153t49 -204.5q0 -170 -113 -292.5t-293 -122.5zM485 598q119 0 198 85t79 226q0 142 -79.5 228t-197.5 86t-196 -86t-78 -228t78 -226.5t196 -84.5z" />
    <glyph glyph-name="s.superior" horiz-adv-x="837" 
d="M68 643l71 76q26 -23 36 -31.5t43.5 -31.5t60.5 -33.5t70.5 -20.5t90.5 -10q93 0 156 34.5t63 102.5q0 31 -15 53.5t-31 35t-56 23t-58.5 13t-69.5 8.5q-3 1 -5 1t-5 0.5t-5 0.5q-37 5 -61 9t-62 12.5t-62.5 18.5t-54 27t-46.5 37.5t-28.5 50.5t-11.5 66
q0 103 81.5 171.5t225.5 68.5q117 0 207 -44t133 -93l-71 -76q-117 117 -263 117q-81 0 -141.5 -35t-60.5 -98q0 -27 13.5 -47t31.5 -31.5t52.5 -20.5t59.5 -13t70 -9q36 -5 55.5 -7.5t56.5 -9.5t59 -15t52.5 -20.5t49 -29t36.5 -38t26.5 -50.5t8.5 -64q0 -108 -85 -176.5
t-243 -68.5q-73 0 -137.5 15t-110 39.5t-75 46.5t-51.5 46z" />
    <glyph glyph-name="t.superior" horiz-adv-x="585" 
d="M537 1303v-99h-224v-497q0 -57 21.5 -83t75.5 -26q49 0 133 27v-103q-87 -28 -154 -28q-94 0 -147.5 44.5t-53.5 155.5v510h-151v99h153l19 225h104v-225h224z" />
    <glyph glyph-name="space.frac" horiz-adv-x="139" 
 />
    </font>
</defs>
</svg>
