<svg xmlns="http://www.w3.org/2000/svg" width="27.794" height="26.16" viewBox="0 0 27.794 26.16">
  <g id="Grupo_682" data-name="Grupo 682" transform="translate(-1748.5 -369.275)">
    <g id="noun-cart-1864278" transform="translate(1748.5 369.275)">
      <path id="Trazado_1199" data-name="Trazado 1199" d="M111.186,35.065a2.816,2.816,0,0,0-2.195-1.083H91.17l-.556-2.165a2.813,2.813,0,0,0-2.721-2.136H84.908a.907.907,0,1,0,0,1.814h2.985a.967.967,0,0,1,.936.732L92.4,46.448a2.813,2.813,0,0,0,2.721,2.136H106.8a2.788,2.788,0,0,0,2.721-2.136l2.195-9.013a2.683,2.683,0,0,0-.527-2.37Zm-1.258,1.961-2.195,9.013a.967.967,0,0,1-.937.732H95.121a.967.967,0,0,1-.937-.732L91.638,35.826h17.353a.97.97,0,0,1,.761.38.918.918,0,0,1,.176.819Z" transform="translate(-84.001 -29.681)" fill="#177755"/>
      <path id="Trazado_1200" data-name="Trazado 1200" d="M253.365,413.84a3.043,3.043,0,1,0,3.043,3.043A3.06,3.06,0,0,0,253.365,413.84Zm0,4.243a1.2,1.2,0,1,1,1.2-1.2A1.225,1.225,0,0,1,253.365,418.083Z" transform="translate(-241.631 -393.766)" fill="#177755"/>
      <path id="Trazado_1201" data-name="Trazado 1201" d="M446.005,413.84a3.043,3.043,0,1,0,3.043,3.043A3.06,3.06,0,0,0,446.005,413.84Zm0,4.243a1.2,1.2,0,1,1,1.2-1.2A1.225,1.225,0,0,1,446.005,418.083Z" transform="translate(-424.205 -393.766)" fill="#177755"/>
    </g>
  </g>
</svg>
