<svg xmlns="http://www.w3.org/2000/svg" width="14.613" height="18.314" viewBox="0 0 14.613 18.314">
  <g id="noun-terms-and-conditions-3842633" transform="translate(-137.762 -14.001)">
    <path id="Trazado_5263" data-name="Trazado 5263" d="M399.468,19.19,396.6,16.318a.4.4,0,0,0-.116-.077v3.065h3.065a.4.4,0,0,0-.077-.116Z" transform="translate(-249.811 -2.163)" fill="#eb5d37"/>
    <path id="Trazado_5264" data-name="Trazado 5264" d="M149.194,24.874c.212,0,.424.019.617.039v-6.69h-3.682a.539.539,0,0,1-.54-.54V14H138.3a.552.552,0,0,0-.54.54v14.4a.539.539,0,0,0,.54.54h6.651a2.1,2.1,0,0,1-.019-.347,4.262,4.262,0,0,1,4.261-4.261Zm-8.444-7.731h2.622a.552.552,0,0,1,.54.54.539.539,0,0,1-.54.54H140.75a.539.539,0,0,1-.54-.54A.552.552,0,0,1,140.75,17.143Zm0,2.872h6.073a.54.54,0,0,1,0,1.08H140.75a.54.54,0,0,1,0-1.08Zm0,2.853h6.073a.54.54,0,0,1,0,1.08H140.75a.539.539,0,0,1-.54-.54A.552.552,0,0,1,140.75,22.869Zm2.853,3.952H140.75a.552.552,0,0,1-.54-.54.539.539,0,0,1,.54-.54H143.6a.539.539,0,0,1,.54.54A.551.551,0,0,1,143.6,26.821Z" fill="#eb5d37"/>
    <path id="Trazado_5265" data-name="Trazado 5265" d="M380.623,361.2a3.181,3.181,0,1,0,3.181,3.181A3.184,3.184,0,0,0,380.623,361.2Zm1.484,2.892-1.542,1.542a.573.573,0,0,1-.386.154.612.612,0,0,1-.386-.154l-.771-.771a.532.532,0,1,1,.752-.752l.386.386,1.157-1.157a.524.524,0,0,1,.752,0,.5.5,0,0,1,.038.752Z" transform="translate(-231.429 -335.246)" fill="#eb5d37"/>
  </g>
</svg>
