<svg xmlns="http://www.w3.org/2000/svg" width="18.67" height="15.144" viewBox="0 0 18.67 15.144">
  <path id="Trazado_36" data-name="Trazado 36" d="M43.912,17.144A10.794,10.794,0,0,0,54.8,6.253V5.734A8.431,8.431,0,0,0,56.67,3.763a8.61,8.61,0,0,1-2.178.622,4.036,4.036,0,0,0,1.66-2.074,9.514,9.514,0,0,1-2.386.934A3.7,3.7,0,0,0,50.965,2a3.9,3.9,0,0,0-3.838,3.838,2.022,2.022,0,0,0,.1.83,10.724,10.724,0,0,1-7.883-4.045,3.972,3.972,0,0,0-.519,1.971,4.121,4.121,0,0,0,1.66,3.215,3.5,3.5,0,0,1-1.763-.519h0a3.791,3.791,0,0,0,3.112,3.734,3.2,3.2,0,0,1-1.037.1,1.765,1.765,0,0,1-.726-.1,3.929,3.929,0,0,0,3.63,2.7,7.831,7.831,0,0,1-4.771,1.66,2.872,2.872,0,0,1-.934-.1,9.79,9.79,0,0,0,5.912,1.867" transform="translate(-38 -2)" fill="#fff" fill-rule="evenodd"/>
</svg>
