<svg xmlns="http://www.w3.org/2000/svg" width="31.001" height="31.001" viewBox="0 0 31.001 31.001">
  <path id="_Color" data-name=" ↳Color" d="M15.5,31A15.5,15.5,0,1,1,31,15.5,15.518,15.518,0,0,1,15.5,31Zm.981-7.875a.776.776,0,1,0,0,1.552.777.777,0,0,0,.776-.776A.768.768,0,0,0,16.481,23.126Zm2-1.987a.776.776,0,0,0,0,1.553.768.768,0,0,0,.777-.776A.778.778,0,0,0,18.481,21.138Zm-3.987,0a.776.776,0,1,0,0,1.553.776.776,0,1,0,0-1.553Zm1.987-2a.776.776,0,1,0,0,1.552.776.776,0,0,0,0-1.552ZM7.019,16.23a.474.474,0,1,0,0,.948h1.25a3.528,3.528,0,0,1,.986.145,22.675,22.675,0,0,0,6.224.882h5.2a1.331,1.331,0,0,0,1.329-1.329,1.3,1.3,0,0,0-.066-.4H22.1a1.331,1.331,0,0,0,1.329-1.329,1.461,1.461,0,0,0-.066-.42,1.344,1.344,0,0,0,1.093-1.317,1.331,1.331,0,0,0-1.329-1.329h-.158a1.365,1.365,0,0,0,.066-.394A1.331,1.331,0,0,0,21.7,10.361H17.862l-.421-1.079a1.514,1.514,0,0,0-1.435-.934H12.98a2.26,2.26,0,0,0-1.553.6L9.032,11.1a1.019,1.019,0,0,1-.7.263h-1.3a.48.48,0,0,0-.473.461.468.468,0,0,0,.461.473h1.3a1.952,1.952,0,0,0,1.316-.513l2.395-2.171a1.346,1.346,0,0,1,.935-.356h3.027a.578.578,0,0,1,.565.342l1.066,2.711a.252.252,0,0,1-.014.224.437.437,0,0,1-.276.223.183.183,0,0,1-.046.014.183.183,0,0,0-.046.013.927.927,0,0,1-.2.021,1.019,1.019,0,0,1-.882-.548l-.145-.264.29-1.237a.475.475,0,0,0-.356-.566.5.5,0,0,0-.1-.011.473.473,0,0,0-.464.366l-.5,2.158a4.392,4.392,0,0,1-.789,1.658.471.471,0,0,0-.1.352.449.449,0,0,0,.177.306.487.487,0,0,0,.29.105.478.478,0,0,0,.368-.184,5.168,5.168,0,0,0,.895-1.75,1.919,1.919,0,0,0,1.316.539,1.43,1.43,0,0,0,.409-.052l.079-.02.079-.02a1.383,1.383,0,0,0,.8-.658H23.1a.4.4,0,0,1,.394.4.4.4,0,0,1-.394.394H18.508a.474.474,0,1,0,0,.948h3.579a.4.4,0,0,1,0,.79h-4.4a.473.473,0,1,0,0,.947h2.974a.4.4,0,0,1,0,.79H15.494A21.426,21.426,0,0,1,9.519,16.4a4.477,4.477,0,0,0-1.25-.172Zm12.4-4.145h-.881a.4.4,0,0,1-.014-.055.44.44,0,0,0-.012-.051l-.277-.7h3.475a.4.4,0,0,1,0,.79H19.415v.012Z" fill="#fff"/>
</svg>
