<svg xmlns="http://www.w3.org/2000/svg" width="18.67" height="18.67" viewBox="0 0 18.67 18.67">
  <path id="Trazado_37" data-name="Trazado 37" d="M9.335,1.66a28.623,28.623,0,0,1,3.734.1,4.811,4.811,0,0,1,1.763.311A3.643,3.643,0,0,1,16.6,3.838,4.811,4.811,0,0,1,16.907,5.6c0,.934.1,1.245.1,3.734a28.623,28.623,0,0,1-.1,3.734,4.811,4.811,0,0,1-.311,1.763A3.643,3.643,0,0,1,14.832,16.6a4.811,4.811,0,0,1-1.763.311c-.934,0-1.245.1-3.734.1a28.623,28.623,0,0,1-3.734-.1A4.811,4.811,0,0,1,3.838,16.6a3.643,3.643,0,0,1-1.763-1.763,4.811,4.811,0,0,1-.311-1.763c0-.934-.1-1.245-.1-3.734a28.623,28.623,0,0,1,.1-3.734,4.811,4.811,0,0,1,.311-1.763A3.725,3.725,0,0,1,2.8,2.8a1.754,1.754,0,0,1,1.037-.726A4.811,4.811,0,0,1,5.6,1.763a28.623,28.623,0,0,1,3.734-.1m0-1.66A30.647,30.647,0,0,0,5.5.1,6.4,6.4,0,0,0,3.215.519a4.06,4.06,0,0,0-1.66,1.037A4.06,4.06,0,0,0,.519,3.215,4.726,4.726,0,0,0,.1,5.5,30.647,30.647,0,0,0,0,9.335a30.647,30.647,0,0,0,.1,3.838,6.4,6.4,0,0,0,.415,2.282,4.06,4.06,0,0,0,1.037,1.66,4.06,4.06,0,0,0,1.66,1.037,6.4,6.4,0,0,0,2.282.415,30.647,30.647,0,0,0,3.838.1,30.647,30.647,0,0,0,3.838-.1,6.4,6.4,0,0,0,2.282-.415,4.352,4.352,0,0,0,2.7-2.7,6.4,6.4,0,0,0,.415-2.282c0-1.037.1-1.348.1-3.838a30.647,30.647,0,0,0-.1-3.838,6.4,6.4,0,0,0-.415-2.282,4.06,4.06,0,0,0-1.037-1.66A4.06,4.06,0,0,0,15.455.519,6.4,6.4,0,0,0,13.173.1,30.647,30.647,0,0,0,9.335,0m0,4.564A4.694,4.694,0,0,0,4.564,9.335,4.771,4.771,0,1,0,9.335,4.564m0,7.883A3.056,3.056,0,0,1,6.223,9.335,3.056,3.056,0,0,1,9.335,6.223a3.056,3.056,0,0,1,3.112,3.112,3.056,3.056,0,0,1-3.112,3.112m4.979-9.231a1.141,1.141,0,1,0,1.141,1.141,1.151,1.151,0,0,0-1.141-1.141" fill="#fff" fill-rule="evenodd"/>
</svg>
