<svg id="Grupo_101" data-name="Grupo 101" xmlns="http://www.w3.org/2000/svg" xmlns:xlink="http://www.w3.org/1999/xlink" width="322.042" height="69.3" viewBox="0 0 322.042 69.3">
  <defs>
    <clipPath id="clip-path">
      <rect id="Rect치ngulo_1101" data-name="Rect치ngulo 1101" width="322.042" height="69.3" fill="#177755"/>
    </clipPath>
  </defs>
  <g id="Grupo_89" data-name="Grupo 89" clip-path="url(#clip-path)">
    <path id="Trazado_218" data-name="Trazado 218" d="M531.268,86.725a4.785,4.785,0,0,1,.047-.791h5.492a2.069,2.069,0,0,0-.047.512c0,3.351,2.56,5.632,8.052,5.632s7.912-1.955,7.912-4.887c0-7.772-20.849-2.047-20.849-15.079,0-5.724,4.561-9.82,12.8-9.82,9.168,0,13.031,4.328,13.031,10.192v.7H552.21V72.67c0-3.3-2-5.678-7.4-5.678-4.887,0-7.214,1.955-7.214,4.887,0,7.958,20.85,2.327,20.85,15.125,0,5.538-4.608,9.82-13.4,9.82-10.238,0-13.775-4.98-13.775-10.1" transform="translate(-447.996 -52.528)" fill="#177755"/>
    <path id="Trazado_219" data-name="Trazado 219" d="M721.469,65.8a3.211,3.211,0,1,1,3.211,3.211,3.105,3.105,0,0,1-3.211-3.211m.559,6.608h5.259V96.422h-5.259Z" transform="translate(-608.385 -52.778)" fill="#177755"/>
    <path id="Trazado_220" data-name="Trazado 220" d="M777.5,133.739c0-8.424,5.306-12.659,12.519-12.659,7.074,0,11.821,4.561,11.821,12.193a12.479,12.479,0,0,1-.14,1.862H782.755c.373,4.654,3.351,7.213,7.213,7.213a6.337,6.337,0,0,0,5.678-3.025h5.212c-1.4,4.421-5.585,7.074-10.844,7.074-7.725,0-12.519-4.794-12.519-12.659m18.942-2.281c-.419-4.1-3.211-6.376-6.655-6.376-3.351,0-6.329,2.234-6.888,6.376Z" transform="translate(-655.63 -102.102)" fill="#177755"/>
    <path id="Trazado_221" data-name="Trazado 221" d="M951.192,145.746V132.529c0-7.912,3.862-11.449,10.191-11.449,4.1,0,6.935,1.35,8.517,4.514h.466c1.582-3.072,4.374-4.514,8.423-4.514,6.33,0,10.146,3.3,10.146,11.216v13.449h-5.259V132.3c0-4.654-2-6.748-5.492-6.748s-5.492,2.28-5.492,6.981v13.217h-5.259V132.3c0-4.654-2-6.748-5.492-6.748s-5.492,2.28-5.492,6.981v13.217Z" transform="translate(-802.101 -102.102)" fill="#177755"/>
    <path id="Trazado_222" data-name="Trazado 222" d="M1224.613,96.326h-.465l-.465,3.351h-4.794V66.448h5.259V79.107h.465c1.954-2.886,4.7-4.1,8.331-4.1,6.143,0,11.17,4.282,11.17,12.659,0,8.33-5.027,12.659-11.17,12.659a9.49,9.49,0,0,1-8.331-4m14.148-8.656c0-5.4-3.071-8.284-7.353-8.284s-7.354,2.932-7.354,8.284c0,5.305,3.072,8.284,7.354,8.284s7.353-2.932,7.353-8.284" transform="translate(-1027.838 -56.033)" fill="#177755"/>
    <path id="Trazado_223" data-name="Trazado 223" d="M1400.627,149.25V125.236h4.794l.465,3.77h.465c1.722-2.513,4.328-3.77,8.889-3.77v4.887a11.825,11.825,0,0,0-1.815-.093c-5.119,0-7.539,2.746-7.539,8.1V149.25Z" transform="translate(-1181.091 -105.606)" fill="#177755"/>
    <path id="Trazado_224" data-name="Trazado 224" d="M1498.313,133.739c0-8.377,5.072-12.659,11.169-12.659a9.488,9.488,0,0,1,8.33,4h.466l.465-3.351h4.793v24.014h-4.793l-.465-3.444h-.466c-1.954,2.839-4.7,4.1-8.33,4.1-6.1,0-11.169-4.328-11.169-12.659m20.1,0c0-5.352-3.072-8.284-7.4-8.284-4.281,0-7.307,2.886-7.307,8.284,0,5.352,3.025,8.284,7.307,8.284,4.328,0,7.4-2.979,7.4-8.284" transform="translate(-1263.466 -102.102)" fill="#177755"/>
    <path id="Trazado_225" data-name="Trazado 225" d="M1681.154,79.558c0-11.5,6.795-17.266,16.149-17.266,7.26,0,14.008,4.235,14.752,12.239h-5.724c-.7-4.747-4.7-7.307-9.029-7.307-6.1,0-10.425,4.1-10.425,12.333s4.327,12.286,10.425,12.286c4.328,0,8.284-2.513,9.029-7.26h5.724c-.744,8.051-7.492,12.24-14.752,12.24-9.354,0-16.149-5.818-16.149-17.266" transform="translate(-1417.648 -52.528)" fill="#177755"/>
    <path id="Trazado_226" data-name="Trazado 226" d="M1890.714,133.739c0-8.563,5.4-12.659,12.845-12.659,7.493,0,12.844,4.1,12.844,12.659s-5.352,12.659-12.844,12.659c-7.446,0-12.845-4.1-12.845-12.659m20.338,0c0-5.678-3.071-8.424-7.493-8.424-4.467,0-7.446,2.746-7.446,8.424s3.025,8.377,7.493,8.377c4.421,0,7.446-2.7,7.446-8.377" transform="translate(-1594.361 -102.102)" fill="#177755"/>
    <path id="Trazado_227" data-name="Trazado 227" d="M29.557,26.3c21.482-.8,20.519-23.924,20.519-23.924C31.581,3.127,27.319,14.889,26.4,21.616V0a26.4,26.4,0,0,0,0,52.8V30.043c.889,7.109,5,21.039,23.641,19.849,0,0,1.931-20.774-20.484-23.6" fill="#177755"/>
    <path id="Trazado_228" data-name="Trazado 228" d="M531.416,369.364c0-4.119,2.435-6.188,5.787-6.188,2.6,0,5.02,1.518,5.287,4.386h-2.051a3.1,3.1,0,0,0-3.236-2.618c-2.185,0-3.736,1.468-3.736,4.42s1.551,4.4,3.736,4.4a3.1,3.1,0,0,0,3.236-2.6h2.051c-.267,2.885-2.685,4.386-5.287,4.386-3.352,0-5.787-2.085-5.787-6.187" transform="translate(-448.121 -306.251)" fill="#177755"/>
    <path id="Trazado_229" data-name="Trazado 229" d="M606.875,388.781c0-3.069,1.934-4.536,4.6-4.536,2.685,0,4.6,1.468,4.6,4.536s-1.918,4.536-4.6,4.536c-2.668,0-4.6-1.468-4.6-4.536m7.288,0c0-2.035-1.1-3.019-2.685-3.019-1.6,0-2.668.984-2.668,3.019s1.084,3,2.685,3c1.585,0,2.669-.967,2.669-3" transform="translate(-511.753 -324.017)" fill="#177755"/>
    <path id="Trazado_230" data-name="Trazado 230" d="M670.461,390.732a.959.959,0,0,1,.017-.217h1.868v.083c0,.7.684,1.268,2,1.268,1.251,0,2-.4,2-1.234,0-1.8-5.771-.134-5.771-3.669,0-1.6,1.368-2.719,3.719-2.719,2.6,0,3.753,1.151,3.753,2.619v.183h-1.868v-.1c0-.684-.567-1.267-1.884-1.267-1.184,0-1.852.417-1.852,1.217,0,1.868,5.771.134,5.771,3.686,0,1.6-1.317,2.735-3.869,2.735-2.835,0-3.886-1.218-3.886-2.585" transform="translate(-565.372 -324.017)" fill="#177755"/>
    <path id="Trazado_231" data-name="Trazado 231" d="M724.683,388.781a4.165,4.165,0,0,1,4.486-4.536,4.012,4.012,0,0,1,4.237,4.37,4.478,4.478,0,0,1-.05.667h-6.788a2.54,2.54,0,0,0,2.585,2.585,2.27,2.27,0,0,0,2.035-1.084h1.868a3.829,3.829,0,0,1-3.886,2.535,4.175,4.175,0,0,1-4.486-4.536m6.788-.817a2.345,2.345,0,0,0-2.385-2.285,2.457,2.457,0,0,0-2.468,2.285Z" transform="translate(-611.095 -324.018)" fill="#177755"/>
    <path id="Trazado_232" data-name="Trazado 232" d="M785.353,388.781a4.172,4.172,0,0,1,4.486-4.536,3.742,3.742,0,0,1,4.019,3.2h-1.834a2.137,2.137,0,0,0-2.2-1.684c-1.468,0-2.535,1.034-2.535,3.019s1.068,3,2.535,3a2.124,2.124,0,0,0,2.2-1.668h1.834a3.742,3.742,0,0,1-4.019,3.2,4.172,4.172,0,0,1-4.486-4.536" transform="translate(-662.256 -324.017)" fill="#177755"/>
    <path id="Trazado_233" data-name="Trazado 233" d="M846.757,376.574V364.666h1.885V369.2h.167a3.325,3.325,0,0,1,3-1.468c1.884,0,3.486,1.084,3.486,3.853v4.987h-1.885v-4.837c0-1.618-.834-2.4-2.168-2.4a2.491,2.491,0,0,0-2.6,2.769v4.47Z" transform="translate(-714.035 -307.508)" fill="#177755"/>
    <path id="Trazado_234" data-name="Trazado 234" d="M908.619,369.22c0-3,1.818-4.537,4-4.537a3.4,3.4,0,0,1,2.985,1.434h.167l.167-1.2h1.718v8.606h-1.718l-.167-1.234h-.167a3.352,3.352,0,0,1-2.985,1.468c-2.185,0-4-1.551-4-4.536m7.2,0c0-1.918-1.1-2.969-2.652-2.969-1.535,0-2.618,1.034-2.618,2.969,0,1.918,1.084,2.969,2.618,2.969,1.551,0,2.652-1.067,2.652-2.969m-3.669-5.454,1.384-2.719h2.3l-2.1,2.719Z" transform="translate(-766.201 -304.457)" fill="#177755"/>
    <path id="Trazado_235" data-name="Trazado 235" d="M1003.528,388.781c0-3,1.818-4.536,4-4.536a3.4,3.4,0,0,1,2.986,1.434h.167l.167-1.2h1.718v8.606h-1.718l-.167-1.234h-.167a3.352,3.352,0,0,1-2.986,1.468c-2.185,0-4-1.551-4-4.536m7.2,0c0-1.918-1.1-2.969-2.652-2.969-1.534,0-2.618,1.034-2.618,2.969,0,1.918,1.084,2.969,2.618,2.969,1.552,0,2.652-1.067,2.652-2.969" transform="translate(-846.234 -324.017)" fill="#177755"/>
    <path id="Trazado_236" data-name="Trazado 236" d="M1100.566,390.554v-4.82h1.885v4.82a2.131,2.131,0,0,0,2.385,2.4,2.178,2.178,0,0,0,2.385-2.485v-4.737h1.885v4.737c0,2.835-1.618,4.1-4.27,4.1s-4.269-1.184-4.269-4.019" transform="translate(-928.062 -325.274)" fill="#177755"/>
    <path id="Trazado_237" data-name="Trazado 237" d="M1164.1,393.084v-4.736c0-2.835,1.634-4.1,4.269-4.1,2.652,0,4.27,1.184,4.27,4.019v4.82h-1.885v-4.82a2.136,2.136,0,0,0-2.385-2.418,2.191,2.191,0,0,0-2.385,2.5v4.736Z" transform="translate(-981.636 -324.018)" fill="#177755"/>
    <path id="Trazado_238" data-name="Trazado 238" d="M1255.817,388.781a4.172,4.172,0,0,1,4.487-4.536,3.742,3.742,0,0,1,4.019,3.2h-1.834a2.138,2.138,0,0,0-2.2-1.684c-1.468,0-2.535,1.034-2.535,3.019s1.067,3,2.535,3a2.124,2.124,0,0,0,2.2-1.668h1.834a3.742,3.742,0,0,1-4.019,3.2,4.172,4.172,0,0,1-4.487-4.536" transform="translate(-1058.979 -324.017)" fill="#177755"/>
    <rect id="Rect치ngulo_1100" data-name="Rect치ngulo 1100" width="1.884" height="11.908" transform="translate(206.453 57.158)" fill="#177755"/>
    <path id="Trazado_239" data-name="Trazado 239" d="M1337.861,364.434a1.151,1.151,0,1,1,1.151,1.151,1.113,1.113,0,0,1-1.151-1.151m.2,2.368h1.885v8.606h-1.885Z" transform="translate(-1128.163 -306.341)" fill="#177755"/>
    <path id="Trazado_240" data-name="Trazado 240" d="M1358.535,388.781a4.172,4.172,0,0,1,4.486-4.536,3.742,3.742,0,0,1,4.019,3.2h-1.835a2.137,2.137,0,0,0-2.2-1.684c-1.468,0-2.535,1.034-2.535,3.019s1.067,3,2.535,3a2.123,2.123,0,0,0,2.2-1.668h1.835a3.742,3.742,0,0,1-4.019,3.2,4.172,4.172,0,0,1-4.486-4.536" transform="translate(-1145.596 -324.017)" fill="#177755"/>
    <path id="Trazado_241" data-name="Trazado 241" d="M1447.378,372.271c0-2.985,1.818-4.536,4-4.536a3.363,3.363,0,0,1,2.986,1.434h.167v-4.5h1.885v11.908H1454.7l-.167-1.234h-.167a3.352,3.352,0,0,1-2.986,1.468c-2.185,0-4-1.534-4-4.536m7.2,0c0-1.918-1.1-2.969-2.652-2.969-1.535,0-2.618,1.034-2.618,2.969,0,1.918,1.084,2.969,2.618,2.969,1.551,0,2.652-1.067,2.652-2.969" transform="translate(-1220.514 -307.508)" fill="#177755"/>
    <path id="Trazado_242" data-name="Trazado 242" d="M1512.677,388.781a4.165,4.165,0,0,1,4.486-4.536,4.012,4.012,0,0,1,4.236,4.37,4.43,4.43,0,0,1-.05.667h-6.788a2.541,2.541,0,0,0,2.585,2.585,2.271,2.271,0,0,0,2.035-1.084h1.868a3.829,3.829,0,0,1-3.886,2.535,4.175,4.175,0,0,1-4.486-4.536m6.788-.817a2.345,2.345,0,0,0-2.385-2.285,2.457,2.457,0,0,0-2.468,2.285Z" transform="translate(-1275.579 -324.018)" fill="#177755"/>
    <path id="Trazado_243" data-name="Trazado 243" d="M1603.437,372.271c0-2.985,1.818-4.536,4-4.536a3.362,3.362,0,0,1,2.985,1.434h.167v-4.5h1.885v11.908h-1.718l-.167-1.234h-.167a3.351,3.351,0,0,1-2.985,1.468c-2.185,0-4-1.534-4-4.536m7.2,0c0-1.918-1.1-2.969-2.652-2.969-1.535,0-2.619,1.034-2.619,2.969,0,1.918,1.084,2.969,2.619,2.969,1.551,0,2.652-1.067,2.652-2.969" transform="translate(-1352.112 -307.508)" fill="#177755"/>
    <path id="Trazado_244" data-name="Trazado 244" d="M1669.9,364.434a1.151,1.151,0,1,1,1.15,1.151,1.113,1.113,0,0,1-1.15-1.151m.2,2.368h1.885v8.606H1670.1Z" transform="translate(-1408.161 -306.341)" fill="#177755"/>
    <path id="Trazado_245" data-name="Trazado 245" d="M1690.844,390.732a.962.962,0,0,1,.016-.217h1.867v.083c0,.7.684,1.268,2,1.268,1.251,0,2-.4,2-1.234,0-1.8-5.771-.134-5.771-3.669,0-1.6,1.367-2.719,3.719-2.719,2.6,0,3.753,1.151,3.753,2.619v.183h-1.868v-.1c0-.684-.567-1.267-1.885-1.267-1.184,0-1.851.417-1.851,1.217,0,1.868,5.77.134,5.77,3.686,0,1.6-1.317,2.735-3.869,2.735-2.835,0-3.886-1.218-3.886-2.585" transform="translate(-1425.819 -324.017)" fill="#177755"/>
    <path id="Trazado_246" data-name="Trazado 246" d="M1746.073,381.958v-7h-2.018v-1.6h2.018v-2.3h1.885v2.3h2.251v1.6h-2.251v7Z" transform="translate(-1470.689 -312.892)" fill="#177755"/>
    <path id="Trazado_247" data-name="Trazado 247" d="M1785.967,388.781c0-3,1.818-4.536,4-4.536a3.4,3.4,0,0,1,2.986,1.434h.166l.167-1.2h1.718v8.606h-1.718l-.167-1.234h-.166a3.352,3.352,0,0,1-2.986,1.468c-2.185,0-4-1.551-4-4.536m7.2,0c0-1.918-1.1-2.969-2.651-2.969-1.535,0-2.618,1.034-2.618,2.969,0,1.918,1.084,2.969,2.618,2.969,1.551,0,2.651-1.067,2.651-2.969" transform="translate(-1506.032 -324.017)" fill="#177755"/>
    <path id="Trazado_248" data-name="Trazado 248" d="M1853.51,393.084v-4.736c0-2.835,1.634-4.1,4.269-4.1,2.652,0,4.27,1.184,4.27,4.019v4.82h-1.885v-4.82a2.136,2.136,0,0,0-2.385-2.418,2.191,2.191,0,0,0-2.385,2.5v4.736Z" transform="translate(-1562.989 -324.018)" fill="#177755"/>
    <path id="Trazado_249" data-name="Trazado 249" d="M1915.171,388.781a4.171,4.171,0,0,1,4.486-4.536,3.741,3.741,0,0,1,4.019,3.2h-1.834a2.137,2.137,0,0,0-2.2-1.684c-1.468,0-2.535,1.034-2.535,3.019s1.067,3,2.535,3a2.123,2.123,0,0,0,2.2-1.668h1.834a3.741,3.741,0,0,1-4.019,3.2,4.171,4.171,0,0,1-4.486-4.536" transform="translate(-1614.985 -324.017)" fill="#177755"/>
    <path id="Trazado_250" data-name="Trazado 250" d="M1975.106,364.434a1.151,1.151,0,1,1,1.15,1.151,1.112,1.112,0,0,1-1.15-1.151m.2,2.368h1.885v8.606h-1.885Z" transform="translate(-1665.526 -306.341)" fill="#177755"/>
    <path id="Trazado_251" data-name="Trazado 251" d="M1995.78,388.781c0-3,1.817-4.536,4-4.536a3.4,3.4,0,0,1,2.986,1.434h.167l.167-1.2h1.718v8.606H2003.1l-.167-1.234h-.167a3.352,3.352,0,0,1-2.986,1.468c-2.185,0-4-1.551-4-4.536m7.2,0c0-1.918-1.1-2.969-2.652-2.969-1.534,0-2.618,1.034-2.618,2.969,0,1.918,1.084,2.969,2.618,2.969,1.551,0,2.652-1.067,2.652-2.969" transform="translate(-1682.959 -324.017)" fill="#177755"/>
  </g>
</svg>
