<svg xmlns="http://www.w3.org/2000/svg" width="33.395" height="31.859" viewBox="0 0 33.395 31.859">
  <g id="noun-whatsapp-2584262" transform="translate(-70.567 -24.267)">
    <path id="Trazado_1411" data-name="Trazado 1411" d="M232.641,163.844c-1.766,1.766-6.253.139-10.022-3.629s-5.395-8.257-3.629-10.022l1.829-1.829a.817.817,0,0,1,1.159,0l1.87,1.87a.817.817,0,0,1,0,1.159l-1.27,1.27c-.984.984-.119,3.476,1.975,5.576s4.641,3.008,5.625,2.024l1.263-1.27a.817.817,0,0,1,1.159,0l1.87,1.87a.817.817,0,0,1,0,1.159Z" transform="translate(-139.216 -116.138)" fill="#177755"/>
    <path id="Trazado_1412" data-name="Trazado 1412" d="M216.395,147.75c-.042.035-.265.216-.119.112s-.1.063-.139.084a.622.622,0,0,1-.216.1c.112,0,.2-.063.077-.035-.063.014-.119.042-.175.056-.084.021-.167.042-.251.056-.293.063.16,0-.084.014a5.492,5.492,0,0,1-.677.007c-.1-.007-.2-.021-.3-.028.293.028-.084-.021-.154-.035a6.79,6.79,0,0,1-.74-.188q-.367-.115-.733-.251c-.056-.021-.119-.049-.175-.07.181.077-.014-.007-.063-.028-.154-.07-.3-.139-.447-.209a15.574,15.574,0,0,1-3.169-2.115,21.356,21.356,0,0,1-1.626-1.549,18.886,18.886,0,0,1-1.312-1.543,16.7,16.7,0,0,1-1.068-1.626c-.147-.251-.286-.517-.412-.775-.056-.119-.119-.237-.167-.363.007.014-.126-.279-.063-.139.049.119-.049-.119-.056-.139a8.114,8.114,0,0,1-.447-1.507c-.014-.091-.056-.356-.028-.112-.014-.112-.028-.223-.035-.342-.014-.223.007-.447.007-.67,0-.1-.042-.1-.014.077a.39.39,0,0,1,.021-.126c.021-.091.042-.188.07-.279a.753.753,0,0,0,.035-.119c.056-.2-.007.063-.028.049a1.407,1.407,0,0,1,.139-.265.753.753,0,0,0,.063-.1c.063-.119-.049.014-.056.07.014-.056.119-.139.16-.175l.139-.139,1.5-1.5c.028-.028.167-.133.174-.175,0,0-.1.042-.139.063.07-.028.167-.007-.014-.007-.112-.021-.133-.028-.056-.007s.056.014-.042-.014c-.007-.035-.084-.077.028.042s.209.209.307.307l.824.823a4.438,4.438,0,0,0,.6.6s.035.042.042.042c-.035.007-.07-.139-.07-.147.028.056.021.181.007-.014-.007-.07.07-.174-.007-.014-.007.014.049-.16.07-.147-.007,0-.049.049-.056.056-.265.23-.5.5-.747.747-.181.181-.377.356-.544.551a2.623,2.623,0,0,0-.621,1.563,5.654,5.654,0,0,0,.991,3.28,11.761,11.761,0,0,0,3.085,3.322c1.6,1.186,4.174,2.366,5.842.691l.8-.8c.091-.091.188-.175.272-.272a.431.431,0,0,0,.056-.056c.007.028-.139.07-.147.07.139-.063.021-.035-.063-.014-.014,0-.035-.007-.049-.007h0c0-.007-.063-.042-.063-.042l.042.042a1.809,1.809,0,0,0,.258.258l.8.8c.23.23.447.468.684.684.091.084.077.112.021-.028-.049-.119-.007.209-.007-.056,0-.07.07-.167-.007-.014.021-.049.084-.133.056-.133s-.139.139-.167.167l-.37.37-.851.851c-.118.132-.265.272-.4.411a1.046,1.046,0,0,0,1.479,1.479l1.382-1.382c.167-.167.349-.335.509-.517a1.9,1.9,0,0,0-.063-2.568c-.447-.475-.921-.921-1.382-1.382-.16-.16-.314-.328-.481-.481a1.9,1.9,0,0,0-2.568-.063c-.468.412-.9.879-1.333,1.326-.035.035-.181.133-.035.042s-.021.007-.042.014c-.139.056.091.007.084-.028a1.471,1.471,0,0,1-.3.084c-.007-.014.286-.014.077-.014-.07,0-.139.007-.209.007a1.02,1.02,0,0,1-.147-.007c-.021,0-.258-.035-.091-.007s-.084-.021-.1-.021c-.056-.014-.112-.021-.16-.035q-.209-.052-.419-.126l-.175-.063c-.286-.1.175.091-.1-.042a9.252,9.252,0,0,1-.817-.44c-.286-.175-.628-.412-.81-.551a11.7,11.7,0,0,1-1.647-1.626,8.653,8.653,0,0,1-.509-.7,7.676,7.676,0,0,1-.5-.907,1.85,1.85,0,0,1-.077-.175c.077.181,0-.007-.014-.056-.042-.126-.091-.251-.126-.377s-.056-.244-.084-.363c-.014-.07-.021-.251,0,.007-.007-.077-.014-.147-.014-.223,0-.1.014-.209.007-.314-.007-.133-.084.244,0,.049.014-.035.021-.091.035-.119.063-.272-.084.139.028-.056s-.167.147.035-.049c.223-.216.44-.44.656-.656s.419-.4.614-.614a1.893,1.893,0,0,0,.063-2.568c-.433-.5-.935-.942-1.4-1.41-.175-.175-.342-.356-.523-.523a1.889,1.889,0,0,0-2.359-.23,12.05,12.05,0,0,0-1.577,1.521,5.087,5.087,0,0,0-1.305,1.766,5.4,5.4,0,0,0-.049,3.085,12,12,0,0,0,1.521,3.511,20.325,20.325,0,0,0,6.512,6.546,12.357,12.357,0,0,0,3.483,1.549,5.517,5.517,0,0,0,3.12.014,3.577,3.577,0,0,0,1.319-.8,1.06,1.06,0,0,0,0-1.479,1.073,1.073,0,0,0-1.5-.021Z" transform="translate(-123.71 -100.784)" fill="#177755"/>
    <path id="Trazado_1413" data-name="Trazado 1413" d="M88.589,51.845a16.156,16.156,0,0,0,9.471,4.215,15.872,15.872,0,0,0,8.877-1.808,15.923,15.923,0,1,0-22.773-9.575A16.965,16.965,0,0,0,85.2,47.3V46.248c-.9,1.731-1.8,3.455-2.7,5.186-.133.251-.258.5-.391.747a1.058,1.058,0,0,0,1.18,1.535l5.535-1.4c.258-.063.523-.133.782-.2a1.05,1.05,0,1,0-.558-2.024l-5.535,1.4c-.258.063-.523.133-.782.2l1.18,1.535c.816-1.536,1.619-3.078,2.422-4.628.181-.342.356-.684.537-1.026.042-.077.084-.16.126-.237a1.628,1.628,0,0,0,.07-.154,1.471,1.471,0,0,0-.209-1.256,13.816,13.816,0,0,1-1.235-5.73c0-.4.014-.817.049-1.221.014-.2.035-.384.056-.579l.021-.147c0,.014-.021.167-.007.042s.035-.223.049-.328a15.018,15.018,0,0,1,.593-2.331l.188-.523c.035-.084.07-.175.1-.258.042-.112-.007.021-.014.035a1.82,1.82,0,0,1,.077-.167c.154-.349.328-.7.509-1.04a14.6,14.6,0,0,1,1.242-1.926c.07-.1-.014.014-.021.028l.084-.1.175-.216c.126-.154.258-.3.391-.454.251-.286.517-.558.8-.823s.586-.537.893-.789l.216-.175c.091-.077-.021.014-.028.021.035-.028.07-.056.112-.084.16-.119.321-.237.481-.349a15.64,15.64,0,0,1,1.989-1.152l.5-.23c.181-.084-.1.035.091-.035.1-.042.2-.077.3-.119.363-.139.733-.265,1.11-.37s.761-.2,1.145-.286c.2-.042.4-.077.607-.112l.286-.042c-.2.028.084-.007.154-.021a14.957,14.957,0,0,1,2.436-.077c.4.021.8.056,1.207.1-.181-.021.035.007.1.014.1.014.188.028.279.049.2.035.4.077.607.119a14.8,14.8,0,0,1,2.24.684c.042.014.265.1.175.07s.133.056.175.077c.2.091.391.181.586.279.342.175.677.356,1.012.551s.649.4.963.628l.223.16c.035.028.223.167.147.112s.112.091.147.119c.084.07.167.133.244.2a14.66,14.66,0,0,1,1.626,1.6l.356.419.175.216c-.119-.147.049.07.084.119.23.307.44.621.642.949s.412.684.593,1.04c.084.167.167.328.244.5.042.084.077.167.119.251.021.042.035.084.056.126.007.021.084.2.035.091s.056.139.07.175c.035.084.07.175.1.258.07.188.139.384.2.572.119.37.23.747.321,1.131s.167.775.23,1.165c.007.063.042.286.014.1.014.1.021.188.035.286.021.209.042.419.056.628a15.657,15.657,0,0,1-.035,2.492c-.007.1-.021.188-.028.286-.007.07-.042.286-.014.1-.028.2-.063.412-.1.614-.07.391-.16.775-.265,1.152s-.216.747-.349,1.117c-.063.175-.133.349-.2.523-.014.042-.035.084-.056.133.007-.014.063-.147.014-.035s-.084.2-.133.293a14.49,14.49,0,0,1-1.117,2.01c-.1.154-.2.307-.314.454l-.16.223c-.028.035-.056.07-.084.112-.1.126.1-.119-.007.007-.244.314-.5.614-.775.907A15.422,15.422,0,0,1,107.97,51.1l-.1.084c.014-.007.126-.1.028-.021-.077.056-.147.112-.223.16-.16.119-.321.23-.489.342-.321.216-.642.412-.977.6s-.677.363-1.026.523c-.084.042-.167.077-.251.112-.056.028-.258.1-.091.042-.188.077-.377.147-.565.216a14.915,14.915,0,0,1-2.31.635c-.188.035-.377.063-.565.1s.1-.007-.1.014c-.112.014-.223.028-.335.035-.4.042-.81.063-1.214.07-.468.007-.935,0-1.4-.035-.23-.014-.461-.042-.684-.063-.126-.014-.028,0-.007,0a1.381,1.381,0,0,1-.167-.028l-.391-.063a13.437,13.437,0,0,1-5.039-1.94c-.37-.23-.726-.481-1.075-.747-.1-.07-.021-.021,0,0l-.126-.1-.251-.209c-.181-.154-.356-.307-.53-.468a1.054,1.054,0,0,0-1.487,1.494Z" transform="translate(-11.412 0)" fill="#177755"/>
  </g>
</svg>
