<svg xmlns="http://www.w3.org/2000/svg" width="25.48" height="31.859" viewBox="0 0 25.48 31.859">
  <g id="noun-location-4452299" transform="translate(0)">
    <path id="Trazado_1241" data-name="Trazado 1241" d="M278.416,122.5a7.174,7.174,0,1,0,5.065,2.1A7.165,7.165,0,0,0,278.416,122.5Z" transform="translate(-265.676 -119.306)" fill="#177755"/>
    <path id="Trazado_1242" data-name="Trazado 1242" d="M223.536,111.3v-3.235a10.351,10.351,0,1,0-1.592,0V111.3c-5.9.1-11.944,1.354-11.944,3.971,0,2.736,6.6,3.981,12.74,3.981s12.74-1.246,12.74-3.981c0-2.618-6.046-3.868-11.944-3.971Zm-9.555-13.546a8.769,8.769,0,1,1,2.568,6.19A8.759,8.759,0,0,1,213.981,97.758Zm8.759,19.906c-7.355,0-11.147-1.675-11.147-2.389,0-.687,3.525-2.261,10.351-2.377v2.377a.8.8,0,1,0,1.592,0V112.9c6.826.116,10.351,1.69,10.351,2.377C233.887,115.99,230.095,117.664,222.74,117.664Z" transform="translate(-210 -87.398)" fill="#177755"/>
    <path id="Trazado_1414" data-name="Trazado 1414" d="M5.586,4.97C9.646,4.818,9.464.448,9.464.448c-3.5.143-4.3,2.366-4.475,3.637V0a4.989,4.989,0,1,0,0,9.979v-4.3A3.916,3.916,0,0,0,9.458,9.43,4.125,4.125,0,0,0,5.586,4.97" transform="translate(7.43 5.397)" fill="#fff"/>
  </g>
</svg>
