<svg xmlns="http://www.w3.org/2000/svg" width="14.613" height="14.614" viewBox="0 0 14.613 14.614">
  <g id="noun-form-3894008" transform="translate(-78.754 -8.745)">
    <path id="Trazado_5250" data-name="Trazado 5250" d="M78.989,20.53H79.7v1.676a.669.669,0,0,0,.655.681h.288v.471h8.25V20.028l-1.782,1.843a.472.472,0,0,1-.575.073c-.019,0-.035-.024-.054-.035-.031.042-.064.094-.1.153a.825.825,0,0,1-1.579.007c-.153-.245-.243-.361-.389-.361s-.236.111-.389.361a.827.827,0,0,1-1.579,0c-.153-.245-.24-.361-.389-.361a.236.236,0,0,1,0-.471.964.964,0,0,1,.79.582c.156.245.24.361.389.361s.236-.111.389-.361a.827.827,0,0,1,1.579,0c.153.245.238.361.389.361s.236-.111.389-.361a1.649,1.649,0,0,1,.342-.422l.8-2.786a.469.469,0,0,1,.042-.1l.33-.575H84.646a.236.236,0,0,1,0-.471h3.116l1.127-1.954V10.631h-8.25V22.416h-.288a.2.2,0,0,1-.184-.21V10.369a.2.2,0,0,1,.184-.21h8.285a.757.757,0,0,0,0-1.414H79.461a.707.707,0,0,0-.707.707V20.294a.236.236,0,0,0,.236.236Zm8.957-4.007H85.589a.236.236,0,1,1,0-.471h2.357a.236.236,0,1,1,0,.471Zm-2.357-4.95h2.357a.236.236,0,1,1,0,.471H85.589a.236.236,0,1,1,0-.471Zm-.943,1.414h3.3a.236.236,0,1,1,0,.471h-3.3a.236.236,0,1,1,0-.471Zm-3.064-1.414a.236.236,0,0,1,.236-.236H83.7a.236.236,0,0,1,.236.236v1.886a.236.236,0,0,1-.236.236H81.818a.236.236,0,0,1-.236-.236Zm0,4.478a.236.236,0,0,1,.236-.236H83.7a.236.236,0,0,1,.236.236v1.886a.236.236,0,0,1-.236.236H81.818a.236.236,0,0,1-.236-.236Zm-2.357-6.6a.236.236,0,0,1,.236-.236h1.16a.766.766,0,0,1,0,.471h-.269a.669.669,0,0,0-.655.681v9.69h-.471Z" fill="#177755"/>
    <path id="Trazado_5251" data-name="Trazado 5251" d="M536.146,113.812a.471.471,0,0,0-.646.146l-.283.448a.472.472,0,0,0-.415.217l-.62.983,1.193.728.375-.592.2.125a.236.236,0,0,1,.075.318l-1.244,1.966h0a.234.234,0,0,0,.4.245l1.244-1.966a.691.691,0,0,0-.224-.957l-.2-.123a.457.457,0,0,0,.017-.471l.278-.431a.472.472,0,0,0-.146-.636Z" transform="translate(-443.161 -102.168)" fill="#177755"/>
    <path id="Trazado_5252" data-name="Trazado 5252" d="M418.31,198.314l-1.195-.735-2.984,4.716,1.193.738Z" transform="translate(-326.343 -183.747)" fill="#177755"/>
    <path id="Trazado_5253" data-name="Trazado 5253" d="M376.25,390.915l1.916-1.824-1.1-.676Z" transform="translate(-289.483 -369.442)" fill="#177755"/>
    <path id="Trazado_5254" data-name="Trazado 5254" d="M201.25,122.5h1.414v1.414H201.25Z" transform="translate(-119.197 -110.691)" fill="#177755"/>
    <path id="Trazado_5255" data-name="Trazado 5255" d="M201.25,288.75h1.414v1.414H201.25Z" transform="translate(-119.197 -272.462)" fill="#177755"/>
  </g>
</svg>
