<svg xmlns="http://www.w3.org/2000/svg" xmlns:xlink="http://www.w3.org/1999/xlink" width="176.767" height="38.038" viewBox="0 0 176.767 38.038">
  <defs>
    <clipPath id="clip-path">
      <rect id="Rect치ngulo_1101" data-name="Rect치ngulo 1101" width="176.767" height="38.038" fill="#fff"/>
    </clipPath>
  </defs>
  <g id="Grupo_89" data-name="Grupo 89" clip-path="url(#clip-path)">
    <path id="Trazado_218" data-name="Trazado 218" d="M531.268,75.7a2.628,2.628,0,0,1,.026-.434h3.014a1.141,1.141,0,0,0-.026.281c0,1.839,1.405,3.091,4.419,3.091s4.343-1.073,4.343-2.682c0-4.266-11.444-1.124-11.444-8.277,0-3.142,2.5-5.39,7.025-5.39,5.032,0,7.153,2.375,7.153,5.594v.383h-3.014v-.281c0-1.814-1.1-3.117-4.062-3.117-2.682,0-3.959,1.073-3.959,2.682,0,4.368,11.444,1.277,11.444,8.3,0,3.04-2.529,5.39-7.357,5.39-5.62,0-7.561-2.734-7.561-5.543" transform="translate(-485.561 -56.933)" fill="#fff"/>
    <path id="Trazado_219" data-name="Trazado 219" d="M721.469,64.351a1.763,1.763,0,1,1,1.763,1.762,1.7,1.7,0,0,1-1.763-1.762m.307,3.627h2.886V81.159h-2.886Z" transform="translate(-659.398 -57.203)" fill="#fff"/>
    <path id="Trazado_220" data-name="Trazado 220" d="M777.5,128.028c0-4.624,2.912-6.948,6.872-6.948,3.883,0,6.489,2.5,6.489,6.693a6.841,6.841,0,0,1-.077,1.022h-10.4c.2,2.554,1.84,3.959,3.959,3.959a3.478,3.478,0,0,0,3.117-1.66h2.861c-.766,2.427-3.065,3.883-5.952,3.883-4.24,0-6.872-2.631-6.872-6.948m10.4-1.252a3.591,3.591,0,0,0-3.653-3.5,3.764,3.764,0,0,0-3.781,3.5Z" transform="translate(-710.605 -110.663)" fill="#fff"/>
    <path id="Trazado_221" data-name="Trazado 221" d="M951.192,134.619v-7.255c0-4.343,2.12-6.284,5.594-6.284,2.248,0,3.806.741,4.675,2.478h.256c.869-1.686,2.4-2.478,4.624-2.478,3.474,0,5.569,1.814,5.569,6.157v7.382h-2.886v-7.382c0-2.555-1.1-3.7-3.014-3.7s-3.015,1.252-3.015,3.832v7.255h-2.887v-7.382c0-2.555-1.1-3.7-3.014-3.7s-3.014,1.252-3.014,3.832v7.255Z" transform="translate(-869.357 -110.663)" fill="#fff"/>
    <path id="Trazado_222" data-name="Trazado 222" d="M1222.031,82.848h-.256l-.255,1.839h-2.631V66.448h2.887V73.4h.256a5.077,5.077,0,0,1,4.573-2.248c3.372,0,6.131,2.35,6.131,6.948,0,4.573-2.759,6.948-6.131,6.948a5.208,5.208,0,0,1-4.573-2.2M1229.8,78.1c0-2.963-1.686-4.547-4.036-4.547s-4.036,1.609-4.036,4.547c0,2.912,1.686,4.547,4.036,4.547s4.036-1.609,4.036-4.547" transform="translate(-1114.022 -60.731)" fill="#fff"/>
    <path id="Trazado_223" data-name="Trazado 223" d="M1400.627,138.417V125.236h2.632l.255,2.069h.255c.945-1.379,2.376-2.069,4.879-2.069v2.682a6.487,6.487,0,0,0-1-.051c-2.81,0-4.138,1.507-4.138,4.445v6.105Z" transform="translate(-1280.125 -114.461)" fill="#fff"/>
    <path id="Trazado_224" data-name="Trazado 224" d="M1498.313,128.028c0-4.6,2.784-6.948,6.131-6.948a5.208,5.208,0,0,1,4.573,2.2h.256l.255-1.839h2.631v13.181h-2.631l-.255-1.89h-.256a5.133,5.133,0,0,1-4.573,2.248c-3.347,0-6.131-2.376-6.131-6.948m11.035,0c0-2.938-1.686-4.547-4.062-4.547-2.35,0-4.01,1.584-4.01,4.547,0,2.938,1.661,4.547,4.01,4.547,2.376,0,4.062-1.635,4.062-4.547" transform="translate(-1369.407 -110.663)" fill="#fff"/>
    <path id="Trazado_225" data-name="Trazado 225" d="M1681.155,71.769c0-6.31,3.729-9.477,8.864-9.477,3.985,0,7.689,2.324,8.1,6.718h-3.142A4.746,4.746,0,0,0,1690.019,65c-3.347,0-5.722,2.248-5.722,6.77s2.375,6.744,5.722,6.744a4.742,4.742,0,0,0,4.956-3.985h3.142c-.409,4.419-4.113,6.718-8.1,6.718-5.135,0-8.864-3.193-8.864-9.477" transform="translate(-1536.518 -56.933)" fill="#fff"/>
    <path id="Trazado_226" data-name="Trazado 226" d="M1890.714,128.028c0-4.7,2.963-6.948,7.051-6.948,4.113,0,7.05,2.248,7.05,6.948s-2.937,6.948-7.05,6.948c-4.087,0-7.051-2.248-7.051-6.948m11.163,0c0-3.117-1.686-4.624-4.113-4.624-2.452,0-4.087,1.507-4.087,4.624s1.661,4.6,4.113,4.6c2.427,0,4.087-1.482,4.087-4.6" transform="translate(-1728.048 -110.663)" fill="#fff"/>
    <path id="Trazado_227" data-name="Trazado 227" d="M16.223,14.434C28.015,13.993,27.486,1.3,27.486,1.3,17.334,1.716,15,8.173,14.49,11.865V0a14.49,14.49,0,0,0,0,28.98V16.49c.488,3.9,2.745,11.548,12.977,10.9,0,0,1.06-11.4-11.243-12.952" fill="#fff"/>
    <path id="Trazado_228" data-name="Trazado 228" d="M531.416,366.572c0-2.261,1.336-3.4,3.177-3.4a2.715,2.715,0,0,1,2.9,2.408h-1.126a1.7,1.7,0,0,0-1.776-1.437c-1.2,0-2.051.806-2.051,2.426s.851,2.417,2.051,2.417a1.7,1.7,0,0,0,1.776-1.428h1.126a2.708,2.708,0,0,1-2.9,2.407c-1.84,0-3.177-1.144-3.177-3.4" transform="translate(-485.696 -331.931)" fill="#fff"/>
    <path id="Trazado_229" data-name="Trazado 229" d="M606.875,386.734a2.527,2.527,0,1,1,2.526,2.49,2.3,2.3,0,0,1-2.526-2.49m4,0c0-1.117-.6-1.657-1.474-1.657s-1.465.54-1.465,1.657.595,1.648,1.474,1.648,1.465-.531,1.465-1.648" transform="translate(-554.663 -351.186)" fill="#fff"/>
    <path id="Trazado_230" data-name="Trazado 230" d="M670.461,387.805a.525.525,0,0,1,.009-.119H671.5v.046c0,.385.375.7,1.1.7.687,0,1.1-.22,1.1-.677,0-.989-3.167-.073-3.167-2.014,0-.879.751-1.492,2.041-1.492,1.428,0,2.06.632,2.06,1.437v.1H673.6v-.055c0-.375-.311-.7-1.034-.7-.65,0-1.016.229-1.016.668,0,1.025,3.167.073,3.167,2.023,0,.879-.723,1.5-2.124,1.5-1.556,0-2.133-.668-2.133-1.419" transform="translate(-612.779 -351.186)" fill="#fff"/>
    <path id="Trazado_231" data-name="Trazado 231" d="M724.683,386.735a2.286,2.286,0,0,1,2.463-2.49,2.2,2.2,0,0,1,2.325,2.4,2.464,2.464,0,0,1-.028.366h-3.726a1.394,1.394,0,0,0,1.419,1.419,1.246,1.246,0,0,0,1.117-.6h1.025a2.1,2.1,0,0,1-2.133,1.391,2.292,2.292,0,0,1-2.463-2.49m3.726-.448a1.287,1.287,0,0,0-1.309-1.254,1.349,1.349,0,0,0-1.355,1.254Z" transform="translate(-662.336 -351.187)" fill="#fff"/>
    <path id="Trazado_232" data-name="Trazado 232" d="M785.353,386.734a2.29,2.29,0,0,1,2.462-2.49A2.054,2.054,0,0,1,790.022,386h-1.007a1.173,1.173,0,0,0-1.208-.924c-.806,0-1.391.568-1.391,1.657s.586,1.648,1.391,1.648a1.166,1.166,0,0,0,1.208-.915h1.007a2.054,2.054,0,0,1-2.206,1.758,2.29,2.29,0,0,1-2.462-2.49" transform="translate(-717.786 -351.186)" fill="#fff"/>
    <path id="Trazado_233" data-name="Trazado 233" d="M846.757,371.2v-6.536h1.034v2.49h.091a1.974,1.974,0,0,1,3.561,1.309V371.2h-1.035v-2.655c0-.888-.458-1.318-1.19-1.318a1.368,1.368,0,0,0-1.428,1.52V371.2Z" transform="translate(-773.907 -333.292)" fill="#fff"/>
    <path id="Trazado_234" data-name="Trazado 234" d="M908.619,365.534a2.209,2.209,0,0,1,2.2-2.49,1.866,1.866,0,0,1,1.639.787h.091l.092-.659h.943V367.9h-.943l-.092-.677h-.091a1.84,1.84,0,0,1-1.639.806,2.213,2.213,0,0,1-2.2-2.49m3.955,0a1.437,1.437,0,0,0-1.455-1.629c-.842,0-1.437.568-1.437,1.629a1.457,1.457,0,1,0,2.893,0m-2.014-2.994.76-1.492h1.263l-1.153,1.492Z" transform="translate(-830.447 -329.986)" fill="#fff"/>
    <path id="Trazado_235" data-name="Trazado 235" d="M1003.528,386.734a2.208,2.208,0,0,1,2.2-2.49,1.867,1.867,0,0,1,1.639.787h.091l.092-.659h.943V389.1h-.943l-.092-.678h-.091a1.84,1.84,0,0,1-1.639.806,2.213,2.213,0,0,1-2.2-2.49m3.955,0a1.437,1.437,0,0,0-1.456-1.629c-.842,0-1.437.568-1.437,1.629a1.457,1.457,0,1,0,2.893,0" transform="translate(-917.19 -351.186)" fill="#fff"/>
    <path id="Trazado_236" data-name="Trazado 236" d="M1100.566,388.38v-2.646h1.034v2.646a1.169,1.169,0,0,0,1.309,1.318,1.2,1.2,0,0,0,1.309-1.364v-2.6h1.034v2.6a2.052,2.052,0,0,1-2.344,2.252c-1.455,0-2.343-.65-2.343-2.206" transform="translate(-1005.88 -352.548)" fill="#fff"/>
    <path id="Trazado_237" data-name="Trazado 237" d="M1164.1,389.1v-2.6a2.056,2.056,0,0,1,2.343-2.252c1.456,0,2.344.65,2.344,2.206V389.1h-1.034v-2.646a1.173,1.173,0,0,0-1.309-1.328,1.2,1.2,0,0,0-1.309,1.373v2.6Z" transform="translate(-1063.946 -351.187)" fill="#fff"/>
    <path id="Trazado_238" data-name="Trazado 238" d="M1255.817,386.734a2.29,2.29,0,0,1,2.463-2.49,2.054,2.054,0,0,1,2.206,1.758h-1.007a1.173,1.173,0,0,0-1.208-.924c-.806,0-1.391.568-1.391,1.657s.586,1.648,1.391,1.648a1.166,1.166,0,0,0,1.208-.915h1.007a2.054,2.054,0,0,1-2.206,1.758,2.29,2.29,0,0,1-2.463-2.49" transform="translate(-1147.774 -351.186)" fill="#fff"/>
    <rect id="Rect치ngulo_1100" data-name="Rect치ngulo 1100" width="1.034" height="6.536" transform="translate(113.32 31.374)" fill="#fff"/>
    <path id="Trazado_239" data-name="Trazado 239" d="M1337.861,363.915a.632.632,0,1,1,.631.632.611.611,0,0,1-.631-.632m.11,1.3h1.034v4.724h-1.034Z" transform="translate(-1222.759 -332.028)" fill="#fff"/>
    <path id="Trazado_240" data-name="Trazado 240" d="M1358.535,386.734a2.29,2.29,0,0,1,2.463-2.49A2.054,2.054,0,0,1,1363.2,386H1362.2a1.173,1.173,0,0,0-1.208-.924c-.806,0-1.391.568-1.391,1.657s.586,1.648,1.391,1.648a1.165,1.165,0,0,0,1.208-.915h1.007a2.054,2.054,0,0,1-2.206,1.758,2.29,2.29,0,0,1-2.463-2.49" transform="translate(-1241.655 -351.186)" fill="#fff"/>
    <path id="Trazado_241" data-name="Trazado 241" d="M1447.378,368.84a2.213,2.213,0,0,1,2.2-2.49,1.846,1.846,0,0,1,1.639.787h.091v-2.472h1.034V371.2h-.943l-.092-.678h-.091a1.841,1.841,0,0,1-1.639.806,2.208,2.208,0,0,1-2.2-2.49m3.954,0a1.437,1.437,0,0,0-1.456-1.629c-.842,0-1.437.568-1.437,1.629a1.457,1.457,0,1,0,2.893,0" transform="translate(-1322.854 -333.292)" fill="#fff"/>
    <path id="Trazado_242" data-name="Trazado 242" d="M1512.677,386.735a2.286,2.286,0,0,1,2.462-2.49,2.2,2.2,0,0,1,2.325,2.4,2.431,2.431,0,0,1-.028.366h-3.726a1.394,1.394,0,0,0,1.419,1.419,1.246,1.246,0,0,0,1.117-.6h1.025a2.1,2.1,0,0,1-2.133,1.391,2.292,2.292,0,0,1-2.462-2.49m3.726-.448a1.287,1.287,0,0,0-1.309-1.254,1.349,1.349,0,0,0-1.355,1.254Z" transform="translate(-1382.535 -351.187)" fill="#fff"/>
    <path id="Trazado_243" data-name="Trazado 243" d="M1603.437,368.84a2.213,2.213,0,0,1,2.2-2.49,1.846,1.846,0,0,1,1.639.787h.091v-2.472h1.035V371.2h-.943l-.092-.678h-.091a1.84,1.84,0,0,1-1.639.806,2.208,2.208,0,0,1-2.2-2.49m3.955,0a1.437,1.437,0,0,0-1.456-1.629c-.843,0-1.437.568-1.437,1.629a1.457,1.457,0,1,0,2.893,0" transform="translate(-1465.486 -333.292)" fill="#fff"/>
    <path id="Trazado_244" data-name="Trazado 244" d="M1669.9,363.915a.632.632,0,1,1,.632.632.611.611,0,0,1-.632-.632m.11,1.3h1.034v4.724h-1.034Z" transform="translate(-1526.235 -332.028)" fill="#fff"/>
    <path id="Trazado_245" data-name="Trazado 245" d="M1690.844,387.805a.529.529,0,0,1,.009-.119h1.025v.046c0,.385.375.7,1.1.7.687,0,1.1-.22,1.1-.677,0-.989-3.168-.073-3.168-2.014,0-.879.75-1.492,2.041-1.492,1.428,0,2.06.632,2.06,1.437v.1h-1.025v-.055c0-.375-.311-.7-1.034-.7-.65,0-1.016.229-1.016.668,0,1.025,3.167.073,3.167,2.023,0,.879-.723,1.5-2.124,1.5-1.556,0-2.133-.668-2.133-1.419" transform="translate(-1545.374 -351.186)" fill="#fff"/>
    <path id="Trazado_246" data-name="Trazado 246" d="M1745.162,377.038v-3.845h-1.108v-.879h1.108v-1.263h1.034v1.263h1.236v.879H1746.2v3.845Z" transform="translate(-1594.006 -339.128)" fill="#fff"/>
    <path id="Trazado_247" data-name="Trazado 247" d="M1785.967,386.734a2.209,2.209,0,0,1,2.2-2.49,1.867,1.867,0,0,1,1.639.787h.091l.092-.659h.943V389.1h-.943l-.092-.678h-.091a1.84,1.84,0,0,1-1.639.806,2.213,2.213,0,0,1-2.2-2.49m3.955,0a1.437,1.437,0,0,0-1.455-1.629c-.843,0-1.437.568-1.437,1.629a1.456,1.456,0,1,0,2.892,0" transform="translate(-1632.313 -351.186)" fill="#fff"/>
    <path id="Trazado_248" data-name="Trazado 248" d="M1853.51,389.1v-2.6a2.056,2.056,0,0,1,2.343-2.252c1.455,0,2.344.65,2.344,2.206V389.1h-1.035v-2.646a1.172,1.172,0,0,0-1.309-1.328,1.2,1.2,0,0,0-1.309,1.373v2.6Z" transform="translate(-1694.045 -351.187)" fill="#fff"/>
    <path id="Trazado_249" data-name="Trazado 249" d="M1915.171,386.734a2.29,2.29,0,0,1,2.463-2.49A2.054,2.054,0,0,1,1919.84,386h-1.007a1.173,1.173,0,0,0-1.208-.924c-.806,0-1.392.568-1.392,1.657s.586,1.648,1.392,1.648a1.165,1.165,0,0,0,1.208-.915h1.007a2.054,2.054,0,0,1-2.206,1.758,2.29,2.29,0,0,1-2.463-2.49" transform="translate(-1750.401 -351.186)" fill="#fff"/>
    <path id="Trazado_250" data-name="Trazado 250" d="M1975.106,363.915a.632.632,0,1,1,.631.632.611.611,0,0,1-.631-.632m.109,1.3h1.035v4.724h-1.035Z" transform="translate(-1805.18 -332.028)" fill="#fff"/>
    <path id="Trazado_251" data-name="Trazado 251" d="M1995.78,386.734a2.208,2.208,0,0,1,2.2-2.49,1.867,1.867,0,0,1,1.639.787h.091l.092-.659h.943V389.1h-.943l-.092-.678h-.091a1.84,1.84,0,0,1-1.639.806,2.213,2.213,0,0,1-2.2-2.49m3.955,0a1.437,1.437,0,0,0-1.455-1.629c-.842,0-1.437.568-1.437,1.629a1.457,1.457,0,1,0,2.893,0" transform="translate(-1824.075 -351.186)" fill="#fff"/>
  </g>
</svg>
