<svg xmlns="http://www.w3.org/2000/svg" width="31.001" height="31.001" viewBox="0 0 31.001 31.001">
  <path id="_Color" data-name=" ↳Color" d="M15.5,31A15.5,15.5,0,1,1,31,15.5,15.518,15.518,0,0,1,15.5,31ZM9.526,20.741a.4.4,0,1,0,0,.806H21.614a.4.4,0,1,0,0-.806Zm.673-7.353v0a37.275,37.275,0,0,0,.069,5.246l.01.133a1.243,1.243,0,0,0,1.251,1.058l.319.016c.573.031,1.18.054,1.912.075a.476.476,0,0,0,.137.023h3.361a.384.384,0,0,0,.129-.023c.726-.016,1.479-.046,2.241-.089a1.247,1.247,0,0,0,1.245-1.062v-.129a37.264,37.264,0,0,0,.068-5.248l.272.228a.4.4,0,0,0,.261.1.4.4,0,0,0,.267-.7c-1.588-1.378-3.287-2.708-5.051-3.953l-.147-.105a1.727,1.727,0,0,0-1.942,0l-.286.2c-1.73,1.232-3.384,2.529-4.918,3.856a.4.4,0,0,0-.068.591.405.405,0,0,0,.3.138h.009a.4.4,0,0,0,.29-.125l.006,0,.268-.226Z" fill="#fff"/>
</svg>
