<svg xmlns="http://www.w3.org/2000/svg" width="14.614" height="19.184" viewBox="0 0 14.614 19.184">
  <g id="noun-privacy-policy-3908089" transform="translate(-137.198 -0.001)">
    <path id="Trazado_5266" data-name="Trazado 5266" d="M148.048.328V3.746h3.418Zm-1.287,10.254L144.86,13a.681.681,0,0,1-.48.269H144.3a.608.608,0,0,1-.442-.173l-1.21-1.037a.695.695,0,0,1,.9-1.056l.672.576,1.459-1.863a.69.69,0,1,1,1.075.864Zm.73-5.7a.557.557,0,0,1-.557-.557V0h-7.681A2.057,2.057,0,0,0,137.2,2.056V17.131a2.057,2.057,0,0,0,2.055,2.055h10.5a2.057,2.057,0,0,0,2.055-2.055V4.879Zm1.152,6.356c0,3.4-3.8,5.05-3.956,5.127a.692.692,0,0,1-.211.038.813.813,0,0,1-.211-.038c-.154-.077-3.956-1.728-3.956-5.127v-2.8a.52.52,0,0,1,.346-.5L144.3,6.684a.476.476,0,0,1,.326,0l3.649,1.248a.52.52,0,0,1,.346.5v2.8Z" fill="#eb5d37"/>
  </g>
</svg>
